<?xml version="1.0" standalone="no"?>
<!DOCTYPE svg PUBLIC "-//W3C//DTD SVG 20010904//EN"
 "http://www.w3.org/TR/2001/REC-SVG-20010904/DTD/svg10.dtd">
<svg version="1.0" xmlns="http://www.w3.org/2000/svg"
 width="464.000000pt" height="466.000000pt" viewBox="0 0 464.000000 466.000000"
 preserveAspectRatio="xMidYMid meet">

<g transform="translate(0.000000,466.000000) scale(0.100000,-0.100000)"
fill="#000000" stroke="none">
<path d="M2295 4347 c-11 -8 -45 -27 -75 -44 -30 -16 -74 -42 -97 -56 -24 -15
-45 -27 -49 -27 -3 0 -18 -8 -32 -19 -15 -10 -48 -30 -73 -43 -78 -44 -94 -53
-109 -64 -8 -6 -40 -25 -70 -41 -30 -16 -74 -42 -97 -56 -24 -15 -45 -27 -48
-27 -2 0 -29 -16 -59 -35 -30 -19 -57 -35 -60 -35 -3 0 -30 -16 -60 -35 -30
-19 -58 -35 -61 -35 -4 0 -19 -8 -33 -19 -15 -10 -48 -30 -73 -43 -78 -44 -94
-53 -109 -64 -8 -6 -40 -25 -70 -41 -30 -16 -74 -42 -97 -56 -24 -15 -45 -27
-48 -27 -2 0 -29 -16 -59 -35 -30 -19 -58 -35 -61 -35 -4 0 -19 -8 -33 -19
-15 -10 -47 -29 -72 -43 -25 -14 -65 -37 -90 -52 -25 -14 -60 -34 -78 -43
l-32 -17 0 -1017 0 -1017 37 -23 c21 -13 49 -29 63 -36 14 -7 43 -24 65 -38
22 -14 49 -30 60 -35 11 -6 38 -21 60 -35 22 -13 54 -31 70 -39 17 -9 44 -25
60 -36 17 -10 44 -26 60 -35 17 -8 47 -25 67 -38 21 -12 61 -35 90 -51 29 -15
60 -34 68 -40 8 -7 26 -18 40 -24 14 -7 43 -23 65 -37 22 -14 49 -30 60 -35
11 -6 38 -21 60 -35 22 -13 54 -31 70 -39 17 -9 44 -25 60 -35 17 -11 58 -34
93 -53 35 -18 68 -39 74 -45 6 -7 14 -13 18 -13 7 0 54 -26 138 -77 21 -12 47
-27 59 -32 12 -6 41 -23 65 -38 24 -15 54 -33 68 -40 14 -7 43 -24 65 -37 22
-14 61 -35 87 -48 l47 -24 91 51 c49 29 94 55 98 60 9 10 -44 -17 -108 -55
-28 -17 -57 -30 -65 -30 -13 0 -15 128 -15 970 l0 971 62 -3 61 -3 21 -62 c12
-34 26 -67 32 -73 6 -6 35 -10 65 -8 43 2 55 7 57 22 2 10 -17 81 -43 158 -27
78 -44 143 -39 147 5 5 338 199 739 431 402 233 745 432 763 442 l32 20 -2
-1016 c-2 -558 0 -1012 4 -1008 4 4 9 465 10 1024 l3 1016 -300 173 c-165 95
-331 191 -370 214 -38 23 -212 124 -385 225 -173 100 -398 231 -500 291 -102
59 -192 110 -200 114 -8 3 -24 -1 -35 -8z m235 -116 c102 -60 327 -191 500
-291 173 -101 354 -206 401 -234 47 -28 208 -121 357 -206 149 -85 271 -158
272 -162 0 -3 -12 -13 -27 -20 -35 -18 -255 -144 -518 -298 -406 -237 -553
-320 -563 -320 -6 0 -12 -3 -14 -8 -7 -16 -411 -243 -418 -235 -5 4 -32 73
-60 153 -27 79 -56 148 -63 152 -6 4 -42 8 -79 8 -82 0 -77 6 -143 -182 -26
-76 -50 -138 -54 -138 -7 0 -114 58 -180 97 -34 20 -62 36 -121 70 -14 8 -47
27 -75 44 -27 16 -58 32 -67 35 -10 4 -18 10 -18 14 0 5 -12 13 -27 19 -16 6
-45 21 -65 34 -47 28 -211 122 -292 166 -33 19 -63 37 -66 41 -3 4 -32 21 -65
38 -33 17 -80 45 -105 61 -25 17 -49 31 -53 31 -4 0 -31 15 -60 33 -29 18 -77
46 -107 61 -30 16 -73 40 -95 55 -23 14 -66 39 -97 56 l-56 29 31 20 c35 21
78 45 147 84 25 14 57 33 72 43 14 11 29 19 33 19 3 0 31 16 61 35 30 19 57
35 59 35 3 0 24 12 48 27 23 14 67 40 97 56 30 16 62 35 70 41 15 11 31 20
109 64 25 13 58 33 73 43 14 11 29 19 33 19 3 0 31 16 61 35 30 19 57 35 60
35 3 0 30 16 60 35 30 19 57 35 59 35 3 0 24 12 48 27 23 14 67 40 97 56 30
16 62 35 70 41 15 11 31 20 109 64 25 13 58 33 73 43 14 11 29 19 32 19 4 0
25 12 49 27 23 14 67 40 97 56 30 17 64 36 75 44 11 7 27 11 35 8 8 -4 98 -55
200 -114z m-1859 -977 c8 -8 19 -14 23 -14 5 0 1400 -805 1416 -817 2 -3 -17
-69 -44 -148 -27 -80 -46 -152 -42 -160 4 -13 18 -15 63 -13 l58 3 25 73 25
72 57 0 58 0 -1 -977 c0 -892 -1 -976 -16 -956 -8 13 -23 23 -33 23 -9 0 -27
9 -40 20 -13 11 -28 20 -34 20 -6 0 -19 9 -29 20 -9 11 -24 20 -32 20 -8 0
-15 4 -15 10 0 5 -18 14 -40 20 -22 6 -40 14 -40 19 0 5 -19 16 -42 25 -24 9
-56 27 -72 41 -17 14 -40 28 -53 31 -13 4 -23 10 -23 14 0 5 -10 12 -22 16
-13 3 -30 13 -40 21 -9 8 -24 16 -33 17 -9 1 -21 9 -26 17 -5 8 -9 10 -9 4 0
-7 -3 -7 -8 0 -8 12 -36 30 -72 47 -14 7 -27 15 -30 19 -8 10 -94 53 -102 51
-5 -1 -8 2 -8 7 0 4 -38 27 -85 51 -47 24 -85 47 -85 51 0 5 -6 9 -13 9 -8 0
-24 9 -37 20 -13 11 -34 23 -47 26 -13 4 -23 10 -23 14 0 4 -10 10 -23 14 -13
3 -34 15 -47 26 -13 11 -29 20 -37 20 -7 0 -13 4 -13 8 0 4 -30 23 -67 42 -38
19 -74 40 -81 47 -7 7 -19 13 -26 13 -7 0 -23 9 -36 20 -13 11 -29 20 -37 20
-7 0 -13 4 -13 9 0 5 -16 15 -35 21 -19 6 -35 16 -35 21 0 5 -6 9 -13 9 -8 0
-24 9 -37 20 -13 11 -27 20 -31 20 -5 0 -25 11 -45 25 -21 14 -44 23 -51 21
-11 -4 -13 176 -13 1005 l0 1011 48 -27 c26 -15 54 -34 63 -41z m1711 -886
c-21 -8 -100 -8 -129 0 -22 7 -21 7 20 136 l42 129 42 -129 c38 -116 40 -130
25 -136z"/>
<path d="M1433 3449 c-19 -19 -18 -418 0 -444 12 -16 25 -17 113 -13 147 7
199 38 211 126 6 47 -17 98 -52 114 l-24 11 24 29 c44 52 27 139 -32 168 -39
19 -224 26 -240 9z m191 -91 c21 -30 20 -44 -4 -68 -13 -13 -33 -20 -60 -20
l-40 0 0 55 0 55 44 0 c35 0 48 -5 60 -22z m14 -184 c14 -10 22 -26 22 -44 0
-39 -32 -60 -92 -60 l-48 0 0 60 0 60 48 0 c27 0 57 -7 70 -16z"/>
<path d="M1856 3445 c-10 -28 -7 -298 5 -340 22 -79 81 -119 179 -119 85 0
142 28 170 84 19 37 20 56 18 213 l-3 172 -40 0 -40 0 -5 -168 -5 -169 -28
-24 c-53 -45 -137 -23 -152 39 -3 12 -6 90 -8 172 l-2 150 -41 3 c-31 2 -43
-1 -48 -13z"/>
<path d="M2357 3453 c-4 -3 -7 -106 -7 -229 l0 -222 29 -7 c17 -3 39 -1 50 5
20 10 21 19 21 223 0 152 -3 216 -12 225 -13 13 -70 17 -81 5z"/>
<path d="M2575 3448 c-3 -7 -4 -112 -3 -233 l3 -220 120 0 120 0 0 40 0 40
-77 3 -78 3 -2 187 -3 187 -38 3 c-24 2 -39 -1 -42 -10z"/>
<path d="M2902 3448 c-9 -9 -12 -71 -12 -219 0 -256 -7 -244 130 -236 96 5
157 22 193 55 53 48 81 174 58 260 -17 62 -72 119 -134 137 -61 18 -218 20
-235 3z m223 -90 c71 -55 74 -202 6 -262 -15 -13 -41 -21 -81 -24 l-60 -4 0
156 0 156 54 0 c40 0 60 -6 81 -22z"/>
<path d="M1497 1819 c-156 -37 -247 -207 -219 -409 18 -123 57 -187 143 -235
48 -26 63 -30 139 -29 144 0 200 31 200 113 0 26 -3 50 -6 54 -4 3 -27 -4 -53
-17 -135 -68 -244 -23 -271 111 -27 127 10 240 90 281 54 27 100 23 174 -15
57 -29 66 -23 66 43 0 49 -24 75 -93 98 -52 17 -110 19 -170 5z"/>
<path d="M1902 1808 c-17 -17 -17 -629 0 -646 8 -8 65 -12 190 -12 l178 0 6
24 c3 13 4 37 2 52 l-3 29 -122 9 -123 9 0 83 0 83 103 3 102 3 0 50 0 50
-102 3 -103 3 0 74 0 75 113 0 c125 0 137 5 137 56 0 66 5 64 -189 64 -124 0
-181 -4 -189 -12z"/>
<path d="M2443 1813 c-10 -4 -13 -78 -13 -323 0 -294 1 -320 18 -327 9 -5 89
-6 177 -3 l160 5 3 29 c2 15 1 39 -2 52 -6 23 -9 24 -116 24 l-110 0 0 269 c0
298 4 282 -68 280 -20 0 -43 -3 -49 -6z"/>
<path d="M2917 1814 c-16 -5 -17 -27 -15 -327 l3 -322 175 0 175 0 3 29 c2 15
1 39 -2 52 -6 23 -9 24 -111 24 l-105 0 0 258 c0 141 -4 263 -9 271 -9 14 -83
23 -114 15z"/>
<path d="M3938 1227 c-48 -28 -86 -53 -84 -55 4 -4 176 97 176 103 0 7 2 8
-92 -48z"/>
<path d="M3805 1150 c-16 -11 -25 -20 -20 -20 10 0 64 39 55 40 -3 0 -18 -9
-35 -20z"/>
<path d="M3678 1077 c-48 -28 -86 -53 -84 -55 4 -4 176 97 176 103 0 7 2 8
-92 -48z"/>
<path d="M3545 1000 c-16 -11 -25 -20 -20 -20 10 0 64 39 55 40 -3 0 -18 -9
-35 -20z"/>
<path d="M3403 918 c-40 -23 -71 -43 -69 -45 3 -3 132 69 143 81 13 13 -5 4
-74 -36z"/>
<path d="M3285 850 c-16 -11 -25 -20 -20 -20 10 0 64 39 55 40 -3 0 -18 -9
-35 -20z"/>
<path d="M3158 778 c-48 -29 -86 -53 -84 -55 4 -4 176 96 176 103 0 6 1 7 -92
-48z"/>
<path d="M3028 704 c-16 -8 -28 -17 -28 -19 0 -10 16 -4 40 15 30 23 25 25
-12 4z"/>
<path d="M2898 627 c-48 -28 -86 -53 -84 -55 4 -4 176 97 176 103 0 7 2 8 -92
-48z"/>
<path d="M2774 554 c-18 -14 -18 -15 4 -4 12 6 22 13 22 15 0 8 -5 6 -26 -11z"/>
<path d="M2683 503 c-34 -21 -61 -39 -59 -40 4 -5 126 66 126 72 0 7 1 7 -67
-32z"/>
<path d="M2575 440 c-16 -11 -25 -20 -20 -20 10 0 64 39 55 40 -3 0 -18 -9
-35 -20z"/>
</g>
</svg>
