<?xml version="1.0" standalone="no"?>
<!DOCTYPE svg PUBLIC "-//W3C//DTD SVG 20010904//EN"
 "http://www.w3.org/TR/2001/REC-SVG-20010904/DTD/svg10.dtd">
<svg version="1.0" xmlns="http://www.w3.org/2000/svg"
 width="225.000000pt" height="225.000000pt" viewBox="0 0 225.000000 225.000000"
 preserveAspectRatio="xMidYMid meet">

<g transform="translate(0.000000,225.000000) scale(0.100000,-0.100000)"
fill="#000000" stroke="none">
<path d="M1005 2180 c-240 -26 -496 -154 -661 -332 -122 -133 -207 -292 -256
-482 -32 -120 -31 -356 1 -480 51 -198 138 -353 276 -492 94 -95 170 -151 273
-204 408 -207 902 -128 1227 196 499 499 375 1340 -246 1673 -185 100 -406
143 -614 121z m360 -39 c377 -94 672 -388 767 -767 32 -125 31 -358 0 -489
-30 -122 -123 -307 -207 -412 -225 -281 -609 -428 -964 -369 -242 41 -424 137
-592 313 -124 130 -207 282 -262 483 -30 111 -30 361 1 476 53 197 135 344
267 479 159 163 366 271 580 305 95 14 318 4 410 -19z"/>
<path d="M1032 2104 c-42 -29 -19 -94 34 -94 14 0 27 7 31 15 7 21 -6 33 -17
16 -13 -22 -40 -5 -40 25 0 24 3 26 30 21 34 -7 40 7 11 23 -25 13 -22 13 -49
-6z"/>
<path d="M970 2073 c0 -48 8 -73 22 -73 7 0 8 18 3 48 -9 62 -25 78 -25 25z"/>
<path d="M1247 2064 c-47 -27 -75 -49 -71 -56 5 -7 2 -8 -5 -4 -7 5 -28 -3
-49 -18 -25 -17 -61 -29 -107 -35 -351 -51 -627 -313 -699 -663 -16 -79 -20
-230 -6 -283 6 -24 8 -26 9 -7 0 12 7 22 14 22 6 0 4 5 -5 11 -19 11 -26 89
-9 89 16 0 50 -84 39 -97 -8 -9 -6 -13 4 -13 8 0 24 -20 35 -44 24 -49 51 -63
83 -46 30 16 34 7 16 -28 -9 -17 -13 -37 -10 -45 3 -10 -1 -17 -13 -19 -10 -2
5 -8 32 -12 28 -4 53 -12 56 -18 4 -5 9 -3 12 6 4 9 2 16 -3 16 -6 0 -10 17
-10 39 0 23 -8 48 -20 64 -31 40 -17 59 39 53 l46 -5 -43 10 c-23 6 -42 13
-42 17 1 4 18 41 38 82 39 79 39 79 105 66 15 -3 27 -1 27 4 0 6 -16 10 -35
10 -19 0 -35 5 -35 11 0 6 14 31 32 57 27 39 32 43 38 27 5 -15 8 -13 13 14 8
38 31 38 32 0 0 -17 6 -25 23 -27 35 -5 45 -44 33 -123 -10 -62 -9 -70 14
-113 19 -36 21 -46 10 -46 -8 0 -15 6 -15 14 0 25 -34 56 -69 63 -33 6 -34 5
-26 -18 4 -13 8 -34 9 -46 0 -13 4 -23 8 -23 3 0 14 -22 23 -49 9 -27 25 -57
36 -67 11 -10 18 -26 16 -35 -3 -11 8 -24 34 -40 21 -13 39 -29 39 -34 0 -6
15 -20 33 -30 l32 -20 -74 -3 c-61 -2 -75 0 -87 15 -12 15 -13 15 -8 1 3 -10
-1 -18 -13 -21 -15 -4 -14 -5 4 -6 12 0 31 -13 43 -28 l22 -28 -16 28 -16 27
69 0 c56 0 72 -3 80 -17 9 -15 10 -15 11 -2 0 13 8 14 48 9 49 -7 112 -34 112
-50 0 -5 -15 -25 -34 -44 -33 -36 -86 -50 -86 -23 0 9 -2 9 -8 0 -4 -6 -21
-13 -37 -16 -29 -4 -28 -4 6 -6 30 -1 38 -6 52 -36 9 -19 20 -34 24 -33 5 2
25 -7 46 -20 41 -24 45 -49 7 -44 -19 2 -21 0 -11 -12 7 -8 19 -12 27 -9 8 3
14 1 14 -5 0 -16 -26 -22 -40 -9 -10 9 -11 9 -5 -2 6 -10 2 -12 -16 -7 -13 3
-18 3 -11 0 6 -3 12 -12 12 -19 0 -8 11 -12 33 -10 17 2 57 4 87 5 30 1 49 4
41 7 -10 4 -8 9 10 20 l24 14 -23 -7 c-34 -9 -75 -12 -88 -7 -6 2 -11 17 -12
32 0 24 3 27 23 23 23 -4 23 -5 8 -31 l-15 -26 26 28 c14 16 31 25 37 21 8 -4
7 -9 -2 -15 -7 -4 -10 -11 -6 -15 3 -4 13 -1 22 6 12 10 18 10 29 1 11 -9 20
-9 35 -2 25 14 94 15 86 1 -9 -14 0 -13 56 12 l50 21 57 -26 c31 -14 66 -28
77 -31 47 -11 95 -15 95 -8 0 27 -35 121 -53 139 l-20 23 60 63 c34 35 79 91
101 125 106 165 164 410 132 557 -7 34 -8 27 -7 -40 3 -109 -16 -112 -62 -9
-19 42 -34 82 -34 90 0 8 -9 14 -19 14 -11 0 -18 7 -18 18 0 10 -11 52 -25 92
-14 40 -25 77 -25 81 0 4 13 10 30 14 16 4 32 11 35 15 3 5 -12 3 -34 -5 l-40
-14 -21 37 c-22 36 -22 37 -4 89 l18 54 33 -38 c18 -21 56 -83 84 -138 28 -55
47 -89 43 -75 -13 49 -73 157 -115 210 -124 157 -269 252 -464 303 l-90 24 58
59 57 59 -6 -45 -6 -45 21 25 20 25 10 -27 c15 -40 35 -48 27 -11 -5 23 -3 32
8 36 28 11 17 36 -26 57 -23 11 -47 20 -52 20 -6 0 -46 -21 -89 -46z m144 -7
c-1 -12 -15 -9 -19 4 -3 6 1 10 8 8 6 -3 11 -8 11 -12z m-143 -43 c-47 -45
-60 -62 -35 -48 6 4 -19 -24 -57 -62 -43 -43 -70 -64 -73 -56 -4 10 -8 10 -18
2 -8 -7 -24 -10 -37 -8 -22 4 -22 5 -3 12 57 22 66 27 60 36 -4 7 -13 7 -26 0
-32 -17 -21 4 12 24 33 20 49 15 29 -9 -7 -8 -9 -15 -5 -15 4 0 2 -7 -5 -15
-7 -8 -8 -15 -2 -15 13 0 33 25 27 33 -3 4 -2 5 1 2 9 -6 87 56 79 63 -3 3
-21 -9 -40 -28 l-34 -33 3 28 c2 23 19 40 77 81 91 65 109 68 47 8z m-93 -24
c-9 -15 -65 -52 -65 -43 0 4 15 18 33 30 37 25 40 27 32 13z m-137 -86 c-9 -9
-21 -13 -28 -9 -14 9 5 25 30 25 12 0 12 -3 -2 -16z m-31 -69 c-7 -14 -18 -25
-26 -25 -10 0 -7 8 9 25 29 31 31 31 17 0z m303 5 c-19 -12 -50 -13 -50 -1 0
9 50 20 60 13 2 -2 -2 -7 -10 -12z m-480 -15 c-12 -13 -27 -22 -33 -18 -6 4
-1 14 12 25 34 26 48 22 21 -7z m323 -2 c-7 -2 -21 -2 -30 0 -10 3 -4 5 12 5
17 0 24 -2 18 -5z m-83 -21 c0 -13 -111 -102 -128 -102 -15 0 44 57 97 92 30
20 31 21 31 10z m335 -2 c3 -5 -3 -10 -14 -10 -11 0 -23 5 -26 10 -3 6 3 10
14 10 11 0 23 -4 26 -10z m-516 -7 c0 -5 -30 -23 -67 -41 -74 -36 -190 -124
-199 -150 -4 -9 -12 -20 -19 -24 -19 -12 -86 -117 -80 -126 3 -5 -4 -21 -15
-38 -10 -16 -19 -37 -19 -46 0 -10 -4 -18 -9 -18 -5 0 -5 16 1 38 5 20 12 49
15 65 3 15 9 27 13 27 7 0 77 101 107 153 7 12 13 19 13 14 0 -4 32 16 70 44
63 45 161 104 183 108 4 0 7 -2 6 -6z m25 -24 c-25 -27 -7 -23 28 6 24 21 78
35 78 21 0 -2 -30 -29 -66 -60 -45 -38 -74 -56 -92 -56 l-27 1 26 14 c29 16
41 37 33 59 -3 7 2 16 11 20 9 3 13 11 9 17 -5 8 -3 9 5 5 9 -6 8 -13 -5 -27z
m-144 12 c0 -13 -30 -35 -53 -38 -19 -3 -18 0 8 21 32 27 45 32 45 17z m860 5
c0 -3 -4 -8 -10 -11 -5 -3 -10 -1 -10 4 0 6 5 11 10 11 6 0 10 -2 10 -4z
m-190 -47 c0 -15 -48 -10 -64 7 -23 22 -21 23 24 12 22 -6 40 -14 40 -19z
m250 -4 c29 -30 32 -37 20 -45 -8 -5 -19 -10 -25 -10 -5 0 -4 -4 4 -9 11 -7
12 -15 5 -31 -9 -21 -13 -19 -62 38 -29 33 -52 63 -52 66 0 8 39 25 61 25 8 1
31 -15 49 -34z m-465 -1 c24 -37 13 -39 -20 -4 -21 22 -24 30 -13 30 9 0 23
-12 33 -26z m-345 -3 c0 -7 -51 -31 -66 -31 -13 0 -1 29 14 33 30 8 52 7 52
-2z m716 -28 c16 -21 28 -41 26 -45 -1 -5 4 -8 12 -8 7 0 21 -11 30 -25 15
-23 15 -25 -2 -34 -30 -16 -58 -16 -77 -1 -14 12 -19 12 -23 2 -5 -16 -32 3
-32 23 0 7 -7 15 -15 19 -9 3 -15 18 -15 36 0 77 49 94 96 33z m-511 -3 c8
-13 -40 -24 -62 -15 -16 7 -15 9 7 15 36 11 48 11 55 0z m278 -11 c4 -15 11
-19 25 -15 15 5 21 -1 29 -29 10 -33 10 -35 -10 -34 -25 1 -92 73 -82 89 11
17 32 11 38 -11z m-443 -19 c0 -5 -4 -10 -10 -10 -5 0 -10 5 -10 10 0 6 5 10
10 10 6 0 10 -4 10 -10z m-350 -9 c0 -5 -9 -19 -20 -32 -20 -24 -20 -22 -5 26
5 16 25 21 25 6z m300 -4 c-35 -15 -36 -17 -20 -27 8 -5 11 -12 7 -17 -5 -4
-11 -3 -15 2 -4 6 -13 10 -19 11 -32 3 -36 7 -13 13 14 4 24 13 23 19 -2 7 10
12 30 11 32 0 32 0 7 -12z m-90 -8 c-25 -5 -46 -13 -48 -19 -2 -5 -16 -10 -31
-10 -14 0 -37 -8 -50 -17 -14 -9 -21 -11 -17 -4 14 22 100 56 146 58 l45 1
-45 -9z m205 -6 c19 -9 35 -21 35 -26 0 -5 -6 -5 -13 1 -7 7 -29 18 -48 26
-19 9 -29 15 -22 16 7 0 28 -8 48 -17z m-85 3 c0 -3 -4 -8 -10 -11 -5 -3 -10
-1 -10 4 0 6 5 11 10 11 6 0 10 -2 10 -4z m290 -6 c0 -5 -18 -10 -40 -10 -22
0 -40 5 -40 10 0 6 18 10 40 10 22 0 40 -4 40 -10z m-342 -43 c22 -17 13 -26
-19 -17 -18 5 -36 7 -40 4 -5 -3 -9 0 -9 5 0 6 6 11 13 11 8 0 7 4 -3 10 -11
8 -7 9 15 4 17 -4 36 -11 43 -17z m522 13 c0 -5 -4 -10 -10 -10 -5 0 -10 5
-10 10 0 6 5 10 10 10 6 0 10 -4 10 -10z m159 -14 c9 -11 10 -20 1 -35 -8 -15
-8 -21 0 -21 8 0 9 -16 4 -47 -7 -55 -10 -59 -44 -68 -23 -5 -27 -1 -49 60
-13 36 -25 65 -27 63 -2 -2 9 -38 23 -80 22 -66 28 -75 40 -62 8 8 23 14 34
14 15 0 19 -7 19 -34 0 -22 -6 -36 -16 -40 -25 -10 -32 -7 -37 12 -2 9 -3 7
-2 -5 2 -25 -21 -49 -84 -86 l-43 -25 23 -15 c13 -9 36 -21 52 -28 15 -7 27
-16 27 -21 0 -5 9 -6 20 -3 13 4 22 1 26 -9 4 -10 15 -13 40 -9 39 6 46 -10
13 -28 -17 -9 -23 -8 -30 2 -6 10 -9 8 -9 -7 0 -16 -12 -27 -49 -43 -27 -11
-54 -21 -60 -21 -5 0 -14 -7 -19 -16 -12 -22 -19 -8 -28 54 -6 46 -5 52 12 53
17 1 17 2 2 6 -10 2 -20 14 -22 26 -14 69 -15 109 -4 128 11 17 10 22 -6 35
-17 12 -22 12 -37 -2 -15 -13 -16 -20 -6 -42 6 -15 17 -31 24 -35 7 -4 13 -26
13 -48 0 -35 -2 -40 -19 -34 -24 7 -56 -32 -41 -50 6 -7 7 -26 4 -44 -6 -29
-4 -31 22 -32 16 -1 35 -1 42 0 15 2 16 -11 0 -27 -10 -10 -10 -17 1 -34 12
-19 11 -20 -8 -15 -12 3 -33 -1 -48 -8 l-25 -13 23 -4 c20 -3 24 -8 21 -36 -3
-27 1 -34 23 -42 21 -8 24 -14 19 -37 -10 -48 -14 -54 -24 -48 -6 4 -7 11 -4
17 20 32 -76 29 -113 -4 -31 -29 -49 -19 -24 13 12 16 21 45 23 74 3 43 6 50
28 55 23 6 23 7 -10 14 -19 3 -43 7 -52 7 -13 0 -18 9 -19 32 -2 30 -2 29 -8
-8 -5 -31 -11 -41 -31 -46 -20 -6 -21 -7 -5 -8 19 -1 18 -3 -5 -21 -14 -11
-36 -20 -50 -19 -53 2 -53 2 -48 -56 4 -50 3 -55 -16 -56 -36 -2 56 -21 107
-23 l47 -1 0 -45 c0 -45 -1 -46 -33 -47 -25 -1 -36 5 -43 20 -5 11 -21 24 -35
28 -41 10 -78 39 -72 55 3 9 -2 14 -13 15 -13 0 -30 23 -56 77 -20 42 -34 79
-31 82 3 3 8 0 10 -7 2 -7 18 -28 34 -49 l29 -37 0 42 0 41 78 2 77 2 -80 5
-80 6 -3 73 c-2 50 1 72 8 67 5 -3 10 -19 10 -36 0 -16 5 -29 11 -29 20 0 69
41 84 70 15 28 15 28 111 29 53 0 99 2 102 5 3 3 -18 6 -46 6 -35 0 -52 4 -53
13 0 10 -2 10 -6 0 -3 -8 -23 -13 -48 -13 -36 0 -44 4 -49 23 -9 33 -7 125 2
131 14 9 82 -16 82 -30 0 -7 -9 -16 -20 -19 -11 -3 -20 -11 -20 -17 0 -5 9
-12 20 -15 11 -3 20 -10 20 -16 0 -6 7 -1 17 12 13 19 14 28 5 42 -16 25 -15
29 6 29 21 0 95 46 134 84 15 14 40 26 55 27 l28 1 -25 7 c-15 5 -23 14 -21
22 2 8 4 48 5 89 1 70 3 75 25 78 13 2 28 -4 36 -15 13 -17 14 -17 8 5 -3 13
-1 22 6 22 6 0 11 -8 11 -19 0 -25 24 -43 52 -39 18 2 24 10 26 36 4 35 13 40
31 18z m-763 -18 c9 -15 -37 -58 -62 -58 -18 0 -22 4 -17 18 6 15 4 15 -18 -3
-13 -11 -7 -1 14 22 38 39 67 47 83 21z m185 -21 c-7 -7 -17 -5 -31 8 -27 24
-15 39 16 18 17 -11 22 -19 15 -26z m44 -3 c18 -43 18 -44 6 -44 -11 0 -41 62
-35 72 9 14 13 9 29 -28z m-213 -16 c-12 -12 -25 -18 -29 -14 -4 4 3 16 16 27
31 25 41 15 13 -13z m343 -6 c28 -36 17 -31 -35 16 -17 15 -20 22 -10 22 8 0
28 -17 45 -38z m478 -8 c-3 -9 0 -14 8 -12 9 2 13 -4 11 -16 -2 -12 1 -16 9
-10 7 4 10 3 5 -4 -6 -11 27 -76 35 -68 2 2 5 -7 6 -22 1 -21 -4 -16 -29 26
-16 29 -32 52 -35 52 -3 0 7 -20 21 -44 30 -51 32 -66 10 -66 -8 0 -12 -4 -9
-10 11 -17 -5 -32 -21 -19 -17 14 -19 -2 -1 -21 9 -11 8 -11 -7 0 -11 8 -20
13 -20 11 -2 -8 -46 11 -46 20 0 14 11 11 34 -8 12 -10 8 -3 -8 15 -34 37 -25
43 13 10 14 -13 11 -6 -8 14 -19 21 -32 40 -29 44 6 5 36 -24 74 -72 11 -14
14 -15 13 -4 -3 30 1 41 12 34 17 -10 -21 52 -54 89 l-28 32 27 -38 c33 -46
27 -58 -10 -17 -20 23 -25 36 -20 58 12 49 24 65 39 52 8 -6 11 -18 8 -26z
m-679 16 c35 -13 34 -32 -1 -24 -55 12 -59 14 -43 24 18 12 14 12 44 0z m292
-4 c10 -8 16 -17 13 -21 -9 -8 -59 16 -53 26 7 13 17 11 40 -5z m519 -15 c14
-29 14 -29 -17 -40 -43 -15 -51 -14 -67 10 -10 17 -10 23 0 29 7 5 17 6 24 4
6 -3 18 2 25 11 17 20 17 20 35 -14z m-1025 -24 c-19 -16 -100 -122 -100 -131
0 -4 18 15 40 42 40 51 58 67 66 60 7 -7 -97 -118 -106 -113 -5 3 -22 -14 -39
-37 -31 -42 -40 -65 -21 -53 6 3 10 2 10 -4 0 -5 -4 -12 -9 -15 -4 -3 -14 -26
-21 -51 -17 -61 -44 -59 -48 4 -2 28 0 41 7 36 6 -3 11 -16 11 -28 0 -19 3
-18 20 11 23 37 25 46 9 36 -15 -9 -3 27 33 99 16 32 26 63 22 69 -4 6 -3 8 4
4 6 -3 18 4 26 16 19 28 75 67 96 67 13 0 13 -1 0 -12z m86 3 c15 -6 25 -13
22 -15 -3 -3 -20 1 -39 9 -38 17 -25 21 17 6z m73 -45 c13 -14 22 -28 19 -30
-2 -3 -17 9 -33 25 -16 17 -25 30 -19 30 5 0 20 -12 33 -25z m910 -37 c11 -35
23 -82 27 -105 9 -59 -15 -58 -55 1 -24 37 -71 130 -71 142 0 3 55 21 72 23 3
1 16 -27 27 -61z m-1319 2 c-6 -11 -16 -20 -22 -20 -9 0 -9 3 0 12 7 7 12 23
12 38 1 22 2 23 11 8 7 -12 6 -24 -1 -38z m804 14 c6 -15 -12 -18 -30 -6 -6 4
-13 15 -17 24 -5 15 -3 16 18 6 13 -6 26 -17 29 -24z m-126 -28 c-5 -35 -26
-28 -30 9 -2 20 -2 38 1 41 9 9 32 -30 29 -50z m-157 27 c31 -18 35 -28 19
-38 -5 -3 -10 -1 -10 5 0 6 -11 16 -25 22 -14 6 -25 15 -25 20 0 12 8 10 41
-9z m609 -20 c17 -22 28 -29 24 -18 -5 16 -4 18 6 8 8 -7 9 -17 3 -27 -7 -13
-15 -8 -46 29 -21 25 -34 45 -28 45 5 0 24 -17 41 -37z m-820 -19 c14 -36 12
-46 -7 -42 -13 2 -18 13 -18 36 0 38 12 42 25 6z m72 -36 c-2 -10 -8 -15 -13
-12 -11 6 -12 58 -2 68 10 9 21 -33 15 -56z m-277 22 c-9 -16 -18 -30 -21 -30
-2 0 2 14 11 30 9 17 18 30 21 30 2 0 -2 -13 -11 -30z m645 -12 c0 -10 -4 -18
-9 -18 -11 0 -22 40 -14 53 7 12 23 -12 23 -35z m-310 -53 c0 -26 -15 -41 -25
-26 -8 14 5 62 16 55 5 -3 9 -16 9 -29z m95 5 c10 -11 15 -23 12 -27 -8 -7
-47 25 -47 39 0 14 16 9 35 -12z m705 16 c0 -3 -4 -8 -10 -11 -5 -3 -10 -1
-10 4 0 6 5 11 10 11 6 0 10 -2 10 -4z m-1230 -101 l-7 -90 -1 70 c-2 61 6
121 13 113 1 -2 -1 -43 -5 -93z m1095 75 c17 -11 26 -20 22 -20 -11 0 -67 29
-67 35 0 10 16 4 45 -15z m-16 -15 c35 -17 48 -30 46 -42 -2 -10 -4 -25 -4
-33 -1 -9 -4 -11 -9 -5 -4 6 -32 18 -62 28 -30 9 -62 21 -70 26 -25 17 -3 23
27 8 15 -8 39 -17 53 -21 14 -3 5 3 -19 14 -36 17 -41 23 -31 35 16 19 12 19
69 -10z m121 -3 c0 -5 -9 -17 -20 -27 -11 -10 -20 -13 -20 -7 0 7 5 12 10 12
6 0 10 7 10 15 0 8 5 15 10 15 6 0 10 -4 10 -8z m30 -28 c0 -8 -4 -12 -10 -9
-5 3 -10 10 -10 16 0 5 5 9 10 9 6 0 10 -7 10 -16z m-186 -29 c61 -23 58 -39
-7 -29 -30 4 -30 4 -8 -6 14 -6 39 -8 55 -5 22 4 27 3 17 -3 -11 -8 -9 -11 10
-15 20 -3 18 -5 -8 -6 -38 -1 -146 37 -138 49 7 11 -24 22 -38 13 -7 -3 -3 3
8 15 11 12 27 18 35 15 8 -3 41 -16 74 -28z m330 9 c3 -8 1 -24 -4 -34 -5 -10
-7 -26 -3 -35 5 -15 8 -14 19 6 17 31 18 20 1 -20 l-13 -31 -17 48 c-17 45
-15 82 3 82 4 0 11 -7 14 -16z m-907 -10 c3 -8 0 -27 -6 -41 -16 -35 -35 -16
-26 26 7 33 22 41 32 15z m830 5 c9 -9 8 -15 -3 -27 -8 -8 -18 -11 -22 -8 -3
4 0 11 8 17 13 8 13 10 0 19 -8 5 -10 10 -4 10 5 0 15 -5 21 -11z m-747 -71
c0 -15 -20 -8 -30 11 -17 33 -11 47 10 21 11 -14 20 -28 20 -32z m742 24 c3 7
11 9 24 3 18 -7 17 -8 -6 -15 -40 -13 -57 -11 -57 4 0 11 5 12 18 6 12 -7 19
-6 21 2z m-105 -54 c-2 -13 -4 -5 -4 17 -1 22 1 32 4 23 2 -10 2 -28 0 -40z
m-677 13 c0 -31 -14 -49 -25 -32 -8 13 5 61 16 61 5 0 9 -13 9 -29z m830 7 c0
-6 -2 -9 -6 -6 -3 3 -22 -2 -42 -13 -34 -16 -38 -17 -49 -2 -7 9 -10 19 -7 22
3 3 9 -1 15 -9 6 -11 11 -12 17 -4 4 7 18 14 32 17 14 2 28 5 33 6 4 0 7 -4 7
-11z m-186 -77 c-6 -24 -8 -22 -15 19 -6 32 -5 46 4 52 15 9 22 -33 11 -71z
m-1104 -3 c0 -56 -1 -59 -22 -56 -19 2 -24 10 -26 42 -5 60 4 85 28 79 17 -5
20 -14 20 -65z m1360 52 c2 24 2 24 11 -5 15 -46 15 -147 1 -170 -11 -18 -12
-16 -6 14 4 25 3 32 -6 26 -9 -6 -10 1 -5 25 5 22 4 30 -4 26 -7 -5 -9 4 -5
26 4 25 3 29 -5 18 -10 -13 -11 -13 -11 0 0 8 3 26 7 40 l7 25 7 -25 7 -25 2
25z m-59 -7 c1 -10 1 -22 0 -27 -1 -4 5 -19 14 -32 19 -29 19 -34 1 -34 -8 0
-17 9 -21 19 -3 11 -12 22 -20 25 -8 3 -15 12 -15 20 0 10 6 13 15 10 8 -4 15
-2 15 4 0 5 -7 12 -15 16 -8 3 -15 1 -15 -4 0 -6 -8 -10 -17 -11 -11 0 -13 -3
-5 -6 20 -8 14 -23 -10 -23 -21 0 -21 0 -2 -22 19 -21 19 -21 -1 -15 -16 6
-15 3 5 -12 27 -21 40 -11 20 15 -7 8 -10 17 -7 20 9 9 48 -16 41 -27 -3 -6 2
-19 12 -30 16 -17 16 -22 4 -29 -12 -8 -11 -10 5 -11 11 -1 25 0 30 1 6 1 7
-1 3 -5 -4 -4 -2 -18 3 -32 8 -22 7 -24 -8 -19 -16 6 -16 6 0 -12 9 -10 17
-26 17 -35 0 -14 -3 -15 -18 -6 -18 11 -52 92 -52 123 0 17 -8 20 -27 8 -9 -6
-7 -12 7 -25 23 -19 26 -37 7 -37 -12 0 -24 17 -41 60 -3 8 -15 30 -27 49 -14
24 -17 36 -9 41 7 4 10 11 8 15 -4 10 61 45 84 45 10 0 19 -8 19 -17z m-913
-41 c2 -23 -1 -42 -6 -42 -14 0 -35 57 -28 76 11 28 31 8 34 -34z m690 -17
l-1 -40 -7 40 -7 40 -3 -50 -2 -50 -9 54 c-7 41 -6 57 3 62 18 11 28 -10 26
-56z m116 57 c7 -11 -34 -46 -42 -36 -4 4 -1 9 6 11 6 3 12 11 12 19 0 15 16
19 24 6z m-156 -87 c0 -38 -1 -39 -8 -10 -7 28 -8 27 -10 -15 l-3 -45 -7 45
-7 45 -3 -45 -3 -45 -7 55 -7 55 -2 -65 c-2 -79 -20 -119 -22 -50 l-2 45 -7
-50 c-6 -45 -7 -43 -8 30 0 53 2 73 8 60 8 -20 9 -19 9 1 1 14 11 26 31 34 17
7 30 18 31 24 2 29 18 -34 17 -69z m391 33 c-1 -31 -1 -31 -8 -8 -5 14 -6 28
-4 33 9 15 13 6 12 -25z m-252 -21 c-2 -6 6 -19 17 -29 15 -12 17 -17 7 -18
-10 0 -7 -7 9 -22 15 -14 19 -23 11 -26 -17 -6 -53 29 -47 45 3 7 -1 13 -9 13
-8 0 -15 9 -15 20 0 11 -4 20 -9 20 -14 0 -23 -18 -12 -22 5 -1 11 -10 13 -18
2 -8 11 -21 21 -28 9 -7 17 -18 17 -24 0 -5 -8 -7 -17 -4 -10 4 -4 -4 12 -18
33 -26 32 -38 -2 -30 -20 5 -45 49 -47 81 -1 7 -7 18 -13 24 -18 18 -5 -52 14
-74 22 -24 9 -33 -21 -14 -20 14 -24 14 -22 2 3 -20 26 -44 26 -27 0 27 54
-15 55 -43 1 -5 6 -20 13 -32 14 -25 1 -31 -17 -9 -8 10 -23 13 -45 9 -28 -4
-34 -2 -39 16 -4 16 -1 21 13 21 10 0 21 -7 24 -16 5 -12 8 -13 20 -2 11 11
11 14 -2 24 -8 6 -26 9 -39 6 -16 -3 -29 2 -38 14 -19 25 -18 34 3 35 11 1 8
4 -8 8 -34 10 -43 -8 -17 -30 l22 -18 -21 -1 c-29 0 -38 27 -18 57 11 18 22
23 37 19 12 -3 29 -1 37 4 12 8 12 10 -5 11 -11 1 -24 1 -30 0 -5 -1 1 9 15
22 14 14 36 38 49 55 20 25 28 29 43 21 11 -6 17 -16 15 -22z m-247 -77 c0
-92 -16 -125 -23 -47 -3 42 -4 42 -5 -8 -2 -47 -14 -75 -34 -75 -4 0 -8 12 -8
26 0 14 4 23 10 19 6 -4 10 7 9 27 -1 31 -1 32 -9 8 l-8 -25 -1 25 c0 14 2 43
6 65 l7 40 7 -35 c6 -33 6 -33 8 13 1 49 16 64 24 25 4 -20 4 -19 6 5 0 15 3
27 6 27 3 0 5 -40 5 -90z m-70 35 c0 -8 -4 -15 -10 -15 -5 0 -7 7 -4 15 4 8 8
15 10 15 2 0 4 -7 4 -15z m476 4 c3 -6 2 -15 -3 -20 -5 -5 -14 0 -21 11 -10
17 -10 20 2 20 8 0 18 -5 22 -11z m59 -119 c-4 -16 -11 -33 -17 -37 -8 -4 -9
0 -4 13 5 10 11 28 13 39 l5 20 -16 -20 c-15 -19 -15 -18 -4 14 9 28 12 31 20
17 5 -9 7 -30 3 -46z m-161 34 c15 -14 22 -44 11 -44 -7 0 -45 43 -45 52 0 13
17 9 34 -8z m54 -16 c19 -19 14 -37 -7 -31 -21 5 -36 43 -17 43 7 0 17 -5 24
-12z m-293 -18 c3 -5 -3 -10 -14 -10 -12 0 -21 5 -21 10 0 6 6 10 14 10 8 0
18 -4 21 -10z m205 -10 c21 -21 28 -56 8 -44 -7 5 -8 3 -4 -5 5 -7 15 -10 23
-6 9 3 26 -2 39 -10 30 -19 32 -55 4 -55 -13 0 -20 7 -20 19 0 11 -4 22 -9 25
-5 4 -7 -3 -4 -13 4 -16 1 -19 -16 -14 -14 3 -23 16 -27 39 -3 18 -5 37 -4 40
1 4 -5 11 -14 16 -18 10 -22 28 -6 28 6 0 19 -9 30 -20z m52 -17 c19 -17 24
-33 9 -33 -12 0 -41 29 -41 41 0 14 11 11 32 -8z m-243 -7 c6 -8 11 -18 9 -22
-1 -5 4 -20 11 -33 12 -21 12 -23 -4 -18 -9 4 -20 7 -25 7 -12 0 -22 33 -11
39 5 4 -1 11 -15 18 -13 6 -24 7 -24 2 0 -4 -8 -5 -17 -2 -15 6 -15 7 3 14 31
12 61 10 73 -5z m49 2 c7 -7 12 -17 12 -24 0 -18 -34 -6 -48 17 -10 16 -9 19
6 19 10 0 23 -5 30 -12z m245 -5 c11 -10 17 -12 13 -5 -10 17 9 15 24 -2 6 -8
10 -25 7 -38 -4 -23 -5 -23 -11 -2 -5 15 -14 20 -29 17 -16 -3 -25 3 -34 22
-13 30 0 34 30 8z m-352 -24 c11 -5 24 -21 29 -35 6 -14 15 -22 20 -19 17 10
60 -23 60 -46 0 -12 -4 -17 -11 -13 -6 3 -4 -5 5 -18 15 -23 13 -38 -5 -38 -4
0 -11 10 -14 21 -5 15 -10 18 -15 9 -10 -15 -49 8 -51 30 -1 11 -2 11 -6 -2
-6 -22 -27 -13 -49 19 -16 26 -16 26 7 19 13 -4 34 -8 47 -10 13 -2 29 -12 37
-22 7 -11 16 -16 20 -12 10 10 -14 50 -26 42 -15 -9 -61 25 -55 42 3 8 1 14
-3 14 -5 0 -11 7 -15 15 -6 18 -2 19 25 4z m-114 -21 c-3 -8 -6 -5 -6 6 -1 11
2 17 5 13 3 -3 4 -12 1 -19z m80 5 c3 -7 -4 -9 -16 -6 -12 3 -18 9 -15 15 7
11 26 6 31 -9z m158 -13 c10 -11 15 -23 12 -26 -10 -10 -35 3 -47 25 -15 28
10 29 35 1z m60 -10 c18 -20 18 -21 -13 -51 -33 -32 -46 -32 -55 1 -6 23 -3
24 22 11 29 -16 45 2 21 24 -11 10 -20 22 -20 27 0 15 27 8 45 -12z m39 -11
c-4 -6 -11 -6 -20 2 -21 17 -17 31 6 19 11 -6 18 -15 14 -21z m148 14 c23 -20
24 -46 1 -41 -9 2 -20 15 -24 31 -8 31 -3 34 23 10z m-390 -11 c19 -19 5 -23
-25 -7 -15 8 -25 10 -22 5 4 -6 -8 -10 -26 -10 -25 0 -29 3 -20 13 13 17 76
16 93 -1z m-512 -10 c0 -13 -12 -22 -22 -16 -10 6 -1 24 13 24 5 0 9 -4 9 -8z
m221 -35 c-8 -8 -11 -5 -11 9 0 27 14 41 18 19 2 -9 -1 -22 -7 -28z m139 8
c-19 -19 -38 -35 -42 -35 -4 0 -8 16 -8 35 0 34 1 35 42 35 l42 0 -34 -35z
m462 -2 c13 -21 18 -23 18 -10 0 23 13 22 35 -3 21 -23 8 -49 -16 -34 -8 4
-22 9 -31 9 -10 1 -20 4 -22 6 -8 10 -16 59 -9 59 5 0 16 -12 25 -27z m-344 5
c6 -6 12 -18 12 -27 0 -9 20 -57 45 -106 35 -70 44 -97 39 -120 -6 -31 -36
-70 -66 -86 -30 -16 -120 -21 -206 -10 -96 12 -112 19 -88 36 14 10 11 12 -20
11 -20 0 -39 4 -40 9 -3 6 14 9 43 6 42 -3 46 -2 34 12 -18 23 -47 30 -71 17
-16 -8 -20 -8 -20 4 0 23 36 29 67 12 47 -26 65 -44 57 -57 -4 -7 -3 -10 3 -6
5 3 26 2 47 -4 48 -13 68 0 26 17 -18 8 -36 12 -40 9 -4 -3 -25 9 -45 25 -21
17 -41 30 -44 30 -3 0 -13 5 -21 10 -12 8 6 31 93 118 97 97 111 108 145 109
20 1 43 -3 50 -9z m312 -14 c0 -8 -4 -14 -10 -14 -5 0 -10 9 -10 21 0 11 5 17
10 14 6 -3 10 -13 10 -21z m114 -5 c-6 -11 -24 -2 -24 11 0 5 7 7 15 4 8 -4
12 -10 9 -15z m-144 0 c0 -6 -19 -30 -42 -54 -24 -24 -51 -58 -61 -77 l-18
-33 23 30 c43 55 80 95 89 95 22 0 6 -39 -25 -61 -19 -14 -45 -38 -57 -54 -16
-21 -9 -17 22 13 44 42 69 53 69 31 0 -7 -8 -18 -17 -25 -12 -9 -14 -13 -5
-14 7 0 10 -5 7 -11 -14 -21 -88 -69 -108 -69 -15 0 -8 8 25 29 25 16 49 35
54 43 4 7 -8 1 -27 -13 -45 -34 -68 -47 -52 -29 8 9 9 19 2 31 -12 23 8 65 63
132 39 46 58 58 58 36z m-471 -28 c24 -15 -6 -43 -42 -39 -38 4 -49 28 -13 28
14 0 26 5 26 10 0 12 10 13 29 1z m257 -26 c9 -14 14 -32 10 -40 -3 -9 0 -15
8 -15 20 0 36 -24 27 -38 -9 -14 -52 42 -70 91 -13 34 3 36 25 2z m251 10 c9
-25 -4 -29 -17 -6 -7 15 -7 21 0 21 6 0 13 -7 17 -15z m31 3 c7 -7 12 -20 12
-30 0 -26 -27 -11 -33 18 -5 26 2 31 21 12z m-211 -43 c1 0 -2 -7 -8 -15 -8
-13 -13 -11 -29 9 -11 13 -20 30 -20 39 0 12 6 10 28 -9 15 -13 28 -24 29 -24z
m248 36 c3 -5 1 -12 -5 -16 -5 -3 -10 1 -10 9 0 18 6 21 15 7z m-615 -40 c0
-12 -29 -35 -36 -28 -11 10 5 37 21 37 8 0 15 -4 15 -9z m550 -23 c0 -27 -11
-43 -62 -90 -55 -52 -174 -125 -186 -114 -2 3 5 17 17 32 13 17 21 41 21 66 0
24 4 37 10 33 6 -3 10 -20 10 -36 0 -27 2 -29 28 -23 57 14 132 70 132 99 0
10 5 13 13 9 10 -6 10 -4 0 7 -18 18 -16 49 2 49 10 0 15 -10 15 -32z m30 2
c0 -5 -4 -10 -10 -10 -5 0 -10 5 -10 10 0 6 5 10 10 10 6 0 10 -4 10 -10z
m-207 -30 c-5 -19 -23 -39 -23 -25 0 9 20 45 24 45 2 0 2 -9 -1 -20z m-493
-112 l-1 -33 -14 25 c-18 32 -18 40 0 40 10 0 15 -10 15 -32z m590 -7 c0 -5
-9 -11 -21 -14 -16 -4 -18 -3 -8 9 13 16 29 19 29 5z m32 -62 c-15 -6 -15 -7
2 -10 12 -3 20 -14 22 -31 2 -24 0 -26 -24 -18 -47 14 -62 22 -57 30 3 4 -7
11 -21 14 -34 9 -24 18 29 27 l42 6 -40 3 -40 2 35 13 c32 12 36 11 52 -9 16
-20 16 -21 0 -27z m-104 -24 c20 -14 34 -25 30 -25 -15 0 -78 34 -78 42 0 13
9 10 48 -17z"/>
<path d="M1545 1640 c-13 -5 -14 -9 -5 -9 8 0 24 4 35 9 13 5 14 9 5 9 -8 0
-24 -4 -35 -9z"/>
<path d="M1373 1403 c9 -2 23 -2 30 0 6 3 -1 5 -18 5 -16 0 -22 -2 -12 -5z"/>
<path d="M1388 1163 c6 -2 18 -2 25 0 6 3 1 5 -13 5 -14 0 -19 -2 -12 -5z"/>
<path d="M1121 1084 c0 -11 3 -14 6 -6 3 7 2 16 -1 19 -3 4 -6 -2 -5 -13z"/>
<path d="M1270 1025 c0 -8 5 -15 10 -15 6 0 10 7 10 15 0 8 -4 15 -10 15 -5 0
-10 -7 -10 -15z"/>
<path d="M1205 1014 c-17 -17 -16 -35 2 -41 6 -2 18 3 27 12 20 20 21 45 2 45
-8 0 -22 -7 -31 -16z"/>
<path d="M912 830 c0 -14 2 -19 5 -12 2 6 2 18 0 25 -3 6 -5 1 -5 -13z"/>
<path d="M684 1569 c-19 -22 -19 -22 4 -8 12 8 22 17 22 21 0 12 -6 9 -26 -13z"/>
<path d="M1560 1511 c5 -11 15 -23 21 -27 6 -3 3 5 -6 20 -20 30 -30 35 -15 7z"/>
<path d="M1470 1305 c0 -7 81 -47 86 -43 2 3 -17 14 -41 26 -25 12 -45 20 -45
17z"/>
<path d="M1468 1223 c7 -3 16 -2 19 1 4 3 -2 6 -13 5 -11 0 -14 -3 -6 -6z"/>
<path d="M1807 1233 c-4 -3 -7 -11 -7 -17 0 -6 5 -5 12 2 6 6 9 14 7 17 -3 3
-9 2 -12 -2z"/>
<path d="M1861 1074 c0 -11 3 -14 6 -6 3 7 2 16 -1 19 -3 4 -6 -2 -5 -13z"/>
<path d="M1871 1024 c0 -11 3 -14 6 -6 3 7 2 16 -1 19 -3 4 -6 -2 -5 -13z"/>
<path d="M1357 730 c7 -25 6 -25 -20 -7 -32 21 -44 22 -28 3 7 -8 23 -17 36
-20 14 -4 25 -11 25 -16 0 -6 5 -10 11 -10 5 0 7 5 3 11 -3 6 0 15 7 20 12 7
12 9 0 9 -8 0 -20 8 -27 18 -12 15 -12 14 -7 -8z"/>
<path d="M1387 560 c2 -61 0 -71 -17 -80 -21 -11 -27 -30 -11 -30 6 0 21 10
35 23 22 19 25 27 20 60 -5 27 -10 35 -16 25 -5 -8 -6 1 -2 23 3 20 2 39 -3
42 -5 3 -8 -25 -6 -63z"/>
<path d="M1236 598 c-19 -27 -20 -47 -2 -70 15 -21 66 -24 84 -6 20 20 14 65
-10 82 -31 22 -54 20 -72 -6z m54 -34 c0 -8 -4 -12 -10 -9 -5 3 -10 10 -10 16
0 5 5 9 10 9 6 0 10 -7 10 -16z"/>
<path d="M1613 403 c9 -2 23 -2 30 0 6 3 -1 5 -18 5 -16 0 -22 -2 -12 -5z"/>
<path d="M1630 376 c0 -2 11 -6 25 -8 13 -3 22 -1 19 3 -5 9 -44 13 -44 5z"/>
<path d="M893 2093 c-25 -5 -32 -23 -8 -23 10 0 17 -14 21 -40 4 -24 12 -40
20 -40 10 0 12 11 7 45 -4 31 -2 45 6 45 6 0 11 5 11 10 0 10 -16 11 -57 3z"/>
<path d="M798 2019 c-4 -60 5 -81 22 -50 9 18 17 21 41 16 37 -8 36 -3 -3 46
-42 53 -55 50 -60 -12z m37 1 c3 -5 1 -10 -4 -10 -6 0 -11 5 -11 10 0 6 2 10
4 10 3 0 8 -4 11 -10z"/>
<path d="M1450 2041 c-5 -11 -14 -31 -20 -46 -9 -24 -7 -27 25 -41 40 -16 45
-17 45 -6 0 5 -12 14 -26 20 -32 15 -24 31 13 25 l28 -5 -25 22 -25 21 33 -6
c38 -8 43 7 7 23 -35 16 -43 15 -55 -7z"/>
<path d="M720 2033 c1 -5 7 -19 15 -33 19 -32 19 -50 0 -50 -8 0 -21 14 -30
30 -16 31 -35 40 -35 18 0 -22 39 -78 54 -78 7 0 23 8 35 18 21 17 22 18 4 59
-10 24 -24 43 -30 43 -7 0 -13 -3 -13 -7z"/>
<path d="M1543 1995 c-3 -9 3 -25 12 -35 10 -11 15 -23 11 -28 -4 -4 -13 1
-20 11 -17 23 -26 22 -26 -3 0 -26 46 -46 66 -29 18 15 18 28 -3 51 -9 10 -13
21 -10 25 4 4 13 -2 21 -12 8 -11 15 -14 20 -7 9 14 -21 42 -45 42 -11 0 -22
-7 -26 -15z"/>
<path d="M602 1973 c-26 -10 -33 -41 -17 -73 17 -33 32 -36 82 -18 31 11 45
28 23 28 -5 0 -10 7 -10 15 0 19 -36 55 -52 54 -7 0 -19 -3 -26 -6z m48 -38
c9 -10 9 -15 1 -15 -6 0 -11 -7 -11 -15 0 -8 -4 -15 -8 -15 -14 0 -32 23 -32
42 0 22 32 24 50 3z"/>
<path d="M1632 1944 c-24 -17 -30 -62 -10 -82 19 -19 65 -14 81 9 18 25 11 55
-16 74 -26 19 -28 19 -55 -1z m54 -29 c7 -18 -13 -45 -33 -45 -19 0 -28 27
-13 45 16 19 39 19 46 0z"/>
<path d="M498 1894 c-8 -7 24 -104 34 -104 4 0 8 9 8 20 0 15 9 22 30 27 17 3
30 9 30 12 0 8 -77 51 -89 51 -4 0 -10 -3 -13 -6z"/>
<path d="M1716 1858 c-22 -29 -24 -35 -12 -53 7 -11 21 -22 31 -23 16 -4 75
43 75 60 0 17 -22 7 -45 -19 -18 -22 -26 -25 -36 -16 -9 9 -7 18 10 41 23 33
26 42 12 42 -5 0 -21 -15 -35 -32z"/>
<path d="M1789 1774 l-34 -36 33 7 c32 7 32 6 22 -21 -7 -18 -7 -31 -1 -37 7
-7 14 -1 20 16 6 15 16 26 22 25 24 -6 32 28 14 55 -23 35 -34 34 -76 -9z m65
-10 c4 -10 1 -14 -6 -12 -15 5 -23 28 -10 28 5 0 13 -7 16 -16z"/>
<path d="M382 1777 l-22 -23 34 -33 c38 -37 54 -36 75 2 12 22 11 28 -5 51
-24 32 -54 33 -82 3z m56 -9 c14 -14 16 -48 3 -48 -18 0 -54 37 -47 48 9 15
29 15 44 0z"/>
<path d="M336 1723 c-3 -4 1 -15 11 -25 15 -17 15 -18 -15 -18 -47 0 -47 -16
0 -50 25 -19 44 -27 46 -20 2 6 -4 18 -14 25 -17 13 -16 14 19 15 23 0 37 5
37 13 -1 14 -76 68 -84 60z"/>
<path d="M1863 1696 c-20 -18 -25 -28 -19 -49 3 -14 15 -29 27 -32 31 -10 37
4 9 25 -20 15 -22 20 -11 34 19 23 51 21 51 -3 0 -25 16 -36 24 -16 7 20 -13
52 -36 59 -11 2 -30 -5 -45 -18z"/>
<path d="M1928 1609 c-42 -21 -43 -26 -26 -64 11 -25 35 -37 25 -12 -3 6 -8
20 -12 30 -5 12 -2 17 8 17 9 0 19 -9 22 -20 3 -11 11 -20 16 -20 11 0 11 3
-1 34 -12 32 2 34 23 4 22 -34 31 -16 10 21 -10 17 -20 31 -23 30 -3 0 -22 -9
-42 -20z"/>
<path d="M254 1598 c-6 -9 0 -21 35 -65 28 -35 44 -34 35 2 -5 20 -1 27 21 35
15 6 25 13 21 17 -10 11 -107 20 -112 11z m56 -28 c0 -5 -4 -10 -10 -10 -5 0
-10 5 -10 10 0 6 5 10 10 10 6 0 10 -4 10 -10z"/>
<path d="M1987 1523 c-4 -3 -7 -19 -7 -35 0 -15 -4 -28 -10 -28 -5 0 -10 11
-10 25 0 14 -4 25 -9 25 -14 0 -19 -23 -10 -48 14 -37 53 -26 57 16 4 37 22
44 22 7 0 -14 5 -25 10 -25 11 0 13 30 4 54 -6 16 -35 22 -47 9z"/>
<path d="M191 1458 c-16 -44 -16 -45 33 -61 50 -17 59 -12 71 36 5 17 3 27 -4
27 -6 0 -13 -11 -17 -25 -8 -33 -28 -33 -22 0 6 31 -11 45 -19 16 -3 -12 -10
-21 -15 -21 -6 0 -7 11 -4 24 9 37 -10 41 -23 4z"/>
<path d="M1906 1359 c5 -30 2 -37 -18 -47 -23 -11 -23 -11 4 -6 20 4 27 1 31
-13 4 -16 5 -16 5 2 0 11 -6 38 -13 60 l-14 40 5 -36z"/>
<path d="M2003 1383 c-13 -2 -23 -9 -23 -14 0 -5 10 -9 23 -10 l22 0 -23 -11
c-28 -14 -24 -30 9 -39 23 -7 23 -7 2 -8 -13 -1 -23 -6 -23 -12 0 -8 13 -10
38 -5 20 3 43 6 50 6 6 0 12 9 12 19 0 15 -8 21 -32 23 l-33 4 28 12 c15 6 27
18 27 27 0 15 -26 18 -77 8z"/>
<path d="M161 1343 c-6 -20 -9 -38 -8 -38 9 -7 100 -25 104 -21 8 8 -7 26 -23
26 -22 0 -16 16 11 28 32 15 33 34 1 26 -13 -3 -27 -1 -30 5 -16 25 -45 11
-55 -26z m35 -20 c-11 -11 -19 6 -11 24 8 17 8 17 12 0 3 -10 2 -21 -1 -24z"/>
<path d="M152 1259 c3 -8 20 -16 39 -19 21 -3 34 -11 34 -20 0 -11 -10 -14
-43 -12 -56 3 -54 -21 2 -26 40 -4 66 11 66 37 0 28 -14 38 -59 46 -34 6 -42
4 -39 -6z"/>
<path d="M2000 1250 c0 -5 5 -10 10 -10 14 0 13 -43 -2 -58 -19 -19 7 -15 52
8 50 26 51 44 1 58 -47 15 -61 15 -61 2z m60 -30 c0 -5 -5 -10 -11 -10 -5 0
-7 5 -4 10 3 6 8 10 11 10 2 0 4 -4 4 -10z"/>
<path d="M702 1200 c0 -19 2 -27 5 -17 2 9 2 25 0 35 -3 9 -5 1 -5 -18z"/>
<path d="M140 1120 c0 -22 5 -40 10 -40 6 0 10 7 10 15 0 11 11 15 40 15 22 0
40 5 40 10 0 6 -18 10 -40 10 -29 0 -40 4 -40 15 0 8 -4 15 -10 15 -5 0 -10
-18 -10 -40z"/>
<path d="M738 1143 c12 -2 32 -2 45 0 12 2 2 4 -23 4 -25 0 -35 -2 -22 -4z"/>
<path d="M2005 1140 c3 -5 16 -10 28 -10 21 -1 21 -2 -5 -23 -16 -13 -28 -26
-28 -30 0 -4 25 -7 55 -7 30 0 55 5 55 10 0 6 -12 10 -27 10 l-28 1 28 22 c15
13 27 26 27 30 0 4 -25 7 -56 7 -34 0 -53 -4 -49 -10z"/>
<path d="M230 1057 c0 -21 -6 -25 -40 -31 -22 -3 -40 -11 -40 -17 0 -8 13 -9
38 -5 20 3 43 6 50 6 14 0 17 56 2 65 -6 3 -10 -4 -10 -18z"/>
<path d="M2000 1045 c0 -8 5 -15 10 -15 17 0 11 -38 -7 -49 -32 -17 -5 -24 46
-11 29 7 51 18 51 25 0 7 -22 25 -50 39 -40 21 -50 23 -50 11z m60 -39 c0 -3
-4 -8 -10 -11 -5 -3 -10 -1 -10 4 0 6 5 11 10 11 6 0 10 -2 10 -4z"/>
<path d="M700 980 c0 -16 4 -30 8 -30 5 0 7 14 4 30 -2 17 -6 30 -8 30 -2 0
-4 -13 -4 -30z"/>
<path d="M168 973 c-37 -9 -16 -24 30 -21 60 4 67 -22 10 -35 -50 -12 -50 -32
-1 -24 52 9 70 29 55 62 -9 20 -18 25 -44 24 -18 -1 -41 -3 -50 -6z"/>
<path d="M643 963 c9 -2 23 -2 30 0 6 3 -1 5 -18 5 -16 0 -22 -2 -12 -5z"/>
<path d="M321 944 c0 -11 3 -14 6 -6 3 7 2 16 -1 19 -3 4 -6 -2 -5 -13z"/>
<path d="M1986 924 c-24 -23 -20 -63 7 -73 16 -6 24 -4 29 8 11 27 9 33 -12
26 -23 -7 -27 7 -6 24 11 9 20 10 35 1 23 -12 27 -25 11 -35 -5 -3 -10 -13
-10 -20 0 -23 30 -5 36 22 13 49 -54 84 -90 47z"/>
<path d="M331 904 c0 -11 3 -14 6 -6 3 7 2 16 -1 19 -3 4 -6 -2 -5 -13z"/>
<path d="M711 904 c0 -11 3 -14 6 -6 3 7 2 16 -1 19 -3 4 -6 -2 -5 -13z"/>
<path d="M250 873 c0 -3 7 -14 15 -23 14 -15 13 -19 -5 -35 -25 -22 -50 -13
-50 20 0 14 -5 25 -11 25 -16 0 -6 -62 12 -73 22 -14 66 -1 79 24 9 16 8 26
-5 45 -14 22 -35 33 -35 17z"/>
<path d="M340 878 c0 -12 53 -129 57 -124 2 2 -4 20 -14 40 -15 32 -15 38 -3
46 13 8 12 10 -2 10 -9 0 -22 8 -27 18 -6 9 -11 14 -11 10z"/>
<path d="M408 833 c6 -2 18 -2 25 0 6 3 1 5 -13 5 -14 0 -19 -2 -12 -5z"/>
<path d="M1942 807 c-15 -40 -15 -47 -2 -47 5 0 12 11 16 25 9 36 28 31 21 -5
-7 -33 8 -42 18 -10 10 33 27 23 20 -11 -9 -40 9 -31 24 11 10 30 9 31 -35 51
-25 10 -47 19 -48 19 -1 0 -7 -15 -14 -33z"/>
<path d="M731 813 c-1 -27 8 -33 34 -22 19 7 19 8 -2 8 -12 1 -24 9 -26 19 -4
13 -5 12 -6 -5z"/>
<path d="M683 793 c9 -2 23 -2 30 0 6 3 -1 5 -18 5 -16 0 -22 -2 -12 -5z"/>
<path d="M270 755 c-44 -45 -36 -61 29 -57 53 4 67 16 30 25 -17 5 -20 11 -17
32 8 38 -5 38 -42 0z m27 -31 c-3 -3 -12 -4 -19 -1 -8 3 -5 6 6 6 11 1 17 -2
13 -5z"/>
<path d="M595 730 c9 -16 18 -30 21 -30 2 0 -2 14 -11 30 -9 17 -18 30 -21 30
-2 0 2 -13 11 -30z"/>
<path d="M1915 741 c-3 -6 3 -15 12 -21 17 -10 17 -10 -2 -9 -36 2 -38 -1 -19
-28 16 -25 16 -27 0 -14 -12 10 -20 11 -28 3 -13 -13 67 -56 89 -47 14 5 12
10 -8 32 l-24 26 32 -6 c33 -7 52 13 30 31 -28 22 -76 41 -82 33z"/>
<path d="M414 718 c12 -18 23 -25 34 -21 13 6 13 7 1 11 -7 3 -23 12 -33 21
-19 16 -19 15 -2 -11z"/>
<path d="M760 731 c0 -6 4 -13 10 -16 6 -3 7 1 4 9 -7 18 -14 21 -14 7z"/>
<path d="M483 693 c9 -2 23 -2 30 0 6 3 -1 5 -18 5 -16 0 -22 -2 -12 -5z"/>
<path d="M585 680 c28 -5 77 -8 110 -8 l60 1 -65 7 c-36 4 -85 8 -110 7 l-45
0 50 -7z"/>
<path d="M302 658 c-22 -13 -30 -24 -23 -31 6 -6 20 -2 41 13 25 17 34 20 43
10 9 -9 4 -18 -22 -41 -43 -36 -34 -49 13 -19 37 23 47 55 24 78 -17 17 -38
15 -76 -10z"/>
<path d="M450 656 c0 -2 8 -10 18 -17 15 -13 16 -12 3 4 -13 16 -21 21 -21 13z"/>
<path d="M1838 615 c-27 -36 -22 -52 7 -25 28 26 42 22 26 -8 -17 -31 -13 -37
9 -17 21 19 42 13 22 -7 -14 -14 -16 -28 -3 -28 5 0 17 12 26 27 18 27 18 27
-16 55 -40 34 -49 34 -71 3z"/>
<path d="M505 591 c56 -65 104 -108 160 -145 64 -43 184 -100 193 -92 3 3 -1
7 -9 7 -8 1 0 5 16 9 27 7 25 8 -18 9 -52 1 -100 22 -189 83 -66 44 -100 77
-92 90 3 4 0 8 -7 8 -7 0 -29 15 -49 33 l-35 32 30 -34z"/>
<path d="M410 600 c0 -5 -7 -10 -15 -10 -21 0 -48 -45 -40 -70 10 -31 43 -45
72 -29 32 17 39 51 17 88 -18 31 -34 40 -34 21z m30 -61 c0 -13 -30 -31 -46
-27 -24 4 -28 23 -9 42 13 13 20 13 35 3 11 -6 20 -15 20 -18z"/>
<path d="M690 586 c0 -2 8 -10 18 -17 15 -13 16 -12 3 4 -13 16 -21 21 -21 13z"/>
<path d="M1800 556 c0 -8 5 -18 10 -21 20 -12 10 -21 -19 -17 -44 6 -44 -12 0
-48 43 -34 65 -34 34 0 -18 20 -18 20 18 20 21 0 37 3 37 8 0 4 -18 22 -40 40
-27 23 -40 28 -40 18z"/>
<path d="M593 543 c9 -2 23 -2 30 0 6 3 -1 5 -18 5 -16 0 -22 -2 -12 -5z"/>
<path d="M705 539 l-30 -7 32 -1 c17 0 38 -4 47 -7 9 -3 16 -2 16 4 0 14 -30
19 -65 11z"/>
<path d="M883 542 c4 -6 -1 -13 -10 -15 -16 -4 -15 -5 2 -6 10 0 42 -22 70
-48 41 -40 43 -41 12 -7 -20 22 -36 42 -33 45 2 2 -8 13 -22 23 -14 11 -22 14
-19 8z"/>
<path d="M813 523 c9 -2 23 -2 30 0 6 3 -1 5 -18 5 -16 0 -22 -2 -12 -5z"/>
<path d="M470 495 c-6 -14 -14 -36 -20 -50 -14 -36 8 -42 59 -15 38 19 60 49
26 36 -19 -7 -46 20 -39 39 4 8 1 15 -5 15 -6 0 -16 -11 -21 -25z m30 -39 c0
-3 -4 -8 -10 -11 -5 -3 -10 -1 -10 4 0 6 5 11 10 11 6 0 10 -2 10 -4z"/>
<path d="M790 485 c13 -14 26 -25 28 -25 3 0 -5 11 -18 25 -13 14 -26 25 -28
25 -3 0 5 -11 18 -25z"/>
<path d="M1710 464 c0 -3 11 -20 25 -38 19 -25 22 -35 13 -44 -24 -24 10 -13
36 12 30 27 33 40 8 32 -12 -4 -27 3 -42 19 -22 23 -40 32 -40 19z"/>
<path d="M925 387 c25 -22 39 -27 80 -27 3 0 6 3 8 6 1 4 -12 8 -29 9 -17 1
-44 10 -60 20 l-29 18 30 -26z"/>
<path d="M1025 388 c6 -15 45 -42 45 -31 0 5 -12 16 -25 26 -16 11 -23 13 -20
5z"/>
<path d="M908 363 c7 -3 16 -2 19 1 4 3 -2 6 -13 5 -11 0 -14 -3 -6 -6z"/>
<path d="M885 340 c11 -5 29 -8 40 -8 16 0 15 2 -5 8 -34 11 -60 11 -35 0z"/>
<path d="M1318 333 c7 -3 16 -2 19 1 4 3 -2 6 -13 5 -11 0 -14 -3 -6 -6z"/>
<path d="M1268 323 c6 -2 18 -2 25 0 6 3 1 5 -13 5 -14 0 -19 -2 -12 -5z"/>
<path d="M691 301 c-8 -15 -7 -23 5 -35 26 -27 58 -12 52 25 -4 31 -42 38 -57
10z"/>
<path d="M1003 313 c9 -2 25 -2 35 0 9 3 1 5 -18 5 -19 0 -27 -2 -17 -5z"/>
<path d="M1474 296 c-11 -28 4 -48 33 -44 22 2 28 8 28 28 0 20 -6 26 -28 28
-18 2 -29 -2 -33 -12z"/>
<path d="M1233 263 c-28 -5 -30 -19 -4 -26 13 -3 21 -17 26 -46 4 -23 12 -41
20 -41 9 0 10 10 4 43 -11 57 -11 57 5 57 8 0 18 5 21 10 6 10 -28 11 -72 3z"/>
<path d="M988 210 c-32 -58 -33 -60 -13 -60 8 0 15 5 15 10 0 16 27 12 45 -6
23 -24 28 -12 18 48 -11 70 -30 73 -65 8z m42 -4 c0 -8 -4 -18 -10 -21 -5 -3
-10 3 -10 14 0 12 5 21 10 21 6 0 10 -6 10 -14z"/>
<path d="M1120 195 c0 -42 3 -55 15 -55 12 0 15 13 15 55 0 42 -3 55 -15 55
-12 0 -15 -13 -15 -55z"/>
</g>
</svg>
