<?xml version="1.0" encoding="UTF-8"?>
<svg xmlns="http://www.w3.org/2000/svg" xmlns:xlink="http://www.w3.org/1999/xlink" width="193pt" height="196pt" viewBox="0 0 193 196" version="1.1">
<g id="surface1">
<path style=" stroke:none;fill-rule:nonzero;fill:rgb(24.313725%,55.686275%,87.058824%);fill-opacity:1;" d="M 96.679688 193.753906 C 44.726562 193.753906 2.457031 150.785156 2.457031 97.964844 C 2.457031 45.148438 44.730469 2.167969 96.679688 2.167969 C 148.625 2.167969 190.886719 45.148438 190.886719 97.964844 C 190.886719 150.785156 148.625 193.753906 96.679688 193.753906 M 96.320312 60.191406 C 96.441406 60.191406 103.972656 68.394531 103.972656 74.953125 C 103.972656 82.066406 98.515625 83.761719 96.679688 83.761719 C 96.589844 83.761719 96.476562 83.753906 96.355469 83.75 L 96.28125 83.75 C 96.164062 83.753906 96.046875 83.761719 95.964844 83.761719 C 94.128906 83.761719 88.671875 82.066406 88.671875 74.953125 C 88.671875 68.394531 96.179688 60.191406 96.320312 60.191406 M 25.378906 103.292969 L 33.972656 103.292969 L 33.972656 87.148438 L 48.40625 87.148438 L 48.40625 80.390625 L 33.972656 80.390625 L 33.972656 71.417969 L 48.886719 71.417969 L 48.886719 64.679688 L 25.378906 64.679688 Z M 104.109375 61.355469 L 113.175781 61.355469 L 102.640625 22.734375 L 91.058594 22.734375 L 80.136719 61.355469 L 88.535156 61.355469 L 90.949219 52.722656 L 101.933594 52.722656 Z M 100.34375 46.183594 L 92.445312 46.183594 L 96.121094 29.386719 L 96.722656 29.386719 Z M 140.144531 83.988281 C 140.144531 95.328125 145.316406 103.953125 156.234375 103.953125 C 167.195312 103.953125 172.421875 95.332031 172.421875 83.988281 C 172.421875 72.640625 167.195312 64.019531 156.234375 64.019531 C 145.316406 64.019531 140.144531 72.644531 140.144531 83.988281 M 149.296875 83.988281 C 149.296875 76.574219 151.089844 70.546875 156.234375 70.546875 C 161.414062 70.546875 163.277344 76.574219 163.277344 83.988281 C 163.277344 91.398438 161.414062 97.429688 156.234375 97.429688 C 151.085938 97.429688 149.296875 91.398438 149.296875 83.988281 M 92.664062 183.0625 C 93.167969 179.324219 93.664062 173.332031 93.664062 166.308594 L 93.664062 165.121094 C 93.664062 155.238281 93.308594 151.898438 86.804688 149.703125 C 76.785156 146.328125 72.679688 134.953125 74.882812 120.78125 L 41.335938 34.035156 C 23.890625 49.679688 12.878906 72.527344 12.878906 97.964844 C 12.878906 143.578125 48.335938 180.933594 92.664062 183.0625 M 96.640625 127.757812 C 83.292969 124.597656 78.339844 112.230469 78.339844 101.25 L 48.96875 27.957031 C 47.050781 29.304688 45.191406 30.742188 43.394531 32.238281 C 49.855469 47.804688 78.84375 117.757812 78.878906 117.863281 C 84.011719 130.429688 93.347656 126.265625 95.605469 136.640625 C 96.144531 139.148438 96.179688 140.253906 96.179688 140.253906 L 97.183594 140.253906 C 97.183594 140.253906 97.195312 139.148438 97.761719 136.640625 C 100.019531 126.265625 109.328125 130.429688 114.46875 117.863281 C 114.503906 117.757812 143.5 47.804688 149.953125 32.238281 C 148.152344 30.742188 146.296875 29.304688 144.371094 27.957031 L 115.007812 101.25 C 115.007812 112.230469 110.046875 124.597656 96.699219 127.757812 Z M 96.625 105.632812 C 90.964844 104.347656 83.910156 98.636719 82.992188 91.28125 C 82.660156 88.480469 82.398438 87.699219 82.800781 82.144531 L 57.058594 22.898438 C 54.988281 24.035156 52.96875 25.269531 50.992188 26.578125 C 58.683594 44.164062 82.210938 97.882812 82.230469 97.945312 C 85.957031 105.917969 92.488281 106.070312 94.742188 110.828125 C 96.097656 113.640625 96.21875 116.164062 96.242188 116.367188 L 97.097656 116.367188 C 97.121094 116.164062 97.261719 113.640625 98.59375 110.828125 C 100.863281 106.070312 107.394531 105.917969 111.105469 97.945312 C 111.128906 97.882812 134.664062 44.164062 142.355469 26.578125 C 140.398438 25.269531 138.363281 24.035156 136.277344 22.898438 L 110.566406 82.144531 C 110.972656 87.699219 110.703125 88.480469 110.351562 91.28125 C 109.433594 98.636719 102.375 104.347656 96.742188 105.632812 Z M 96.984375 95.570312 L 97.375 92.34375 C 99 84.835938 104.359375 85.777344 108.074219 78.40625 C 108.089844 78.378906 108.132812 78.296875 108.132812 78.296875 C 108.246094 78.023438 126.457031 38.304688 134.058594 21.714844 C 122.800781 15.988281 110.113281 12.753906 96.679688 12.753906 C 83.257812 12.753906 70.558594 15.988281 59.292969 21.714844 C 66.894531 38.304688 85.089844 78.023438 85.242188 78.296875 C 85.242188 78.296875 85.277344 78.375 85.300781 78.40625 C 88.996094 85.773438 94.34375 84.835938 95.964844 92.34375 L 96.359375 95.570312 Z M 180.476562 97.964844 C 180.476562 72.527344 169.453125 49.679688 152.03125 34.035156 L 118.457031 120.78125 C 120.683594 134.953125 116.558594 146.328125 106.535156 149.703125 C 100.035156 151.898438 99.679688 155.238281 99.679688 165.121094 L 99.679688 166.308594 C 99.679688 173.332031 100.203125 179.324219 100.679688 183.0625 C 145.035156 180.933594 180.476562 143.578125 180.476562 97.964844 M 39.359375 123.128906 C 39.359375 123.128906 40.59375 125.808594 41.605469 127.703125 C 42.601562 129.605469 43.972656 131.902344 43.972656 131.902344 L 41.757812 133.207031 C 41.757812 133.207031 40.078125 130.363281 38.539062 127.082031 C 38.117188 127.296875 35.46875 128.707031 35.03125 128.921875 C 35.28125 129.40625 38 134.726562 38 134.726562 L 35.761719 136.039062 C 35.761719 136.039062 33.007812 130.59375 32.769531 130.132812 C 32.289062 130.371094 26.578125 133.375 26.578125 133.375 L 25.210938 130.613281 L 39.199219 123.203125 Z M 48.203125 137.710938 L 50.148438 140.09375 L 37.90625 150.5 L 35.921875 148.117188 L 48.054688 137.8125 Z M 59.535156 148.621094 L 61.960938 150.378906 L 58.816406 167.535156 L 56.046875 165.914062 C 56.046875 165.914062 56.734375 162.417969 56.820312 162.078125 C 56.683594 161.96875 55.066406 160.988281 53.5 159.859375 C 51.910156 158.699219 50.351562 157.398438 50.207031 157.296875 C 49.902344 157.480469 46.832031 159.324219 46.832031 159.324219 L 44.453125 157.257812 L 59.378906 148.714844 Z M 52.464844 155.902344 C 52.75 156.152344 53.785156 157.003906 54.855469 157.78125 C 55.953125 158.550781 57.039062 159.289062 57.367188 159.429688 C 57.523438 158.71875 58.636719 153.078125 58.871094 152.03125 C 57.960938 152.585938 53.105469 155.519531 52.464844 155.902344 M 69.632812 154.929688 C 69.632812 154.929688 72.210938 156.238281 75.882812 157.519531 C 78.386719 158.398438 80.515625 159.085938 82.597656 159.554688 L 81.871094 162.019531 C 81.871094 162.019531 79.882812 161.667969 76.640625 160.65625 C 76.460938 161.199219 72.246094 173.425781 72.246094 173.425781 L 69.375 172.410156 C 69.375 172.410156 73.5625 160.160156 73.742188 159.625 C 70.730469 158.480469 68.625 157.34375 68.625 157.34375 Z M 120.015625 158.195312 C 121.0625 158.761719 121.824219 159.75 122.238281 161.152344 C 122.421875 161.746094 122.523438 162.320312 122.523438 162.871094 C 122.523438 165.132812 120.960938 166.914062 118.144531 167.8125 C 118.144531 167.8125 116.722656 168.257812 116.304688 168.386719 C 116.464844 168.898438 118.144531 174.394531 118.144531 174.394531 L 115.347656 175.132812 L 110.609375 159.507812 L 114.84375 158.171875 C 116.964844 157.5 118.730469 157.511719 120.015625 158.195312 M 114.089844 161.144531 C 114.226562 161.621094 115.402344 165.4375 115.542969 165.910156 C 116.125 165.734375 117.402344 165.316406 117.402344 165.316406 C 117.824219 165.191406 118.828125 164.785156 119.304688 163.855469 C 119.460938 163.554688 119.539062 163.214844 119.539062 162.871094 C 119.539062 162.601562 119.484375 162.324219 119.402344 162.03125 C 119.21875 161.476562 118.882812 161.039062 118.386719 160.777344 C 117.527344 160.304688 116.363281 160.425781 115.644531 160.644531 C 115.644531 160.644531 114.480469 161.011719 114.089844 161.144531 M 129.527344 151.386719 L 143.363281 161.691406 L 140.90625 163.453125 C 140.90625 163.453125 138.125 161.304688 137.847656 161.097656 C 137.6875 161.1875 136.261719 162.214844 134.726562 163.140625 C 133.269531 164.03125 131.703125 164.820312 131.546875 164.910156 C 131.613281 165.28125 132.15625 168.726562 132.15625 168.726562 L 129.511719 170.007812 L 127.195312 152.761719 Z M 131.121094 162.304688 C 131.535156 162.101562 132.605469 161.507812 133.667969 160.855469 C 134.625 160.265625 135.386719 159.785156 135.765625 159.472656 C 135.210938 159.039062 130.886719 155.699219 129.992188 154.992188 C 130.167969 156.140625 131.003906 161.589844 131.121094 162.304688 M 145.335938 137.191406 L 157.398438 148.132812 L 155.222656 150.722656 C 155.222656 150.722656 143.910156 147.363281 142.199219 146.894531 C 143.472656 148.132812 150.492188 155.652344 150.492188 155.652344 L 148.375 157.597656 L 137 145.855469 L 139.679688 143.425781 C 139.679688 143.425781 150.589844 146.738281 152.304688 147.203125 C 151.027344 145.964844 143.496094 139.382812 143.496094 139.382812 Z M 150.851562 129.023438 L 164.820312 137.261719 L 163.398438 139.761719 L 149.355469 131.496094 Z M 156.898438 115.390625 L 159.296875 116.660156 L 159.058594 116.945312 C 158.285156 117.90625 157.925781 118.402344 157.554688 119.484375 C 157.378906 119.976562 157.164062 120.925781 157.527344 121.644531 C 157.703125 122.019531 158.023438 122.292969 158.484375 122.4375 C 159.542969 122.808594 160.460938 121.859375 161.515625 120.769531 C 162.992188 119.242188 164.820312 117.367188 167.773438 118.375 C 170.773438 119.410156 171.792969 122.125 170.554688 125.820312 C 170.179688 126.953125 169.484375 127.914062 168.859375 128.804688 L 168.710938 129.003906 L 166.234375 127.828125 L 166.472656 127.53125 C 166.773438 127.175781 167.808594 125.945312 168.199219 124.722656 C 168.570312 123.648438 168.53125 121.835938 166.929688 121.285156 C 165.597656 120.816406 164.597656 121.859375 163.433594 123.085938 C 162.023438 124.597656 160.394531 126.300781 157.71875 125.375 C 156.542969 124.96875 155.667969 124.210938 155.171875 123.199219 C 154.5625 121.960938 154.542969 120.382812 155.101562 118.738281 C 155.460938 117.628906 156.066406 116.476562 156.761719 115.582031 Z M 156.898438 115.390625 "/>
</g>
</svg>
