<?xml version="1.0" standalone="no"?>
<!DOCTYPE svg PUBLIC "-//W3C//DTD SVG 20010904//EN"
 "http://www.w3.org/TR/2001/REC-SVG-20010904/DTD/svg10.dtd">
<svg version="1.0" xmlns="http://www.w3.org/2000/svg"
 width="600.000000pt" height="600.000000pt" viewBox="0 0 600.000000 600.000000"
 preserveAspectRatio="xMidYMid meet">

<g transform="translate(0.000000,600.000000) scale(0.100000,-0.100000)"
fill="#000000" stroke="none">
<path d="M2783 5404 c-3 -8 -3 -45 0 -81 4 -37 2 -134 -4 -216 -5 -83 -6 -154
-2 -158 4 -4 33 -9 63 -11 l55 -3 3 85 c2 46 8 90 14 97 14 17 174 18 184 1 4
-7 7 -52 5 -101 l-2 -88 63 3 63 3 8 120 c4 66 6 174 5 240 l-3 120 -60 0 -60
0 -3 -80 c-2 -43 -8 -85 -15 -93 -9 -11 -28 -13 -92 -8 -44 4 -85 12 -91 19
-8 8 -10 37 -5 90 l7 77 -64 0 c-48 0 -64 -4 -69 -16z"/>
<path d="M2425 5381 c-76 -34 -135 -133 -135 -226 0 -94 65 -200 145 -236 78
-36 192 -19 251 37 42 39 43 62 4 99 -27 26 -31 27 -47 13 -30 -26 -81 -48
-111 -48 -59 0 -112 67 -112 140 0 110 88 158 192 104 27 -14 29 -14 39 13 6
15 15 37 19 49 10 26 3 37 -37 58 -44 22 -156 21 -208 -3z"/>
<path d="M3687 5158 c-77 -225 -79 -234 -62 -274 9 -21 28 -40 53 -53 62 -32
187 -71 225 -71 62 0 80 26 156 220 39 98 71 184 71 190 0 16 -67 42 -99 38
-24 -3 -30 -14 -77 -151 -28 -81 -57 -154 -64 -162 -20 -25 -87 -19 -115 10
-14 13 -25 31 -25 39 0 18 48 155 90 255 16 41 29 75 28 76 -12 7 -109 45
-116 45 -5 0 -34 -73 -65 -162z"/>
<path d="M1998 5281 c-21 -4 -80 -25 -132 -46 l-94 -38 15 -41 c33 -91 133
-379 133 -382 0 -13 -48 9 -232 106 -121 64 -220 110 -236 110 -19 0 -39 -11
-62 -35 l-33 -34 83 -213 c46 -117 88 -225 94 -240 6 -16 13 -28 16 -28 3 1
25 18 50 40 l44 39 -13 38 -14 37 59 53 c43 39 64 52 79 47 60 -17 65 -16 109
20 28 22 55 36 72 36 38 0 114 30 114 45 0 6 -12 40 -26 75 -24 61 -25 65 -8
77 32 24 55 14 114 -49 l58 -62 43 13 c98 30 97 23 16 98 -39 37 -73 71 -75
75 -2 4 5 19 14 34 26 39 25 125 -2 160 -46 62 -104 82 -186 65z m59 -123 c32
-37 35 -46 19 -77 -15 -27 -58 -51 -96 -51 -19 0 -35 31 -46 86 -5 30 -3 40
11 51 30 21 88 16 112 -9z m-477 -349 c27 -17 50 -36 50 -43 0 -13 -57 -72
-64 -65 -5 5 -56 127 -56 134 0 12 22 3 70 -26z"/>
<path d="M3335 5120 c-11 -24 -15 -44 -9 -49 8 -7 157 -31 195 -31 15 0 49 63
49 89 0 8 -141 31 -191 31 -21 0 -30 -8 -44 -40z"/>
<path d="M4161 4893 l-161 -178 47 -42 48 -43 56 60 c57 61 98 78 100 43 2
-38 -3 -77 -17 -116 -24 -67 -19 -95 26 -139 22 -22 45 -38 52 -36 13 5 56
160 57 208 2 42 16 53 82 62 41 5 84 20 126 44 l63 35 -41 35 c-47 39 -67 41
-129 13 -73 -34 -94 -38 -128 -23 -18 7 -32 20 -32 28 0 15 64 101 94 125 16
13 14 18 -26 58 -23 23 -45 43 -48 43 -4 0 -80 -80 -169 -177z"/>
<path d="M2385 4496 c-103 -20 -235 -58 -235 -68 0 -4 21 -36 46 -70 51 -69
84 -129 84 -152 0 -8 -30 -36 -67 -62 -82 -58 -245 -218 -300 -294 -115 -159
-173 -295 -227 -533 -4 -16 -24 -47 -45 -70 -112 -124 -199 -317 -216 -481
l-8 -69 24 7 c13 4 69 10 125 13 88 5 106 3 149 -16 26 -12 50 -20 52 -18 2 2
-4 46 -13 98 -22 121 -25 406 -5 462 29 83 298 241 496 292 137 36 294 43 444
21 160 -24 241 -52 339 -120 315 -215 673 -263 1039 -141 123 41 263 110 263
129 0 8 -14 54 -31 103 -113 321 -336 566 -667 732 -163 82 -317 123 -549 146
-85 9 -166 23 -200 35 -166 60 -176 62 -303 66 -79 2 -151 -2 -195 -10z m350
-76 c39 -12 39 -12 15 -24 -41 -21 -400 -149 -404 -145 -17 22 -84 144 -80
148 3 3 42 13 87 23 93 20 312 19 382 -2z m460 -95 c455 -74 838 -353 1007
-735 58 -132 57 -138 -22 -177 -78 -38 -231 -88 -320 -104 -85 -16 -289 -16
-365 0 -221 45 -419 154 -575 317 -79 82 -114 102 -126 69 -3 -8 4 -31 17 -51
20 -34 21 -36 3 -31 -39 12 -191 27 -274 27 -100 0 -245 -21 -350 -50 -92 -26
-256 -103 -340 -160 -34 -23 -64 -39 -68 -36 -17 18 57 207 128 326 179 298
520 534 876 604 93 19 298 19 409 1z m-1524 -1415 l4 -115 -89 -3 -89 -3 7 42
c10 65 63 191 109 260 l41 64 7 -65 c4 -36 8 -117 10 -180z"/>
<path d="M3851 3693 c-12 -10 -24 -34 -27 -54 -5 -28 -1 -41 21 -67 44 -52
114 -41 141 23 15 38 11 59 -19 93 -25 27 -85 30 -116 5z"/>
<path d="M1024 3918 c-388 -375 -634 -750 -779 -1190 -90 -274 -131 -516 -142
-840 l-6 -188 379 0 380 0 -18 103 c-70 416 -69 866 3 1271 51 289 174 658
305 918 19 37 32 68 30 68 -2 0 -70 -64 -152 -142z"/>
<path d="M4870 4004 c0 -4 21 -52 46 -108 140 -304 241 -652 289 -996 22 -155
31 -597 16 -771 -11 -129 -45 -375 -57 -411 -5 -17 17 -18 359 -18 324 0 366
2 371 16 18 46 -5 409 -40 624 -42 266 -156 592 -290 835 -139 250 -306 468
-526 688 -133 132 -168 161 -168 141z"/>
<path d="M2334 3025 c-218 -39 -345 -134 -406 -303 -29 -80 -29 -255 1 -365
78 -293 364 -541 736 -638 l120 -31 240 5 c240 6 320 15 435 54 188 63 473
266 637 455 173 198 191 394 44 470 -70 37 -125 36 -311 -2 -218 -45 -333 -40
-527 25 -127 42 -238 98 -375 187 -209 136 -392 180 -594 143z m267 -69 c92
-20 269 -103 269 -127 0 -3 -53 -9 -117 -12 -141 -8 -220 -26 -309 -69 -125
-61 -199 -151 -224 -270 -24 -119 24 -237 149 -370 124 -132 257 -223 446
-304 55 -23 101 -46 102 -51 5 -13 -124 3 -217 26 -196 49 -364 140 -504 272
-103 98 -153 174 -193 294 -22 68 -27 98 -27 200 -1 112 1 124 28 182 34 74
113 154 183 185 121 54 284 71 414 44z m346 -221 c86 -16 475 -145 471 -156
-2 -4 -44 -38 -93 -76 -130 -101 -214 -219 -215 -301 0 -95 108 -193 260 -235
30 -9 113 -19 185 -22 149 -8 149 -7 1 -82 -108 -54 -255 -94 -351 -95 -91 0
-267 53 -423 127 -316 151 -523 384 -498 561 17 128 148 240 327 279 86 18
240 18 336 0z m1171 -124 c80 -43 72 -166 -20 -299 -18 -25 -66 -82 -107 -125
-82 -86 -146 -125 -250 -152 -87 -22 -243 -30 -313 -16 -127 27 -248 116 -248
182 0 43 76 155 153 224 96 87 256 154 370 155 15 0 83 11 150 25 177 35 209
36 265 6z"/>
<path d="M545 1300 c-11 -4 -31 -20 -45 -34 -33 -36 -36 -130 -4 -173 30 -41
69 -61 91 -47 15 9 21 6 35 -18 23 -37 64 -57 81 -39 9 10 8 15 -7 25 -10 6
-28 19 -40 28 l-21 16 29 31 c37 38 47 111 21 160 -24 48 -90 72 -140 51z m98
-52 c32 -38 17 -131 -27 -167 -39 -33 -106 28 -106 96 0 89 81 133 133 71z"/>
<path d="M1465 1300 c-90 -37 -99 -201 -14 -245 51 -27 145 -12 133 20 -4 10
-12 14 -23 9 -70 -30 -121 3 -128 82 -4 43 -2 54 20 79 24 29 49 34 111 23 32
-5 29 19 -5 31 -37 13 -66 13 -94 1z"/>
<path d="M4153 1296 c-37 -17 -51 -55 -35 -91 8 -17 28 -29 67 -41 68 -22 85
-44 54 -75 -21 -21 -54 -22 -101 -4 -13 5 -18 2 -18 -9 0 -22 47 -39 93 -33
108 14 103 131 -7 151 -41 8 -60 28 -51 55 7 24 45 34 80 21 36 -14 45 -13 45
4 0 19 -9 24 -56 31 -24 3 -52 0 -71 -9z"/>
<path d="M5313 1295 c-46 -20 -66 -65 -61 -137 3 -47 10 -64 30 -85 32 -32
112 -43 142 -20 28 20 12 39 -21 26 -63 -24 -113 19 -113 96 0 78 50 120 114
96 35 -14 36 -14 36 4 0 32 -73 44 -127 20z"/>
<path d="M255 1288 c-88 -248 -88 -248 -63 -248 5 0 16 16 25 35 16 34 19 35
70 35 52 0 55 -1 69 -35 14 -34 28 -44 38 -26 3 4 -13 63 -35 130 -40 118 -41
121 -70 121 -16 0 -32 -6 -34 -12z m59 -82 c24 -73 22 -76 -30 -76 -31 0 -44
4 -42 13 16 60 43 126 49 120 3 -5 14 -30 23 -57z"/>
<path d="M802 1195 c4 -123 17 -144 89 -152 89 -8 117 34 118 175 1 76 -1 82
-19 82 -18 0 -20 -7 -20 -86 0 -81 -10 -120 -34 -136 -22 -15 -55 -7 -75 18
-18 23 -21 41 -21 115 0 84 -1 89 -21 89 -21 0 -21 -4 -17 -105z"/>
<path d="M1175 1288 c-88 -248 -88 -248 -63 -248 5 0 16 16 25 35 16 34 19 35
70 35 52 0 55 -1 69 -35 14 -34 28 -44 38 -26 3 4 -13 63 -35 130 -40 118 -41
121 -70 121 -16 0 -32 -6 -34 -12z m59 -82 c24 -73 22 -76 -30 -76 -31 0 -44
4 -42 13 16 60 43 126 49 120 3 -5 14 -30 23 -57z"/>
<path d="M1690 1199 c0 -98 1 -101 29 -130 23 -23 38 -29 71 -29 33 0 48 6 71
29 27 28 29 35 29 108 0 43 3 88 6 101 5 18 2 22 -15 22 -19 0 -21 -5 -21 -69
0 -38 -3 -83 -6 -100 -13 -61 -87 -79 -116 -28 -8 13 -12 56 -11 110 2 80 0
87 -18 87 -17 0 -19 -8 -19 -101z"/>
<path d="M2010 1170 l0 -131 78 3 c60 2 77 6 77 18 0 11 -15 16 -62 18 l-63 3
0 109 c0 91 -3 110 -15 110 -13 0 -15 -21 -15 -130z"/>
<path d="M2210 1285 c0 -11 11 -15 40 -15 l39 0 3 -112 c2 -93 6 -113 18 -113
12 0 16 20 18 113 l3 112 39 0 c29 0 40 4 40 15 0 12 -18 15 -100 15 -82 0
-100 -3 -100 -15z"/>
<path d="M2502 1194 c3 -102 4 -107 31 -130 47 -41 133 -28 156 23 7 14 14 68
18 119 6 90 5 94 -15 94 -19 0 -20 -7 -24 -96 -3 -86 -5 -98 -27 -115 -30 -24
-56 -24 -81 1 -17 17 -20 33 -20 115 0 90 -1 95 -21 95 -20 0 -21 -4 -17 -106z"/>
<path d="M2822 1173 c3 -106 6 -128 18 -128 10 0 16 13 18 43 3 38 5 42 30 42
20 -1 35 -12 60 -45 32 -44 54 -55 67 -34 4 6 1 16 -7 22 -7 7 -22 22 -32 34
-18 22 -18 23 8 53 33 40 34 83 1 115 -21 22 -33 25 -95 25 l-71 0 3 -127z
m128 87 c42 -42 13 -100 -50 -100 -37 0 -38 1 -44 43 -4 24 -4 51 0 60 9 24
69 22 94 -3z"/>
<path d="M3122 1173 l3 -128 78 -3 c72 -3 77 -1 77 18 0 18 -6 20 -60 20 l-60
0 0 40 0 40 55 0 c42 0 55 3 55 15 0 12 -13 15 -55 15 l-55 0 0 40 0 40 60 0
c47 0 60 3 60 15 0 12 -16 15 -80 15 l-81 0 3 -127z"/>
<path d="M3558 1180 c-3 -133 -2 -140 18 -140 10 0 14 13 14 45 0 43 1 45 29
45 24 0 36 -9 62 -45 18 -25 40 -45 51 -45 26 0 22 20 -13 60 -28 34 -29 35
-10 50 34 27 43 57 31 96 -15 45 -35 54 -114 54 l-65 0 -3 -120z m133 83 c4
-4 11 -20 14 -35 10 -38 -23 -68 -75 -68 l-40 0 0 53 c0 30 3 57 8 61 9 9 81
1 93 -11z"/>
<path d="M3860 1170 l0 -130 80 0 c73 0 80 2 80 20 0 18 -7 20 -66 20 l-65 0
3 38 3 37 53 3 c37 2 52 7 52 18 0 10 -14 14 -55 14 l-55 0 0 40 0 40 65 0
c51 0 65 3 65 15 0 12 -16 15 -80 15 l-80 0 0 -130z"/>
<path d="M4394 1239 c3 -34 6 -93 6 -131 l0 -69 77 3 c65 3 78 6 81 21 3 15
-5 17 -62 17 l-66 0 0 40 0 40 55 0 c42 0 55 3 55 15 0 12 -13 15 -55 15 l-55
0 0 40 0 40 65 0 c51 0 65 3 65 15 0 12 -16 15 -86 15 l-87 0 7 -61z"/>
<path d="M4702 1218 c-42 -117 -56 -167 -49 -174 10 -10 34 14 41 41 6 23 11
25 65 25 58 0 60 -1 66 -31 6 -29 29 -48 41 -36 4 3 -13 62 -36 131 -40 122
-43 126 -70 126 -26 0 -30 -6 -58 -82z m82 -12 c23 -71 22 -76 -22 -76 -21 0
-41 3 -44 6 -3 3 4 34 15 70 12 35 24 61 28 56 3 -4 14 -29 23 -56z"/>
<path d="M4970 1170 c0 -109 2 -130 15 -130 11 0 15 12 15 45 0 43 1 45 30 45
25 0 36 -9 62 -45 30 -42 59 -57 72 -36 3 5 -10 26 -30 46 l-36 38 29 22 c22
19 28 31 28 65 0 61 -27 80 -116 80 l-69 0 0 -130z m137 84 c33 -45 -3 -94
-67 -94 l-40 0 0 53 c0 30 3 57 8 61 12 13 86 -2 99 -20z"/>
<path d="M5550 1169 c0 -119 2 -130 18 -127 14 3 17 14 17 58 l0 55 73 3 72 3
0 -61 c0 -53 2 -61 18 -58 15 3 17 19 20 131 2 122 2 127 -18 127 -18 0 -20
-6 -20 -55 l0 -55 -70 0 -70 0 0 55 c0 48 -2 55 -20 55 -19 0 -20 -7 -20 -131z"/>
<path d="M318 811 c-29 -25 -32 -35 -36 -95 -4 -64 -3 -67 31 -101 30 -30 42
-35 80 -35 54 0 77 8 77 26 0 10 -12 12 -49 7 -44 -5 -52 -3 -75 20 -37 37
-37 117 -1 152 26 27 72 33 106 15 16 -9 19 -7 19 9 0 23 -19 31 -76 31 -34 0
-51 -6 -76 -29z"/>
<path d="M617 829 c-30 -17 -47 -65 -47 -129 0 -55 3 -65 29 -91 24 -24 38
-29 76 -29 25 0 55 5 66 10 29 16 49 64 49 120 0 88 -36 130 -110 129 -25 0
-53 -4 -63 -10z m112 -38 c44 -44 31 -157 -21 -175 -18 -6 -38 -6 -55 0 -54
19 -68 129 -22 175 24 24 73 25 98 0z"/>
<path d="M900 710 l0 -130 80 0 c63 0 80 3 80 15 0 10 -16 15 -62 17 l-63 3
-3 113 c-2 90 -5 112 -17 112 -12 0 -15 -22 -15 -130z"/>
<path d="M1160 710 l0 -130 75 0 c59 0 75 3 75 15 0 10 -15 15 -57 17 l-58 3
-3 113 c-2 90 -5 112 -17 112 -12 0 -15 -22 -15 -130z"/>
<path d="M1466 798 c-30 -83 -76 -212 -76 -215 0 -2 9 -3 19 -3 12 0 23 11 30
30 10 29 12 30 70 30 58 0 60 -1 66 -30 5 -21 13 -30 26 -30 10 0 19 3 18 8 0
4 -19 61 -42 127 -38 110 -44 120 -68 123 -24 3 -29 -2 -43 -40z m63 -50 c12
-34 21 -66 21 -70 0 -4 -21 -8 -46 -8 -33 0 -45 4 -41 13 2 6 13 38 23 70 10
31 19 57 20 57 1 0 12 -28 23 -62z"/>
<path d="M1710 710 l0 -130 66 0 c94 0 124 18 124 78 0 25 -6 35 -25 44 l-25
11 20 20 c29 26 24 77 -10 94 -14 7 -53 13 -87 13 l-63 0 0 -130z m124 94 c9
-4 16 -18 16 -34 0 -31 -15 -40 -66 -40 -33 0 -34 1 -34 40 0 39 1 40 34 40
19 0 41 -3 50 -6z m22 -129 c12 -18 11 -24 -2 -43 -12 -17 -25 -22 -60 -22
l-44 0 0 46 0 45 46 -3 c34 -2 50 -9 60 -23z"/>
<path d="M2037 819 c-55 -43 -59 -159 -7 -211 23 -23 37 -28 77 -28 42 0 54 5
79 31 26 28 29 36 29 100 0 67 -2 72 -33 100 -41 36 -105 40 -145 8z m122 -35
c33 -42 26 -141 -13 -166 -21 -14 -73 -8 -90 11 -20 22 -31 80 -22 116 16 65
87 87 125 39z"/>
<path d="M2330 711 c0 -107 3 -131 14 -131 10 0 16 14 18 43 3 37 6 42 30 45
22 3 32 -5 58 -43 23 -34 37 -45 53 -43 23 3 36 28 15 29 -7 0 -23 13 -36 29
l-22 28 31 32 c26 26 30 36 25 63 -11 54 -37 71 -116 75 l-70 4 0 -131z m134
77 c35 -50 9 -88 -60 -88 l-44 0 0 55 0 55 44 0 c35 0 48 -5 60 -22z"/>
<path d="M2651 723 c-22 -65 -41 -124 -41 -130 0 -25 28 -13 40 17 12 28 15
30 70 30 55 0 59 -1 69 -30 9 -26 41 -44 41 -23 0 5 -18 63 -41 130 -39 118
-42 123 -68 123 -27 0 -30 -6 -70 -117z m93 23 c24 -73 22 -76 -30 -76 -33 0
-44 4 -40 13 3 6 13 38 23 69 10 31 21 54 24 50 4 -4 14 -29 23 -56z"/>
<path d="M2880 826 c0 -10 13 -16 38 -18 l37 -3 3 -112 c2 -91 5 -113 17 -113
12 0 15 20 15 109 0 119 1 121 61 121 19 0 29 5 29 15 0 12 -18 15 -100 15
-80 0 -100 -3 -100 -14z"/>
<path d="M3172 713 c3 -112 5 -128 21 -131 15 -3 17 8 17 127 0 125 -1 131
-20 131 -20 0 -20 -5 -18 -127z"/>
<path d="M3313 828 c2 -7 21 -66 41 -130 36 -115 37 -118 66 -118 27 0 30 4
69 123 23 67 41 126 41 130 0 5 -8 7 -17 5 -12 -2 -28 -37 -54 -117 -20 -62
-39 -109 -41 -104 -3 4 -20 56 -38 116 -27 88 -37 107 -53 107 -11 0 -17 -5
-14 -12z"/>
<path d="M3630 710 l0 -130 80 0 c64 0 80 3 80 15 0 12 -13 15 -59 15 -52 0
-59 2 -65 23 -14 52 -10 57 49 57 41 0 55 4 55 14 0 11 -15 16 -52 18 l-53 3
0 40 0 40 63 3 c46 2 62 7 62 17 0 12 -17 15 -80 15 l-80 0 0 -130z"/>
<path d="M4060 710 c0 -123 1 -130 20 -130 18 0 20 7 20 55 l0 55 70 0 70 0 0
-55 c0 -48 2 -55 20 -55 19 0 20 7 20 130 0 123 -1 130 -20 130 -18 0 -20 -7
-20 -60 l0 -60 -70 0 -70 0 0 60 c0 53 -2 60 -20 60 -19 0 -20 -7 -20 -130z"/>
<path d="M4392 736 c3 -94 6 -108 27 -130 20 -21 34 -26 76 -26 42 0 56 5 76
26 21 22 24 36 27 130 4 100 4 104 -17 104 -20 0 -21 -5 -21 -93 0 -114 -13
-140 -68 -135 -50 4 -62 31 -62 141 0 82 -1 87 -21 87 -21 0 -21 -4 -17 -104z"/>
<path d="M4710 710 l0 -130 66 0 c94 0 124 18 124 77 0 25 -6 36 -25 46 l-26
13 21 19 c20 18 26 51 12 71 -15 23 -52 34 -111 34 l-61 0 0 -130z m134 78
c18 -29 -4 -53 -53 -56 l-41 -3 0 41 0 41 41 -3 c27 -2 46 -9 53 -20z m4 -100
c7 -7 12 -21 12 -33 0 -32 -20 -45 -67 -45 l-43 0 0 45 0 45 43 0 c24 0 48 -5
55 -12z"/>
<path d="M5162 735 c4 -93 7 -108 28 -130 19 -20 33 -25 75 -25 42 0 56 5 76
26 22 23 24 36 27 130 4 100 3 104 -17 104 -20 0 -21 -5 -21 -93 0 -106 -13
-137 -59 -137 -56 0 -66 18 -69 129 -4 94 -5 101 -24 101 -20 0 -20 -4 -16
-105z"/>
<path d="M5480 710 c0 -123 1 -130 20 -130 18 0 20 7 20 60 0 53 2 60 20 60
13 0 35 -21 63 -60 30 -42 49 -60 65 -60 23 0 31 24 10 33 -7 2 -28 25 -45 50
l-33 45 45 61 c25 34 45 63 45 66 0 3 -9 5 -19 5 -13 0 -35 -22 -62 -60 -32
-46 -48 -60 -63 -58 -18 3 -21 11 -24 61 -3 49 -6 57 -22 57 -19 0 -20 -8 -20
-130z"/>
</g>
</svg>
