<svg xmlns="http://www.w3.org/2000/svg" width="700" height="243" viewBox="0 0 700 243" version="1.1"><path d="M 2.083 0.465 C 5.426 4.196, 121.551 120, 121.949 120 C 122.256 120, 149.503 93, 182.500 60 L 242.494 0 122.080 0 C 55.853 0, 1.854 0.209, 2.083 0.465 M 61.500 183 L 1.506 243 122 243 L 242.494 243 182.500 183 C 149.503 150, 122.278 123, 122 123 C 121.722 123, 94.497 150, 61.500 183" stroke="none" fill="#343233" fill-rule="evenodd"/><path d="M 0 121.500 C 0 187.225, 0.278 241, 0.618 241 C 1.614 241, 120.002 122.363, 119.980 121.387 C 119.958 120.350, 1.696 2, 0.683 2 C 0.307 2, 0 55.775, 0 121.500 M 282.433 49.400 C 281.303 52.598, 283.274 55.743, 286.208 55.419 C 287.468 55.280, 288.866 55.129, 289.313 55.083 C 289.761 55.038, 289.986 53.538, 289.813 51.750 C 289.531 48.819, 289.172 48.490, 286.161 48.400 C 284.325 48.345, 282.647 48.795, 282.433 49.400 M 252.052 64.757 C 251.895 84.248, 251.759 84, 262.593 84 C 268.909 84, 270.631 83.611, 273.905 81.444 C 277.336 79.173, 277.759 78.449, 277.694 74.944 C 277.654 72.775, 277.230 71, 276.752 71 C 276.273 71, 276.157 70.555, 276.493 70.011 C 276.840 69.450, 276.451 69.274, 275.594 69.602 C 273.214 70.516, 272.208 65.052, 274.454 63.410 C 277.297 61.331, 276.625 54.324, 273.413 52.554 C 272.361 51.974, 271.215 51.109, 270.868 50.631 C 270.520 50.153, 266.173 49.531, 261.208 49.248 L 252.182 48.733 252.052 64.757 M 326.578 50.658 C 325.607 53.189, 325.936 78.701, 326.975 81.435 C 327.725 83.408, 328.649 84, 330.975 84 L 334 84 334 78.097 L 334 72.193 339.250 71.634 C 346.657 70.845, 347 70.765, 347 69.827 C 347 69.365, 348.033 68.088, 349.296 66.991 C 352.706 64.026, 352.906 54, 349.555 54 C 348.834 54, 347.627 53.239, 346.872 52.308 C 345.704 50.867, 345.708 50.742, 346.905 51.463 C 347.828 52.019, 348.078 51.935, 347.635 51.218 C 347.264 50.618, 346.182 50.118, 345.230 50.107 C 344.279 50.095, 339.823 49.876, 335.328 49.619 C 328.673 49.239, 327.048 49.432, 326.578 50.658 M 260.250 55.625 C 259.555 55.926, 259 57.905, 259 60.083 L 259 64 263.421 64 C 267.551 64, 267.886 63.796, 268.522 60.901 C 268.896 59.197, 268.805 57.405, 268.320 56.920 C 267.178 55.778, 261.865 54.926, 260.250 55.625 M 334.406 56.386 C 334.113 57.148, 334.015 59.735, 334.187 62.136 C 334.497 66.464, 334.529 66.498, 338 66.197 C 342.383 65.818, 346.712 61.563, 344.916 59.399 C 344.278 58.630, 344.148 57.984, 344.628 57.965 C 345.107 57.945, 344.375 57.286, 343 56.500 C 339.788 54.664, 335.090 54.601, 334.406 56.386 M 301.552 59.591 C 300.698 60.444, 300 60.816, 300 60.416 C 300 60.017, 299.097 60.507, 297.994 61.506 C 296.890 62.504, 296.209 63.542, 296.478 63.812 C 296.748 64.081, 296.326 64.797, 295.539 65.401 C 293.624 66.873, 292.172 72.630, 294 71.500 C 294.980 70.894, 295.136 71.322, 294.647 73.271 C 293.848 76.455, 294.745 79, 296.666 79 C 297.465 79, 297.859 79.419, 297.542 79.932 C 296.837 81.073, 300.981 84.130, 302.207 83.372 C 302.691 83.073, 303.744 83.373, 304.546 84.038 C 306.322 85.512, 311.505 84.637, 313.639 82.504 C 314.476 81.667, 315.568 81.233, 316.065 81.540 C 316.562 81.848, 317.836 80.674, 318.895 78.933 C 320.316 76.596, 320.740 74.339, 320.514 70.321 C 320.200 64.723, 319.689 63.500, 317.667 63.500 C 317.025 63.500, 316.480 62.825, 316.455 62 C 316.430 61.175, 315.867 60.613, 315.205 60.750 C 314.542 60.888, 314 60.550, 314 60 C 314 59.450, 313.663 59.053, 313.250 59.118 C 312.837 59.184, 312.275 59.139, 312 59.019 C 309.457 57.911, 302.872 58.271, 301.552 59.591 M 366.250 59.275 C 365.012 59.842, 364 60.687, 364 61.153 C 364 61.619, 363.523 62, 362.941 62 C 362.359 62, 362.128 61.601, 362.430 61.114 C 362.994 60.201, 359.847 59.038, 356.750 59.014 C 355.180 59.001, 355 60.233, 355 71 C 355 83.481, 355.211 84.045, 359.500 82.991 C 360.050 82.856, 361.063 82.728, 361.750 82.706 C 362.639 82.678, 363 80.429, 363 74.915 C 363 66.192, 363.560 63.894, 365.505 64.640 C 367.295 65.327, 371 63.269, 371 61.587 C 371 59.258, 368.716 58.146, 366.250 59.275 M 382.459 59.067 C 382.130 59.598, 381.443 59.774, 380.931 59.457 C 380.419 59.141, 380 59.385, 380 60 C 380 60.615, 379.618 60.882, 379.151 60.593 C 378.229 60.024, 373.892 64.559, 373.614 66.382 C 373.520 66.997, 373.074 68.092, 372.623 68.815 C 371.579 70.487, 372.758 77, 374.104 77 C 374.662 77, 374.938 77.338, 374.718 77.750 C 374.497 78.162, 375.146 79.287, 376.159 80.250 C 377.171 81.213, 378 81.731, 378 81.401 C 378 81.072, 379.601 81.747, 381.557 82.901 C 385.396 85.166, 388.513 85.597, 389.500 84 C 389.840 83.450, 391.006 83, 392.090 83 C 393.175 83, 394.321 82.328, 394.636 81.506 C 394.952 80.684, 395.593 80.249, 396.062 80.538 C 397.643 81.515, 399.742 75.538, 399.588 70.500 C 399.425 65.168, 398.447 62.606, 396.931 63.543 C 396.419 63.859, 396 63.432, 396 62.594 C 396 61.339, 392.105 58.253, 391.250 58.831 C 391.113 58.924, 390.887 58.974, 390.750 58.942 C 387.798 58.262, 382.911 58.335, 382.459 59.067 M 412.211 59.538 C 411.501 60.342, 410.094 61, 409.083 61 C 406.711 61, 404.770 63.368, 403.434 67.891 C 401.851 73.247, 404.552 82.013, 407.268 80.334 C 407.875 79.959, 408.010 80.175, 407.591 80.853 C 406.915 81.946, 408.116 82.807, 411.172 83.421 C 411.902 83.567, 413.743 84.033, 415.263 84.455 C 417.051 84.952, 418.559 84.781, 419.537 83.969 C 420.368 83.279, 421.322 82.988, 421.656 83.322 C 422.884 84.551, 425.727 82.004, 425.602 79.787 C 425.488 77.768, 425.006 77.526, 421.486 77.724 C 411.294 78.297, 407.311 75.168, 410.466 69.065 C 412.648 64.845, 419.057 62.970, 421.856 65.731 C 423.742 67.592, 425.850 65.664, 425.266 62.611 C 424.472 58.456, 415.109 56.252, 412.211 59.538 M 437.750 58.727 C 436.788 58.958, 436 59.590, 436 60.132 C 436 60.674, 435.608 60.876, 435.128 60.579 C 433.673 59.680, 429.167 65.921, 429.726 68.061 C 430.005 69.127, 429.731 70, 429.117 70 C 428.502 70, 428 70.900, 428 72 C 428 73.100, 428.450 74, 429 74 C 429.550 74, 430 75.025, 430 76.278 C 430 77.531, 430.900 79.326, 432 80.268 C 433.100 81.210, 434 81.748, 434 81.465 C 434 81.181, 435.289 81.615, 436.865 82.430 C 441.203 84.674, 444.490 84.977, 447.504 83.414 C 449.002 82.636, 450.756 82, 451.402 82 C 452.047 82, 452.641 81.121, 452.722 80.047 C 452.907 77.589, 449.790 76.507, 446.932 78.036 C 445.594 78.753, 443.421 78.898, 441.145 78.423 C 439.140 78.005, 437.163 77.739, 436.750 77.832 C 436.337 77.924, 436 76.875, 436 75.500 C 436 73.139, 436.320 72.992, 441.750 72.864 C 444.913 72.790, 449.141 72.755, 451.148 72.788 C 454.430 72.842, 454.838 72.556, 455.223 69.932 C 455.703 66.666, 453.580 62.795, 449.894 60.213 C 448.577 59.291, 447.387 58.641, 447.250 58.768 C 447.113 58.896, 446.887 58.954, 446.750 58.899 C 445.795 58.511, 439.175 58.384, 437.750 58.727 M 463.744 59.207 C 462.228 59.737, 461.213 60.535, 461.488 60.981 C 461.763 61.426, 461.342 62.039, 460.551 62.342 C 459.208 62.857, 459.188 66.030, 460.503 69.765 C 461.033 71.270, 466.013 73.572, 469.393 73.875 C 471.470 74.061, 472.275 77.153, 470.665 78.763 C 469.454 79.974, 468.653 79.864, 464.947 77.973 C 460.893 75.905, 460.563 75.877, 459.370 77.509 C 457.857 79.578, 459.173 81.304, 463.675 83.152 C 467.239 84.615, 469.176 84.761, 470.706 83.680 C 471.370 83.211, 472.452 83.161, 473.111 83.568 C 473.826 84.011, 474.048 83.886, 473.660 83.259 C 473.044 82.262, 475.655 80.504, 477.250 80.841 C 478.046 81.010, 478.366 78.800, 478.022 75.500 C 477.720 72.592, 475.044 70, 472.345 70 C 471.055 70, 470 69.600, 470 69.111 C 470 68.622, 469.213 68.285, 468.250 68.361 C 465.941 68.544, 465.313 64.478, 467.520 63.631 C 468.413 63.288, 469.983 63.456, 471.007 64.004 C 473.880 65.542, 475.716 65.194, 476.289 63.002 C 477.211 59.478, 469.575 57.168, 463.744 59.207 M 486.859 59.264 C 483.483 60.600, 480.769 67.608, 483.065 69.061 C 483.854 69.561, 484.067 69.976, 483.539 69.985 C 482.404 70.003, 489.938 74.052, 491.721 74.382 C 493.723 74.754, 494.220 75.730, 493.524 77.925 C 492.685 80.568, 490.972 80.552, 487.562 77.870 C 485.262 76.061, 484.512 75.923, 482.587 76.953 L 480.320 78.167 483.363 81.209 C 485.966 83.812, 487.108 84.236, 491.262 84.143 C 493.933 84.083, 496.879 83.590, 497.809 83.047 C 498.739 82.505, 499.132 82.047, 498.682 82.030 C 498.232 82.014, 498.835 80.636, 500.023 78.968 L 502.182 75.936 498.436 72.505 C 496.375 70.618, 494.310 69.309, 493.845 69.596 C 493.380 69.883, 493 69.641, 493 69.059 C 493 68.477, 492.311 68, 491.469 68 C 489.440 68, 488.356 65.016, 490.012 63.992 C 490.729 63.549, 492.341 63.654, 493.594 64.225 C 496.517 65.557, 499 64.598, 499 62.138 C 499 58.960, 491.883 57.275, 486.859 59.264 M 283.662 59.750 C 283.073 60.718, 282.538 72.142, 282.798 78.183 C 282.959 81.924, 283.412 82.996, 285.048 83.515 C 288.740 84.687, 289.583 82.681, 289.762 72.296 C 289.855 66.908, 289.691 61.712, 289.398 60.750 C 288.868 59.009, 284.568 58.259, 283.662 59.750 M 438.384 65.229 C 433.968 68.504, 435.028 69.771, 441.770 69.277 C 444.908 69.047, 447.634 68.699, 447.829 68.504 C 448.592 67.741, 446.900 64.331, 445.736 64.286 C 445.056 64.260, 443.813 63.950, 442.973 63.598 C 442.104 63.233, 440.128 63.935, 438.384 65.229 M 303.385 65.422 C 299.742 69.356, 299.474 73.331, 302.637 76.494 C 304.486 78.343, 309.880 78.407, 312.250 76.608 C 314.628 74.803, 314.561 68.817, 312.138 66.625 C 309.801 64.510, 304.859 63.831, 303.385 65.422 M 382.500 65.536 C 380.850 66.292, 379.853 66.930, 380.285 66.955 C 380.717 66.980, 380.608 67.863, 380.044 68.918 C 378.918 71.022, 379.753 77.271, 381.053 76.467 C 381.498 76.192, 382.144 76.425, 382.490 76.984 C 383.385 78.431, 389.175 78.183, 391.250 76.608 C 393.037 75.251, 393.650 69.519, 392.235 67.400 C 391.387 66.130, 387.519 63.961, 386.316 64.081 C 385.867 64.126, 384.150 64.781, 382.500 65.536 M 259.157 70.311 C 257.286 72.565, 258.826 77.978, 261.375 78.111 C 269.013 78.509, 272.046 76.592, 270.199 72.537 C 269.343 70.658, 268.280 70, 266.103 70 C 264.486 70, 262.524 69.755, 261.742 69.454 C 260.960 69.154, 259.797 69.540, 259.157 70.311 M 477.926 98.250 C 476.857 101.846, 477.263 103.085, 479.971 104.485 C 482.702 105.897, 482.997 105.874, 483.910 104.168 C 485.610 100.991, 484.142 98, 480.883 98 C 479.298 98, 477.967 98.112, 477.926 98.250 M 582.133 99 C 581.757 99.275, 581.320 106.980, 581.162 116.121 L 580.873 132.743 583.681 133.279 C 585.225 133.575, 586.829 133.606, 587.244 133.349 C 587.660 133.092, 588 125.081, 588 115.547 L 588 98.212 585.408 98.356 C 583.983 98.435, 582.509 98.725, 582.133 99 M 282.125 116.500 C 282.149 133.801, 282.174 134, 284.324 133.985 C 288.687 133.954, 288.917 133.139, 289.052 117.234 C 289.155 105.142, 288.884 101.741, 287.726 100.583 C 286.599 99.456, 285.983 99.395, 284.989 100.314 C 283.994 101.234, 283.865 101.220, 284.412 100.250 C 284.841 99.491, 284.526 99, 283.610 99 C 282.322 99, 282.105 101.558, 282.125 116.500 M 328.471 103.288 C 327.905 103.955, 327.601 105.287, 327.795 106.250 C 327.988 107.213, 327.551 108.014, 326.823 108.032 C 326.095 108.049, 324.688 108.679, 323.696 109.432 C 321.980 110.733, 322.011 110.920, 324.327 113.236 C 326.480 115.389, 326.726 116.402, 326.448 121.974 C 326.224 126.471, 326.547 128.690, 327.576 129.719 C 328.369 130.512, 328.785 131.539, 328.500 132 C 327.595 133.464, 334.670 135.247, 336.820 134.097 C 337.874 133.532, 339.021 133.355, 339.369 133.702 C 339.716 134.049, 340 133.583, 340 132.667 C 340 131.750, 340.507 131.113, 341.128 131.250 C 342.661 131.590, 343.405 125.868, 341.945 124.966 C 340.037 123.787, 337.229 125.030, 336.576 127.342 C 335.978 129.461, 335.941 129.465, 334.484 127.559 C 332.993 125.608, 332.475 118.532, 333.607 115.582 C 333.967 114.644, 335.391 114, 337.107 114 C 338.814 114, 340 113.467, 340 112.700 C 340 110.864, 337.913 109, 335.859 109 C 333.756 109, 333.061 108.005, 332.778 104.589 C 332.550 101.837, 330.284 101.153, 328.471 103.288 M 459.500 103 C 459.840 103.550, 459.611 104, 458.992 104 C 458.342 104, 458.119 104.800, 458.465 105.891 C 458.927 107.347, 458.368 108.025, 456.033 108.839 C 454.365 109.420, 453 110.124, 453 110.403 C 453 110.681, 454.097 112.006, 455.438 113.347 C 457.511 115.420, 457.875 116.736, 457.875 122.163 C 457.875 129.541, 459.375 134.454, 461.392 133.680 C 462.142 133.392, 463.217 133.617, 463.779 134.179 C 465.058 135.458, 470.468 134.346, 472.010 132.488 C 472.641 131.727, 473.374 129.731, 473.639 128.052 C 474.084 125.232, 473.897 125, 471.177 125 C 469 125, 468.086 125.564, 467.667 127.164 C 467.189 128.993, 466.860 129.129, 465.551 128.042 C 464.449 127.128, 464 124.925, 464 120.441 L 464 114.127 467.250 113.813 C 471.875 113.367, 471.721 110.158, 467 108.627 C 463.985 107.649, 463.545 107.111, 463.822 104.746 C 464.100 102.366, 463.793 102, 461.513 102 C 460.013 102, 459.148 102.430, 459.500 103 M 307 109.510 C 304.679 110.353, 302.898 110.462, 301.712 109.835 C 300.729 109.315, 299.027 109.174, 297.931 109.522 C 296.068 110.113, 295.956 110.916, 296.219 121.827 L 296.500 133.500 299 133.500 C 301.399 133.500, 301.526 133.184, 302.133 125.708 C 302.793 117.582, 304.598 114, 308.033 114 C 311.045 114, 312.207 116.756, 312.484 124.559 C 312.778 132.828, 313.538 134.344, 317.135 133.835 C 319.399 133.514, 319.512 133.111, 319.792 124.364 C 320.018 117.296, 319.746 114.889, 318.590 113.733 C 317.768 112.911, 317.411 111.887, 317.798 111.459 C 318.184 111.030, 317.952 110.994, 317.283 111.378 C 316.581 111.781, 315.526 111.213, 314.792 110.039 C 313.367 107.756, 312.070 107.668, 307 109.510 M 353.500 109.940 C 351.850 110.927, 350.213 111.574, 349.863 111.378 C 348.876 110.826, 347.479 113.115, 346.126 117.500 C 344.665 122.237, 345.019 125.374, 347.319 128.059 C 348.243 129.139, 349 130.413, 349 130.890 C 349 134.084, 363.238 135.384, 367.517 132.581 C 372.228 129.494, 368.621 125.259, 363.401 127.749 C 359.863 129.436, 356.051 128.908, 353.525 126.382 C 350.493 123.350, 352.278 122.517, 361.830 122.508 C 366.874 122.504, 371.057 122.275, 371.127 122 C 371.712 119.713, 371.568 117, 370.863 117 C 370.389 117, 370 116.170, 370 115.155 C 370 113.070, 366.693 109.641, 365.669 110.664 C 365.301 111.032, 365 110.782, 365 110.108 C 365 109.434, 364.581 109.141, 364.069 109.457 C 363.557 109.774, 362.856 109.575, 362.510 109.016 C 361.547 107.458, 356.844 107.941, 353.500 109.940 M 385.796 109.964 C 383.935 111.471, 383.390 111.533, 382.228 110.371 C 380.283 108.426, 378.246 108.672, 376.999 111.002 C 376.204 112.488, 376.120 133.219, 376.908 133.537 C 376.958 133.558, 378.350 133.677, 380 133.803 C 382.945 134.028, 383.003 133.939, 383.175 129.016 C 383.558 118.033, 384.294 113.961, 385.650 115.317 C 386.776 116.443, 392 112.966, 392 111.091 C 392 108.481, 388.429 107.832, 385.796 109.964 M 404.370 109.652 C 403.066 110.328, 402 110.546, 402 110.136 C 402 109.726, 400.200 109.285, 398 109.155 L 394 108.919 394 121.459 L 394 134 398 134 L 402 134 402 125.571 C 402 114.914, 404.409 111.654, 409.522 115.392 C 411.178 116.603, 411.387 117.880, 411.134 125.220 L 410.842 133.655 414.171 133.414 C 416.002 133.281, 417.895 133.133, 418.379 133.086 C 418.862 133.039, 419.043 128.770, 418.781 123.601 C 418.398 116.060, 417.891 113.678, 416.218 111.549 C 415.070 110.091, 413.877 108.920, 413.566 108.948 C 413.254 108.977, 412.887 108.963, 412.750 108.919 C 410.817 108.291, 406.218 108.693, 404.370 109.652 M 430.782 109.154 C 430.607 109.679, 429.748 110.214, 428.872 110.342 C 426.882 110.635, 423.882 113.548, 424.714 114.381 C 425.055 114.721, 424.808 115, 424.167 115 C 423.525 115, 423.089 115.338, 423.198 115.750 C 423.307 116.162, 423.059 117.490, 422.646 118.701 C 420.917 123.775, 425.956 133.269, 430.716 133.905 C 435.764 134.579, 439.131 134.192, 440.727 132.752 C 442.274 131.356, 442.747 131.334, 444.441 132.576 C 445.509 133.359, 447.196 134, 448.191 134 C 449.836 134, 450 132.910, 450 121.969 C 450 108.791, 449.427 107.573, 444.324 109.898 C 442.556 110.704, 441.394 110.742, 440.528 110.023 C 438.855 108.635, 431.183 107.951, 430.782 109.154 M 498.500 109.452 C 492.282 111.303, 491 112.077, 491 113.985 C 491 114.958, 490.325 116.315, 489.500 117 C 487.831 118.385, 487.430 124, 489 124 C 489.550 124, 490 124.920, 490 126.045 C 490 128.230, 494.380 133.287, 495.394 132.273 C 495.727 131.939, 496 132.240, 496 132.940 C 496 133.649, 496.651 133.964, 497.468 133.651 C 498.275 133.341, 499.202 133.518, 499.527 134.044 C 500.312 135.315, 504.715 135.270, 505.510 133.984 C 505.856 133.425, 506.557 133.226, 507.069 133.543 C 507.581 133.859, 508 133.641, 508 133.059 C 508 132.477, 508.900 132, 510 132 C 511.100 132, 512 131.619, 512 131.153 C 512 130.687, 512.900 129.268, 514 128 C 516.164 125.505, 516.845 117.448, 514.946 116.815 C 514.366 116.622, 513.790 115.797, 513.667 114.982 C 513.306 112.587, 511.992 111, 510.370 111 C 509.538 111, 508.182 110.325, 507.357 109.500 C 505.644 107.787, 504.122 107.778, 498.500 109.452 M 533 108.934 C 533 110.263, 527.913 110.720, 525.280 109.627 C 523.745 108.990, 522.577 109.106, 521.498 110.001 C 520.221 111.061, 519.988 113.317, 520.219 122.394 L 520.500 133.490 523.500 133.495 L 526.500 133.500 526.799 126 C 527.122 117.880, 528.804 114, 532 114 C 535.327 114, 537.500 118.681, 537.500 125.847 C 537.500 132.641, 538.961 134.997, 542.364 133.691 C 543.700 133.178, 544 131.512, 544 124.596 C 544 115.482, 542.890 111, 540.632 111 C 539.852 111, 538.955 110.325, 538.638 109.500 C 538.019 107.887, 533 107.383, 533 108.934 M 557 109.357 C 557 109.828, 556.302 109.946, 555.448 109.618 C 554.584 109.287, 554.159 109.448, 554.489 109.982 C 554.815 110.510, 553.938 111.228, 552.541 111.579 C 550.238 112.157, 549.544 113.115, 549.882 115.250 C 549.947 115.662, 549.550 116, 549 116 C 547.354 116, 547.808 125.666, 549.536 127.393 C 550.380 128.238, 551.039 129.186, 551 129.500 C 550.870 130.542, 553.751 132.916, 554.381 132.286 C 554.721 131.945, 555 132.156, 555 132.754 C 555 134.431, 560.848 135.371, 562.541 133.966 C 563.343 133.300, 564 133.090, 564 133.500 C 564 133.910, 564.598 133.749, 565.328 133.143 C 566.248 132.379, 567.705 132.342, 570.071 133.020 C 576.163 134.768, 576 135.086, 576 121.459 L 576 108.919 572 109.155 C 569.800 109.285, 568 109.691, 568 110.057 C 568 110.423, 566.875 110.508, 565.500 110.245 C 564.125 109.982, 563 109.482, 563 109.133 C 563 108.785, 561.650 108.500, 560 108.500 C 558.350 108.500, 557 108.886, 557 109.357 M 478.313 110.250 C 477.870 110.938, 477.462 116.114, 477.407 121.754 C 477.300 132.589, 478.193 135.002, 481.737 133.453 C 482.707 133.029, 483.837 132.754, 484.250 132.841 C 485.311 133.066, 485.185 130.233, 484.104 129.564 C 483.582 129.242, 483.572 127.443, 484.080 125.255 C 485.272 120.125, 485.216 113.273, 483.965 110.934 C 482.798 108.753, 479.532 108.358, 478.313 110.250 M 558.217 113.493 C 558.612 113.919, 558.049 115.393, 556.967 116.769 C 555.885 118.144, 555 120.354, 555 121.680 C 555 124.560, 559.136 129, 561.820 129 C 564.868 129, 568.762 125.372, 568.493 122.784 C 568.362 121.528, 568.198 119.723, 568.128 118.773 C 568.057 117.823, 566.987 116.391, 565.750 115.591 C 563.267 113.985, 557.076 112.261, 558.217 113.493 M 353.648 115.239 C 353.906 115.658, 353.716 116, 353.226 116 C 351.627 116, 352.287 118.996, 353.917 119.138 C 357.140 119.417, 364.306 119.027, 364.787 118.546 C 365.061 118.272, 364.775 117.434, 364.151 116.682 C 363.528 115.931, 363.345 114.988, 363.746 114.588 C 364.146 114.187, 361.932 113.999, 358.826 114.169 C 355.719 114.339, 353.389 114.821, 353.648 115.239 M 431.241 115.986 C 429.757 118.362, 429.621 123.424, 430.974 125.951 C 433.194 130.099, 440.457 129.251, 442.973 124.550 C 444.109 122.427, 444.156 121.480, 443.202 119.952 C 442.541 118.893, 442 117.121, 442 116.014 C 442 114.278, 441.344 114, 437.241 114 C 433.575 114, 432.196 114.457, 431.241 115.986 M 498.845 115.130 C 495.908 116.207, 494.604 119.575, 495.596 123.526 C 496.834 128.460, 503.250 129.526, 507.577 125.517 C 510.054 123.221, 510.161 122.802, 508.990 119.977 C 507.722 116.913, 504.453 113.931, 502.527 114.079 C 501.962 114.122, 500.305 114.596, 498.845 115.130" stroke="none" fill="#d81d30" fill-rule="evenodd"/><path d="M 181.997 60.750 L 121.500 121.500 182.250 61.003 C 238.721 4.768, 243.449 -0, 242.747 0 C 242.608 0, 215.270 27.337, 181.997 60.750 M 251.397 70 C 251.397 77.975, 251.553 81.237, 251.743 77.250 C 251.932 73.263, 251.932 66.737, 251.743 62.750 C 251.553 58.763, 251.397 62.025, 251.397 70 M 282.406 59.386 C 282.113 60.148, 282.049 62.735, 282.262 65.136 L 282.651 69.500 282.825 64.310 L 283 59.121 286.750 58.728 L 290.500 58.336 286.719 58.168 C 284.293 58.060, 282.747 58.497, 282.406 59.386 M 282.272 78 C 282.272 80.475, 282.467 81.487, 282.706 80.250 C 282.944 79.013, 282.944 76.987, 282.706 75.750 C 282.467 74.513, 282.272 75.525, 282.272 78 M 289.385 117 C 289.385 123.875, 289.545 126.688, 289.740 123.250 C 289.936 119.813, 289.936 114.188, 289.740 110.750 C 289.545 107.313, 289.385 110.125, 289.385 117 M 295.435 109.308 C 295.159 110.028, 295.063 115.990, 295.222 122.558 L 295.511 134.500 296.005 121.248 C 296.277 113.960, 296.373 107.997, 296.219 107.998 C 296.064 107.999, 295.711 108.589, 295.435 109.308 M 333.300 121 C 333.300 124.025, 333.487 125.263, 333.716 123.750 C 333.945 122.237, 333.945 119.763, 333.716 118.250 C 333.487 116.737, 333.300 117.975, 333.300 121 M 183.500 184 C 215.947 216.450, 242.719 243, 242.994 243 C 243.269 243, 216.947 216.450, 184.500 184 C 152.053 151.550, 125.281 125, 125.006 125 C 124.731 125, 151.053 151.550, 183.500 184 M 338 166 L 338 184 342 184 L 346 184 346.012 178.750 L 346.024 173.500 349.098 178.201 C 352.756 183.793, 356.864 185.641, 361.809 183.917 C 365.381 182.671, 365.406 182.626, 363.965 179.934 C 363.380 178.842, 361.879 178, 360.516 178 C 358.296 178, 353 172.721, 353 170.509 C 353 170.067, 354.494 167.860, 356.321 165.603 C 361.626 159.048, 361.630 158.996, 356.809 159.032 C 352.811 159.062, 352.266 159.405, 349.256 163.782 L 346.012 168.500 346.006 158.250 L 346 148 342 148 L 338 148 338 166 M 401 166 L 401 184 404.359 184 L 407.718 184 408.260 175.309 C 408.683 168.533, 409.197 166.329, 410.592 165.309 C 415.585 161.658, 418 165.004, 418 175.571 L 418 184 421.393 184 C 423.600 184, 425.004 183.433, 425.408 182.378 C 426 180.837, 425.469 171.255, 424.404 164.252 C 423.603 158.984, 415.860 156.126, 411.441 159.468 C 408.449 161.731, 408.148 161.386, 408.192 155.750 C 408.254 147.883, 408.310 148, 404.500 148 L 401 148 401 166 M 291.705 150.750 C 291.272 152.184, 282.093 175.871, 279.498 182.250 C 278.890 183.744, 279.372 184, 282.795 184 C 286.351 184, 286.923 183.661, 287.850 181 C 288.880 178.046, 289.006 178, 296 178 C 302.994 178, 303.120 178.046, 304.150 181 C 305.071 183.642, 305.661 184, 309.098 184 C 311.244 184, 313.003 183.662, 313.008 183.250 C 313.012 182.838, 309.981 174.963, 306.273 165.750 L 299.532 149 295.882 149 C 293.275 149, 292.082 149.500, 291.705 150.750 M 473 166.500 L 473 184 484.500 184 L 496 184 496 181 L 496 178 488.500 178 L 481 178 481 174 L 481 170 487.500 170 L 494 170 494 167 L 494 164 487.443 164 L 480.885 164 481.193 159.750 C 481.372 157.270, 482.021 155.448, 482.750 155.375 C 483.438 155.306, 486.700 155.194, 490 155.125 C 495.972 155.001, 496 154.986, 496 152 L 496 149 484.500 149 L 473 149 473 166.500 M 382.469 153.500 C 382.211 154.325, 381.773 155.718, 381.495 156.595 C 381.217 157.472, 380.092 158.425, 378.995 158.712 C 376.216 159.438, 376.220 164, 379 164 C 380.831 164, 381 164.667, 381 171.889 C 381 182.017, 382.506 184.255, 389.419 184.400 C 393.282 184.481, 394.535 184.056, 396.088 182.139 C 397.140 180.841, 398 178.478, 398 176.889 C 398 174.361, 397.634 174, 395.070 174 C 392.792 174, 392.068 174.501, 391.820 176.250 C 391.644 177.488, 390.825 178.500, 390 178.500 C 388.832 178.500, 388.435 176.897, 388.206 171.250 L 387.912 164 391.456 164 C 394.570 164, 395 163.696, 395 161.500 C 395 159.702, 394.461 159, 393.082 159 C 389.442 159, 388 157.835, 388 154.893 C 388 152.464, 387.594 152, 385.469 152 C 384.076 152, 382.726 152.675, 382.469 153.500 M 613.219 155.250 C 612.640 157.497, 611.706 158.599, 610.191 158.820 C 607.290 159.243, 607.021 164, 609.897 164 C 611.583 164, 611.834 164.943, 612.147 172.465 C 612.569 182.575, 613.723 184.258, 620.333 184.403 C 625.985 184.526, 629 182.071, 629 177.345 C 629 174.295, 628.735 174, 626 174 C 623.697 174, 623 174.451, 623 175.941 C 623 178.795, 621.270 179.373, 619.974 176.952 C 619.123 175.362, 619.112 167.822, 619.955 164.313 C 619.980 164.211, 621.462 163.986, 623.250 163.813 C 627.392 163.414, 627.989 159.706, 624 159.154 C 620.562 158.679, 619 157.187, 619 154.378 C 619 152.515, 618.464 152, 616.529 152 C 614.579 152, 613.880 152.686, 613.219 155.250 M 318.832 159.473 C 315.712 161.233, 314.339 165.897, 316.018 169.034 C 316.651 170.217, 319.641 172.278, 322.661 173.614 C 325.840 175.020, 327.983 176.560, 327.749 177.271 C 327.117 179.196, 322.436 179.294, 320.565 177.422 C 319.198 176.055, 318.414 175.946, 316.439 176.846 C 313.420 178.221, 313.386 179.094, 316.250 181.694 C 322.578 187.440, 335 183.967, 335 176.452 C 335 173.715, 331.567 170.584, 326.250 168.471 C 320.159 166.051, 320.463 163.544, 326.750 164.356 C 329.363 164.694, 332.175 164.542, 333 164.018 C 334.289 163.200, 334.199 162.764, 332.362 160.923 C 329.610 158.164, 322.501 157.402, 318.832 159.473 M 436.500 159.833 C 429.667 163.069, 426.990 171.212, 430.517 178.033 C 434.078 184.919, 446.508 186.782, 453.459 181.471 C 455.402 179.986, 455.402 179.957, 453.408 177.964 C 451.502 176.058, 451.231 176.038, 448.152 177.574 C 446.096 178.600, 443.915 178.946, 442.203 178.519 C 439.001 177.720, 435.826 175.091, 436.583 173.866 C 436.877 173.390, 441.627 173, 447.138 173 L 457.159 173 456.481 169.750 C 454.488 160.191, 445.335 155.648, 436.500 159.833 M 539.750 159.518 C 538.192 160.394, 537 160.617, 537 160.032 C 537 159.464, 535.200 159, 533 159 L 529 159 529 177.500 L 529 196 533 196 L 537 196 537 189.051 L 537 182.102 540.702 183.649 C 545.277 185.561, 550.404 184.328, 554.060 180.436 C 556.122 178.241, 556.500 176.847, 556.500 171.439 C 556.500 165.618, 556.220 164.758, 553.407 161.945 C 549.671 158.210, 543.901 157.184, 539.750 159.518 M 568.001 159.070 C 563.978 160.760, 561.054 164.087, 559.933 168.250 C 557.061 178.915, 567.185 187.136, 578.983 183.720 C 584.287 182.184, 586.175 179.747, 583.857 177.429 C 582.384 175.956, 581.989 175.954, 579.174 177.410 C 577.483 178.285, 575.380 179, 574.500 179 C 571.874 179, 567 176.059, 567 174.474 C 567 173.274, 568.855 173, 577 173 L 587 173 587 170.450 C 587 166.946, 584.607 162.628, 581.559 160.630 C 578.334 158.518, 571.256 157.703, 568.001 159.070 M 600.455 160.455 C 598.190 162.720, 598 162.758, 598 160.955 C 598 159.387, 597.306 159, 594.500 159 L 591 159 591 171.500 L 591 184 594.500 184 L 598 184 598 176.057 C 598 168.982, 598.243 167.943, 600.223 166.557 C 601.445 165.701, 603.470 165, 604.723 165 C 606.659 165, 607 164.475, 607 161.500 C 607 158.641, 606.626 158, 604.955 158 C 603.830 158, 601.805 159.105, 600.455 160.455 M 293.683 164.338 C 291.403 171.571, 291.441 171.692, 296 171.692 C 298.200 171.692, 300 171.239, 300 170.684 C 300 168.813, 296.640 159, 296 159 C 295.651 159, 294.608 161.402, 293.683 164.338 M 499.699 160.250 C 500.218 160.938, 502.352 163.638, 504.442 166.251 L 508.242 171.001 503.800 176.251 C 497.234 184.010, 497.236 184, 502.227 184 C 506.118 184, 506.894 183.581, 509.648 179.997 L 512.724 175.995 515.498 179.997 C 518.017 183.632, 518.673 184, 522.636 184 C 525.036 184, 527 183.640, 527 183.200 C 527 182.759, 524.730 179.852, 521.955 176.739 L 516.910 171.078 521.462 165.289 L 526.014 159.500 521.883 159.186 C 518.267 158.912, 517.416 159.275, 515.059 162.098 L 512.367 165.324 510.115 162.162 C 508.152 159.405, 507.280 159, 503.309 159 C 499.829 159, 498.978 159.295, 499.699 160.250 M 438.750 165.392 C 435.456 167.893, 436.760 169, 443 169 C 449.194 169, 450.131 168.274, 447.429 165.571 C 445.524 163.667, 441.142 163.577, 438.750 165.392 M 538.943 165.845 C 537.221 167.239, 536.700 168.630, 536.809 171.536 C 536.972 175.873, 538.279 177.569, 542.200 178.530 C 546.227 179.517, 550.463 175.063, 549.600 170.749 C 548.329 164.393, 543.488 162.165, 538.943 165.845 M 569.223 165.557 C 565.618 168.082, 566.625 169, 573 169 C 577.603 169, 579 168.659, 579 167.535 C 579 164.242, 572.871 163.001, 569.223 165.557" stroke="none" fill="#77c33d" fill-rule="evenodd"/><path d="M 0 0.332 C 0 0.514, 26.992 27.627, 59.983 60.582 C 92.973 93.537, 119.973 120.902, 119.983 121.393 C 119.992 121.884, 92.986 149.283, 59.970 182.279 C 26.953 215.276, 0.196 242.529, 0.510 242.843 C 1.194 243.527, 122 122.922, 122 121.556 C 122 120.445, 1.864 0.011, 0.750 0.005 C 0.337 0.002, 0 0.149, 0 0.332 M 473.500 82.212 C 470.758 83.985, 470.715 84.092, 473 83.463 C 475.639 82.737, 477.662 81.292, 476.933 80.653 C 476.695 80.444, 475.150 81.146, 473.500 82.212 M 301.835 127.502 C 301.651 131.078, 301.837 134.003, 302.250 134.002 C 302.663 134.001, 303 131.075, 303 127.500 C 303 123.925, 302.813 121, 302.585 121 C 302.357 121, 302.020 123.926, 301.835 127.502 M 483.780 126.044 C 483.535 127.718, 483.708 129.320, 484.167 129.603 C 484.625 129.886, 485 128.516, 485 126.559 C 485 122.198, 484.383 121.937, 483.780 126.044" stroke="none" fill="#7d2b34" fill-rule="evenodd"/><path d="M 182.747 60.753 L 122 121.506 182.753 182.253 L 243.506 243 471.753 243 L 700 243 700 121.500 L 700 0 471.747 0 L 243.494 0 182.747 60.753 M 284.250 48.063 C 281.767 49.026, 281.182 52.782, 283.200 54.800 C 284.845 56.445, 288.499 56.309, 289.960 54.548 C 292.713 51.231, 288.479 46.423, 284.250 48.063 M 251.823 49.506 C 251.451 49.880, 251.103 57.795, 251.050 67.094 L 250.954 84 261.342 84 C 270.429 84, 272.070 83.733, 274.440 81.869 C 279.544 77.854, 279.709 71.667, 274.813 67.893 L 272.728 66.286 275.021 63.186 C 276.923 60.613, 277.158 59.541, 276.399 56.894 C 274.836 51.446, 271.100 49.548, 261.178 49.162 C 256.405 48.976, 252.195 49.131, 251.823 49.506 M 326 66.500 L 326 84 330 84 L 334 84 334 78 L 334 72 338.351 72 C 340.744 72, 344.089 71.516, 345.785 70.925 C 354.353 67.938, 354.429 54.646, 345.904 50.265 C 344.544 49.566, 339.700 49.023, 334.750 49.015 L 326 49 326 66.500 M 259 59.945 C 259 63.896, 259.088 64, 262.429 64 C 266.436 64, 269.233 61.641, 268.803 58.625 C 268.550 56.852, 267.714 56.450, 263.750 56.195 L 259 55.890 259 59.945 M 334 61 L 334 66 337.977 66 C 341.133 66, 342.298 65.475, 343.619 63.459 C 344.952 61.424, 345.061 60.428, 344.163 58.459 C 343.214 56.375, 342.354 56, 338.521 56 L 334 56 334 61 M 282.513 58.979 C 282.180 59.517, 281.978 65.367, 282.064 71.979 L 282.219 84 286.110 84 L 290 84 290 71 L 290 58 286.559 58 C 284.666 58, 282.846 58.440, 282.513 58.979 M 299.789 60.197 C 289.833 65.969, 292.012 81.041, 303.239 84.064 C 313.869 86.927, 323.296 78.678, 321.004 68.520 C 318.924 59.296, 308.439 55.183, 299.789 60.197 M 356.250 58.662 C 355.344 59.028, 355 62.586, 355 71.583 L 355 84 359 84 L 363 84 363 76.071 C 363 67.145, 364.176 65, 369.071 65 C 371.752 65, 372 64.703, 372 61.500 C 372 58.511, 371.663 58, 369.691 58 C 368.421 58, 366.534 58.620, 365.498 59.378 C 363.897 60.549, 363.406 60.549, 362.235 59.378 C 360.852 57.995, 358.579 57.723, 356.250 58.662 M 378.898 60.263 C 371.773 65.008, 370.310 73.650, 375.573 79.904 C 384.830 90.906, 403.761 81.584, 399.979 67.885 C 397.592 59.242, 386.469 55.220, 378.898 60.263 M 410.500 59.403 C 404.294 62.142, 401.259 68.533, 403.033 75.122 C 405.118 82.865, 414.442 86.808, 422.779 83.472 C 427.294 81.665, 427.778 80.612, 425.485 77.582 C 424.247 75.946, 423.657 75.835, 421.470 76.832 C 417.702 78.548, 414.659 78.263, 412.189 75.961 C 406.065 70.256, 414.317 61.888, 422.007 66.004 C 423.492 66.799, 424.205 66.545, 425.441 64.781 C 427.642 61.639, 427.443 61.083, 423.532 59.449 C 419.270 57.668, 414.468 57.651, 410.500 59.403 M 434.898 60.281 C 430.091 63.507, 427.522 68.636, 428.390 73.268 C 430.331 83.612, 442.052 87.927, 451.897 81.922 C 455.268 79.866, 455.280 79.835, 453.340 77.896 C 451.504 76.060, 451.160 76.035, 447.684 77.487 C 442.533 79.640, 436 77.901, 436 74.378 C 436 73.299, 438.173 73, 446 73 L 456 73 455.996 70.250 C 455.983 60.712, 443.232 54.687, 434.898 60.281 M 463.400 59.428 C 461.694 60.170, 460.007 61.539, 459.650 62.471 C 457.656 67.666, 460.026 71.254, 467.350 74.130 C 469.632 75.026, 471.500 76.376, 471.500 77.130 C 471.500 79.375, 466.361 79.361, 464.110 77.110 C 462.135 75.135, 462.058 75.133, 459.800 76.987 C 456.754 79.487, 458.194 81.973, 463.843 83.969 C 467.499 85.261, 468.508 85.261, 472.218 83.969 C 481.412 80.767, 480.945 73.567, 471.250 69.059 C 465.383 66.331, 464.346 64, 469 64 C 470.650 64, 472 64.427, 472 64.948 C 472 65.524, 473.179 65.485, 475 64.850 C 478.682 63.566, 478.746 62.732, 475.365 60.073 C 472.357 57.706, 467.906 57.466, 463.400 59.428 M 486 59.294 C 484.625 59.989, 482.930 61.746, 482.234 63.198 C 480.285 67.263, 482.280 70.425, 488.712 73.471 C 494.406 76.166, 495.219 78.277, 490.770 78.807 C 489.078 79.009, 487.712 78.426, 486.790 77.110 C 485.414 75.146, 485.331 75.143, 482.557 76.963 L 479.728 78.819 482.252 81.343 C 489.645 88.736, 504.921 82.893, 500.797 74.250 C 499.961 72.496, 497.586 70.622, 494.243 69.077 C 491.359 67.745, 489 66.057, 489 65.327 C 489 63.840, 493.565 63.487, 494.442 64.906 C 495.166 66.078, 498.612 65.173, 500.057 63.432 C 500.936 62.372, 500.457 61.639, 497.839 60.043 C 494.038 57.726, 489.649 57.448, 486 59.294 M 304.500 65.203 C 301.717 66.770, 301.033 68.024, 301.015 71.595 C 300.986 77.428, 307.828 80.172, 312 76 C 317.150 70.850, 310.774 61.671, 304.500 65.203 M 383.748 65.231 C 381.029 66.157, 379.239 69.754, 379.883 73 C 380.846 77.852, 387.384 79.616, 391 76 C 396.187 70.813, 390.809 62.828, 383.748 65.231 M 438.223 65.557 C 434.618 68.082, 435.625 69, 442 69 C 446.603 69, 448 68.659, 448 67.535 C 448 64.242, 441.871 63.001, 438.223 65.557 M 259 74 L 259 78 263.965 78 C 267.906 78, 269.150 77.588, 270 76 C 271.980 72.300, 269.667 70, 263.965 70 L 259 70 259 74 M 478 99 C 476.900 100.100, 476 101.418, 476 101.929 C 476 103.516, 479.051 106, 481 106 C 483.177 106, 486 103.451, 486 101.485 C 486 100.149, 482.333 97, 480.777 97 C 480.350 97, 479.100 97.900, 478 99 M 581 116 L 581 134 584.500 134 L 588 134 588 116 L 588 98 584.500 98 L 581 98 581 116 M 282 116.440 L 282 134 285.887 134 L 289.774 134 289.637 116.750 L 289.500 99.500 285.750 99.190 L 282 98.879 282 116.440 M 327.713 102.621 C 327.321 103.013, 327 104.383, 327 105.667 C 327 106.950, 326.550 108.056, 326 108.125 C 325.450 108.194, 324.438 108.306, 323.750 108.375 C 323.063 108.444, 322.358 109.737, 322.184 111.250 C 321.929 113.465, 322.269 114, 323.934 114 C 325.848 114, 326 114.582, 326 121.889 C 326 131.031, 327.405 133.557, 333 134.469 C 338.944 135.439, 344.539 130.778, 343.268 125.916 C 342.544 123.147, 337.257 123.249, 336.820 126.040 C 336.644 127.161, 336.050 128.174, 335.500 128.290 C 334.926 128.410, 334.375 125.408, 334.206 121.250 L 333.912 114 337.307 114 C 340.368 114, 340.692 113.730, 340.601 111.250 C 340.514 108.893, 340.072 108.495, 337.504 108.464 C 334.974 108.433, 334.428 107.965, 333.999 105.464 C 333.611 103.204, 332.888 102.430, 330.958 102.204 C 329.565 102.041, 328.104 102.229, 327.713 102.621 M 458.713 102.621 C 458.321 103.013, 458 104.352, 458 105.597 C 458 107.183, 457.327 107.957, 455.750 108.180 C 452.605 108.627, 451.852 114, 454.934 114 C 456.827 114, 457 114.591, 457 121.050 C 457 130.007, 458.743 133.673, 463.417 134.550 C 469.461 135.684, 476.171 130.216, 474.400 125.600 C 473.456 123.140, 468.219 123.490, 467.820 126.040 C 466.784 132.650, 463.942 123.720, 464.863 116.750 C 465.180 114.357, 465.671 114, 468.648 114 C 471.804 114, 472.039 113.787, 471.693 111.250 C 471.406 109.155, 470.743 108.474, 468.908 108.392 C 464.643 108.200, 464.421 108.043, 464.461 105.250 C 464.492 103.037, 464.004 102.442, 461.963 102.204 C 460.567 102.041, 459.104 102.229, 458.713 102.621 M 295.460 108.874 C 295.207 109.127, 295 114.883, 295 121.667 L 295 134 299 134 L 303 134 303 125.523 C 303 117.647, 303.172 116.933, 305.433 115.452 C 307.325 114.212, 308.325 114.104, 309.933 114.964 C 311.730 115.926, 312.015 117.078, 312.118 123.785 C 312.184 128.028, 312.164 132.063, 312.075 132.750 C 311.968 133.575, 313.319 134, 316.047 134 L 320.182 134 319.841 123.412 C 319.513 113.240, 319.390 112.728, 316.694 110.412 C 313.514 107.678, 309.773 107.348, 305.750 109.447 C 303.346 110.701, 303 110.696, 303 109.409 C 303 108.346, 302.018 108.003, 299.460 108.176 C 297.512 108.307, 295.712 108.621, 295.460 108.874 M 352.396 109.375 C 343.870 113.236, 341.948 125.412, 348.936 131.293 C 353.986 135.542, 364.017 135.629, 369.459 131.471 C 371.402 129.986, 371.402 129.957, 369.402 127.957 C 367.489 126.044, 367.192 126.022, 363.607 127.520 C 358.278 129.747, 352 127.528, 352 123.418 C 352 123.188, 356.734 123, 362.519 123 L 373.038 123 372.379 120.250 C 371.303 115.765, 369.122 112.126, 366.465 110.385 C 363.068 108.159, 356.173 107.664, 352.396 109.375 M 376 121.099 L 376 134 379.917 134 L 383.833 134 383.809 125.815 C 383.783 116.865, 385.151 114.445, 389.750 115.303 C 391.767 115.679, 392 115.323, 392 111.861 C 392 107.301, 389.907 106.712, 385.635 110.073 C 383.129 112.043, 383 112.053, 383 110.271 C 383 108.814, 382.220 108.374, 379.500 108.297 L 376 108.198 376 121.099 M 394.667 108.667 C 394.300 109.033, 394 114.883, 394 121.667 L 394 134 398 134 L 402 134 402 125.571 C 402 116.997, 403.165 114, 406.500 114 C 409.835 114, 411 116.997, 411 125.571 L 411 134 415 134 L 419 134 418.994 126.250 C 418.988 116.841, 417.645 111.565, 414.739 109.529 C 411.964 107.586, 407.065 107.566, 404.324 109.486 C 402.448 110.800, 402.137 110.800, 401.633 109.486 C 401.062 107.998, 395.938 107.395, 394.667 108.667 M 427.898 110.287 C 421.894 114.327, 420.475 124.520, 425.099 130.398 C 428.821 135.130, 437.020 136.079, 441.250 132.267 C 442.847 130.828, 443 130.835, 443 132.345 C 443 133.570, 443.910 134, 446.500 134 L 450 134 450 121.030 L 450 108.061 446.500 108.192 C 444.309 108.275, 443 108.825, 443 109.662 C 443 111.370, 441.999 111.314, 439.559 109.468 C 436.725 107.325, 431.784 107.672, 427.898 110.287 M 478.250 108.663 C 477.344 109.028, 477 112.586, 477 121.583 L 477 134 481 134 L 485 134 485 121.500 C 485 111.376, 484.730 109, 483.582 109 C 482.802 109, 481.564 108.811, 480.832 108.579 C 480.099 108.348, 478.938 108.385, 478.250 108.663 M 496.500 108.943 C 493.062 110.345, 489.075 115.082, 488.428 118.534 C 487.474 123.619, 488.807 127.623, 492.549 130.909 C 497.088 134.894, 501.844 135.713, 507.628 133.504 C 521.723 128.121, 517.047 107.769, 501.782 108.063 C 499.977 108.098, 497.600 108.494, 496.500 108.943 M 520 121.030 L 520 134 523.500 134 L 527 134 527 126 C 527 119.333, 527.333 117.667, 529 116 C 530.100 114.900, 531.450 114, 532 114 C 532.550 114, 533.900 114.900, 535 116 C 536.667 117.667, 537 119.333, 537 126 L 537 134 540.500 134 L 544 134 544 124.404 C 544 117.141, 543.584 114.104, 542.288 111.910 C 540.071 108.157, 535.124 107.093, 530.389 109.352 C 527.728 110.620, 527 110.684, 527 109.646 C 527 108.827, 525.668 108.274, 523.500 108.192 L 520 108.061 520 121.030 M 554.315 109.464 C 545.619 113.246, 546.004 128.848, 554.906 133.451 C 558.784 135.457, 561.966 135.413, 564.965 133.312 C 566.674 132.115, 567.490 131.970, 567.771 132.812 C 567.988 133.465, 569.943 134, 572.113 134 L 576.060 134 575.780 121.250 L 575.500 108.500 572.243 108.186 C 570.079 107.978, 568.797 108.365, 568.423 109.340 C 567.935 110.611, 567.499 110.621, 565.180 109.410 C 561.829 107.662, 558.418 107.679, 554.315 109.464 M 354.750 115.080 C 353.788 115.641, 353 116.752, 353 117.550 C 353 118.656, 354.425 119, 359 119 C 365.375 119, 366.382 118.082, 362.777 115.557 C 360.237 113.777, 357.288 113.602, 354.750 115.080 M 432 116 C 429.720 118.280, 429.377 123.597, 431.344 126.184 C 433.698 129.281, 437.613 129.477, 440.450 126.641 C 443.673 123.418, 443.708 119.617, 440.545 116.455 C 437.570 113.479, 434.675 113.325, 432 116 M 557.073 116.635 C 554.298 120.162, 554.460 123.551, 557.550 126.641 C 559.543 128.634, 560.690 129.044, 562.795 128.515 C 566.993 127.462, 568 126.092, 568 121.434 C 568 118.103, 567.491 116.757, 565.777 115.557 C 562.512 113.270, 559.418 113.653, 557.073 116.635 M 497.746 116.250 C 494.956 118.381, 494.642 122.275, 497.016 125.293 C 502.553 132.332, 512.587 124.566, 507.443 117.223 C 505.679 114.703, 500.456 114.179, 497.746 116.250 M 338 166 L 338 184 342 184 L 346 184 346.012 178.750 L 346.024 173.500 349.098 178.201 C 352.756 183.793, 356.864 185.641, 361.809 183.917 C 365.381 182.671, 365.406 182.626, 363.965 179.934 C 363.380 178.842, 361.879 178, 360.516 178 C 358.296 178, 353 172.721, 353 170.509 C 353 170.067, 354.494 167.860, 356.321 165.603 C 361.626 159.048, 361.630 158.996, 356.809 159.032 C 352.811 159.062, 352.266 159.405, 349.256 163.782 L 346.012 168.500 346.006 158.250 L 346 148 342 148 L 338 148 338 166 M 401 166 L 401 184 404.359 184 L 407.718 184 408.260 175.309 C 408.683 168.533, 409.197 166.329, 410.592 165.309 C 415.585 161.658, 418 165.004, 418 175.571 L 418 184 421.393 184 C 423.600 184, 425.004 183.433, 425.408 182.378 C 426 180.837, 425.469 171.255, 424.404 164.252 C 423.603 158.984, 415.860 156.126, 411.441 159.468 C 408.449 161.731, 408.148 161.386, 408.192 155.750 C 408.254 147.883, 408.310 148, 404.500 148 L 401 148 401 166 M 291.705 150.750 C 291.272 152.184, 282.093 175.871, 279.498 182.250 C 278.890 183.744, 279.372 184, 282.795 184 C 286.351 184, 286.923 183.661, 287.850 181 C 288.880 178.046, 289.006 178, 296 178 C 302.994 178, 303.120 178.046, 304.150 181 C 305.071 183.642, 305.661 184, 309.098 184 C 311.244 184, 313.003 183.662, 313.008 183.250 C 313.012 182.838, 309.981 174.963, 306.273 165.750 L 299.532 149 295.882 149 C 293.275 149, 292.082 149.500, 291.705 150.750 M 473 166.500 L 473 184 484.500 184 L 496 184 496 181 L 496 178 488.500 178 L 481 178 481 174 L 481 170 487.500 170 L 494 170 494 167 L 494 164 487.443 164 L 480.885 164 481.193 159.750 C 481.372 157.270, 482.021 155.448, 482.750 155.375 C 483.438 155.306, 486.700 155.194, 490 155.125 C 495.972 155.001, 496 154.986, 496 152 L 496 149 484.500 149 L 473 149 473 166.500 M 382.469 153.500 C 382.211 154.325, 381.773 155.718, 381.495 156.595 C 381.217 157.472, 380.092 158.425, 378.995 158.712 C 376.216 159.438, 376.220 164, 379 164 C 380.831 164, 381 164.667, 381 171.889 C 381 182.017, 382.506 184.255, 389.419 184.400 C 393.282 184.481, 394.535 184.056, 396.088 182.139 C 397.140 180.841, 398 178.478, 398 176.889 C 398 174.361, 397.634 174, 395.070 174 C 392.792 174, 392.068 174.501, 391.820 176.250 C 391.644 177.488, 390.825 178.500, 390 178.500 C 388.832 178.500, 388.435 176.897, 388.206 171.250 L 387.912 164 391.456 164 C 394.570 164, 395 163.696, 395 161.500 C 395 159.702, 394.461 159, 393.082 159 C 389.442 159, 388 157.835, 388 154.893 C 388 152.464, 387.594 152, 385.469 152 C 384.076 152, 382.726 152.675, 382.469 153.500 M 613.219 155.250 C 612.640 157.497, 611.706 158.599, 610.191 158.820 C 607.290 159.243, 607.021 164, 609.897 164 C 611.583 164, 611.834 164.943, 612.147 172.465 C 612.569 182.575, 613.723 184.258, 620.333 184.403 C 625.985 184.526, 629 182.071, 629 177.345 C 629 174.295, 628.735 174, 626 174 C 623.697 174, 623 174.451, 623 175.941 C 623 178.795, 621.270 179.373, 619.974 176.952 C 619.123 175.362, 619.112 167.822, 619.955 164.313 C 619.980 164.211, 621.462 163.986, 623.250 163.813 C 627.392 163.414, 627.989 159.706, 624 159.154 C 620.562 158.679, 619 157.187, 619 154.378 C 619 152.515, 618.464 152, 616.529 152 C 614.579 152, 613.880 152.686, 613.219 155.250 M 318.832 159.473 C 315.712 161.233, 314.339 165.897, 316.018 169.034 C 316.651 170.217, 319.641 172.278, 322.661 173.614 C 325.840 175.020, 327.983 176.560, 327.749 177.271 C 327.117 179.196, 322.436 179.294, 320.565 177.422 C 319.198 176.055, 318.414 175.946, 316.439 176.846 C 313.420 178.221, 313.386 179.094, 316.250 181.694 C 322.578 187.440, 335 183.967, 335 176.452 C 335 173.715, 331.567 170.584, 326.250 168.471 C 320.159 166.051, 320.463 163.544, 326.750 164.356 C 329.363 164.694, 332.175 164.542, 333 164.018 C 334.289 163.200, 334.199 162.764, 332.362 160.923 C 329.610 158.164, 322.501 157.402, 318.832 159.473 M 436.500 159.833 C 429.667 163.069, 426.990 171.212, 430.517 178.033 C 434.078 184.919, 446.508 186.782, 453.459 181.471 C 455.402 179.986, 455.402 179.957, 453.408 177.964 C 451.502 176.058, 451.231 176.038, 448.152 177.574 C 446.096 178.600, 443.915 178.946, 442.203 178.519 C 439.001 177.720, 435.826 175.091, 436.583 173.866 C 436.877 173.390, 441.627 173, 447.138 173 L 457.159 173 456.481 169.750 C 454.488 160.191, 445.335 155.648, 436.500 159.833 M 539.750 159.518 C 538.192 160.394, 537 160.617, 537 160.032 C 537 159.464, 535.200 159, 533 159 L 529 159 529 177.500 L 529 196 533 196 L 537 196 537 189.051 L 537 182.102 540.702 183.649 C 545.277 185.561, 550.404 184.328, 554.060 180.436 C 556.122 178.241, 556.500 176.847, 556.500 171.439 C 556.500 165.618, 556.220 164.758, 553.407 161.945 C 549.671 158.210, 543.901 157.184, 539.750 159.518 M 568.001 159.070 C 563.978 160.760, 561.054 164.087, 559.933 168.250 C 557.061 178.915, 567.185 187.136, 578.983 183.720 C 584.287 182.184, 586.175 179.747, 583.857 177.429 C 582.384 175.956, 581.989 175.954, 579.174 177.410 C 577.483 178.285, 575.380 179, 574.500 179 C 571.874 179, 567 176.059, 567 174.474 C 567 173.274, 568.855 173, 577 173 L 587 173 587 170.450 C 587 166.946, 584.607 162.628, 581.559 160.630 C 578.334 158.518, 571.256 157.703, 568.001 159.070 M 600.455 160.455 C 598.190 162.720, 598 162.758, 598 160.955 C 598 159.387, 597.306 159, 594.500 159 L 591 159 591 171.500 L 591 184 594.500 184 L 598 184 598 176.057 C 598 168.982, 598.243 167.943, 600.223 166.557 C 601.445 165.701, 603.470 165, 604.723 165 C 606.659 165, 607 164.475, 607 161.500 C 607 158.641, 606.626 158, 604.955 158 C 603.830 158, 601.805 159.105, 600.455 160.455 M 293.683 164.338 C 291.403 171.571, 291.441 171.692, 296 171.692 C 298.200 171.692, 300 171.239, 300 170.684 C 300 168.813, 296.640 159, 296 159 C 295.651 159, 294.608 161.402, 293.683 164.338 M 499.699 160.250 C 500.218 160.938, 502.352 163.638, 504.442 166.251 L 508.242 171.001 503.800 176.251 C 497.234 184.010, 497.236 184, 502.227 184 C 506.118 184, 506.894 183.581, 509.648 179.997 L 512.724 175.995 515.498 179.997 C 518.017 183.632, 518.673 184, 522.636 184 C 525.036 184, 527 183.640, 527 183.200 C 527 182.759, 524.730 179.852, 521.955 176.739 L 516.910 171.078 521.462 165.289 L 526.014 159.500 521.883 159.186 C 518.267 158.912, 517.416 159.275, 515.059 162.098 L 512.367 165.324 510.115 162.162 C 508.152 159.405, 507.280 159, 503.309 159 C 499.829 159, 498.978 159.295, 499.699 160.250 M 438.750 165.392 C 435.456 167.893, 436.760 169, 443 169 C 449.194 169, 450.131 168.274, 447.429 165.571 C 445.524 163.667, 441.142 163.577, 438.750 165.392 M 538.943 165.845 C 537.221 167.239, 536.700 168.630, 536.809 171.536 C 536.972 175.873, 538.279 177.569, 542.200 178.530 C 546.227 179.517, 550.463 175.063, 549.600 170.749 C 548.329 164.393, 543.488 162.165, 538.943 165.845 M 569.223 165.557 C 565.618 168.082, 566.625 169, 573 169 C 577.603 169, 579 168.659, 579 167.535 C 579 164.242, 572.871 163.001, 569.223 165.557" stroke="none" fill="#faf9f8" fill-rule="evenodd"/></svg>