<svg xmlns="http://www.w3.org/2000/svg" width="56.2" height="38.73" viewBox="0 0 56.2 38.73"><defs><style>.a{fill:#003082;}</style></defs><path class="a" d="M49.6,30.3h0a38.39,38.39,0,0,1-16.4,7.5c-9.6,2.1-18.6.9-23.4-3.3a9.82,9.82,0,0,1-3.6-6.9c-.6-7,4.7-14.3,14.1-19.4l.1-.1-.1-.3h-.1C9.1,12.4,1.3,20.7,1.9,28.6a11.58,11.58,0,0,0,4.2,8.2c5.1,4.5,14.2,5.8,24.3,3.7a38.6,38.6,0,0,0,19.3-9.9l.1-.1Z" transform="translate(-1.87 -2.75)"/><path class="a" d="M56.9,11.2C55,7,50.8,4.1,45,3.1c-9.2-1.6-20.3,2.4-25.9,8.8V12l.2.2.1-.1A29.82,29.82,0,0,1,34,5.9c8.1-1.2,14.9.8,18.2,5.5,3.2,4.5,2.3,13.2-1.9,18.3l-.1.1.2.2.1-.1C56.9,23.8,59.9,18.1,56.9,11.2Z" transform="translate(-1.87 -2.75)"/><path class="a" d="M22.8,23.5H16.7L16,27.1h6.8L22.3,30H12.1L15,14.7h9.8l-.6,2.9H17.8l-.6,3.1h6.1Z" transform="translate(-1.87 -2.75)"/><path class="a" d="M29,17.6H25.3l.6-2.9h13A3.93,3.93,0,0,0,36.8,16a3.64,3.64,0,0,0-.9,1.6H32.5L30.2,30H26.8Z" transform="translate(-1.87 -2.75)"/><path class="a" d="M36,26.2a8.27,8.27,0,0,0,4.1,1.1c1.2,0,2.5-.5,2.5-1.7,0-.8-.7-1.4-2.2-2-1.8-.8-3.6-2-3.6-4.2,0-3.2,2.9-5,6.3-5a10.3,10.3,0,0,1,4.1.8L46,18a6,6,0,0,0-3.2-.7c-1.6,0-2.4.7-2.4,1.5,0,1,1.2,1.5,2.5,2.1,2.1.9,3.4,2.1,3.4,4.1,0,3.5-3.1,5.2-6.6,5.2a8.23,8.23,0,0,1-4.9-1.3Z" transform="translate(-1.87 -2.75)"/><path class="a" d="M56.1,33.5a2.17,2.17,0,1,1,.6-1.5A2,2,0,0,1,56.1,33.5Zm-2.8-2.7a1.66,1.66,0,0,0-.5,1.3,2.11,2.11,0,0,0,.5,1.3,1.66,1.66,0,0,0,1.3.5,2.11,2.11,0,0,0,1.3-.5,1.66,1.66,0,0,0,.5-1.3,2.11,2.11,0,0,0-.5-1.3,1.66,1.66,0,0,0-1.3-.5A1.38,1.38,0,0,0,53.3,30.8Zm1.3.1c.3,0,.5,0,.6.1a.68.68,0,0,1,.4.6.76.76,0,0,1-.2.5.37.37,0,0,1-.3.1.52.52,0,0,1,.4.2c.1.1.1.2.1.4v.5h-.4V33a.59.59,0,0,0-.2-.5c-.1-.1-.2-.1-.5-.1h-.3v.9h-.4V31l.8-.1Zm.4.3a.75.75,0,0,0-.5-.1h-.3V32h.4c.2,0,.3,0,.4-.1s.2-.2.2-.4S55.1,31.3,55,31.2Z" transform="translate(-1.87 -2.75)"/></svg>