<?xml version="1.0" standalone="no"?>
<!DOCTYPE svg PUBLIC "-//W3C//DTD SVG 20010904//EN"
 "http://www.w3.org/TR/2001/REC-SVG-20010904/DTD/svg10.dtd">
<svg version="1.0" xmlns="http://www.w3.org/2000/svg"
 width="726.000000pt" height="728.000000pt" viewBox="0 0 726.000000 728.000000"
 preserveAspectRatio="xMidYMid meet">

<g transform="translate(0.000000,728.000000) scale(0.100000,-0.100000)"
fill="#000000" stroke="none">
<path d="M3411 7089 c-323 -29 -631 -115 -926 -259 -198 -96 -190 -86 -113
-148 77 -64 197 -126 275 -142 36 -8 104 -11 183 -7 138 5 300 42 575 131 202
65 293 84 453 96 217 15 280 2 589 -121 331 -132 434 -140 633 -48 39 18 69
37 67 43 -12 35 -387 233 -571 301 -360 133 -779 188 -1165 154z"/>
<path d="M2093 6598 c-89 -62 -197 -153 -301 -252 -110 -105 -124 -82 114
-181 201 -84 478 -178 619 -210 260 -59 409 -46 1038 89 336 73 472 96 558 96
86 0 228 -41 399 -115 249 -108 320 -136 399 -156 83 -21 179 -24 249 -8 107
25 323 149 477 275 l38 30 -129 131 c-71 72 -157 153 -191 180 l-61 51 -122
-45 c-244 -88 -369 -110 -471 -83 -24 7 -123 46 -219 87 -198 85 -319 119
-464 132 -188 16 -322 -5 -696 -109 -282 -78 -382 -99 -515 -106 -81 -4 -129
-2 -182 9 -98 21 -268 95 -386 166 l-96 59 -58 -40z"/>
<path d="M1562 6091 c-17 -22 -61 -81 -97 -132 l-66 -93 113 -36 c62 -20 217
-77 343 -127 397 -157 602 -226 830 -281 98 -23 130 -26 295 -27 204 0 245 6
600 90 248 59 348 75 455 75 118 0 168 -13 500 -125 367 -124 487 -144 650
-110 168 35 440 205 685 427 l62 57 -23 38 c-34 57 -143 213 -149 213 -3 0
-45 -32 -95 -72 -184 -145 -358 -248 -480 -283 -123 -36 -255 -6 -596 139
-447 189 -412 188 -1179 34 -464 -93 -556 -102 -746 -74 -229 34 -620 148
-937 275 -70 28 -129 51 -130 51 -2 0 -18 -18 -35 -39z"/>
<path d="M1257 5603 c-36 -76 -75 -162 -86 -190 l-21 -53 124 0 c218 0 444
-34 791 -119 l120 -30 120 44 c66 23 135 46 153 50 46 9 40 19 -20 34 -29 7
-211 80 -404 162 -471 199 -494 208 -581 225 -133 25 -120 33 -196 -123z"/>
<path d="M5920 5623 c-240 -209 -511 -373 -677 -408 -171 -36 -387 -2 -832
132 -300 90 -331 96 -421 87 -44 -5 -62 -10 -45 -12 17 -2 96 -16 178 -33 408
-81 810 -273 1110 -532 l58 -50 72 28 c253 98 451 230 657 437 101 102 111
115 106 141 -6 27 -121 278 -128 276 -2 0 -37 -30 -78 -66z"/>
<path d="M6010 5093 c-203 -180 -272 -228 -467 -326 l-142 -70 44 -50 c56 -61
134 -165 148 -195 9 -18 4 -31 -26 -75 -20 -29 -64 -85 -97 -125 l-61 -73 43
-18 c106 -47 318 -55 405 -15 l41 19 -84 130 c-46 72 -82 137 -80 146 2 8 108
181 236 383 211 334 232 370 224 396 l-9 28 -175 -155z"/>
<path d="M1135 5231 c-25 -5 -31 -14 -48 -66 -17 -56 -57 -248 -72 -341 -5
-31 -3 -43 8 -47 8 -3 109 -11 224 -18 l211 -13 68 61 c99 87 212 167 343 245
115 67 115 67 85 78 -76 30 -340 89 -438 99 -116 12 -331 13 -381 2z"/>
<path d="M2202 4958 c-78 -38 -142 -141 -142 -228 0 -50 30 -126 65 -167 77
-90 210 -114 315 -57 87 47 130 121 130 224 0 102 -47 182 -133 225 -67 33
-170 34 -235 3z"/>
<path d="M994 4636 c-9 -22 -1 -463 8 -472 10 -10 192 10 290 32 l76 17 -62
76 c-71 87 -106 135 -106 148 0 4 29 46 64 93 37 49 60 88 54 91 -6 4 -49 10
-97 13 -47 4 -116 9 -153 12 -57 5 -69 3 -74 -10z"/>
<path d="M1380 4073 c-58 -12 -132 -22 -165 -22 -64 -1 -184 -17 -192 -25 -12
-11 83 -415 102 -434 1 -1 123 22 271 52 259 54 534 123 534 135 0 3 -34 26
-76 50 -87 51 -199 129 -299 210 l-70 56 -105 -22z"/>
<path d="M5260 4039 c-79 -73 -234 -188 -328 -245 -45 -27 -78 -52 -74 -56 12
-12 157 -56 264 -80 92 -21 128 -23 348 -23 137 0 291 6 350 13 209 25 335 43
353 50 15 6 3 31 -94 182 -61 96 -112 176 -113 177 -1 1 -30 -6 -63 -17 -187
-58 -320 -48 -573 44 -9 3 -37 -15 -70 -45z"/>
<path d="M1870 3620 c-129 -32 -302 -74 -385 -94 -82 -20 -185 -45 -228 -57
-70 -19 -77 -23 -71 -43 9 -30 139 -294 166 -337 l23 -37 81 47 c169 98 406
160 644 168 177 6 238 -3 478 -68 369 -100 594 -108 1302 -48 196 17 290 20
470 16 299 -8 908 -70 1334 -137 104 -17 194 -30 201 -30 32 0 295 533 273
555 -2 2 -92 -4 -199 -15 -350 -34 -557 -44 -673 -31 -126 14 -308 57 -474
112 l-123 41 -127 -50 c-141 -56 -297 -102 -446 -132 -574 -117 -1319 -53
-1866 159 -58 23 -114 40 -125 40 -11 -1 -126 -27 -255 -59z"/>
<path d="M1990 3139 c-143 -17 -323 -78 -466 -160 l-74 -43 17 -25 c34 -55
177 -230 252 -311 l78 -85 119 57 c335 159 544 181 964 104 370 -69 621 -83
837 -49 83 14 169 18 373 18 379 0 508 -21 1123 -179 l178 -46 69 61 c38 33
102 97 142 142 78 85 209 249 204 254 -7 7 -350 56 -650 93 -693 85 -855 92
-1351 55 -305 -23 -401 -26 -625 -22 -294 6 -344 12 -662 82 -192 42 -353 66
-423 64 -16 -1 -64 -5 -105 -10z"/>
<path d="M2420 2583 c-82 -6 -210 -34 -283 -60 -82 -29 -202 -88 -212 -102
-12 -21 224 -195 398 -294 l78 -44 65 43 c70 47 167 81 254 91 60 6 161 -5
405 -42 351 -54 472 -52 795 10 205 40 336 45 435 19 92 -23 216 -77 309 -133
47 -28 90 -51 96 -51 6 0 52 21 102 46 183 92 410 241 387 254 -22 12 -463
117 -584 139 -290 54 -612 66 -960 36 -306 -26 -438 -19 -750 41 -99 19 -234
39 -300 44 -119 9 -148 10 -235 3z"/>
<path d="M4125 2095 c-44 -7 -127 -24 -185 -38 -172 -42 -256 -50 -438 -44
-130 4 -211 13 -367 41 -295 53 -456 49 -544 -13 -17 -13 -31 -26 -31 -30 0
-12 186 -84 322 -125 434 -131 919 -147 1368 -45 113 26 350 100 350 110 0 13
-116 88 -173 114 -60 26 -144 45 -190 44 -18 -1 -68 -7 -112 -14z"/>
<path d="M2954 1396 c-201 -46 -244 -146 -244 -571 0 -367 30 -473 154 -537
121 -62 417 -64 538 -3 54 28 97 75 120 134 21 53 23 73 26 371 4 329 -2 400
-39 471 -25 51 -89 103 -152 124 -71 24 -316 30 -403 11z m223 -240 l28 -24 3
-279 c4 -312 -2 -350 -51 -367 -36 -13 -78 8 -88 44 -12 44 -10 564 2 599 11
30 35 49 66 50 7 1 25 -10 40 -23z"/>
<path d="M5425 1396 c-143 -35 -218 -121 -234 -269 -15 -137 11 -241 73 -294
37 -32 127 -73 217 -101 98 -30 141 -50 171 -79 74 -71 19 -204 -68 -164 -32
14 -44 48 -44 122 l0 59 -170 0 -170 0 0 -159 0 -160 73 -36 c39 -19 97 -42
127 -51 78 -21 271 -29 354 -15 76 13 169 56 202 92 62 68 89 171 81 302 -12
183 -73 246 -307 317 -90 27 -126 44 -162 78 -52 48 -28 132 37 132 49 0 75
-37 75 -106 l0 -54 165 0 166 0 -3 143 -3 142 -85 43 c-47 23 -116 49 -155 57
-84 18 -271 18 -340 1z"/>
<path d="M200 1294 c0 -81 3 -100 20 -121 19 -24 20 -41 20 -339 0 -302 -5
-364 -32 -364 -4 0 -8 -47 -8 -105 l0 -105 215 0 215 0 0 97 c0 78 -3 100 -17
116 -16 17 -18 51 -21 340 -3 313 2 377 29 377 5 0 9 45 9 100 l0 100 -215 0
-215 0 0 -96z"/>
<path d="M760 1294 c0 -81 3 -100 20 -121 19 -25 20 -41 20 -348 0 -307 -1
-323 -20 -348 -17 -21 -20 -40 -20 -121 l0 -96 180 0 180 0 0 96 c0 81 -3 100
-20 121 -18 23 -20 41 -20 172 l1 146 108 -265 108 -265 171 -3 172 -2 0 439
c0 429 4 491 32 491 4 0 8 45 8 100 l0 100 -180 0 -180 0 0 -100 c0 -81 3
-101 16 -108 10 -5 20 -30 25 -58 11 -68 11 -300 0 -288 -5 5 -54 131 -109
279 l-101 270 -195 3 -196 2 0 -96z"/>
<path d="M1800 1295 c0 -74 4 -102 18 -122 15 -24 17 -59 17 -349 0 -293 -2
-324 -17 -341 -15 -16 -18 -38 -18 -121 l0 -102 220 0 220 0 0 97 c0 94 -1 98
-27 119 -26 21 -27 24 -28 130 l0 109 113 3 112 3 0 104 0 104 -112 3 -113 3
-3 103 c-3 115 0 120 64 108 28 -6 38 -14 50 -41 8 -19 14 -50 14 -70 l0 -35
150 0 150 0 0 195 0 195 -405 0 -405 0 0 -95z"/>
<path d="M3700 1295 c0 -81 3 -100 20 -123 20 -27 21 -39 18 -354 -3 -294 -5
-328 -20 -345 -15 -16 -18 -38 -18 -116 l0 -97 220 0 220 0 0 100 c0 77 -3
102 -14 106 -26 10 -37 58 -34 155 l3 94 108 3 107 3 0 104 0 105 -110 0 -110
0 0 110 0 110 35 0 c55 0 85 -36 85 -100 l0 -50 150 0 150 0 0 195 0 195 -405
0 -405 0 0 -95z"/>
<path d="M4620 1293 c0 -78 3 -100 18 -116 15 -17 17 -49 17 -347 0 -298 -2
-330 -17 -347 -15 -16 -18 -38 -18 -121 l0 -102 215 0 215 0 0 96 c0 81 -3
100 -20 121 -19 25 -20 41 -20 354 0 316 1 330 20 349 17 17 20 33 20 115 l0
95 -215 0 -215 0 0 -97z"/>
<path d="M6160 1290 c0 -55 4 -100 8 -100 27 0 32 -62 32 -369 0 -303 -1 -320
-20 -344 -17 -21 -20 -40 -20 -121 l0 -96 215 0 215 0 0 96 c0 81 -3 100 -20
121 -17 22 -20 41 -20 144 l0 119 70 0 70 0 0 -119 c0 -103 -3 -122 -20 -144
-17 -21 -20 -40 -20 -121 l0 -96 215 0 215 0 0 97 c0 78 -3 100 -17 116 -16
17 -18 51 -21 345 -3 315 -2 327 18 354 17 23 20 42 20 123 l0 95 -215 0 -215
0 0 -91 c0 -76 3 -95 20 -116 17 -22 20 -41 20 -124 l0 -99 -71 0 -71 0 4 106
c2 86 6 108 21 118 14 11 17 29 17 110 l0 96 -215 0 -215 0 0 -100z"/>
</g>
</svg>
