<?xml version="1.0" standalone="no"?>
<!DOCTYPE svg PUBLIC "-//W3C//DTD SVG 20010904//EN"
 "http://www.w3.org/TR/2001/REC-SVG-20010904/DTD/svg10.dtd">
<svg version="1.0" xmlns="http://www.w3.org/2000/svg"
 width="1234.000000pt" height="511.000000pt" viewBox="0 0 1234.000000 511.000000"
 preserveAspectRatio="xMidYMid meet">
<metadata>
Created by potrace 1.16, written by Peter Selinger 2001-2019
</metadata>
<g transform="translate(0.000000,511.000000) scale(0.100000,-0.100000)"
fill="#000000" stroke="none">
<path d="M2775 4826 c-376 -46 -694 -155 -985 -338 -464 -293 -801 -724 -968
-1238 -81 -248 -131 -568 -119 -765 27 -468 151 -858 387 -1213 297 -447 735
-775 1239 -928 563 -171 1143 -127 1666 125 171 83 246 128 395 240 496 371
822 942 895 1567 120 1027 -472 2016 -1435 2398 -331 131 -754 191 -1075 152z
m600 -95 c821 -146 1487 -722 1745 -1511 75 -229 104 -426 103 -695 -1 -205
-16 -335 -59 -514 -188 -772 -798 -1402 -1564 -1614 -217 -60 -312 -72 -600
-72 -286 0 -332 6 -565 65 -349 88 -708 292 -979 558 -355 347 -577 781 -652
1272 -25 160 -25 482 0 640 37 238 101 441 206 655 179 363 447 667 785 888
126 82 367 198 512 246 127 42 312 84 448 100 136 16 482 6 620 -18z"/>
<path d="M3041 4481 c-6 -64 -14 -135 -18 -158 -5 -39 -4 -43 16 -43 22 0 25
4 35 52 5 20 10 25 26 21 26 -7 50 13 50 43 0 13 5 24 10 24 16 0 12 -53 -6
-79 -9 -12 -30 -31 -48 -42 l-31 -19 28 0 c43 0 85 26 106 68 l20 37 -6 -49
c-7 -55 9 -76 56 -76 44 0 55 13 46 56 -7 36 -8 38 -18 17 -5 -13 -17 -23 -25
-23 -11 0 -13 8 -8 38 3 20 6 43 6 50 0 9 10 11 35 6 38 -7 46 5 19 27 -13 10
-19 10 -36 0 -32 -20 -141 -5 -168 24 l-22 23 23 31 c25 35 46 43 27 10 -20
-31 20 -59 82 -59 27 0 56 -3 65 -7 14 -5 16 -2 11 15 -6 17 -2 23 18 28 22 5
24 9 15 25 -8 16 -17 18 -44 13 -30 -5 -33 -4 -28 15 4 16 -1 23 -22 31 -36
14 -35 14 -28 -20 7 -37 -3 -38 -48 -5 -22 17 -42 24 -56 20 -12 -3 -24 -1
-27 4 -3 5 -14 11 -24 13 -17 5 -20 -5 -31 -111z"/>
<path d="M2770 4581 c0 -6 5 -13 10 -16 6 -3 10 -13 10 -22 0 -12 -9 -15 -43
-11 -38 5 -44 2 -55 -20 -18 -39 -15 -54 11 -50 16 2 23 11 25 31 3 21 9 27
26 27 13 0 51 3 85 6 43 5 61 3 61 -5 0 -6 -17 -11 -42 -11 l-43 0 30 -18 c17
-11 36 -26 44 -35 7 -10 22 -17 34 -17 17 0 19 5 14 35 -5 28 -2 35 14 40 23
8 24 18 3 36 -12 10 -22 10 -48 1 -47 -17 -66 -15 -66 7 0 10 -7 22 -16 25
-24 9 -54 7 -54 -3z"/>
<path d="M2543 4526 c-12 -20 -79 -39 -112 -31 -20 4 -32 2 -38 -8 -4 -8 -28
-21 -53 -30 -30 -10 -37 -16 -22 -16 21 -1 22 -5 22 -77 0 -45 4 -73 9 -69 9
5 31 -53 31 -82 0 -7 9 -13 20 -13 13 0 20 7 20 19 0 23 16 36 25 22 3 -6 13
-7 21 -4 14 5 15 3 5 -15 -19 -35 -12 -37 19 -7 35 34 54 86 46 126 -3 15 -2
31 3 33 5 3 17 -27 27 -67 16 -59 23 -72 39 -72 25 0 25 28 2 103 -16 53 -16
54 4 59 25 7 20 27 -9 31 -29 5 -49 62 -26 79 18 13 11 33 -11 33 -8 0 -18 -6
-22 -14z"/>
<path d="M3510 4515 c0 -21 -21 -28 -53 -16 -15 6 -27 7 -27 2 0 -5 14 -11 31
-15 22 -4 29 -10 27 -23 -4 -19 -6 -19 -52 -7 -19 4 -27 3 -23 -3 4 -6 24 -14
44 -18 48 -9 75 -23 67 -36 -3 -6 -20 -2 -41 11 -20 11 -37 20 -38 18 -4 -5
-35 -116 -35 -126 0 -6 10 -12 23 -15 20 -3 20 -4 -8 -15 -72 -29 -72 -31 1
-31 39 -1 74 2 77 6 4 3 -1 15 -10 26 -18 19 -17 19 17 12 48 -10 73 -24 43
-25 -22 0 -22 -1 8 -45 33 -49 40 -53 59 -30 10 13 9 19 -6 36 -15 16 -16 22
-5 29 15 8 41 74 41 102 0 18 -33 33 -50 23 -5 -3 -15 -3 -21 1 -8 5 -8 9 1
14 7 4 39 -1 71 -10 46 -14 59 -15 59 -5 0 22 -27 36 -55 29 -21 -5 -26 -4
-23 7 3 9 17 13 42 11 20 -2 36 1 36 6 0 18 -29 34 -49 27 -16 -5 -18 -2 -14
16 4 12 0 25 -8 30 -23 14 -39 10 -39 -10 0 -11 -5 -23 -11 -27 -15 -9 -33 12
-34 39 0 15 -7 23 -22 25 -16 2 -23 -2 -23 -13z"/>
<path d="M2740 4480 c-7 -16 -18 -35 -26 -41 -28 -23 -13 -30 22 -10 44 26 44
26 44 -3 0 -19 -8 -26 -37 -35 -34 -10 -35 -10 -6 -6 18 2 34 1 37 -4 7 -11
-21 -61 -52 -93 -31 -33 -25 -35 28 -8 43 22 65 49 75 93 11 43 25 31 25 -22
0 -63 15 -76 82 -68 61 8 78 20 60 45 -7 9 -15 25 -19 35 -5 16 -7 16 -17 -5
-6 -12 -20 -24 -30 -26 -15 -3 -17 2 -15 39 3 40 1 45 -24 53 -21 8 -30 7 -36
-3 -11 -17 -23 2 -15 23 5 12 0 16 -21 16 -24 0 -26 2 -14 16 10 13 10 17 -2
25 -26 16 -46 9 -59 -21z"/>
<path d="M2142 4402 c-9 -6 -11 -21 -6 -50 6 -39 4 -42 -27 -61 -43 -26 -46
-26 -45 2 1 18 -5 22 -36 25 -44 4 -48 -8 -13 -36 31 -25 31 -32 2 -32 -20 0
-23 -5 -22 -37 0 -31 4 -38 20 -38 16 0 20 7 20 30 0 27 8 34 75 72 81 46 100
51 100 28 0 -8 -8 -15 -19 -15 -10 0 -24 -7 -32 -16 -7 -8 -35 -27 -62 -40
-27 -14 -47 -28 -44 -30 3 -3 28 6 56 20 41 21 51 23 51 11 0 -8 -7 -15 -16
-15 -10 0 -13 -6 -10 -18 5 -15 -6 -24 -55 -47 -33 -16 -56 -31 -51 -33 6 -2
34 9 63 24 50 25 53 25 66 8 18 -25 16 -42 -7 -49 -32 -10 -23 -20 19 -22 25
-2 44 3 52 13 13 15 12 20 -16 86 -5 14 5 23 49 45 63 30 70 43 26 43 -20 0
-30 -5 -30 -15 0 -8 -13 -21 -30 -30 -34 -17 -41 -4 -14 26 8 9 17 24 18 33 1
9 13 27 26 40 l23 25 -28 11 c-26 10 -31 8 -51 -17 -27 -32 -32 -14 -10 29 8
15 12 29 8 32 -8 9 -35 7 -50 -2z"/>
<path d="M3767 4363 c-12 -11 -8 -73 4 -73 8 0 8 -5 -1 -15 -7 -8 -23 -15 -36
-15 -16 0 -22 -4 -18 -15 3 -8 -4 -28 -15 -44 -23 -32 -19 -61 9 -61 13 0 27
18 44 55 14 30 29 55 35 55 21 0 22 -23 2 -44 -25 -26 -19 -56 11 -56 22 0 78
-30 78 -42 0 -11 -18 -10 -25 2 -3 6 -13 10 -21 10 -10 0 -12 -5 -5 -17 5 -10
12 -26 15 -35 7 -23 59 -24 77 -2 8 10 21 13 36 9 27 -6 30 7 7 30 -13 12 -14
18 -4 31 8 8 21 12 31 9 20 -7 27 19 9 30 -7 4 -5 14 4 27 19 27 4 58 -27 56
-31 -3 -81 32 -67 46 8 8 29 2 75 -23 68 -36 84 -37 65 -2 -8 16 -15 19 -27
12 -11 -6 -28 -4 -49 7 -30 14 -31 17 -17 28 15 10 15 14 4 28 -19 22 -38 20
-69 -9 -15 -14 -32 -23 -39 -21 -7 3 -15 1 -18 -4 -9 -15 -25 -12 -25 3 0 18
-34 49 -43 40z"/>
<path d="M1823 4227 c-27 -12 -29 -29 -8 -47 21 -17 19 -28 -7 -32 -32 -5 -32
-23 -1 -37 23 -11 29 -10 39 4 10 14 16 10 43 -27 l32 -43 -33 -29 -32 -30 -6
25 c-5 20 -12 24 -38 21 -36 -2 -39 3 -16 29 15 17 17 17 37 -2 26 -24 52 -21
52 6 0 17 -7 20 -50 22 -33 1 -54 -3 -61 -13 -10 -12 -13 -12 -24 1 -10 13
-10 19 5 35 20 22 19 25 -11 34 -19 6 -27 -2 -52 -46 -31 -53 -34 -70 -9 -50
10 9 17 8 25 0 17 -17 15 -35 -4 -42 -9 -4 -14 -9 -11 -13 4 -3 13 -1 20 6 20
16 34 -4 51 -75 14 -59 14 -59 22 -25 l7 33 32 -38 c22 -26 37 -35 48 -31 21
8 22 40 2 57 -9 7 -26 27 -37 43 l-22 30 26 -6 c19 -5 31 -1 48 18 13 14 28
25 34 25 6 0 24 -19 39 -41 23 -32 32 -38 43 -28 20 17 17 36 -12 75 -26 34
-26 35 -8 56 19 21 19 21 -14 16 -31 -4 -37 -1 -75 51 -23 31 -44 61 -47 67
-4 8 -12 8 -27 1z"/>
<path d="M4090 4173 c0 -6 12 -20 26 -31 l27 -19 -36 -27 c-20 -15 -57 -36
-84 -46 -37 -14 -44 -20 -30 -25 25 -10 98 3 140 25 46 25 46 16 -1 -38 l-37
-44 -30 23 c-26 22 -28 22 -20 4 4 -11 9 -31 10 -45 1 -17 10 -28 29 -35 30
-10 33 -8 98 76 l26 34 -19 -55 c-29 -86 -28 -93 27 -104 l30 -7 -6 58 c-4 32
-5 64 -2 71 2 7 23 12 53 12 52 0 57 5 35 35 -13 18 -17 18 -42 5 -16 -8 -33
-16 -38 -19 -15 -7 3 52 25 82 20 27 20 29 3 48 -18 20 -18 20 -50 -18 -30
-36 -32 -36 -38 -15 -5 14 -15 22 -29 22 -11 0 -31 10 -44 22 -13 12 -23 17
-23 11z"/>
<path d="M2815 4013 c-229 -30 -448 -115 -645 -251 -125 -87 -318 -280 -399
-400 -65 -96 -156 -276 -167 -328 l-6 -30 89 19 c67 15 129 20 263 20 295 2
494 -49 838 -212 336 -160 489 -205 692 -205 141 0 214 15 319 67 307 150 353
554 78 693 -106 54 -244 40 -327 -33 l-42 -38 74 0 c100 0 160 -34 201 -114
46 -93 33 -176 -42 -251 -63 -63 -126 -84 -231 -78 -101 6 -171 39 -239 113
-62 68 -86 134 -85 231 3 232 240 409 524 390 167 -10 308 -68 453 -186 l89
-71 -44 63 c-67 98 -260 285 -367 356 -258 173 -531 254 -844 251 -84 -1 -165
-4 -182 -6z"/>
<path d="M1550 3943 c0 -42 -13 -57 -38 -44 -16 8 -25 7 -43 -8 l-23 -18 22
-7 c12 -4 22 -11 22 -15 0 -5 -19 -30 -42 -56 -28 -32 -35 -44 -20 -36 12 6
22 16 22 21 0 13 41 13 60 0 13 -9 11 -13 -9 -29 l-25 -19 57 -62 c31 -33 57
-68 57 -76 0 -8 5 -12 10 -9 25 15 -5 112 -44 144 -9 8 -16 19 -16 25 0 6 29
43 65 81 35 39 64 73 65 78 0 4 -11 7 -25 7 -19 0 -25 -5 -25 -23 0 -13 -7
-32 -15 -43 -13 -18 -14 -17 -15 19 0 21 -5 37 -12 37 -6 0 -2 10 10 23 29 31
28 37 -8 37 -26 0 -30 -4 -30 -27z"/>
<path d="M4430 3925 c20 -21 22 -28 12 -50 -15 -32 -30 -32 -42 0 -5 14 -12
25 -16 25 -4 0 -25 -16 -46 -36 -22 -20 -58 -44 -80 -54 -30 -13 -35 -19 -23
-24 34 -13 73 -5 118 24 l47 30 34 -38 c19 -20 49 -56 67 -79 19 -23 37 -42
42 -42 4 -1 7 13 7 29 0 25 -4 30 -24 30 -13 0 -30 7 -37 16 -12 15 -10 16 24
12 20 -2 37 0 37 6 0 5 14 -3 31 -20 l31 -29 -4 35 c-3 30 -7 35 -31 38 -32 4
-43 22 -29 49 6 11 6 27 0 43 l-9 25 -20 -25 -19 -25 -36 43 c-20 23 -41 42
-47 42 -6 0 0 -11 13 -25z"/>
<path d="M4679 3671 c8 -15 5 -20 -16 -30 -15 -7 -49 -15 -76 -18 -33 -4 -47
-10 -43 -18 3 -8 -14 -23 -40 -36 -24 -13 -44 -27 -44 -30 0 -15 29 -29 45
-22 15 5 17 3 12 -12 -4 -9 -2 -24 5 -32 10 -12 7 -13 -17 -7 -39 10 -24 -13
21 -32 43 -18 78 -18 114 1 52 27 32 -3 -22 -34 -73 -41 -82 -49 -67 -67 17
-20 24 -18 90 23 57 35 60 35 74 17 12 -17 14 -18 20 -2 4 9 4 21 1 27 -3 5 9
18 26 29 29 18 35 19 49 6 18 -16 29 -9 29 18 0 10 -7 18 -15 18 -20 0 -65 69
-65 101 0 17 -9 32 -23 42 -13 9 -30 29 -37 46 -7 17 -17 31 -22 31 -5 0 -4
-8 1 -19z"/>
<path d="M1346 3655 c-18 -13 -18 -15 3 -43 12 -17 21 -33 21 -37 0 -14 -72 4
-92 22 -19 17 -20 17 -34 -2 -17 -23 -18 -45 -1 -45 6 0 23 -9 37 -20 22 -17
23 -19 7 -25 -9 -4 -17 -17 -17 -29 0 -12 -7 -32 -16 -44 -9 -13 -13 -26 -10
-29 3 -3 11 6 17 21 7 14 17 26 24 26 17 0 60 -48 89 -100 l26 -45 0 31 c0 43
-18 93 -49 134 l-25 35 49 -29 c71 -41 72 -42 52 -76 -18 -31 -9 -42 13 -16 6
8 21 16 33 18 16 2 23 11 25 30 3 23 -4 32 -41 55 -84 52 -86 54 -52 45 17 -4
50 -7 75 -7 42 0 44 2 51 32 3 18 5 34 3 36 -3 2 -28 -2 -56 -10 -83 -21 -86
-20 -90 34 -3 51 -13 60 -42 38z"/>
<path d="M1132 3354 c-13 -9 -22 -26 -22 -41 0 -39 -40 -144 -68 -178 l-24
-29 43 -14 c24 -8 90 -32 146 -54 57 -22 107 -37 113 -33 13 8 13 42 0 50 -12
8 43 158 61 164 19 6 28 21 22 37 -3 7 -55 29 -116 50 -62 20 -117 42 -123 50
-9 11 -14 11 -32 -2z m90 -80 c73 -24 106 -47 55 -37 -14 3 -29 -2 -36 -11
-12 -14 -10 -16 12 -16 14 0 29 -5 32 -11 11 -17 1 -19 -33 -7 -26 10 -30 16
-25 36 4 18 2 23 -8 20 -8 -3 -13 -13 -12 -22 0 -12 -4 -15 -14 -12 -8 3 -19
6 -25 6 -6 0 -8 12 -4 30 3 17 2 30 -2 30 -15 0 -30 -22 -25 -36 3 -8 -2 -32
-11 -54 -21 -52 -20 -61 3 -31 15 20 21 22 40 12 16 -9 20 -18 16 -34 -6 -21
-6 -22 9 -3 13 16 21 18 43 10 32 -11 38 -24 20 -48 -12 -16 -17 -16 -87 10
-41 15 -80 31 -87 36 -9 7 -5 28 15 84 15 41 31 74 37 74 5 0 45 -12 87 -26z"/>
<path d="M4795 3320 c-11 -18 17 -42 42 -37 20 4 25 -4 48 -72 28 -85 29 -91
15 -91 -5 0 -12 16 -16 35 -6 36 -24 49 -24 17 0 -10 -7 -27 -15 -38 -22 -29
-19 -64 5 -64 11 0 23 7 26 15 8 21 21 19 29 -5 9 -28 32 -25 39 6 5 20 2 32
-13 46 -27 24 -27 50 0 66 15 9 18 19 13 35 -9 31 -12 32 -34 12 -19 -17 -20
-17 -30 9 -5 15 -10 35 -10 45 0 26 -62 42 -75 21z"/>
<path d="M4770 3266 c29 -31 32 -38 20 -46 -23 -15 -28 -12 -45 21 -9 17 -19
29 -22 26 -2 -3 0 -14 6 -25 6 -12 11 -23 11 -26 0 -15 -59 -3 -97 19 -48 27
-53 22 -19 -17 31 -34 77 -58 116 -58 45 0 36 -18 -15 -31 -63 -16 -69 -27
-48 -84 24 -65 42 -75 75 -42 l26 26 -27 3 c-18 2 -26 9 -26 23 0 16 8 21 37
23 31 3 39 8 44 29 5 19 2 30 -11 40 -18 13 -16 15 15 17 11 1 14 10 12 31 -3
24 -2 27 10 17 18 -14 28 -6 28 23 0 18 -10 26 -42 37 -24 8 -52 19 -63 23
-14 6 -10 -3 15 -29z"/>
<path d="M1055 2971 c-13 -16 -14 -24 -5 -41 13 -24 4 -64 -13 -57 -51 19 -56
18 -63 -9 -7 -29 7 -44 44 -44 27 0 29 -27 7 -70 -9 -17 -14 -30 -13 -31 20
-7 145 -25 151 -22 13 7 7 41 -8 47 -8 3 -15 17 -15 32 0 26 1 26 53 18 88
-12 92 -12 92 16 0 23 -5 26 -60 35 -55 10 -60 13 -63 38 -2 19 1 27 13 27 8
0 18 7 21 15 10 24 -15 45 -53 45 -19 0 -42 4 -52 10 -14 7 -23 5 -36 -9z"/>
<path d="M4945 2968 c-22 -6 -84 -11 -137 -12 -54 0 -98 -2 -98 -4 0 -11 71
-42 97 -42 38 0 48 -12 31 -39 -19 -30 0 -42 54 -35 34 5 48 12 51 25 3 11 1
22 -4 25 -19 11 -9 34 15 34 24 0 36 -21 36 -67 0 -25 -28 -34 -114 -36 -45
-1 -63 4 -105 31 -28 17 -51 29 -51 26 0 -3 8 -19 18 -36 25 -43 75 -71 128
-70 59 2 56 -15 -3 -24 -122 -17 -128 -19 -125 -39 2 -11 5 -21 7 -23 2 -2 40
2 86 9 73 10 84 10 94 -4 9 -12 14 -14 23 -5 16 16 15 35 -3 42 -25 9 -18 45
9 52 34 8 43 0 51 -46 8 -50 21 -59 37 -25 10 22 8 28 -10 48 -18 19 -21 31
-16 58 4 19 11 39 15 45 6 7 1 18 -11 29 -13 12 -20 31 -20 57 0 21 -3 38 -7
37 -5 -1 -26 -6 -48 -11z"/>
<path d="M4382 2870 c-162 -127 -391 -257 -548 -309 -153 -51 -249 -64 -424
-58 -180 6 -256 21 -562 108 -471 134 -584 154 -873 154 -216 0 -423 -23 -443
-49 -20 -25 -20 -381 -1 -401 3 -2 54 16 115 41 138 57 299 106 445 136 98 20
145 23 339 23 280 0 362 -13 770 -127 319 -89 413 -107 580 -114 224 -10 378
23 602 128 103 49 106 51 111 87 11 90 -31 421 -54 421 -4 0 -30 -18 -57 -40z"/>
<path d="M2520 2349 c-251 -23 -504 -118 -741 -278 -57 -39 -115 -79 -129 -90
l-25 -20 59 -117 c102 -202 269 -398 447 -523 158 -112 387 -208 604 -253 159
-33 416 -33 564 0 473 106 852 403 1051 825 26 56 51 112 55 125 4 15 -34 -17
-102 -86 -59 -60 -148 -139 -198 -175 -106 -78 -285 -173 -409 -216 -111 -39
-301 -77 -427 -86 -185 -12 -485 30 -645 90 -83 31 -214 96 -214 105 0 15 89
118 147 169 115 103 258 150 412 137 42 -4 164 -24 271 -46 235 -46 328 -55
446 -40 156 19 272 58 402 135 100 59 106 66 42 49 -144 -37 -330 -5 -667 117
-181 66 -375 124 -494 148 -85 18 -309 43 -349 40 -8 -1 -53 -5 -100 -10z"/>
<path d="M1207 1784 c-41 -22 -52 -59 -29 -98 16 -27 24 -31 60 -30 53 1 82
26 82 70 0 23 -7 38 -26 53 -31 25 -49 26 -87 5z"/>
<path d="M8620 4785 c-30 -7 -76 -19 -103 -25 -59 -15 -69 -31 -77 -140 -10
-118 -28 -277 -46 -395 -8 -55 -14 -118 -14 -139 0 -22 -7 -82 -17 -133 -9
-51 -13 -96 -9 -100 4 -4 21 -1 39 6 18 7 52 17 77 21 25 5 61 15 81 24 31 13
37 21 43 55 3 22 3 47 0 55 -10 25 12 43 74 61 31 9 87 25 125 36 37 11 75 18
85 15 9 -4 32 -29 50 -57 37 -56 56 -68 83 -51 10 7 31 12 46 12 41 1 138 37
135 51 -2 10 -197 307 -368 562 -21 33 -50 77 -64 100 -23 37 -49 56 -75 55
-5 0 -35 -6 -65 -13z m105 -362 c74 -128 75 -141 14 -156 -19 -4 -48 -12 -65
-18 -37 -11 -61 -4 -69 20 -6 20 11 247 20 261 15 25 37 2 100 -107z"/>
<path d="M9650 4765 c-14 -8 -32 -12 -41 -9 -9 2 -22 -2 -29 -11 -7 -8 -19
-15 -27 -15 -22 0 -109 -87 -124 -123 -7 -18 -17 -39 -24 -47 -13 -18 -39 -96
-55 -170 -17 -79 -1 -238 26 -261 8 -6 14 -19 14 -29 0 -27 93 -115 147 -139
26 -12 62 -28 78 -36 58 -26 186 -41 233 -27 20 6 49 13 64 17 15 3 54 31 88
64 52 49 61 63 58 87 -2 21 -12 33 -33 43 -16 7 -41 24 -55 36 -53 48 -63 48
-106 4 -47 -49 -83 -69 -124 -69 -40 0 -97 30 -135 70 -29 30 -30 35 -29 114
3 146 62 269 148 310 47 22 78 20 135 -9 43 -21 53 -33 79 -88 l31 -64 83 -6
c46 -3 88 -1 94 4 18 15 4 98 -27 160 -48 96 -132 152 -286 190 -89 22 -149
24 -183 4z"/>
<path d="M7635 4303 c-36 -38 -65 -77 -65 -88 0 -13 51 -69 147 -160 94 -91
144 -145 139 -153 -9 -15 -129 -16 -156 -2 -19 10 -153 33 -295 50 l-80 10
-73 -74 c-84 -85 -84 -86 -8 -161 28 -27 156 -153 284 -280 l233 -229 75 79
c40 43 74 82 74 87 0 4 -68 74 -150 155 -149 145 -173 181 -120 176 80 -7 181
-22 190 -28 6 -4 44 -11 83 -16 40 -5 102 -16 139 -26 45 -11 73 -14 86 -7 26
12 153 156 150 169 -5 17 -564 565 -577 565 -7 0 -41 -30 -76 -67z"/>
<path d="M10794 4095 c-10 -8 -27 -15 -37 -15 -11 0 -31 -6 -45 -14 -37 -20
-107 -47 -242 -95 -63 -23 -132 -50 -152 -61 -20 -11 -44 -20 -52 -20 -8 0
-27 -6 -43 -14 -54 -27 -104 -46 -120 -46 -9 0 -24 -7 -34 -16 -17 -15 -15
-20 37 -82 30 -36 54 -74 54 -83 0 -10 -22 -41 -49 -71 -60 -66 -101 -126
-101 -147 0 -9 9 -27 20 -41 24 -31 26 -97 4 -128 -36 -51 -64 -11 -64 91 0
64 -18 107 -44 107 -7 0 -39 23 -70 50 -31 28 -62 50 -67 50 -14 0 -68 -39
-116 -84 -30 -28 -43 -48 -43 -67 0 -32 23 -59 50 -59 52 0 62 -22 30 -63 -29
-36 -25 -78 10 -122 28 -36 30 -43 30 -129 0 -82 -3 -95 -27 -131 -38 -57 -95
-121 -139 -156 -37 -29 -37 -29 -138 -23 -125 7 -154 -7 -180 -82 -25 -73 -21
-88 38 -154 68 -76 83 -115 62 -164 -8 -20 -19 -36 -25 -36 -5 0 -30 -13 -54
-30 -25 -16 -50 -30 -56 -30 -6 0 -26 25 -45 54 -45 71 -78 93 -112 77 -14 -6
-29 -9 -33 -6 -5 2 -11 38 -14 80 -10 110 -42 163 -92 151 -49 -12 -65 7 -65
82 0 78 -20 120 -72 152 -43 26 -112 26 -166 0 -51 -25 -220 -185 -262 -247
-27 -42 -30 -54 -30 -127 0 -223 -77 -222 -144 3 -9 29 -16 81 -16 114 0 68
-25 173 -48 200 -8 9 -26 17 -40 17 -31 0 -79 35 -157 116 -88 91 -104 96
-275 101 -157 5 -239 24 -308 71 -57 39 -89 4 -58 -63 9 -18 16 -36 16 -39 0
-3 11 -28 24 -55 13 -27 26 -61 30 -75 4 -17 20 -33 46 -46 47 -24 78 -25 108
-4 27 19 57 11 78 -21 22 -34 11 -59 -54 -113 -52 -42 -116 -78 -225 -126 -69
-30 -117 -17 -117 31 0 26 -58 143 -92 185 -12 15 -25 49 -29 75 -3 27 -19 81
-34 121 -29 80 -31 159 -6 257 31 118 44 162 57 188 8 16 14 37 14 47 0 10 7
32 15 49 8 17 22 45 30 62 21 44 19 65 -11 88 -32 26 -40 26 -48 4 -3 -10 -10
-25 -15 -33 -10 -17 -31 -70 -81 -210 -7 -19 -16 -53 -20 -75 -4 -22 -12 -53
-19 -68 -6 -16 -11 -40 -11 -54 0 -14 -7 -46 -15 -72 -20 -65 -55 -341 -54
-431 3 -314 97 -740 220 -996 16 -33 29 -66 29 -72 0 -7 4 -12 8 -12 4 0 21
-28 36 -63 32 -69 141 -236 220 -337 262 -333 616 -585 1026 -729 113 -40 234
-68 370 -87 58 -8 124 -19 148 -24 51 -12 248 -12 352 0 162 18 246 31 270 42
14 6 45 15 70 19 67 11 167 42 265 82 133 53 305 138 305 149 0 5 6 8 13 8 6
0 39 18 72 40 33 22 78 52 99 66 53 35 197 158 276 235 206 202 391 482 508
771 34 84 112 334 112 360 0 12 6 44 14 72 27 95 46 288 45 451 0 154 -24 399
-48 493 -6 23 -16 61 -21 85 -6 23 -17 65 -26 92 -8 28 -19 64 -24 80 -11 39
-30 93 -46 130 -7 17 -15 38 -18 48 -7 22 -29 31 -60 23 -32 -8 -43 -42 -22
-65 9 -10 16 -24 16 -32 0 -8 6 -26 14 -41 31 -59 88 -273 117 -438 28 -159
48 -485 30 -503 -6 -6 -11 -38 -11 -72 0 -109 -61 -406 -106 -513 -8 -18 -14
-39 -14 -47 0 -7 -6 -26 -14 -42 -8 -15 -29 -64 -47 -108 -18 -44 -39 -87 -46
-96 -7 -8 -13 -22 -13 -30 0 -8 -5 -20 -11 -26 -12 -12 -19 -24 -61 -99 -61
-110 -197 -290 -289 -383 -99 -100 -291 -263 -348 -296 -29 -16 -68 -42 -87
-56 -30 -24 -141 -81 -284 -147 -50 -23 -119 -49 -165 -62 -16 -4 -68 -19
-115 -33 -47 -14 -101 -27 -120 -30 -19 -3 -66 -10 -105 -16 -130 -19 -330
-34 -370 -27 -22 3 -90 10 -150 15 -61 5 -123 14 -138 20 -16 6 -40 11 -54 11
-27 0 -154 35 -185 51 -10 5 -27 9 -38 9 -10 0 -34 6 -52 14 -18 8 -62 26 -98
42 -73 30 -235 108 -264 127 -64 40 -212 140 -216 146 -3 3 -30 26 -60 50
-108 84 -264 246 -367 381 -116 152 -277 458 -312 595 -4 17 -13 39 -19 50
-17 31 -62 207 -73 282 -5 37 -12 75 -15 83 -6 16 -20 143 -31 274 -6 77 10
211 27 221 12 8 27 -17 34 -59 4 -21 25 -62 45 -90 39 -52 64 -116 76 -194 8
-51 23 -60 79 -43 23 7 57 16 76 20 19 4 44 12 55 18 11 5 38 19 60 29 131 62
255 180 255 242 0 27 -79 121 -108 129 -16 4 -33 -2 -52 -16 -50 -36 -88 -24
-121 41 -18 35 -19 42 -6 55 10 10 20 12 38 5 44 -18 168 -32 275 -32 l105 0
98 -95 c54 -53 108 -97 119 -100 11 -2 34 -11 51 -19 27 -14 31 -22 31 -55 0
-22 9 -92 20 -158 15 -89 29 -136 57 -192 42 -84 71 -103 139 -94 l40 5 12
-58 c20 -94 41 -128 80 -132 60 -6 102 39 116 123 9 54 -5 88 -48 115 -27 16
-48 21 -84 18 l-47 -3 -3 98 c-3 123 6 145 112 250 124 122 148 137 217 137
54 0 58 -2 78 -34 16 -25 21 -50 21 -102 0 -89 16 -114 71 -114 64 0 81 -26
76 -113 -2 -40 -10 -106 -16 -147 -19 -114 -11 -144 73 -262 41 -57 95 -123
120 -147 41 -41 48 -44 73 -35 26 9 28 13 27 64 -2 123 -29 197 -83 224 -34
18 -54 61 -49 107 4 46 22 46 40 -1 10 -23 27 -44 41 -51 22 -10 32 -8 73 17
25 16 66 39 90 51 53 28 74 65 74 136 0 46 -6 63 -38 113 -21 32 -46 65 -55
73 -24 19 -22 76 3 101 18 18 33 20 137 20 l116 0 86 85 c74 74 101 96 101 81
0 -1 -5 -17 -11 -35 -13 -38 -6 -74 21 -101 26 -26 49 -15 90 45 28 40 30 50
24 95 -8 62 -24 78 -62 59 -15 -7 -30 -15 -34 -17 -10 -5 -9 90 2 153 10 59
-4 126 -31 151 -25 22 -24 59 1 91 31 40 26 80 -15 119 -40 37 -42 45 -17 67
26 24 35 22 82 -18 23 -19 48 -35 55 -35 19 0 35 -55 35 -122 0 -52 3 -63 29
-89 54 -54 141 -32 141 35 0 11 7 39 16 63 16 40 16 44 -5 83 -11 22 -21 47
-21 55 0 8 29 47 65 86 36 39 65 75 65 80 0 5 11 11 24 15 14 3 32 14 42 25
32 35 94 19 94 -24 0 -16 -5 -17 -45 -11 -66 9 -85 -8 -124 -110 -35 -94 -36
-112 -6 -132 17 -11 25 -11 50 2 17 9 52 19 80 23 42 5 53 11 73 41 18 27 22
42 17 71 -6 36 9 56 31 41 18 -14 84 -101 84 -112 0 -6 -13 -31 -30 -55 -16
-24 -30 -51 -30 -60 0 -23 132 -175 152 -175 11 0 35 36 74 113 31 61 60 117
64 122 7 10 121 226 212 405 27 52 54 102 60 111 10 14 -2 32 -67 108 -99 116
-125 131 -171 96z m-14 -241 c0 -23 -127 -231 -145 -238 -22 -8 -44 8 -89 66
-53 68 -54 67 114 147 92 44 120 50 120 25z m-1729 -1622 c1 -108 10 -133 58
-166 60 -40 93 -126 48 -126 -16 0 -132 158 -154 209 -17 41 -10 106 14 133
24 26 33 13 34 -50z"/>
<path d="M10246 3315 c-19 -18 -26 -34 -26 -62 0 -33 -7 -46 -46 -83 -85 -83
-126 -140 -123 -175 2 -21 -4 -41 -19 -60 -24 -30 -22 -56 6 -87 22 -26 37
-22 60 14 19 30 20 34 4 60 -15 25 -15 29 3 48 10 11 27 20 37 20 11 0 28 5
39 11 14 7 30 6 55 -3 44 -16 78 1 106 52 39 72 -3 290 -57 290 -7 0 -24 -11
-39 -25z"/>
<path d="M9792 2608 c-7 -7 -12 -18 -12 -25 0 -7 -9 -30 -20 -50 -11 -21 -20
-45 -20 -53 0 -22 59 -131 87 -162 24 -25 24 -48 1 -48 -25 0 -78 -46 -78 -67
0 -27 43 -79 81 -98 42 -22 106 -20 119 4 26 49 -4 144 -51 160 -35 12 -38 41
-10 77 16 21 19 40 19 117 -1 88 -2 93 -31 125 -32 33 -64 41 -85 20z"/>
<path d="M9648 2017 c-15 -12 -34 -38 -42 -58 -12 -28 -28 -43 -72 -65 -31
-16 -70 -41 -86 -55 -26 -25 -28 -33 -28 -97 0 -85 19 -114 84 -131 70 -17 99
-14 144 20 23 17 46 28 51 25 5 -3 12 -30 16 -59 4 -28 14 -60 23 -69 31 -37
105 -13 141 45 25 41 26 64 5 116 -14 37 -38 53 -106 75 -22 7 -22 22 -2 99
19 73 14 95 -30 141 -39 42 -60 45 -98 13z m70 -127 c-3 -61 -7 -72 -50 -131
-67 -91 -64 -89 -115 -89 -56 0 -83 21 -83 64 0 48 24 73 106 112 73 35 94 55
94 93 0 21 17 31 39 23 10 -4 12 -22 9 -72z"/>
<path d="M8892 1978 c-18 -18 -14 -72 9 -125 12 -27 25 -57 29 -68 44 -132
158 -245 246 -245 27 0 32 -4 37 -30 7 -34 68 -105 109 -126 21 -11 42 -13 75
-8 58 9 92 44 93 95 0 56 -51 97 -171 136 -9 2 -35 -7 -58 -21 -22 -14 -43
-26 -45 -26 -2 0 -7 19 -11 43 -4 23 -29 83 -56 133 -37 69 -67 108 -127 166
-83 80 -110 96 -130 76z"/>
<path d="M9947 1582 c-45 -47 -28 -126 38 -177 30 -22 43 -25 114 -25 l81 0 0
50 c0 43 -4 54 -37 87 -99 100 -147 116 -196 65z"/>
<path d="M9623 1354 c-41 -36 -66 -49 -116 -60 -42 -10 -73 -24 -88 -40 -21
-22 -22 -28 -11 -57 15 -43 15 -121 0 -164 -11 -31 -10 -35 15 -60 25 -26 29
-27 59 -14 55 22 110 32 139 26 26 -6 134 -111 192 -188 47 -63 64 -60 152 27
42 42 81 76 86 76 16 0 49 64 49 96 0 17 -7 53 -16 80 -8 27 -19 91 -23 142
-8 101 -21 125 -73 137 -23 6 -33 1 -59 -26 -36 -39 -57 -33 -75 22 -15 44
-54 61 -83 35 -18 -17 -22 -17 -43 -2 -34 24 -48 20 -105 -30z m98 -50 c8 -10
22 -14 40 -10 24 4 34 -2 74 -49 60 -71 90 -72 110 -5 16 53 55 47 56 -9 0
-20 7 -70 15 -111 29 -145 30 -136 -8 -172 -69 -65 -122 -108 -133 -108 -7 0
-47 38 -90 85 -125 135 -170 156 -249 118 -53 -25 -64 -10 -65 87 0 52 4 82
12 87 6 4 41 17 77 30 35 12 75 34 89 48 29 29 53 32 72 9z"/>
</g>
</svg>
