<?xml version="1.0" encoding="UTF-8" standalone="no"?>
<!-- Created with Inkscape (http://www.inkscape.org/) -->

<svg
   xmlns:dc="http://purl.org/dc/elements/1.1/"
   xmlns:cc="http://creativecommons.org/ns#"
   xmlns:rdf="http://www.w3.org/1999/02/22-rdf-syntax-ns#"
   xmlns:svg="http://www.w3.org/2000/svg"
   xmlns="http://www.w3.org/2000/svg"
   xmlns:sodipodi="http://sodipodi.sourceforge.net/DTD/sodipodi-0.dtd"
   xmlns:inkscape="http://www.inkscape.org/namespaces/inkscape"
   width="232.13499"
   height="192.88499"
   id="svg34476"
   version="1.1"
   inkscape:version="0.48.3.1 r9886"
   sodipodi:docname="Neues Dokument 21">
  <defs
     id="defs34478">
    <clipPath
       clipPathUnits="userSpaceOnUse"
       id="clipPath10490">
      <path
         inkscape:connector-curvature="0"
         d="m 2267.299,89.261 185.708,0 0,154.308 -185.708,0 0,-154.308 z"
         id="path10492" />
    </clipPath>
    <clipPath
       clipPathUnits="userSpaceOnUse"
       id="clipPath10474">
      <path
         inkscape:connector-curvature="0"
         d="m 0,3401.576 2551.182,0 L 2551.182,0 0,0 0,3401.576 z"
         id="path10476" />
    </clipPath>
    <clipPath
       clipPathUnits="userSpaceOnUse"
       id="clipPath10458">
      <path
         inkscape:connector-curvature="0"
         d="m 2267.299,89.261 185.708,0 0,154.308 -185.708,0 0,-154.308 z"
         id="path10460" />
    </clipPath>
    <clipPath
       clipPathUnits="userSpaceOnUse"
       id="clipPath10442">
      <path
         inkscape:connector-curvature="0"
         d="m 0,3401.576 2551.182,0 L 2551.182,0 0,0 0,3401.576 z"
         id="path10444" />
    </clipPath>
    <clipPath
       clipPathUnits="userSpaceOnUse"
       id="clipPath10426">
      <path
         inkscape:connector-curvature="0"
         d="m 2267.299,89.261 185.708,0 0,154.308 -185.708,0 0,-154.308 z"
         id="path10428" />
    </clipPath>
    <clipPath
       clipPathUnits="userSpaceOnUse"
       id="clipPath10414">
      <path
         inkscape:connector-curvature="0"
         d="m 0,3401.576 2551.182,0 L 2551.182,0 0,0 0,3401.576 z"
         id="path10416" />
    </clipPath>
    <clipPath
       clipPathUnits="userSpaceOnUse"
       id="clipPath10402">
      <path
         inkscape:connector-curvature="0"
         d="m 2267.299,89.261 185.708,0 0,154.308 -185.708,0 0,-154.308 z"
         id="path10404" />
    </clipPath>
    <clipPath
       clipPathUnits="userSpaceOnUse"
       id="clipPath10388">
      <path
         inkscape:connector-curvature="0"
         d="m 0,3401.576 2551.182,0 L 2551.182,0 0,0 0,3401.576 z"
         id="path10390" />
    </clipPath>
    <clipPath
       clipPathUnits="userSpaceOnUse"
       id="clipPath10356">
      <path
         inkscape:connector-curvature="0"
         d="m 0,3401.576 2551.182,0 L 2551.182,0 0,0 0,3401.576 z"
         id="path10358" />
    </clipPath>
    <clipPath
       clipPathUnits="userSpaceOnUse"
       id="clipPath10332">
      <path
         inkscape:connector-curvature="0"
         d="m 2267.299,89.261 185.708,0 0,154.308 -185.708,0 0,-154.308 z"
         id="path10334" />
    </clipPath>
  </defs>
  <sodipodi:namedview
     id="base"
     pagecolor="#ffffff"
     bordercolor="#666666"
     borderopacity="1.0"
     inkscape:pageopacity="0.0"
     inkscape:pageshadow="2"
     inkscape:zoom="0.35"
     inkscape:cx="-19.64679"
     inkscape:cy="439.29965"
     inkscape:document-units="px"
     inkscape:current-layer="layer1"
     showgrid="false"
     fit-margin-top="0"
     fit-margin-left="0"
     fit-margin-right="0"
     fit-margin-bottom="0"
     inkscape:window-width="613"
     inkscape:window-height="438"
     inkscape:window-x="51"
     inkscape:window-y="24"
     inkscape:window-maximized="0" />
  <metadata
     id="metadata34481">
    <rdf:RDF>
      <cc:Work
         rdf:about="">
        <dc:format>image/svg+xml</dc:format>
        <dc:type
           rdf:resource="http://purl.org/dc/dcmitype/StillImage" />
        <dc:title></dc:title>
      </cc:Work>
    </rdf:RDF>
  </metadata>
  <g
     inkscape:label="Ebene 1"
     inkscape:groupmode="layer"
     id="layer1"
     transform="translate(-369.64679,-778.77683)">
    <path
       d="m 369.64679,971.66183 232.135,0 0,-192.885 -232.135,0 0,192.885 z"
       style="fill:#ffffff;fill-opacity:1;fill-rule:nonzero;stroke:none"
       id="path10310"
       inkscape:connector-curvature="0" />
    <g
       id="g10312"
       transform="matrix(1.25,0,0,-1.25,404.71746,881.2886)">
      <path
         d="m 0,0 -5.522,0 0,12.291 L -8.014,0 l -5.431,0 -2.897,13.04 0,-13.04 -5.298,0 0,23.959 7.939,0 2.958,-13.709 2.963,13.709 7.78,0 L 0,0 z"
         style="fill:#003d90;fill-opacity:1;fill-rule:nonzero;stroke:none"
         id="path10314"
         inkscape:connector-curvature="0" />
    </g>
    <g
       id="g10316"
       transform="matrix(1.25,0,0,-1.25,415.57196,848.94)">
      <path
         d="M 0,0 6.113,5.612 11.267,5.577 5.191,0.023 0,0 z"
         style="fill:#00b6e8;fill-opacity:1;fill-rule:nonzero;stroke:none"
         id="path10318"
         inkscape:connector-curvature="0" />
    </g>
    <g
       id="g10320"
       transform="matrix(1.25,0,0,-1.25,428.28666,881.2886)">
      <path
         d="m 0,0 -12.797,0 0,23.959 12.797,0 0,-4.341 -6.942,0 0,-5.193 6.542,0 0,-4.342 -6.542,0 0,-5.741 L 0,4.342 0,0 z"
         style="fill:#003d90;fill-opacity:1;fill-rule:nonzero;stroke:none"
         id="path10322"
         inkscape:connector-curvature="0" />
    </g>
    <g
       id="g10324"
       transform="matrix(1.25,0,0,-1.25,446.37626,881.2886)">
      <path
         d="m 0,0 -5.812,0 0,19.618 -4.81,0 0,4.341 15.428,0 0,-4.341 L 0,19.618 0,0 z"
         style="fill:#003d90;fill-opacity:1;fill-rule:nonzero;stroke:none"
         id="path10326"
         inkscape:connector-curvature="0" />
    </g>
    <g
       id="g10328"
       transform="matrix(1.25,0,0,-1.25,-2464.477,1083.2381)">
      <g
         id="g10330"
         clip-path="url(#clipPath10332)">
        <g
           id="g10336"
           transform="translate(2352.459,161.5596)">
          <path
             d="M 0,0 -5.459,0 -5.74,0.369 c -0.543,0.745 -0.647,1.483 -0.647,2.505 l 0,5.012 c 0,1.535 0,1.775 -2.243,1.775 l -0.459,0 0,-9.661 -5.892,0 0,23.959 7.2,0 c 6.413,0 7.439,-1.646 7.439,-6.935 0,-2.364 -0.349,-3.912 -1.987,-4.93 1.239,-0.689 1.825,-1.852 1.825,-3.559 l 0,-4.832 c 0,-0.757 0,-1.794 0.221,-2.615 L 0,0 z m -9.089,13.999 0.13,0 c 2.633,0 2.73,0 2.73,2.9 0,2.719 0,2.719 -1.838,2.719 l -1.022,0 0,-5.619 z"
             style="fill:#003d90;fill-opacity:1;fill-rule:nonzero;stroke:none"
             id="path10338"
             inkscape:connector-curvature="0" />
        </g>
        <g
           id="g10340"
           transform="translate(2365.0127,161.3701)">
          <path
             d="m 0,0 c -5.173,0 -7.694,2.091 -7.694,6.387 l 0,11.222 c 0,4.464 2.59,6.726 7.694,6.726 5.206,0 7.733,-2.091 7.733,-6.383 l 0,-11.226 C 7.733,2.266 5.13,0 0,0 m 0,20.18 c -0.968,0 -1.862,-0.282 -1.862,-2.32 l 0,-11.656 c 0,-0.932 0.324,-2.045 1.862,-2.045 1.26,0 1.898,0.692 1.898,2.045 l 0,11.656 c 0,1.924 -0.757,2.32 -1.898,2.32"
             style="fill:#003d90;fill-opacity:1;fill-rule:nonzero;stroke:none"
             id="path10342"
             inkscape:connector-curvature="0" />
        </g>
        <g
           id="g10344"
           transform="translate(2384.1973,161.5596)">
          <path
             d="m 0,0 -5.848,0 0,23.959 7.548,0 c 5.904,0 7.437,-1.464 7.437,-7.154 C 9.137,11.128 7.604,9.661 1.7,9.661 L 0,9.661 0,0 z m 0,13.999 1.178,0 c 2.103,0 2.103,0 2.103,2.806 0,2.813 0,2.813 -2.103,2.813 l -1.178,0 0,-5.619 z"
             style="fill:#003d90;fill-opacity:1;fill-rule:nonzero;stroke:none"
             id="path10346"
             inkscape:connector-curvature="0" />
        </g>
        <g
           id="g10348"
           transform="translate(2404.8916,161.3701)">
          <path
             d="m 0,0 c -5.179,0 -7.695,2.091 -7.695,6.387 l 0,11.222 c 0,4.464 2.588,6.726 7.695,6.726 5.2,0 7.732,-2.091 7.732,-6.383 l 0,-11.226 C 7.732,2.266 5.127,0 0,0 m 0,20.18 c -0.966,0 -1.855,-0.282 -1.855,-2.32 l 0,-11.656 c 0,-0.932 0.311,-2.045 1.855,-2.045 1.257,0 1.9,0.692 1.9,2.045 l 0,11.656 c 0,1.924 -0.759,2.32 -1.9,2.32"
             style="fill:#003d90;fill-opacity:1;fill-rule:nonzero;stroke:none"
             id="path10350"
             inkscape:connector-curvature="0" />
        </g>
      </g>
    </g>
    <g
       id="g10352"
       transform="matrix(1.25,0,0,-1.25,-2464.477,1083.2381)">
      <g
         id="g10354"
         clip-path="url(#clipPath10356)">
        <g
           id="g10360"
           transform="translate(2430.2139,161.5596)">
          <path
             d="m 0,0 -12.767,0 0,23.959 5.924,0 0,-19.617 L 0,4.342 0,0 z"
             style="fill:#003d90;fill-opacity:1;fill-rule:nonzero;stroke:none"
             id="path10362"
             inkscape:connector-curvature="0" />
        </g>
        <g
           id="g10364"
           transform="translate(2446.8555,161.5596)">
          <path
             d="m 0,0 -12.802,0 0,23.959 12.802,0 0,-4.341 -6.939,0 0,-5.193 6.537,0 0,-4.342 -6.537,0 0,-5.741 L 0,4.342 0,0 z"
             style="fill:#003d90;fill-opacity:1;fill-rule:nonzero;stroke:none"
             id="path10366"
             inkscape:connector-curvature="0" />
        </g>
      </g>
    </g>
    <path
       inkscape:connector-curvature="0"
       id="path10378"
       style="fill:#003d90;fill-opacity:1;fill-rule:nonzero;stroke:none"
       d="m 377.37979,842.36283 c 0,0 27.025,-21.77 36.84875,-28.005 9.34625,-5.9275 16.70375,-5.295 31.54875,2.65125 14.85625,7.955 31.5625,16.97 39.91625,20.6825 8.3475,3.71 19.4875,6.89375 34.64375,-3.18375 15.16375,-10.07125 25.24625,-18.825 41.13,-30.34 7.115,-5.15125 15.8125,-4.18125 21.77375,-0.945 6.83125,3.6975 11.08375,6.63375 11.08375,6.63375 l 0,-23.7225 -216.9725,0 0.0275,56.22875 z" />
    <g
       id="g10380"
       transform="matrix(1.25,0,0,-1.25,377.35166,945.0923)">
      <path
         d="m 0,0 c 0,0 22.598,15.838 28.681,20.153 6.176,4.372 12.743,2.08 18.02,-0.824 C 49.996,17.515 65.231,8.9 72.318,5.756 86.18,-0.396 94.346,-7.604 108.453,2.361 c 17.729,12.531 27.645,18.568 34.647,23.327 7.18,4.878 16.336,4.031 21.285,0.849 4.95,-3.179 9.155,-6.36 9.155,-6.36 l 0,-35.551 L 0,-15.375 0,0 z"
         style="fill:#00b6e8;fill-opacity:1;fill-rule:nonzero;stroke:none"
         id="path10382"
         inkscape:connector-curvature="0" />
    </g>
    <g
       id="g10384"
       transform="matrix(1.25,0,0,-1.25,-2464.477,1083.2381)">
      <g
         id="g10386"
         clip-path="url(#clipPath10388)">
        <g
           id="g10392"
           transform="translate(2281.6445,156.1992)">
          <path
             d="m 0,0 2.024,0 0,-11.475 -2.07,0 -5.897,8.274 -0.032,0 0,-8.274 -2.024,0 0,11.475 2.116,0 5.847,-8.356 0.036,0 L 0,0 z"
             style="fill:#003d90;fill-opacity:1;fill-rule:nonzero;stroke:none"
             id="path10394"
             inkscape:connector-curvature="0" />
        </g>
        <path
           d="m 2287.537,156.199 2.022,0 0,-11.471 -2.022,0 0,11.471 z"
           style="fill:#003d90;fill-opacity:1;fill-rule:nonzero;stroke:none"
           id="path10396"
           inkscape:connector-curvature="0" />
      </g>
    </g>
    <g
       id="g10398"
       transform="matrix(1.25,0,0,-1.25,-2464.477,1083.2381)">
      <g
         id="g10400"
         clip-path="url(#clipPath10402)">
        <g
           id="g10406"
           transform="translate(2301.2334,152.6602)">
          <path
             d="M 0,0 C -0.466,1.433 -1.493,2.17 -2.839,2.155 -4.547,2.14 -6.442,0.642 -6.442,-2.202 c 0,-2.745 1.895,-4.357 3.794,-4.357 1.668,0 2.44,0.909 2.891,2.543 l 2.119,0 c -0.37,-2.543 -2.537,-4.276 -5.025,-4.276 -3.377,0 -5.962,2.559 -5.962,6.09 0,3.536 2.585,6.095 5.962,6.095 2.326,0 4.252,-1.559 4.836,-3.893 L 0,0 z"
             style="fill:#003d90;fill-opacity:1;fill-rule:nonzero;stroke:none"
             id="path10408"
             inkscape:connector-curvature="0" />
        </g>
      </g>
    </g>
    <g
       id="g10410"
       transform="matrix(1.25,0,0,-1.25,-2464.477,1083.2381)">
      <g
         id="g10412"
         clip-path="url(#clipPath10414)">
        <g
           id="g10418"
           transform="translate(2306.9365,144.7295)">
          <path
             d="m 0,0 0,11.47 7.391,0 0,-1.673 -5.364,0 0,-2.973 4.609,0 0,-1.669 -4.609,0 0,-3.486 5.475,0 L 7.502,0 0,0 z"
             style="fill:#003d90;fill-opacity:1;fill-rule:nonzero;stroke:none"
             id="path10420"
             inkscape:connector-curvature="0" />
        </g>
      </g>
    </g>
    <g
       id="g10422"
       transform="matrix(1.25,0,0,-1.25,-2464.477,1083.2381)">
      <g
         id="g10424"
         clip-path="url(#clipPath10426)">
        <g
           id="g10430"
           transform="translate(2334.8184,152.6602)">
          <path
             d="m 0,0 c -0.463,1.433 -1.49,2.17 -2.838,2.155 -1.709,-0.014 -3.604,-1.512 -3.604,-4.356 0,-2.745 1.895,-4.358 3.794,-4.358 1.668,0 2.441,0.909 2.892,2.543 l 2.121,0 c -0.375,-2.543 -2.539,-4.276 -5.033,-4.276 -3.369,0 -5.957,2.559 -5.957,6.091 0,3.535 2.588,6.094 5.957,6.094 C -0.337,3.893 1.59,2.334 2.168,0 L 0,0 z"
             style="fill:#003d90;fill-opacity:1;fill-rule:nonzero;stroke:none"
             id="path10432"
             inkscape:connector-curvature="0" />
        </g>
        <g
           id="g10434"
           transform="translate(2345.9023,144.376)">
          <path
             d="m 0,0 c -3.373,0 -5.996,2.551 -5.996,6.083 0,3.535 2.623,6.09 5.996,6.09 3.371,0 5.992,-2.555 5.992,-6.09 C 5.992,2.551 3.371,0 0,0 m 0,10.439 c -2.106,0 -3.81,-1.672 -3.81,-4.356 0,-2.685 1.704,-4.35 3.81,-4.35 2.102,0 3.805,1.665 3.805,4.35 0,2.684 -1.703,4.356 -3.805,4.356 m -2.607,2.183 1.72,2.311 1.784,0 1.729,-2.311 -1.49,0 -1.12,1.433 -1.141,-1.433 -1.482,0 z"
             style="fill:#003d90;fill-opacity:1;fill-rule:nonzero;stroke:none"
             id="path10436"
             inkscape:connector-curvature="0" />
        </g>
      </g>
    </g>
    <g
       id="g10438"
       transform="matrix(1.25,0,0,-1.25,-2464.477,1083.2381)">
      <g
         id="g10440"
         clip-path="url(#clipPath10442)">
        <g
           id="g10446"
           transform="translate(2353.4023,156.1992)">
          <path
             d="m 0,0 8.406,0 0,-1.737 -3.2,0 0,-9.737 -2.022,0 0,9.737 L 0,-1.737 0,0 z"
             style="fill:#003d90;fill-opacity:1;fill-rule:nonzero;stroke:none"
             id="path10448"
             inkscape:connector-curvature="0" />
        </g>
        <g
           id="g10450"
           transform="translate(2364.9189,144.7295)">
          <path
             d="m 0,0 0,11.47 7.391,0 0,-1.673 -5.366,0 0,-2.973 4.608,0 0,-1.669 -4.608,0 0,-3.486 5.48,0 L 7.505,0 0,0 z"
             style="fill:#003d90;fill-opacity:1;fill-rule:nonzero;stroke:none"
             id="path10452"
             inkscape:connector-curvature="0" />
        </g>
      </g>
    </g>
    <g
       id="g10454"
       transform="matrix(1.25,0,0,-1.25,-2464.477,1083.2381)">
      <g
         id="g10456"
         clip-path="url(#clipPath10458)">
        <g
           id="g10462"
           transform="translate(2383.6924,156.1992)">
          <path
             d="m 0,0 5.143,0 c 2.81,0 5.284,-1.768 5.284,-5.74 0,-3.966 -2.474,-5.73 -5.284,-5.73 L 0,-11.47 0,0 z m 2.025,-9.801 2.119,0 c 2.587,0 4.114,1.395 4.101,4.061 0.013,2.668 -1.514,4.067 -4.101,4.067 l -2.119,0 0,-8.128 z"
             style="fill:#003d90;fill-opacity:1;fill-rule:nonzero;stroke:none"
             id="path10464"
             inkscape:connector-curvature="0" />
        </g>
        <g
           id="g10466"
           transform="translate(2398.2715,156.1992)">
          <path
             d="m 0,0 0,-2.03 c -0.046,-0.783 -0.338,-1.365 -0.656,-1.874 l -0.967,0 c 0.563,0.558 0.738,1.185 0.776,1.874 l -1.047,0 0,2.03 L 0,0 z"
             style="fill:#003d90;fill-opacity:1;fill-rule:nonzero;stroke:none"
             id="path10468"
             inkscape:connector-curvature="0" />
        </g>
      </g>
    </g>
    <g
       id="g10470"
       transform="matrix(1.25,0,0,-1.25,-2464.477,1083.2381)">
      <g
         id="g10472"
         clip-path="url(#clipPath10474)">
        <g
           id="g10478"
           transform="translate(2403.708,156.1992)">
          <path
             d="m 0,0 2.061,0 4.415,-11.47 -2.248,0 -0.954,2.581 -4.623,0 -0.994,-2.581 -2.253,0 L 0,0 z m -0.708,-7.216 3.361,0 -1.627,4.677 -0.03,0 -1.704,-4.677 z"
             style="fill:#003d90;fill-opacity:1;fill-rule:nonzero;stroke:none"
             id="path10480"
             inkscape:connector-curvature="0" />
        </g>
        <g
           id="g10482"
           transform="translate(2412.9609,144.7295)">
          <path
             d="m 0,0 0,1.669 7.313,8.128 -6.765,0 0,1.673 9.395,0 0,-1.673 -7.357,-8.128 7.183,0 L 9.769,0 0,0 z"
             style="fill:#003d90;fill-opacity:1;fill-rule:nonzero;stroke:none"
             id="path10484"
             inkscape:connector-curvature="0" />
        </g>
      </g>
    </g>
    <g
       id="g10486"
       transform="matrix(1.25,0,0,-1.25,-2464.477,1083.2381)">
      <g
         id="g10488"
         clip-path="url(#clipPath10490)">
        <g
           id="g10494"
           transform="translate(2427.1621,156.1992)">
          <path
             d="m 0,0 0,-7.684 c 0,-1.574 1.323,-2.41 2.783,-2.41 1.463,0 2.778,0.836 2.778,2.41 l 0,7.684 2.023,0 0,-7.774 c 0,-2.798 -2.117,-4.049 -4.801,-4.049 -2.681,0 -4.805,1.251 -4.805,4.049 L -2.022,0 0,0 z"
             style="fill:#003d90;fill-opacity:1;fill-rule:nonzero;stroke:none"
             id="path10496"
             inkscape:connector-curvature="0" />
        </g>
        <g
           id="g10498"
           transform="translate(2437.7393,144.7295)">
          <path
             d="m 0,0 0,11.47 5.079,0 c 1.992,0 3.424,-0.867 3.424,-3.087 0,-1.707 -0.968,-2.392 -2.395,-2.665 l 0,-0.038 C 7.664,5.619 8.296,4.786 8.296,3.304 l 0,-1.753 C 8.296,0.897 8.485,0.444 8.929,0 L 6.463,0 C 6.123,0.475 6.174,1.121 6.174,1.509 l 0,1.475 C 6.185,4.638 6.029,4.771 4.182,4.771 l -2.158,0 L 2.024,0 0,0 z m 2.024,6.501 2.204,0 c 1.429,0 2.154,0.615 2.154,1.559 0,1.048 -0.756,1.608 -1.789,1.608 l -2.569,0 0,-3.167 z"
             style="fill:#003d90;fill-opacity:1;fill-rule:nonzero;stroke:none"
             id="path10500"
             inkscape:connector-curvature="0" />
        </g>
      </g>
    </g>
  </g>
</svg>
