<?xml version="1.0" standalone="no"?>
<!DOCTYPE svg PUBLIC "-//W3C//DTD SVG 20010904//EN"
 "http://www.w3.org/TR/2001/REC-SVG-20010904/DTD/svg10.dtd">
<svg version="1.0" xmlns="http://www.w3.org/2000/svg"
 width="956.000000pt" height="882.000000pt" viewBox="0 0 956.000000 882.000000"
 preserveAspectRatio="xMidYMid meet">
<metadata>
Created by potrace 1.16, written by Peter Selinger 2001-2019
</metadata>
<g transform="translate(0.000000,882.000000) scale(0.100000,-0.100000)"
fill="#000000" stroke="none">
<path d="M487 8363 l-37 -26 0 -531 c-2 -4109 -1 -4290 20 -4305 27 -19 25
-59 -5 -87 -31 -29 -31 -35 0 -72 l25 -30 0 -1165 0 -1166 22 -15 c20 -14 321
-16 2997 -16 2785 0 2976 -1 2993 -17 24 -22 82 -22 106 0 17 15 60 17 478 17
389 0 463 -2 480 -15 25 -19 48 -19 64 0 11 13 74 15 455 15 381 0 444 -2 455
-15 16 -19 44 -19 60 0 10 12 38 15 131 15 106 0 121 2 139 20 l21 21 -7 3667
-6 3667 -34 33 -34 32 -4142 0 -4143 0 -38 -27z m8287 -69 c15 -14 16 -175 16
-1696 -1 -1494 1 -1683 15 -1698 17 -19 20 -40 5 -40 -14 0 -13 -26 2 -50 10
-15 10 -22 0 -32 -14 -14 -16 -48 -2 -48 15 0 12 -21 -6 -41 -14 -15 -16 -52
-16 -266 1 -237 2 -248 21 -264 l21 -17 -22 -27 c-15 -19 -22 -45 -24 -82 -3
-47 0 -58 21 -78 21 -19 25 -31 25 -85 0 -50 -4 -65 -21 -79 l-20 -16 20 -27
c20 -25 21 -38 21 -329 0 -297 0 -303 -22 -326 l-21 -23 21 -23 22 -23 -2
-1010 -3 -1009 -4129 -3 c-2272 -1 -4133 1 -4137 5 -4 5 -10 1126 -14 2493 -7
2455 -7 2485 -27 2506 -19 22 -19 22 1 41 17 16 20 33 22 102 1 68 -1 87 -15
96 -20 15 -20 34 -1 55 13 15 15 79 15 471 0 395 -2 454 -15 461 -19 11 -19
45 0 56 14 7 16 68 15 499 0 436 1 493 16 507 14 15 383 16 4109 16 3723 0
4095 -1 4109 -16z"/>
<path d="M2481 7710 c-13 -11 -33 -20 -46 -20 -12 0 -34 -9 -48 -20 -14 -11
-36 -20 -50 -20 -17 0 -52 -23 -104 -67 -43 -38 -102 -88 -130 -112 -32 -27
-54 -55 -58 -73 -4 -15 -15 -33 -26 -38 -10 -6 -19 -20 -19 -30 0 -11 -9 -29
-20 -40 -11 -11 -26 -34 -33 -52 -8 -18 -33 -50 -56 -71 -22 -21 -41 -46 -41
-57 0 -10 -9 -25 -19 -32 -13 -9 -17 -19 -11 -27 11 -19 79 36 86 70 7 32 113
119 145 119 34 1 371 290 382 329 6 17 34 47 73 77 72 56 83 84 32 84 -18 -1
-44 -10 -57 -20z"/>
<path d="M6662 7678 c-22 -22 -12 -47 38 -89 32 -27 50 -50 50 -64 0 -14 13
-33 33 -48 17 -13 77 -63 132 -110 63 -55 109 -87 123 -87 13 0 35 -9 49 -20
14 -11 38 -20 53 -20 15 0 33 -7 40 -15 14 -17 50 -21 50 -5 0 5 -9 14 -20 20
-11 6 -20 19 -20 30 0 10 -11 32 -25 48 -14 17 -25 36 -25 44 0 8 -22 36 -50
61 -27 25 -50 55 -50 65 0 24 -72 82 -101 82 -11 0 -43 18 -69 40 -27 23 -58
40 -72 40 -14 0 -35 9 -48 20 -26 22 -70 26 -88 8z"/>
<path d="M4333 7638 c-4 -7 -6 -93 -4 -191 l3 -177 -34 -31 c-18 -18 -58 -52
-88 -78 -226 -189 -319 -273 -322 -292 -3 -23 -14 -31 -63 -46 -22 -6 -31 -16
-35 -38 -4 -23 -12 -31 -36 -36 -42 -8 -51 -15 -58 -45 -9 -36 -54 -73 -99
-80 -32 -6 -39 -11 -44 -36 -7 -38 -155 -165 -197 -170 -16 -1 -33 -11 -37
-20 -5 -10 -13 -26 -17 -35 -5 -10 -40 -44 -78 -77 -69 -58 -169 -143 -383
-325 -62 -53 -123 -102 -135 -108 -15 -9 -93 -13 -281 -13 -190 0 -264 -3
-273 -12 -16 -16 -17 -470 -2 -499 10 -18 24 -19 279 -19 253 0 270 -1 294
-20 14 -11 36 -20 50 -20 28 0 41 -13 51 -50 9 -33 158 -153 198 -160 24 -4
34 -12 42 -36 10 -29 131 -138 391 -354 50 -41 104 -86 120 -101 48 -42 175
-150 240 -204 33 -27 87 -73 120 -102 33 -28 112 -95 175 -148 63 -54 128
-108 143 -122 l28 -24 -1 -226 c-1 -177 1 -228 12 -234 7 -5 153 -9 325 -9
275 0 313 2 328 16 14 15 16 43 14 217 l-2 201 39 33 c117 101 188 153 207
153 21 0 56 28 317 250 68 58 153 130 189 160 36 30 75 63 86 73 74 69 155
127 177 127 29 0 43 14 52 52 5 21 13 28 44 33 22 3 52 19 72 38 19 18 64 57
100 86 82 68 313 264 320 271 3 3 20 18 38 33 l34 27 293 0 c179 0 296 4 300
10 9 15 8 501 -2 511 -5 5 -132 10 -283 11 l-275 3 -11 35 c-9 27 -18 36 -43
41 -34 7 -60 25 -176 125 -44 38 -120 103 -170 144 -49 41 -103 87 -120 101
-16 15 -82 70 -145 124 -63 54 -152 130 -198 169 -54 46 -95 73 -115 76 -25 4
-37 14 -52 44 -26 49 -166 166 -199 166 -27 0 -40 14 -50 50 -3 14 -25 40 -49
57 -23 18 -57 46 -76 63 -18 16 -44 30 -56 30 -22 0 -101 57 -173 124 l-33 31
2 222 c0 122 -2 226 -6 232 -10 17 -651 15 -662 -1z m588 -555 c51 -43 109
-91 129 -108 20 -16 66 -56 102 -87 40 -36 74 -58 89 -58 32 0 44 -10 56 -44
7 -23 18 -32 48 -40 31 -9 40 -17 47 -42 9 -34 71 -84 105 -84 29 0 82 -49 91
-85 7 -24 15 -31 43 -35 35 -6 42 -12 373 -294 66 -55 152 -128 191 -161 40
-33 138 -116 219 -184 l146 -124 0 -179 c0 -200 7 -179 -85 -256 -81 -68 -330
-279 -424 -359 -57 -49 -105 -83 -118 -83 -22 0 -108 -65 -259 -194 -39 -34
-108 -93 -155 -132 -46 -40 -122 -104 -167 -143 -58 -49 -92 -71 -110 -71 -31
0 -92 -52 -92 -79 0 -24 -20 -41 -50 -41 -17 -1 -57 -28 -125 -85 l-99 -85
-229 0 c-154 0 -235 4 -250 12 -18 9 -200 159 -217 178 -3 3 -45 39 -94 80
-49 41 -123 104 -166 140 -42 36 -129 110 -194 165 -65 55 -153 129 -195 165
-43 36 -133 112 -201 170 -68 58 -165 139 -215 181 -69 58 -94 84 -98 108 -5
23 -13 32 -34 36 -41 9 -58 20 -62 41 -5 30 -21 44 -50 44 -49 0 -51 9 -51
226 l0 203 121 103 c67 57 154 130 194 163 39 33 105 89 146 124 41 35 97 83
124 106 28 24 102 87 166 141 64 55 171 144 238 199 84 70 123 108 127 127 8
34 21 45 58 50 23 2 31 10 38 33 4 16 15 35 24 42 9 7 30 25 48 40 17 15 58
51 91 78 33 28 92 78 132 113 l73 62 215 0 214 0 92 -77z"/>
<path d="M4817 6733 c-4 -3 -7 -37 -7 -75 0 -64 -2 -69 -25 -78 -17 -6 -25
-17 -25 -33 0 -13 -11 -34 -25 -47 -14 -13 -25 -31 -25 -40 0 -10 -11 -29 -25
-44 -18 -19 -25 -38 -25 -65 0 -25 -7 -44 -20 -56 -11 -10 -22 -27 -26 -39 -3
-11 -15 -30 -25 -41 -14 -16 -19 -40 -22 -103 -3 -67 -8 -87 -25 -105 -20 -21
-22 -34 -22 -150 0 -110 -2 -127 -16 -127 -28 0 -71 39 -77 69 -4 17 -16 35
-29 42 -13 7 -29 20 -35 30 -23 32 -164 139 -183 139 -36 0 -95 49 -100 83 -4
29 -9 33 -45 37 -34 4 -40 9 -43 31 -2 15 -14 37 -28 50 -17 16 -24 33 -24 60
0 27 -8 46 -25 65 -21 22 -25 37 -25 83 0 63 -11 81 -50 81 -36 0 -50 -17 -50
-61 0 -25 8 -45 25 -63 l25 -27 0 -346 0 -346 25 -23 c14 -13 25 -32 25 -42 0
-20 61 -82 80 -82 6 0 10 -11 10 -24 0 -32 25 -56 57 -56 16 0 42 -15 69 -40
26 -23 53 -40 67 -40 14 0 36 -9 50 -20 18 -14 40 -20 79 -20 47 0 58 -4 84
-31 16 -17 53 -49 82 -71 49 -38 52 -43 52 -84 0 -33 5 -46 19 -54 12 -6 21
-23 23 -43 2 -27 7 -32 28 -32 36 0 39 34 5 60 l-26 22 25 30 c17 21 25 41 24
65 -1 25 6 41 25 61 20 19 27 36 27 63 0 26 7 43 25 60 14 13 25 34 25 49 0
14 4 25 10 25 21 0 80 63 80 86 0 14 10 30 25 40 14 9 25 26 25 38 0 13 17 36
44 59 25 20 48 47 52 59 4 13 17 36 30 51 15 18 24 41 24 64 0 23 9 45 25 65
21 24 24 38 22 85 -2 48 1 58 21 70 19 14 22 24 22 83 0 59 -3 69 -22 82 -18
12 -22 24 -21 57 2 34 -2 44 -23 57 -22 15 -24 23 -24 85 0 62 -2 70 -25 85
-22 14 -25 23 -25 77 l0 61 -56 53 c-53 51 -73 61 -87 46z m88 -191 c6 -19 18
-38 28 -43 13 -8 17 -24 17 -74 0 -58 3 -66 25 -81 l25 -16 0 -192 c0 -192 0
-193 -25 -216 -18 -17 -25 -34 -25 -60 0 -24 -7 -43 -19 -54 -11 -10 -23 -31
-26 -47 -4 -16 -15 -34 -26 -39 -11 -6 -19 -21 -19 -35 0 -14 -11 -35 -25 -47
-14 -12 -25 -32 -25 -44 0 -13 -14 -32 -34 -48 -54 -40 -66 -56 -66 -81 0 -13
-10 -29 -25 -39 -15 -10 -25 -26 -25 -41 0 -17 -11 -32 -37 -50 -44 -30 -58
-21 -55 33 2 29 -3 43 -23 62 -32 30 -32 50 0 84 25 27 25 29 25 206 0 177 0
179 25 206 22 24 25 36 25 105 0 66 3 81 21 98 13 12 22 35 25 62 2 23 12 52
23 63 10 12 22 31 25 42 4 12 15 29 26 39 13 12 20 31 20 56 0 27 7 46 25 65
18 20 25 38 25 69 0 51 5 57 49 53 29 -3 36 -8 46 -36z m-957 -399 c19 -11 32
-29 38 -52 8 -32 13 -36 49 -41 35 -4 40 -9 43 -32 4 -31 35 -58 67 -58 11 0
49 -26 84 -57 44 -39 74 -58 100 -62 30 -5 37 -11 39 -34 2 -16 14 -34 28 -43
19 -13 24 -25 24 -58 0 -32 6 -48 25 -66 24 -23 25 -27 25 -172 l0 -148 25
-12 c30 -14 32 -24 5 -31 -13 -3 -24 1 -30 14 -8 14 -22 19 -50 19 -29 0 -42
5 -50 20 -7 13 -21 20 -39 20 -16 0 -40 9 -54 20 -14 11 -33 20 -44 20 -10 0
-31 9 -48 20 -16 11 -42 20 -57 20 -18 0 -37 11 -55 31 -16 17 -40 37 -55 45
-19 10 -28 22 -28 39 0 13 -11 36 -25 51 -21 22 -25 37 -25 84 0 47 -4 60 -25
80 -25 23 -25 24 -25 205 0 100 3 185 7 188 10 10 19 9 51 -10z"/>
<path d="M5303 5953 c-8 -3 -13 -23 -13 -47 0 -30 -6 -48 -20 -61 -17 -15 -20
-31 -20 -96 0 -67 -3 -81 -24 -106 -13 -15 -26 -38 -30 -49 -4 -12 -15 -29
-26 -39 -11 -10 -20 -26 -20 -36 0 -10 -11 -30 -25 -45 -14 -15 -25 -35 -25
-45 0 -10 -30 -43 -67 -74 -40 -33 -73 -70 -79 -88 -8 -23 -20 -33 -41 -38
-43 -9 -103 -57 -103 -83 0 -13 -19 -37 -50 -64 -33 -29 -50 -51 -50 -66 0
-14 -10 -30 -25 -40 -25 -16 -25 -18 -25 -159 0 -148 5 -167 42 -167 20 0 24
-30 8 -61 -16 -29 -50 -8 -50 31 0 17 -4 30 -9 30 -22 0 -42 33 -36 60 4 20 0
35 -20 58 -14 16 -25 39 -25 51 0 11 -11 28 -25 37 -15 9 -25 26 -25 39 0 22
-16 39 -104 110 -20 17 -40 44 -44 60 -8 28 -12 30 -70 36 -46 4 -68 12 -83
28 -11 11 -32 21 -46 21 -15 0 -35 8 -46 17 -14 14 -43 19 -120 23 -75 4 -109
10 -127 23 -13 9 -33 17 -44 17 -11 0 -27 7 -37 16 -10 9 -36 18 -58 21 -35 5
-41 9 -41 30 0 13 -11 34 -25 47 -14 13 -25 30 -25 39 0 8 -11 29 -25 45 -17
20 -25 42 -25 67 0 28 -7 43 -32 66 -45 40 -62 35 -66 -21 -2 -38 1 -50 23
-70 24 -23 25 -28 25 -144 0 -107 2 -122 20 -141 16 -17 21 -38 23 -85 2 -52
7 -66 25 -78 17 -11 22 -24 22 -58 0 -35 5 -47 25 -60 15 -9 25 -26 25 -39 0
-14 16 -36 43 -59 23 -19 52 -46 65 -58 35 -33 75 -58 95 -58 11 0 30 -9 44
-20 37 -29 152 -28 199 1 31 19 46 20 177 17 l143 -3 57 -49 c33 -29 57 -58
57 -69 0 -11 11 -30 24 -42 23 -21 23 -25 18 -142 l-5 -121 27 -17 c21 -14 26
-25 26 -60 0 -50 21 -75 45 -55 24 20 19 77 -10 104 -23 21 -25 31 -25 106 0
65 4 88 17 102 10 11 22 32 28 47 15 41 203 200 237 201 32 0 291 215 296 245
2 11 12 29 22 40 10 11 25 37 34 58 8 20 19 37 24 37 6 0 13 12 17 28 3 15 15
37 26 48 17 18 20 38 23 123 3 88 6 105 25 124 27 30 27 61 0 79 -20 13 -22
24 -25 163 -4 142 -5 151 -26 167 -20 15 -22 24 -20 79 4 70 -8 88 -45 72z
m32 -293 c4 -6 6 -102 5 -213 0 -191 -2 -203 -21 -218 -13 -9 -22 -31 -26 -60
-3 -24 -13 -53 -23 -64 -10 -11 -21 -30 -25 -43 -3 -12 -26 -41 -51 -64 -24
-23 -44 -49 -44 -59 0 -24 -154 -155 -191 -163 -16 -3 -63 -33 -104 -66 -54
-42 -85 -60 -106 -60 l-29 0 0 158 0 158 90 75 c59 48 93 83 96 100 6 26 15
35 162 160 45 39 82 79 82 88 0 10 11 28 25 41 14 13 25 31 25 40 0 10 11 29
25 44 14 15 25 35 25 45 0 10 7 24 16 31 8 8 21 28 29 47 14 33 29 42 40 23z
m-1618 -429 c20 -24 46 -42 66 -47 17 -3 48 -15 67 -25 19 -11 53 -19 75 -19
24 0 50 -8 65 -20 21 -16 41 -20 124 -20 l99 0 43 -40 c29 -26 53 -40 71 -40
31 0 93 -54 93 -81 0 -10 22 -37 50 -61 46 -40 50 -46 50 -88 0 -35 5 -48 21
-58 16 -10 18 -17 10 -25 -8 -8 -16 -5 -32 9 -20 18 -39 19 -313 19 -287 0
-292 0 -320 23 -16 12 -41 22 -57 22 -22 0 -29 5 -34 30 -4 19 -24 45 -51 67
-43 36 -44 39 -44 97 0 49 -4 64 -24 85 -20 22 -24 40 -29 109 -4 69 -3 84 11
92 24 13 21 14 59 -29z"/>
<path d="M1890 7499 c-14 -12 -52 -44 -84 -73 -32 -28 -67 -57 -77 -64 -11 -7
-19 -22 -19 -33 0 -11 -22 -40 -50 -66 l-50 -46 0 -122 c0 -117 -1 -122 -25
-145 l-25 -23 0 -208 0 -207 -26 -17 c-51 -33 -67 -57 -72 -107 -4 -44 -3 -48
17 -48 15 0 25 11 37 39 8 22 22 42 29 45 8 3 17 21 20 40 5 22 14 38 26 41
19 6 22 18 20 65 -1 16 8 35 23 50 15 13 26 34 26 46 0 25 72 84 103 84 11 0
41 18 67 40 28 23 58 40 73 40 13 0 36 9 50 20 14 11 36 20 49 20 32 1 282
215 286 246 2 12 23 39 48 60 24 21 44 42 44 46 0 14 -37 9 -50 -7 -7 -8 -24
-15 -37 -15 -15 0 -52 -23 -97 -60 -40 -33 -82 -60 -93 -60 -11 0 -32 -9 -46
-20 -14 -11 -40 -23 -59 -27 -18 -3 -54 -23 -79 -45 -60 -49 -91 -50 -135 -2
-43 45 -46 89 -9 124 18 17 25 34 25 62 0 29 7 45 25 62 21 20 25 32 25 84 0
60 0 61 51 105 39 34 50 50 47 68 -4 31 -27 34 -58 8z"/>
<path d="M7249 7474 c-11 -13 -10 -18 8 -32 11 -10 23 -29 27 -44 3 -15 15
-32 26 -38 11 -6 20 -21 20 -34 0 -12 11 -33 25 -46 21 -20 25 -33 25 -82 0
-50 4 -61 25 -80 21 -18 25 -31 25 -75 0 -46 3 -53 20 -53 11 0 20 -7 20 -15
0 -8 -9 -15 -20 -15 -11 0 -20 7 -20 15 0 8 -9 15 -20 15 -24 0 -27 -28 -3
-37 24 -9 72 -65 73 -84 0 -9 -6 -22 -14 -28 -15 -12 -36 1 -113 71 -24 22
-53 38 -66 38 -14 0 -47 18 -75 40 -27 22 -61 40 -74 40 -14 0 -33 9 -43 20
-10 11 -34 22 -54 26 -20 3 -52 21 -71 38 -72 66 -138 116 -154 116 -22 0 -20
-17 4 -32 11 -7 20 -21 20 -31 0 -22 37 -60 155 -157 50 -41 92 -77 95 -80 25
-27 76 -60 94 -60 13 0 46 -18 74 -40 27 -22 61 -40 74 -40 14 0 33 -8 42 -19
9 -10 35 -21 57 -25 34 -5 40 -10 46 -37 4 -23 25 -47 74 -87 64 -53 69 -59
69 -96 0 -34 6 -46 36 -73 47 -41 75 -34 38 9 -19 23 -23 38 -19 58 5 22 0 34
-24 59 l-31 32 0 203 0 202 -25 22 c-19 17 -25 31 -23 60 1 29 -5 44 -26 65
-22 22 -26 33 -21 57 5 24 1 34 -19 53 -14 14 -26 31 -26 38 0 25 -27 55 -106
118 -78 63 -102 72 -125 45z"/>
<path d="M1370 7005 c-5 -14 -10 -30 -10 -35 0 -5 -9 -14 -20 -20 -11 -6 -20
-19 -20 -30 0 -10 -11 -32 -25 -48 -14 -17 -25 -38 -25 -47 0 -10 -11 -28 -25
-41 -23 -22 -25 -29 -25 -122 0 -92 -2 -100 -25 -122 -30 -29 -31 -47 -4 -76
20 -21 20 -23 3 -49 -16 -25 -16 -27 5 -41 18 -13 21 -25 21 -78 0 -54 3 -65
25 -84 14 -12 25 -30 25 -40 0 -10 11 -29 25 -42 19 -17 25 -34 25 -63 0 -28
6 -46 23 -61 22 -21 23 -24 22 -271 l0 -250 -22 -3 c-25 -4 -26 -3 -23 104 1
53 -2 65 -24 89 -20 21 -26 39 -26 71 0 33 -5 46 -20 54 -11 6 -23 23 -26 38
-4 15 -18 37 -31 49 -12 12 -23 31 -23 41 0 10 -9 27 -20 37 -11 10 -20 26
-20 36 0 10 -11 30 -25 45 -20 22 -25 37 -25 80 0 29 -3 59 -6 68 -7 19 -30
21 -40 4 -4 -7 -6 -102 -5 -212 2 -198 3 -201 27 -227 21 -22 24 -34 24 -105
0 -73 2 -83 25 -104 14 -13 25 -31 25 -40 0 -9 9 -25 20 -35 11 -10 20 -27 20
-37 0 -10 11 -29 23 -41 13 -12 27 -34 30 -49 4 -15 27 -43 52 -64 28 -22 45
-45 45 -58 0 -20 110 -126 131 -126 5 0 9 -22 9 -50 0 -42 4 -52 25 -66 19
-12 25 -25 25 -53 0 -24 9 -49 25 -71 14 -19 25 -39 25 -45 0 -17 21 -34 36
-28 22 8 18 86 -5 107 -10 9 -21 30 -24 46 -4 16 -15 31 -26 35 -16 5 -21 16
-23 58 -2 43 -7 54 -25 62 -29 12 -29 23 -1 52 15 17 21 34 20 58 -2 27 4 41
23 59 19 17 25 33 25 63 0 29 6 46 25 63 14 13 25 31 25 40 0 10 11 29 25 44
14 15 25 35 25 45 0 9 11 27 25 39 14 12 25 30 25 40 0 10 12 29 26 43 24 22
26 29 21 78 -5 48 -3 55 21 78 26 24 27 28 24 117 -3 89 -3 92 27 130 36 45
38 61 13 75 -24 13 -78 -32 -88 -72 -3 -16 -15 -34 -25 -40 -11 -7 -19 -22
-19 -34 0 -20 -49 -75 -86 -96 -8 -4 -14 -19 -14 -32 0 -16 -16 -37 -50 -66
-32 -27 -50 -50 -50 -64 0 -12 -9 -30 -20 -40 -15 -14 -20 -31 -20 -71 0 -29
-3 -59 -6 -68 -7 -18 -30 -21 -39 -6 -4 6 -6 93 -5 193 1 163 3 184 20 202 10
11 22 31 25 45 4 15 46 58 101 103 65 54 94 86 94 100 0 15 24 41 69 79 43 35
71 67 75 84 4 16 16 34 27 42 10 7 19 22 19 33 0 11 22 40 50 66 45 42 50 50
50 89 0 33 5 46 20 54 11 6 20 17 20 25 0 20 -29 19 -36 0 -4 -8 -24 -18 -46
-21 -22 -4 -45 -12 -51 -18 -7 -6 -52 -45 -102 -86 -49 -41 -107 -90 -128
-109 -21 -19 -47 -42 -59 -50 -11 -9 -32 -26 -45 -38 -28 -27 -39 -29 -51 -7
-5 9 -18 14 -28 12 -15 -2 -20 -14 -24 -53 -4 -39 -9 -51 -24 -53 -30 -6 -37
18 -30 98 5 58 12 81 30 103 32 38 32 86 -1 117 -25 23 -25 26 -25 185 0 160
0 162 25 185 22 20 25 32 23 70 -4 54 -31 69 -48 25z"/>
<path d="M7772 6978 c-19 -19 -14 -37 15 -64 l27 -25 4 -222 4 -222 -26 -24
c-14 -14 -26 -33 -26 -42 0 -10 -9 -27 -21 -37 -11 -11 -24 -32 -28 -48 -10
-40 -40 -38 -55 3 -7 19 -43 58 -96 103 -47 40 -113 96 -148 126 -36 30 -73
54 -86 54 -23 0 -106 55 -106 71 0 5 -9 9 -20 9 -11 0 -20 -7 -20 -15 0 -8 9
-19 20 -25 15 -8 20 -21 20 -51 0 -35 6 -45 50 -86 28 -25 50 -54 50 -65 0
-10 11 -28 25 -40 14 -12 25 -31 25 -42 0 -13 20 -38 50 -64 33 -29 50 -51 50
-66 0 -27 63 -76 97 -76 17 0 65 -31 93 -60 3 -3 35 -31 72 -63 63 -54 67 -60
70 -105 3 -43 5 -47 28 -47 25 0 25 1 25 89 0 81 2 90 23 103 12 9 22 24 22
35 0 10 11 30 25 44 18 18 25 36 25 65 0 29 6 45 25 61 25 21 25 23 25 189 l0
167 -25 16 c-20 13 -25 25 -25 59 0 34 -6 48 -25 65 -14 12 -25 32 -25 45 0
12 -9 28 -20 35 -15 9 -20 23 -20 53 0 33 -6 47 -34 75 -37 37 -46 40 -64 22z"/>
<path d="M8162 6198 c-7 -7 -12 -21 -12 -33 0 -11 -9 -26 -20 -33 -17 -10 -20
-23 -20 -75 0 -55 -3 -67 -25 -87 -14 -13 -25 -32 -25 -42 0 -11 -11 -29 -25
-42 -14 -13 -25 -32 -25 -43 0 -11 -11 -30 -25 -43 -19 -17 -25 -34 -25 -63 0
-30 -6 -46 -25 -63 -14 -13 -25 -31 -25 -42 0 -10 -14 -31 -30 -47 -25 -24
-34 -27 -48 -18 -13 8 -16 22 -14 66 3 50 1 59 -22 80 -14 14 -26 31 -26 40 0
8 -11 29 -25 45 -14 17 -25 39 -25 50 0 24 -65 76 -85 68 -13 -4 -15 -46 -15
-255 l0 -250 25 -19 c19 -15 25 -29 25 -59 0 -29 7 -46 25 -63 21 -20 25 -32
25 -85 0 -55 3 -64 29 -89 36 -34 65 -31 69 7 3 21 25 45 93 100 59 48 91 81
95 99 3 15 17 37 30 49 13 12 24 30 24 39 0 10 11 29 25 44 17 19 25 38 25 65
0 27 7 44 26 62 l25 24 -2 177 c-2 167 -1 180 18 201 17 18 21 41 26 123 4 70
2 105 -6 113 -14 14 -20 14 -35 -1z"/>
<path d="M1812 5418 c-7 -7 -12 -18 -12 -26 0 -8 -11 -27 -25 -43 -18 -22 -23
-37 -19 -59 5 -22 0 -34 -20 -55 -24 -24 -26 -33 -26 -106 0 -72 -2 -82 -25
-103 -24 -22 -25 -28 -25 -145 0 -122 0 -123 -29 -152 -16 -16 -36 -29 -45
-29 -21 0 -76 55 -76 76 0 9 -11 29 -25 46 -14 16 -25 36 -25 43 0 8 -53 59
-117 115 -82 70 -120 109 -123 127 -4 20 -13 29 -40 36 -46 12 -100 53 -100
77 0 10 -11 31 -24 47 -13 15 -25 37 -27 48 -3 12 -14 21 -27 23 -20 3 -22 -1
-22 -46 0 -39 5 -52 25 -70 19 -16 25 -32 25 -60 0 -28 7 -45 25 -62 19 -17
25 -34 25 -63 0 -30 6 -46 25 -63 14 -13 25 -32 25 -42 0 -10 9 -27 20 -37 11
-10 20 -24 20 -30 0 -7 10 -25 23 -41 12 -15 27 -40 32 -55 6 -16 69 -77 151
-146 77 -65 165 -139 195 -164 30 -25 69 -49 87 -52 21 -4 71 -40 148 -107 93
-81 119 -98 130 -89 23 19 16 47 -18 76 -75 65 -68 29 -68 383 0 307 1 321 20
340 26 26 25 46 -1 61 -21 11 -21 16 -18 172 4 179 -3 211 -39 175z"/>
<path d="M8207 5293 c-4 -3 -7 -16 -7 -27 0 -15 -43 -58 -140 -141 -90 -77
-143 -129 -148 -146 -4 -15 -35 -50 -70 -79 -43 -36 -65 -62 -69 -82 -3 -16
-13 -32 -22 -36 -9 -3 -22 -14 -29 -24 -16 -22 -38 -23 -46 -2 -9 22 -8 22 17
26 24 3 33 33 18 57 -15 23 -41 5 -41 -28 0 -20 -8 -34 -25 -45 -31 -20 -31
-33 -4 -62 26 -28 19 -54 -15 -54 -52 0 -57 18 -55 193 1 156 0 161 -22 178
-17 13 -23 28 -24 63 -2 34 -8 50 -26 64 -18 15 -23 28 -21 55 3 48 -18 67
-77 67 -26 0 -52 -5 -59 -12 -7 -7 -12 -44 -12 -95 0 -72 2 -84 20 -93 24 -13
25 -28 3 -52 -15 -17 -15 -20 5 -41 21 -22 22 -33 22 -183 0 -158 0 -161 25
-184 21 -20 25 -33 25 -82 0 -50 -4 -61 -25 -80 -22 -19 -25 -29 -25 -91 0
-61 -2 -69 -21 -74 -12 -4 -22 -17 -26 -35 -3 -17 -24 -45 -51 -69 -58 -51
-45 -73 16 -28 23 17 42 35 42 39 0 5 9 11 20 15 12 4 22 19 26 41 5 29 10 34
35 34 19 0 47 16 90 53 71 61 97 77 123 77 15 0 109 69 136 100 3 3 46 39 95
80 135 112 145 122 145 142 0 10 11 29 25 42 14 13 25 31 25 41 0 9 11 30 25
47 14 16 25 38 25 48 0 11 9 24 19 30 11 5 22 23 26 40 4 17 15 35 26 40 14 8
19 22 19 55 0 33 6 50 24 67 24 23 42 111 29 143 -5 15 -34 20 -46 8z"/>
<path d="M2049 4798 c0 -7 0 -141 1 -298 l1 -285 25 -18 c41 -31 26 -77 -26
-77 -14 0 -35 7 -46 15 -32 24 -54 19 -54 -14 0 -22 10 -36 45 -62 24 -19 45
-40 45 -46 0 -24 -29 -13 -72 27 -31 28 -52 40 -74 40 -18 0 -38 8 -49 20 -10
11 -29 20 -43 20 -14 0 -45 17 -72 40 -28 23 -58 40 -73 40 -16 0 -42 15 -69
40 -27 25 -53 40 -70 40 -28 0 -43 11 -182 132 -48 43 -92 78 -97 78 -5 0 -9
7 -9 15 0 8 -5 26 -12 40 -10 22 -17 26 -47 23 -52 -4 -50 -28 4 -62 42 -27
45 -32 45 -73 0 -34 6 -49 25 -67 14 -13 25 -32 25 -43 0 -11 11 -29 25 -41
14 -12 25 -31 25 -41 0 -12 27 -43 69 -78 38 -32 70 -66 70 -75 2 -33 59 -86
101 -93 33 -6 41 -12 46 -33 9 -38 23 -52 51 -52 14 0 36 -9 50 -20 14 -11 37
-20 50 -20 15 0 45 -17 73 -40 41 -34 55 -40 95 -40 32 0 55 -6 72 -20 18 -14
41 -20 73 -20 32 0 55 -6 73 -20 22 -17 40 -20 146 -20 110 0 122 -2 145 -22
66 -59 80 -68 105 -68 15 0 36 -9 46 -20 11 -12 31 -20 50 -20 20 0 35 -6 39
-15 3 -8 15 -15 26 -15 11 0 20 7 20 15 0 8 -4 15 -9 15 -6 0 -22 11 -37 25
-17 16 -39 25 -58 25 -20 0 -36 7 -44 20 -7 12 -23 20 -41 20 -15 0 -38 9 -51
20 -13 11 -27 20 -32 20 -4 0 -8 11 -8 25 0 15 -11 36 -25 49 -14 13 -25 31
-25 40 0 9 -11 28 -25 42 -24 24 -25 29 -25 168 0 139 -1 143 -25 166 -23 21
-25 31 -25 106 0 76 -2 83 -25 98 -20 13 -25 25 -25 59 0 33 -6 49 -25 67 -19
18 -25 34 -25 66 0 32 -5 46 -19 53 -10 6 -22 23 -26 38 -3 16 -15 37 -25 48
-10 11 -20 31 -22 45 -3 27 -47 43 -49 18z"/>
<path d="M7137 4793 c-3 -10 -5 -33 -5 -52 -1 -22 -8 -38 -21 -48 -12 -8 -21
-24 -21 -37 0 -12 -11 -33 -25 -46 -14 -13 -25 -32 -25 -42 0 -10 -11 -28 -25
-40 -19 -17 -25 -31 -25 -63 0 -32 -6 -47 -26 -66 -24 -23 -25 -28 -23 -121 2
-93 1 -99 -23 -121 -25 -23 -25 -24 -20 -159 5 -135 4 -137 -20 -160 -14 -13
-28 -35 -31 -50 -4 -15 -24 -39 -47 -55 -41 -29 -51 -57 -25 -67 29 -11 149 7
174 26 18 13 41 18 93 18 55 0 75 4 95 20 20 16 41 20 98 20 57 0 78 4 98 20
14 11 35 20 47 20 12 0 33 9 47 20 14 11 36 20 48 20 13 0 46 18 74 40 28 22
61 40 74 40 28 0 42 14 51 52 5 21 13 27 46 33 35 6 42 11 47 37 4 21 26 46
74 86 38 31 69 65 69 74 0 9 11 29 25 44 14 15 25 34 25 44 0 9 11 27 25 40
14 13 25 32 25 42 0 10 11 28 25 40 14 12 25 28 25 35 0 8 10 27 21 42 25 34
18 51 -20 51 -32 0 -46 -13 -56 -50 -4 -14 -26 -41 -49 -60 -24 -19 -71 -59
-105 -87 -44 -38 -71 -53 -91 -53 -24 0 -31 -5 -36 -27 -9 -39 -23 -53 -51
-53 -14 0 -36 -9 -50 -20 -14 -11 -36 -20 -48 -20 -12 0 -34 -9 -48 -20 -14
-11 -35 -20 -47 -20 -12 0 -43 -17 -69 -39 -25 -21 -62 -42 -81 -46 -19 -4
-51 -21 -70 -39 -19 -18 -60 -53 -91 -79 l-56 -46 -38 33 c-28 25 -33 35 -22
39 9 3 21 -1 27 -9 21 -24 48 -17 55 15 4 17 25 45 51 67 24 21 44 42 44 46 0
14 -32 8 -45 -8 -9 -14 -16 -14 -33 -5 -19 10 -21 17 -16 52 4 23 17 52 31 65
l23 23 -2 308 c-3 307 -3 308 -25 311 -14 2 -23 -3 -26 -15z"/>
<path d="M2494 4186 c-3 -8 4 -24 15 -35 13 -13 21 -34 21 -56 0 -25 7 -41 25
-57 19 -17 25 -31 25 -63 0 -31 6 -47 25 -65 19 -17 25 -34 25 -63 0 -30 6
-46 25 -63 14 -13 25 -31 25 -41 0 -11 20 -35 44 -55 24 -20 47 -49 50 -65 4
-15 16 -33 27 -41 10 -7 19 -20 19 -28 0 -8 9 -14 20 -14 29 0 43 -40 22 -62
-23 -27 -150 -25 -185 2 -23 19 -40 20 -245 20 -206 0 -220 1 -237 20 -15 16
-31 20 -90 20 -57 0 -78 4 -98 20 -14 11 -36 20 -49 20 -14 0 -50 20 -82 45
-32 25 -68 45 -80 45 -11 0 -52 27 -90 59 -38 33 -75 57 -82 54 -20 -7 -6 -29
37 -59 21 -14 39 -35 39 -45 0 -33 58 -87 102 -96 35 -7 42 -13 52 -43 9 -29
16 -36 42 -38 21 -2 54 -22 100 -62 45 -39 78 -59 95 -60 15 0 38 -9 52 -20
14 -11 36 -20 50 -20 13 0 32 -8 41 -19 12 -13 35 -20 74 -23 39 -3 67 -11 88
-26 30 -23 35 -23 265 -20 226 3 236 4 263 26 20 15 42 22 73 22 30 0 53 7 70
20 37 29 172 29 228 -1 22 -11 65 -23 95 -26 35 -4 62 -13 73 -25 25 -25 72
-21 72 7 0 16 -8 21 -36 23 -21 2 -45 12 -54 23 -10 10 -28 19 -39 19 -12 0
-34 9 -51 20 -16 11 -39 20 -49 20 -19 0 -62 29 -125 85 -63 55 -71 65 -71 84
0 11 -8 26 -19 33 -10 7 -22 24 -26 38 -4 14 -15 34 -25 45 -10 11 -21 31 -25
45 -4 14 -26 41 -51 60 -28 22 -44 43 -44 57 0 15 -23 42 -72 84 -40 34 -94
80 -120 102 -27 24 -48 51 -52 68 -4 21 -13 30 -33 34 -41 9 -58 20 -62 41 -2
10 -8 25 -13 32 -14 17 -67 15 -74 -2z"/>
<path d="M6668 4153 c-30 -26 -79 -69 -109 -94 -176 -149 -196 -169 -202 -196
-4 -17 -22 -39 -46 -57 -22 -16 -42 -40 -46 -55 -4 -14 -15 -35 -24 -46 -10
-11 -21 -31 -25 -45 -3 -14 -26 -40 -51 -59 -30 -22 -45 -41 -45 -56 0 -14
-17 -37 -49 -63 -33 -28 -51 -51 -53 -70 -3 -25 -6 -27 -63 -32 -34 -3 -71
-13 -85 -22 -13 -10 -34 -18 -46 -18 -11 0 -29 -9 -39 -20 -17 -18 -31 -20
-164 -20 -154 0 -184 -7 -162 -34 11 -13 38 -16 157 -16 131 0 144 2 157 20
12 17 30 21 148 26 108 6 139 11 158 26 30 23 52 23 84 -2 17 -13 40 -20 71
-20 33 0 56 -7 77 -22 30 -22 38 -23 312 -26 277 -3 281 -3 311 19 20 15 49
24 86 27 47 4 61 10 97 43 27 25 52 39 69 39 17 0 51 21 98 60 42 34 82 60 95
60 33 0 139 89 147 122 4 15 26 44 50 65 24 20 44 41 44 45 0 19 -38 6 -70
-24 -49 -46 -96 -77 -128 -84 -15 -4 -38 -15 -51 -26 -13 -10 -33 -18 -45 -18
-11 0 -32 -9 -46 -20 -17 -13 -41 -20 -76 -20 -38 0 -55 -5 -69 -20 -17 -19
-31 -20 -237 -20 -205 0 -222 -1 -245 -20 -19 -15 -41 -20 -82 -20 -45 0 -59
-4 -69 -20 -16 -26 -66 -27 -84 -1 -9 12 -28 21 -53 23 -28 2 -41 8 -43 20 -3
13 6 17 40 20 40 3 43 5 46 33 2 23 15 40 47 65 25 19 48 46 51 60 4 14 18 38
31 53 12 16 23 37 23 47 0 11 9 24 19 30 11 5 22 23 26 40 4 17 15 35 26 40
16 9 19 22 19 79 0 62 2 70 25 85 15 10 25 26 25 41 0 15 10 31 25 41 28 18
33 55 11 73 -12 10 -25 3 -68 -36z"/>
<path d="M3651 3236 c-7 -8 -29 -17 -51 -21 -21 -4 -46 -15 -56 -26 -12 -14
-30 -19 -66 -19 -35 0 -58 -6 -75 -20 -18 -14 -41 -20 -78 -20 -39 0 -56 -5
-70 -20 -13 -15 -31 -20 -67 -20 -35 0 -58 -6 -75 -20 -24 -19 -41 -20 -343
-20 l-317 0 -41 40 c-35 35 -44 39 -62 30 -11 -6 -20 -17 -20 -25 0 -21 29
-45 54 -45 13 0 35 -9 49 -20 17 -13 40 -20 70 -20 28 0 53 -7 68 -19 15 -11
47 -20 81 -23 34 -3 65 -11 76 -21 15 -13 39 -17 113 -17 86 0 98 -2 129 -25
34 -25 36 -25 240 -25 204 0 206 0 240 25 29 21 45 25 104 25 55 0 77 5 96 20
14 11 35 20 48 20 12 0 45 18 73 40 42 33 58 40 96 40 38 0 53 6 92 38 25 22
61 42 80 46 19 3 42 13 51 21 14 13 44 15 165 13 101 -2 150 -7 152 -15 2 -6
-11 -14 -29 -18 -18 -4 -35 -10 -38 -14 -16 -21 -97 -71 -115 -71 -12 0 -30
-9 -40 -20 -10 -11 -31 -20 -47 -20 -20 0 -45 -13 -77 -40 -26 -22 -58 -40
-72 -40 -13 -1 -37 -12 -54 -26 -107 -92 -179 -144 -196 -144 -29 0 -89 -48
-82 -66 3 -10 21 -14 58 -14 52 0 55 2 157 87 56 48 130 111 162 140 42 38 68
53 88 53 18 0 36 9 50 25 14 16 32 25 51 25 19 0 45 13 77 40 41 34 55 40 95
40 32 0 55 6 72 20 23 18 41 20 153 20 114 0 129 -2 145 -20 10 -11 28 -20 40
-20 12 0 34 -9 48 -20 28 -22 82 -27 93 -8 10 16 -39 55 -87 68 -23 7 -39 16
-36 23 2 8 49 13 156 15 140 2 154 1 178 -18 14 -11 36 -20 48 -20 12 0 30 -9
40 -20 11 -12 31 -20 50 -20 19 0 39 -8 50 -20 10 -11 29 -20 43 -20 15 0 45
-16 73 -40 27 -23 58 -40 72 -40 13 0 36 -9 50 -20 16 -13 40 -20 68 -20 30 0
54 -8 80 -25 l36 -26 284 3 c278 3 285 4 313 26 25 19 40 22 120 22 72 0 100
4 131 20 22 11 57 20 78 20 24 0 49 8 64 20 14 11 35 20 45 20 11 0 31 9 45
20 14 11 34 20 45 20 52 0 78 48 38 70 -18 9 -27 5 -62 -30 -41 -39 -42 -40
-116 -40 -59 0 -79 -4 -99 -20 -23 -18 -41 -20 -170 -20 -130 0 -148 2 -170
20 -22 17 -41 20 -120 20 -80 0 -99 3 -120 20 -18 14 -41 20 -78 20 -38 0 -56
5 -69 19 -9 10 -32 21 -52 24 -19 3 -41 13 -50 21 -11 12 -36 16 -88 16 -58 0
-79 4 -99 20 -21 17 -40 20 -120 20 -79 0 -98 3 -120 20 -24 19 -40 20 -273
20 -222 0 -249 -2 -267 -17 -17 -16 -43 -18 -236 -18 -190 0 -220 2 -244 18
-24 15 -60 17 -370 17 -286 0 -347 -2 -356 -14z"/>
<path d="M5014 3038 c-11 -17 49 -66 91 -74 20 -3 48 -18 63 -33 15 -14 87
-77 161 -138 l133 -113 53 0 c30 0 57 5 61 12 10 16 -51 68 -81 68 -22 0 -62
29 -223 165 -33 28 -63 45 -79 45 -16 0 -42 15 -69 40 -44 41 -94 54 -110 28z"/>
<path d="M2084 2402 c-18 -15 -35 -39 -38 -54 -3 -15 -15 -32 -26 -38 -19 -10
-20 -22 -20 -430 0 -403 1 -420 19 -430 11 -5 22 -23 26 -39 10 -48 71 -91
129 -91 31 0 83 30 109 65 4 5 7 138 6 294 -2 229 1 285 12 291 17 11 39 -6
39 -30 0 -10 31 -45 69 -79 42 -37 71 -71 75 -88 4 -18 26 -44 61 -71 103 -83
135 -114 135 -136 0 -14 21 -38 61 -71 34 -27 67 -54 73 -60 6 -5 39 -34 74
-64 74 -64 88 -63 168 7 l54 47 0 457 c0 421 -1 458 -17 467 -10 5 -22 24 -29
43 l-11 33 -83 3 c-82 3 -84 2 -117 -30 l-34 -32 1 -265 c1 -157 -3 -268 -8
-273 -12 -12 -26 -5 -86 48 -26 24 -46 50 -46 62 0 12 -20 37 -50 62 -34 28
-50 49 -50 65 0 13 -6 28 -14 32 -7 4 -42 33 -76 63 -35 30 -70 60 -78 66 -9
7 -21 25 -27 41 -5 17 -44 60 -86 97 -74 64 -78 66 -130 66 -44 0 -60 -6 -85
-28z"/>
<path d="M3342 2402 c-18 -15 -32 -35 -32 -45 0 -10 -11 -29 -25 -43 l-25 -25
0 -414 c0 -402 1 -415 20 -425 11 -6 23 -25 28 -43 l8 -32 325 -3 c368 -3 349
-7 349 80 0 44 -4 53 -37 83 l-38 35 -171 0 c-119 0 -174 4 -182 12 -7 7 -12
44 -12 95 0 71 3 84 19 93 11 6 90 10 183 10 166 0 188 4 188 39 0 8 10 25 22
38 l21 23 -21 23 c-12 13 -22 30 -22 38 0 21 -20 39 -45 39 -11 0 -33 9 -50
20 -26 17 -47 20 -151 20 -80 0 -124 4 -132 12 -7 7 -12 39 -12 75 0 51 3 64
19 73 11 6 90 10 185 10 l166 0 35 34 c32 31 35 40 35 89 0 52 -2 58 -37 86
l-38 31 -270 0 -270 -1 -33 -27z"/>
<path d="M4162 2397 c-18 -18 -32 -40 -32 -48 0 -9 -11 -26 -25 -39 l-25 -23
0 -407 0 -407 24 -22 c13 -12 26 -36 30 -52 l6 -29 326 0 c311 0 327 1 351 20
14 11 36 20 48 20 12 0 38 14 56 30 19 17 53 45 77 63 25 18 45 43 48 59 4 15
17 37 30 49 13 12 24 31 24 41 0 10 11 28 25 40 25 22 25 22 25 206 0 184 0
185 -25 208 -14 13 -25 32 -25 42 0 11 -20 36 -45 56 -27 23 -48 49 -53 69 -7
27 -13 33 -42 35 -23 3 -49 17 -77 43 -37 34 -48 39 -91 39 -34 0 -57 6 -75
20 -24 19 -40 20 -274 20 l-249 0 -32 -33z m501 -227 c14 -11 34 -20 44 -20
32 0 103 -59 103 -85 0 -13 11 -32 25 -43 24 -19 25 -25 25 -125 0 -101 -1
-105 -25 -121 -20 -13 -25 -25 -25 -60 0 -40 -4 -47 -42 -75 -23 -17 -50 -31
-61 -31 -10 0 -30 -9 -44 -20 -22 -17 -41 -20 -144 -20 -94 0 -121 3 -133 16
-14 13 -16 54 -16 294 0 240 2 281 16 294 12 13 39 16 133 16 103 0 122 -3
144 -20z"/>
<path d="M5640 2411 c-5 -11 -10 -27 -10 -35 0 -8 -9 -20 -20 -26 -11 -6 -20
-19 -20 -30 0 -10 -11 -32 -25 -48 -17 -20 -25 -42 -25 -66 0 -26 -7 -42 -25
-58 -19 -17 -25 -31 -25 -65 0 -34 -5 -46 -25 -59 -14 -9 -25 -26 -25 -38 0
-13 -11 -33 -25 -46 -19 -17 -25 -34 -25 -63 0 -30 -6 -46 -25 -63 -18 -17
-25 -33 -25 -62 0 -28 -7 -45 -26 -63 -21 -19 -24 -30 -19 -56 5 -27 1 -37
-19 -56 -22 -21 -25 -32 -27 -107 -2 -82 -1 -84 29 -112 37 -33 70 -42 115
-34 38 7 97 59 97 86 0 10 10 26 22 34 17 12 24 29 28 68 l5 53 235 0 235 0 5
-53 c4 -39 11 -56 28 -68 12 -8 22 -26 22 -39 0 -32 73 -85 117 -85 39 0 80
19 107 49 16 17 19 36 18 103 0 73 -3 84 -23 99 -18 13 -23 26 -22 56 1 28 -5
45 -24 65 -19 20 -26 37 -25 63 1 26 -5 41 -23 57 -14 12 -25 31 -25 43 0 12
-11 32 -25 45 -19 18 -25 34 -25 66 0 33 -5 45 -25 58 -20 13 -25 25 -25 59 0
34 -6 48 -25 65 -19 16 -25 32 -25 60 0 28 -7 47 -25 66 -14 15 -25 35 -25 45
0 10 -26 39 -57 64 l-58 47 -102 0 c-91 0 -103 -2 -113 -19z m188 -362 c2 -34
10 -53 27 -69 21 -20 25 -33 25 -83 0 -48 4 -62 22 -76 40 -33 15 -41 -121
-41 -100 0 -131 3 -141 15 -15 18 -4 52 21 65 14 8 19 21 19 54 0 32 6 48 25
66 14 13 25 32 25 42 0 24 59 80 80 76 10 -2 16 -18 18 -49z"/>
<path d="M6720 2390 c-25 -22 -55 -40 -68 -40 -32 0 -142 -90 -142 -116 0 -11
-11 -31 -25 -44 -14 -13 -25 -32 -25 -42 0 -10 -11 -28 -25 -40 l-25 -22 0
-206 0 -206 25 -22 c14 -12 25 -31 25 -41 0 -11 11 -31 25 -45 14 -14 25 -33
25 -43 0 -25 111 -113 142 -113 14 0 33 -8 42 -19 9 -10 32 -21 51 -24 19 -3
47 -15 63 -27 27 -20 38 -21 193 -18 153 3 167 5 193 26 16 12 38 22 49 22 11
0 28 7 37 15 9 8 34 18 56 23 l39 8 3 83 c2 53 -1 88 -9 97 -8 10 -37 14 -109
14 -82 0 -101 -3 -123 -20 -21 -17 -40 -20 -120 -20 -79 0 -98 3 -120 20 -14
11 -36 20 -49 20 -31 0 -98 56 -98 82 0 11 -11 31 -25 44 -24 22 -25 28 -25
144 0 116 1 121 25 142 14 12 25 32 25 44 0 13 14 32 34 48 19 14 40 32 48 39
24 25 56 37 95 37 21 0 49 7 62 17 22 15 26 15 55 0 17 -8 53 -17 79 -20 26
-3 56 -12 66 -21 12 -11 36 -16 72 -16 46 0 59 4 87 31 29 27 32 35 32 89 0
54 -3 62 -32 89 -20 18 -44 31 -59 31 -15 0 -38 9 -52 20 -23 19 -40 20 -249
20 l-223 -1 -45 -39z"/>
</g>
</svg>
