<svg xmlns="http://www.w3.org/2000/svg" width="176" height="176" viewBox="0 0 176 176" version="1.1"><path d="M 81.333 23.667 C 81.700 24.033, 82.300 24.033, 82.667 23.667 C 83.033 23.300, 82.733 23, 82 23 C 81.267 23, 80.967 23.300, 81.333 23.667 M 105.333 23.667 C 105.700 24.033, 106.300 24.033, 106.667 23.667 C 107.033 23.300, 106.733 23, 106 23 C 105.267 23, 104.967 23.300, 105.333 23.667 M 82.333 27.667 C 82.700 28.033, 83.300 28.033, 83.667 27.667 C 84.033 27.300, 83.733 27, 83 27 C 82.267 27, 81.967 27.300, 82.333 27.667 M 104.333 27.667 C 104.700 28.033, 105.300 28.033, 105.667 27.667 C 106.033 27.300, 105.733 27, 105 27 C 104.267 27, 103.967 27.300, 104.333 27.667 M 29.405 44.155 C 28.962 44.870, 29.130 45.038, 29.845 44.595 C 30.480 44.203, 31 43.684, 31 43.441 C 31 42.607, 30.117 43.002, 29.405 44.155 M 46.334 50.250 C 45.902 50.938, 45.375 56.112, 45.161 61.750 L 44.773 72 39.323 72 L 33.873 72 34.187 75.250 C 34.492 78.419, 34.630 78.508, 39.750 78.802 L 45 79.105 45 86.987 C 45 91.323, 45.439 96.024, 45.975 97.435 L 46.950 100 66.436 100 L 85.922 100 86.211 108.707 C 86.556 119.116, 85.978 118.750, 102.316 118.900 C 113.683 119.005, 117 118.140, 117 115.072 C 117 112.403, 115.150 112, 102.892 112 L 91.948 112 92.224 96.750 L 92.500 81.500 107.153 81.224 C 119.498 80.991, 121.903 80.695, 122.420 79.347 C 123.870 75.570, 121.453 75, 103.985 75 C 89.614 75, 87.127 75.226, 86.607 76.582 C 86.273 77.452, 86 81.727, 86 86.082 L 86 94 69 94 L 52 94 52 74.500 L 52 55 71.429 55 C 87.935 55, 91.099 54.758, 92.463 53.394 C 93.703 52.154, 93.805 51.470, 92.912 50.394 C 91.312 48.466, 47.538 48.330, 46.334 50.250 M 157 49.378 C 157 49.585, 157.787 50.373, 158.750 51.128 C 160.336 52.371, 160.371 52.336, 159.128 50.750 C 157.821 49.084, 157 48.555, 157 49.378 M 171 83 C 171 83.733, 171.300 84.033, 171.667 83.667 C 172.033 83.300, 172.033 82.700, 171.667 82.333 C 171.300 81.967, 171 82.267, 171 83 M 140 84 C 140 84.733, 140.300 85.033, 140.667 84.667 C 141.033 84.300, 141.033 83.700, 140.667 83.333 C 140.300 82.967, 140 83.267, 140 84 M 139.500 102 C 139.840 102.550, 140.343 103, 140.618 103 C 140.893 103, 140.840 102.550, 140.500 102 C 140.160 101.450, 139.657 101, 139.382 101 C 139.107 101, 139.160 101.450, 139.500 102 M 164.405 108.155 C 163.962 108.870, 164.130 109.038, 164.845 108.595 C 165.998 107.883, 166.393 107, 165.559 107 C 165.316 107, 164.797 107.520, 164.405 108.155 M 115.333 130.667 C 115.700 131.033, 116.300 131.033, 116.667 130.667 C 117.033 130.300, 116.733 130, 116 130 C 115.267 130, 114.967 130.300, 115.333 130.667 M 98.333 132.667 C 98.700 133.033, 99.300 133.033, 99.667 132.667 C 100.033 132.300, 99.733 132, 99 132 C 98.267 132, 97.967 132.300, 98.333 132.667" stroke="none" fill="#840002" fill-rule="evenodd"/><path d="M 74.908 24.464 C 39.959 30.193, 14.162 51.601, 12.284 76.432 C 11.281 89.689, 15.505 100.315, 26.293 111.671 L 33.302 119.050 32.171 122.823 C 29.967 130.181, 22.477 139.184, 11 148.271 C 8.350 150.370, 10.171 149.739, 18.500 145.672 C 24.550 142.718, 34.952 137.976, 41.615 135.134 L 53.730 129.966 62.965 132.438 C 82.061 137.548, 99.529 138.042, 118.190 133.998 C 148.866 127.351, 171.188 108.627, 175.117 86.250 C 178.597 66.426, 165.392 45.694, 141.896 34.089 C 127.218 26.840, 115.188 23.958, 97.500 23.454 C 88.349 23.193, 80.524 23.543, 74.908 24.464 M 75.450 28.397 C 40.947 34.981, 17.889 53.838, 16.245 76.816 C 15.331 89.589, 19.857 99.745, 31.404 110.832 L 37.794 116.969 36.839 121.234 C 36.314 123.580, 34.778 127.481, 33.427 129.902 C 32.076 132.323, 31.118 134.451, 31.297 134.630 C 31.477 134.810, 36.321 132.950, 42.062 130.498 C 47.803 128.046, 53.056 126.030, 53.735 126.020 C 54.414 126.009, 58.777 127.103, 63.431 128.452 C 83.850 134.369, 107.268 133.966, 127.171 127.354 C 139.900 123.126, 148.034 118.533, 156.372 110.865 C 182.008 87.291, 174.816 55.583, 139.710 37.414 C 126.682 30.671, 114.778 27.888, 97 27.427 C 87.491 27.180, 80.073 27.514, 75.450 28.397 M 139.982 55.522 C 137.892 58.039, 140.235 90, 142.508 90 C 144.635 90, 146.969 57.873, 145.013 55.516 C 143.410 53.584, 141.588 53.586, 139.982 55.522 M 140.529 96.355 C 138.479 97.854, 138.798 100.843, 141.166 102.335 C 142.374 103.095, 143.268 103.022, 144.416 102.070 C 148.049 99.054, 144.325 93.579, 140.529 96.355" stroke="none" fill="#0a0909" fill-rule="evenodd"/><path d="M 0 88.005 L 0 176.011 88.250 175.755 L 176.500 175.500 176.755 87.750 L 177.011 0 88.505 0 L 0 0 0 88.005 M 0.479 88.500 C 0.478 136.900, 0.600 156.846, 0.750 132.825 C 0.899 108.804, 0.899 69.204, 0.750 44.825 C 0.601 20.446, 0.479 40.100, 0.479 88.500 M 74.450 24.398 C 45.338 29.947, 24.947 43.215, 15.781 62.572 C 12.720 69.036, 12.500 70.205, 12.500 80.022 C 12.500 89.971, 12.686 90.924, 15.918 97.522 C 18.141 102.062, 21.779 107.030, 26.330 111.743 L 33.325 118.986 31.938 123.188 C 29.315 131.136, 19.465 142.246, 7.975 150.217 C 6.614 151.161, 12.158 148.791, 20.296 144.950 C 28.434 141.109, 39.374 136.184, 44.608 134.006 L 54.125 130.045 62.421 132.449 C 105.372 144.896, 155.995 129.167, 170.960 98.724 C 179.392 81.570, 176.451 64.038, 162.669 49.306 C 152.059 37.963, 139.703 30.972, 122 26.296 C 110.226 23.186, 85.903 22.215, 74.450 24.398 M 76.500 28.378 C 48.628 32.980, 27.361 46.683, 18.890 65.500 C 17.115 69.442, 16.624 72.416, 16.569 79.552 C 16.504 88.060, 16.725 89.059, 20.240 96.171 C 23.037 101.830, 25.758 105.416, 31.025 110.385 L 38.069 117.030 36.933 121.248 C 36.308 123.568, 34.678 127.675, 33.310 130.374 C 31.767 133.419, 31.331 135.061, 32.162 134.700 C 42.927 130.017, 54.907 125.240, 55.186 125.520 C 55.382 125.716, 59.426 127.002, 64.173 128.377 C 89.447 135.701, 116.941 133.317, 140 121.801 C 162.250 110.688, 174.401 91.932, 170.992 73.959 C 169.214 64.585, 165.559 58.253, 157.130 49.948 C 147.675 40.631, 135.837 34.320, 120.500 30.417 C 108.160 27.277, 88.645 26.373, 76.500 28.378 M 46.334 50.250 C 45.902 50.938, 45.375 56.112, 45.161 61.750 L 44.773 72 39.323 72 L 33.873 72 34.187 75.250 C 34.492 78.419, 34.630 78.508, 39.750 78.802 L 45 79.105 45 86.987 C 45 91.323, 45.439 96.024, 45.975 97.435 L 46.950 100 66.436 100 L 85.922 100 86.211 108.707 C 86.556 119.116, 85.978 118.750, 102.316 118.900 C 113.683 119.005, 117 118.140, 117 115.072 C 117 112.403, 115.150 112, 102.892 112 L 91.948 112 92.224 96.750 L 92.500 81.500 107.153 81.224 C 119.498 80.991, 121.903 80.695, 122.420 79.347 C 123.870 75.570, 121.453 75, 103.985 75 C 89.614 75, 87.127 75.226, 86.607 76.582 C 86.273 77.452, 86 81.727, 86 86.082 L 86 94 69 94 L 52 94 52 74.500 L 52 55 71.429 55 C 87.935 55, 91.099 54.758, 92.463 53.394 C 93.703 52.154, 93.805 51.470, 92.912 50.394 C 91.312 48.466, 47.538 48.330, 46.334 50.250 M 140.104 54.915 C 138.963 55.637, 138.836 58.248, 139.408 69.150 C 139.793 76.492, 140.366 84.188, 140.682 86.250 C 141.566 92.029, 143.649 90.890, 144.339 84.250 C 147.081 57.883, 146.104 51.116, 140.104 54.915 M 140.750 96.080 C 138.834 97.196, 138.372 101.494, 140.057 102.535 C 140.638 102.894, 142.213 102.912, 143.557 102.575 C 146.241 101.902, 146.936 98.336, 144.800 96.200 C 143.367 94.767, 143.022 94.757, 140.750 96.080" stroke="none" fill="#fafafa" fill-rule="evenodd"/></svg>