<?xml version="1.0" standalone="no"?>
<!DOCTYPE svg PUBLIC "-//W3C//DTD SVG 20010904//EN"
 "http://www.w3.org/TR/2001/REC-SVG-20010904/DTD/svg10.dtd">
<svg version="1.0" xmlns="http://www.w3.org/2000/svg"
 width="450.000000pt" height="444.000000pt" viewBox="0 0 450.000000 444.000000"
 preserveAspectRatio="xMidYMid meet">

<g transform="translate(0.000000,444.000000) scale(0.100000,-0.100000)"
fill="#000000" stroke="none">
<path d="M1760 4425 c-30 -7 -76 -19 -103 -25 -59 -15 -69 -31 -77 -140 -10
-118 -28 -277 -46 -395 -8 -55 -14 -118 -14 -139 0 -22 -7 -82 -17 -133 -9
-51 -13 -96 -9 -100 4 -4 21 -1 39 6 18 7 52 17 77 21 25 5 61 15 81 24 31 13
37 21 43 55 3 22 3 47 0 55 -10 25 12 43 74 61 31 9 87 25 125 36 37 11 75 18
85 15 9 -4 32 -29 50 -57 37 -56 56 -68 83 -51 10 7 31 12 46 12 41 1 138 37
135 51 -2 10 -197 307 -368 562 -21 33 -50 77 -64 100 -23 37 -49 56 -75 55
-5 0 -35 -6 -65 -13z m105 -362 c74 -128 75 -141 14 -156 -19 -4 -48 -12 -65
-18 -37 -11 -61 -4 -69 20 -6 20 11 247 20 261 15 25 37 2 100 -107z"/>
<path d="M2790 4405 c-14 -8 -32 -12 -41 -9 -9 2 -22 -2 -29 -11 -7 -8 -19
-15 -27 -15 -22 0 -109 -87 -124 -123 -7 -18 -17 -39 -24 -47 -13 -18 -39 -96
-55 -170 -17 -79 -1 -238 26 -261 8 -6 14 -19 14 -29 0 -27 93 -115 147 -139
26 -12 62 -28 78 -36 58 -26 186 -41 233 -27 20 6 49 13 64 17 15 3 54 31 88
64 52 49 61 63 58 87 -2 21 -12 33 -33 43 -16 7 -41 24 -55 36 -53 48 -63 48
-106 4 -47 -49 -83 -69 -124 -69 -40 0 -97 30 -135 70 -29 30 -30 35 -29 114
3 146 62 269 148 310 47 22 78 20 135 -9 43 -21 53 -33 79 -88 l31 -64 83 -6
c46 -3 88 -1 94 4 18 15 4 98 -27 160 -48 96 -132 152 -286 190 -89 22 -149
24 -183 4z"/>
<path d="M775 3943 c-36 -38 -65 -77 -65 -88 0 -13 51 -69 147 -160 94 -91
144 -145 139 -153 -9 -15 -129 -16 -156 -2 -19 10 -153 33 -295 50 l-80 10
-73 -74 c-84 -85 -84 -86 -8 -161 28 -27 156 -153 284 -280 l233 -229 75 79
c40 43 74 82 74 87 0 4 -68 74 -150 155 -149 145 -173 181 -120 176 80 -7 181
-22 190 -28 6 -4 44 -11 83 -16 40 -5 102 -16 139 -26 45 -11 73 -14 86 -7 26
12 153 156 150 169 -5 17 -564 565 -577 565 -7 0 -41 -30 -76 -67z"/>
<path d="M3934 3735 c-10 -8 -27 -15 -37 -15 -11 0 -31 -6 -45 -14 -37 -20
-107 -47 -242 -95 -63 -23 -132 -50 -152 -61 -20 -11 -44 -20 -52 -20 -8 0
-27 -6 -43 -14 -54 -27 -104 -46 -120 -46 -9 0 -24 -7 -34 -16 -17 -15 -15
-20 37 -82 30 -36 54 -74 54 -83 0 -10 -22 -41 -49 -71 -60 -66 -101 -126
-101 -147 0 -9 9 -27 20 -41 24 -31 26 -97 4 -128 -36 -51 -64 -11 -64 91 0
64 -18 107 -44 107 -7 0 -39 23 -70 50 -31 28 -62 50 -67 50 -14 0 -68 -39
-116 -84 -30 -28 -43 -48 -43 -67 0 -32 23 -59 50 -59 52 0 62 -22 30 -63 -29
-36 -25 -78 10 -122 28 -36 30 -43 30 -129 0 -82 -3 -95 -27 -131 -38 -57 -95
-121 -139 -156 -37 -29 -37 -29 -138 -23 -125 7 -154 -7 -180 -82 -25 -73 -21
-88 38 -154 68 -76 83 -115 62 -164 -8 -20 -19 -36 -25 -36 -5 0 -30 -13 -54
-30 -25 -16 -50 -30 -56 -30 -6 0 -26 25 -45 54 -45 71 -78 93 -112 77 -14 -6
-29 -9 -33 -6 -5 2 -11 38 -14 80 -10 110 -42 163 -92 151 -49 -12 -65 7 -65
82 0 78 -20 120 -72 152 -43 26 -112 26 -166 0 -51 -25 -220 -185 -262 -247
-27 -42 -30 -54 -30 -127 0 -223 -77 -222 -144 3 -9 29 -16 81 -16 114 0 68
-25 173 -48 200 -8 9 -26 17 -40 17 -31 0 -79 35 -157 116 -88 91 -104 96
-275 101 -157 5 -239 24 -308 71 -57 39 -89 4 -58 -63 9 -18 16 -36 16 -39 0
-3 11 -28 24 -55 13 -27 26 -61 30 -75 4 -17 20 -33 46 -46 47 -24 78 -25 108
-4 27 19 57 11 78 -21 22 -34 11 -59 -54 -113 -52 -42 -116 -78 -225 -126 -69
-30 -117 -17 -117 31 0 26 -58 143 -92 185 -12 15 -25 49 -29 75 -3 27 -19 81
-34 121 -29 80 -31 159 -6 257 31 118 44 162 57 188 8 16 14 37 14 47 0 10 7
32 15 49 8 17 22 45 30 62 21 44 19 65 -11 88 -32 26 -40 26 -48 4 -3 -10 -10
-25 -15 -33 -10 -17 -31 -70 -81 -210 -7 -19 -16 -53 -20 -75 -4 -22 -12 -53
-19 -68 -6 -16 -11 -40 -11 -54 0 -14 -7 -46 -15 -72 -20 -65 -55 -341 -54
-431 3 -314 97 -740 220 -996 16 -33 29 -66 29 -72 0 -7 4 -12 8 -12 4 0 21
-28 36 -63 32 -69 141 -236 220 -337 262 -333 616 -585 1026 -729 113 -40 234
-68 370 -87 58 -8 124 -19 148 -24 51 -12 248 -12 352 0 162 18 246 31 270 42
14 6 45 15 70 19 67 11 167 42 265 82 133 53 305 138 305 149 0 5 6 8 13 8 6
0 39 18 72 40 33 22 78 52 99 66 53 35 197 158 276 235 206 202 391 482 508
771 34 84 112 334 112 360 0 12 6 44 14 72 27 95 46 288 45 451 0 154 -24 399
-48 493 -6 23 -16 61 -21 85 -6 23 -17 65 -26 92 -8 28 -19 64 -24 80 -11 39
-30 93 -46 130 -7 17 -15 38 -18 48 -7 22 -29 31 -60 23 -32 -8 -43 -42 -22
-65 9 -10 16 -24 16 -32 0 -8 6 -26 14 -41 31 -59 88 -273 117 -438 28 -159
48 -485 30 -503 -6 -6 -11 -38 -11 -72 0 -109 -61 -406 -106 -513 -8 -18 -14
-39 -14 -47 0 -7 -6 -26 -14 -42 -8 -15 -29 -64 -47 -108 -18 -44 -39 -87 -46
-96 -7 -8 -13 -22 -13 -30 0 -8 -5 -20 -11 -26 -12 -12 -19 -24 -61 -99 -61
-110 -197 -290 -289 -383 -99 -100 -291 -263 -348 -296 -29 -16 -68 -42 -87
-56 -30 -24 -141 -81 -284 -147 -50 -23 -119 -49 -165 -62 -16 -4 -68 -19
-115 -33 -47 -14 -101 -27 -120 -30 -19 -3 -66 -10 -105 -16 -130 -19 -330
-34 -370 -27 -22 3 -90 10 -150 15 -61 5 -123 14 -138 20 -16 6 -40 11 -54 11
-27 0 -154 35 -185 51 -10 5 -27 9 -38 9 -10 0 -34 6 -52 14 -18 8 -62 26 -98
42 -73 30 -235 108 -264 127 -64 40 -212 140 -216 146 -3 3 -30 26 -60 50
-108 84 -264 246 -367 381 -116 152 -277 458 -312 595 -4 17 -13 39 -19 50
-17 31 -62 207 -73 282 -5 37 -12 75 -15 83 -6 16 -20 143 -31 274 -6 77 10
211 27 221 12 8 27 -17 34 -59 4 -21 25 -62 45 -90 39 -52 64 -116 76 -194 8
-51 23 -60 79 -43 23 7 57 16 76 20 19 4 44 12 55 18 11 5 38 19 60 29 131 62
255 180 255 242 0 27 -79 121 -108 129 -16 4 -33 -2 -52 -16 -50 -36 -88 -24
-121 41 -18 35 -19 42 -6 55 10 10 20 12 38 5 44 -18 168 -32 275 -32 l105 0
98 -95 c54 -53 108 -97 119 -100 11 -2 34 -11 51 -19 27 -14 31 -22 31 -55 0
-22 9 -92 20 -158 15 -89 29 -136 57 -192 42 -84 71 -103 139 -94 l40 5 12
-58 c20 -94 41 -128 80 -132 60 -6 102 39 116 123 9 54 -5 88 -48 115 -27 16
-48 21 -84 18 l-47 -3 -3 98 c-3 123 6 145 112 250 124 122 148 137 217 137
54 0 58 -2 78 -34 16 -25 21 -50 21 -102 0 -89 16 -114 71 -114 64 0 81 -26
76 -113 -2 -40 -10 -106 -16 -147 -19 -114 -11 -144 73 -262 41 -57 95 -123
120 -147 41 -41 48 -44 73 -35 26 9 28 13 27 64 -2 123 -29 197 -83 224 -34
18 -54 61 -49 107 4 46 22 46 40 -1 10 -23 27 -44 41 -51 22 -10 32 -8 73 17
25 16 66 39 90 51 53 28 74 65 74 136 0 46 -6 63 -38 113 -21 32 -46 65 -55
73 -24 19 -22 76 3 101 18 18 33 20 137 20 l116 0 86 85 c74 74 101 96 101 81
0 -1 -5 -17 -11 -35 -13 -38 -6 -74 21 -101 26 -26 49 -15 90 45 28 40 30 50
24 95 -8 62 -24 78 -62 59 -15 -7 -30 -15 -34 -17 -10 -5 -9 90 2 153 10 59
-4 126 -31 151 -25 22 -24 59 1 91 31 40 26 80 -15 119 -40 37 -42 45 -17 67
26 24 35 22 82 -18 23 -19 48 -35 55 -35 19 0 35 -55 35 -122 0 -52 3 -63 29
-89 54 -54 141 -32 141 35 0 11 7 39 16 63 16 40 16 44 -5 83 -11 22 -21 47
-21 55 0 8 29 47 65 86 36 39 65 75 65 80 0 5 11 11 24 15 14 3 32 14 42 25
32 35 94 19 94 -24 0 -16 -5 -17 -45 -11 -66 9 -85 -8 -124 -110 -35 -94 -36
-112 -6 -132 17 -11 25 -11 50 2 17 9 52 19 80 23 42 5 53 11 73 41 18 27 22
42 17 71 -6 36 9 56 31 41 18 -14 84 -101 84 -112 0 -6 -13 -31 -30 -55 -16
-24 -30 -51 -30 -60 0 -23 132 -175 152 -175 11 0 35 36 74 113 31 61 60 117
64 122 7 10 121 226 212 405 27 52 54 102 60 111 10 14 -2 32 -67 108 -99 116
-125 131 -171 96z m-14 -241 c0 -23 -127 -231 -145 -238 -22 -8 -44 8 -89 66
-53 68 -54 67 114 147 92 44 120 50 120 25z m-440 -330 c10 -11 11 -23 4 -42
-7 -21 -16 -27 -39 -27 -25 0 -30 4 -33 28 -6 49 39 77 68 41z m-490 -739 c-7
-8 -16 -15 -21 -15 -13 0 -11 24 3 38 18 18 35 -3 18 -23z m-799 -553 c1 -108
10 -133 58 -166 60 -40 93 -126 48 -126 -16 0 -132 158 -154 209 -17 41 -10
106 14 133 24 26 33 13 34 -50z m-542 -31 c22 -22 19 -49 -11 -81 -24 -26 -41
-15 -58 36 -9 27 -9 38 0 49 17 21 46 19 69 -4z"/>
<path d="M3386 2955 c-19 -18 -26 -34 -26 -62 0 -33 -7 -46 -46 -83 -85 -83
-126 -140 -123 -175 2 -21 -4 -41 -19 -60 -24 -30 -22 -56 6 -87 22 -26 37
-22 60 14 19 30 20 34 4 60 -15 25 -15 29 3 48 10 11 27 20 37 20 11 0 28 5
39 11 14 7 30 6 55 -3 44 -16 78 1 106 52 39 72 -3 290 -57 290 -7 0 -24 -11
-39 -25z m47 -193 c-9 -61 -26 -72 -78 -52 -30 11 -26 24 25 78 39 43 62 31
53 -26z"/>
<path d="M2932 2248 c-7 -7 -12 -18 -12 -25 0 -7 -9 -30 -20 -50 -11 -21 -20
-45 -20 -53 0 -22 59 -131 87 -162 24 -25 24 -48 1 -48 -25 0 -78 -46 -78 -67
0 -27 43 -79 81 -98 42 -22 106 -20 119 4 26 49 -4 144 -51 160 -35 12 -38 41
-10 77 16 21 19 40 19 117 -1 88 -2 93 -31 125 -32 33 -64 41 -85 20z m65
-138 c0 -59 -3 -80 -13 -80 -16 0 -54 61 -54 89 0 30 29 71 49 71 15 0 17 -12
18 -80z m31 -256 c27 -19 29 -60 3 -74 -26 -13 -24 -14 -55 15 -30 28 -33 50
-8 64 24 14 34 13 60 -5z"/>
<path d="M2788 1657 c-15 -12 -34 -38 -42 -58 -12 -28 -28 -43 -72 -65 -31
-16 -70 -41 -86 -55 -26 -25 -28 -33 -28 -97 0 -85 19 -114 84 -131 70 -17 99
-14 144 20 23 17 46 28 51 25 5 -3 12 -30 16 -59 4 -28 14 -60 23 -69 31 -37
105 -13 141 45 25 41 26 64 5 116 -14 37 -38 53 -106 75 -22 7 -22 22 -2 99
19 73 14 95 -30 141 -39 42 -60 45 -98 13z m70 -127 c-3 -61 -7 -72 -50 -131
-67 -91 -64 -89 -115 -89 -56 0 -83 21 -83 64 0 48 24 73 106 112 73 35 94 55
94 93 0 21 17 31 39 23 10 -4 12 -22 9 -72z m110 -212 c17 -17 15 -49 -4 -76
-18 -26 -27 -27 -48 -6 -21 20 -20 53 1 76 19 21 34 23 51 6z"/>
<path d="M2032 1618 c-18 -18 -14 -72 9 -125 12 -27 25 -57 29 -68 44 -132
158 -245 246 -245 27 0 32 -4 37 -30 7 -34 68 -105 109 -126 21 -11 42 -13 75
-8 58 9 92 44 93 95 0 56 -51 97 -171 136 -9 2 -35 -7 -58 -21 -22 -14 -43
-26 -45 -26 -2 0 -7 19 -11 43 -4 23 -29 83 -56 133 -37 69 -67 108 -127 166
-83 80 -110 96 -130 76z m130 -159 c33 -37 98 -142 98 -158 0 -6 -6 -11 -13
-11 -38 0 -98 77 -122 156 -16 54 -2 59 37 13z m352 -301 c53 -25 63 -44 40
-69 -25 -28 -55 -23 -96 17 -42 39 -44 44 -26 62 17 17 31 15 82 -10z"/>
<path d="M3087 1222 c-45 -47 -28 -126 38 -177 30 -22 43 -25 114 -25 l81 0 0
50 c0 43 -4 54 -37 87 -99 100 -147 116 -196 65z m118 -73 c58 -51 40 -94 -26
-61 -35 17 -65 64 -54 82 12 19 44 10 80 -21z"/>
<path d="M2763 994 c-41 -36 -66 -49 -116 -60 -42 -10 -73 -24 -88 -40 -21
-22 -22 -28 -11 -57 15 -43 15 -121 0 -164 -11 -31 -10 -35 15 -60 25 -26 29
-27 59 -14 55 22 110 32 139 26 26 -6 134 -111 192 -188 47 -63 64 -60 152 27
42 42 81 76 86 76 16 0 49 64 49 96 0 17 -7 53 -16 80 -8 27 -19 91 -23 142
-8 101 -21 125 -73 137 -23 6 -33 1 -59 -26 -36 -39 -57 -33 -75 22 -15 44
-54 61 -83 35 -18 -17 -22 -17 -43 -2 -34 24 -48 20 -105 -30z m98 -50 c8 -10
22 -14 40 -10 24 4 34 -2 74 -49 60 -71 90 -72 110 -5 16 53 55 47 56 -9 0
-20 7 -70 15 -111 29 -145 30 -136 -8 -172 -69 -65 -122 -108 -133 -108 -7 0
-47 38 -90 85 -125 135 -170 156 -249 118 -53 -25 -64 -10 -65 87 0 52 4 82
12 87 6 4 41 17 77 30 35 12 75 34 89 48 29 29 53 32 72 9z"/>
<path d="M2790 419 c-11 -26 -10 -36 3 -65 21 -42 40 -43 78 -2 35 40 36 44 3
74 -36 34 -69 31 -84 -7z"/>
</g>
</svg>
