<?xml version="1.0" encoding="UTF-8"?>
<svg xmlns="http://www.w3.org/2000/svg" xmlns:xlink="http://www.w3.org/1999/xlink" width="337pt" height="333pt" viewBox="0 0 337 333" version="1.1">
<g id="surface1">
<path style=" stroke:none;fill-rule:nonzero;fill:rgb(0%,0%,0%);fill-opacity:1;" d="M 131.6875 1.125 C 129.441406 1.648438 126 2.550781 123.980469 3 C 119.566406 4.125 118.816406 5.324219 118.21875 13.5 C 117.472656 22.351562 116.125 34.273438 114.777344 43.125 C 114.179688 47.25 113.730469 51.976562 113.730469 53.550781 C 113.730469 55.199219 113.207031 59.699219 112.457031 63.523438 C 111.785156 67.351562 111.484375 70.726562 111.785156 71.023438 C 112.082031 71.324219 113.355469 71.101562 114.703125 70.574219 C 116.050781 70.050781 118.59375 69.300781 120.464844 69 C 122.335938 68.625 125.027344 67.875 126.523438 67.199219 C 128.84375 66.226562 129.292969 65.625 129.742188 63.074219 C 129.964844 61.425781 129.964844 59.550781 129.742188 58.949219 C 128.992188 57.074219 130.640625 55.726562 135.277344 54.375 C 137.597656 53.699219 141.789062 52.5 144.632812 51.675781 C 147.398438 50.851562 150.242188 50.324219 150.992188 50.550781 C 151.664062 50.851562 153.386719 52.726562 154.734375 54.824219 C 157.5 59.023438 158.921875 59.925781 160.941406 58.648438 C 161.691406 58.125 163.261719 57.75 164.386719 57.75 C 167.453125 57.675781 174.710938 54.976562 174.484375 53.925781 C 174.335938 53.175781 159.746094 30.898438 146.949219 11.773438 C 145.378906 9.300781 143.210938 6 142.164062 4.273438 C 140.441406 1.5 138.496094 0.0742188 136.550781 0.148438 C 136.175781 0.148438 133.933594 0.601562 131.6875 1.125 Z M 139.542969 28.273438 C 145.082031 37.875 145.15625 38.851562 140.589844 39.976562 C 139.167969 40.273438 137 40.875 135.726562 41.324219 C 132.960938 42.148438 131.164062 41.625 130.566406 39.824219 C 130.117188 38.324219 131.386719 21.300781 132.0625 20.25 C 133.183594 18.375 134.828125 20.101562 139.542969 28.273438 Z M 139.542969 28.273438 "/>
<path style=" stroke:none;fill-rule:nonzero;fill:rgb(0%,0%,0%);fill-opacity:1;" d="M 208.753906 2.625 C 207.707031 3.226562 206.359375 3.523438 205.6875 3.300781 C 205.011719 3.148438 204.039062 3.449219 203.515625 4.125 C 202.992188 4.726562 202.09375 5.25 201.496094 5.25 C 199.851562 5.25 193.339844 11.773438 192.21875 14.476562 C 191.695312 15.824219 190.945312 17.398438 190.421875 18 C 189.449219 19.351562 187.503906 25.199219 186.308594 30.75 C 185.035156 36.675781 186.234375 48.601562 188.253906 50.324219 C 188.851562 50.773438 189.300781 51.75 189.300781 52.5 C 189.300781 54.523438 196.257812 61.125 200.300781 62.925781 C 202.246094 63.824219 204.9375 65.023438 206.136719 65.625 C 210.476562 67.574219 220.050781 68.699219 223.570312 67.648438 C 225.066406 67.199219 227.234375 66.675781 228.359375 66.375 C 229.480469 66.148438 232.398438 64.050781 234.941406 61.574219 C 238.832031 57.898438 239.507812 56.851562 239.28125 55.050781 C 239.132812 53.476562 238.382812 52.574219 236.8125 51.824219 C 235.617188 51.300781 233.746094 50.023438 232.699219 49.125 C 228.730469 45.523438 227.984375 45.523438 224.765625 48.824219 C 221.25 52.5 218.554688 54 215.488281 54 C 212.496094 54 208.230469 51.75 205.386719 48.75 C 203.21875 46.5 203.144531 46.125 203.21875 40.199219 C 203.441406 29.25 207.855469 20.023438 214.292969 16.949219 C 217.808594 15.300781 220.128906 15.449219 224.390625 17.625 C 227.609375 19.199219 228.359375 20.101562 230.304688 24.226562 L 232.621094 29.023438 L 238.832031 29.476562 C 242.273438 29.699219 245.417969 29.550781 245.867188 29.175781 C 247.214844 28.050781 246.164062 21.824219 243.847656 17.175781 C 240.253906 9.976562 233.96875 5.773438 222.445312 2.925781 C 215.789062 1.273438 211.296875 1.125 208.753906 2.625 Z M 208.753906 2.625 "/>
<path style=" stroke:none;fill-rule:nonzero;fill:rgb(0%,0%,0%);fill-opacity:1;" d="M 57.988281 37.273438 C 55.292969 40.125 53.125 43.050781 53.125 43.875 C 53.125 44.851562 56.941406 49.050781 64.121094 55.875 C 71.15625 62.699219 74.898438 66.75 74.523438 67.351562 C 73.851562 68.476562 64.871094 68.550781 62.851562 67.5 C 61.429688 66.75 51.402344 65.023438 40.777344 63.75 L 34.792969 63 L 29.332031 68.550781 C 23.046875 74.925781 23.046875 75 28.730469 80.625 C 30.828125 82.648438 40.402344 92.101562 49.980469 101.625 L 67.414062 118.800781 L 73.027344 112.875 C 76.019531 109.648438 78.5625 106.726562 78.5625 106.351562 C 78.5625 106.050781 73.476562 100.800781 67.339844 94.726562 C 56.191406 83.851562 54.394531 81.148438 58.363281 81.523438 C 64.347656 82.050781 71.90625 83.175781 72.578125 83.625 C 73.027344 83.925781 75.871094 84.449219 78.789062 84.824219 C 81.78125 85.199219 86.417969 86.023438 89.1875 86.773438 C 92.554688 87.601562 94.648438 87.824219 95.621094 87.300781 C 97.570312 86.398438 107.070312 75.601562 106.847656 74.625 C 106.472656 73.351562 64.648438 32.25 63.675781 32.25 C 63.148438 32.25 60.605469 34.5 57.988281 37.273438 Z M 57.988281 37.273438 "/>
<path style=" stroke:none;fill-rule:nonzero;fill:rgb(0%,0%,0%);fill-opacity:1;" d="M 294.351562 52.875 C 293.601562 53.476562 292.332031 54 291.582031 54 C 290.761719 54 289.261719 54.449219 288.214844 55.050781 C 285.449219 56.550781 280.210938 58.574219 270.109375 62.175781 C 265.394531 63.898438 260.230469 65.925781 258.734375 66.75 C 257.238281 67.574219 255.445312 68.25 254.84375 68.25 C 254.246094 68.25 252.824219 68.699219 251.628906 69.300781 C 247.585938 71.324219 243.847656 72.75 242.648438 72.75 C 241.976562 72.75 240.851562 73.273438 240.105469 73.949219 C 238.832031 75.074219 238.984375 75.449219 242.875 80.101562 C 245.117188 82.800781 246.914062 85.648438 246.914062 86.324219 C 246.914062 87.074219 245.269531 89.398438 243.246094 91.648438 C 238.757812 96.601562 235.691406 101.101562 235.691406 102.675781 C 235.691406 103.351562 236.363281 104.699219 237.1875 105.75 C 238.984375 108.074219 239.132812 113.023438 237.484375 115.351562 C 234.792969 119.175781 232.699219 116.175781 232.699219 108.523438 C 232.699219 103.726562 231.351562 100.5 229.40625 100.5 C 228.882812 100.5 226.488281 98.773438 224.167969 96.75 C 221.847656 94.648438 219.527344 93 219.15625 93 C 218.105469 93 214.066406 95.925781 210.476562 99.300781 C 208.230469 101.398438 207.257812 102.898438 207.257812 104.324219 C 207.257812 106.726562 208.980469 108.75 211 108.75 C 214.890625 108.75 215.636719 110.398438 213.242188 113.476562 C 211.074219 116.175781 211.375 119.324219 213.992188 122.625 C 216.085938 125.324219 216.238281 125.851562 216.238281 132.300781 C 216.238281 138.449219 216.011719 139.425781 214.214844 142.125 C 211.375 146.398438 207.109375 151.199219 203.816406 153.824219 C 201.046875 156 201.046875 156 193.492188 155.550781 C 184.136719 155.023438 181.96875 156.074219 180.023438 161.699219 C 178.152344 167.175781 178.453125 168.300781 182.867188 173.25 C 187.953125 178.949219 189.074219 181.875 187.503906 185.550781 C 186.90625 187.050781 186.082031 188.25 185.632812 188.25 C 185.261719 188.25 183.390625 189.226562 181.59375 190.5 C 179.722656 191.699219 177.851562 192.75 177.402344 192.75 C 176.953125 192.75 175.457031 190.875 174.035156 188.699219 C 170.667969 183.375 168.199219 181.726562 165.65625 182.925781 C 164.609375 183.375 163.488281 183.601562 163.1875 183.375 C 162.8125 183.226562 162.363281 180.523438 162.140625 177.375 C 161.390625 169.125 158.996094 165.148438 155.257812 166.050781 C 151.589844 166.949219 150.394531 165.523438 150.394531 159.898438 C 150.394531 154.050781 148.898438 150.898438 145.003906 148.5 C 141.789062 146.550781 136.625 146.550781 132.585938 148.5 C 128.769531 150.375 116.125 162.375 112.980469 167.023438 C 110.960938 170.175781 110.738281 171.074219 110.738281 176.550781 C 110.738281 193.273438 104.976562 193.199219 99.960938 176.324219 C 99.289062 174.148438 98.765625 170.25 98.765625 167.773438 C 98.765625 162.675781 96.894531 154.800781 95.175781 152.773438 C 94.574219 152.101562 93.230469 151.5 92.179688 151.5 C 89.863281 151.5 86.269531 148.875 80.433594 142.800781 C 73.851562 135.976562 72.652344 135.601562 59.859375 135.226562 C 48.109375 134.851562 41.976562 133.425781 36.8125 129.898438 C 32.546875 126.976562 30.152344 129.601562 32.472656 134.625 C 33.144531 135.976562 33.671875 137.324219 33.671875 137.550781 C 33.671875 137.773438 34.492188 139.648438 35.464844 141.675781 C 36.4375 143.699219 37.410156 146.25 37.710938 147.300781 C 38.011719 148.574219 39.207031 149.773438 41.152344 150.75 C 44.667969 152.550781 46.988281 152.625 49.234375 151.050781 C 51.253906 149.625 53.496094 150.226562 55.070312 152.625 C 56.714844 155.175781 55.890625 157.050781 51.027344 161.101562 C 47.136719 164.25 42.347656 166.949219 34.195312 170.550781 C 29.03125 172.800781 25.441406 171.824219 25.441406 168.226562 C 25.441406 166.273438 21.101562 157.5 18.554688 154.351562 C 17.65625 153.226562 16.683594 150.675781 16.386719 148.726562 C 16.160156 146.699219 14.964844 142.648438 13.84375 139.648438 C 11.671875 133.648438 11.523438 127.726562 13.394531 120.375 C 15.710938 111.523438 16.683594 108.226562 17.65625 106.273438 C 18.257812 105.074219 18.707031 103.5 18.707031 102.75 C 18.707031 102 19.230469 100.351562 19.828125 99.074219 C 20.425781 97.800781 21.472656 95.699219 22.074219 94.425781 C 23.644531 91.125 23.496094 89.550781 21.25 87.824219 C 18.855469 85.875 18.257812 85.875 17.65625 87.523438 C 17.433594 88.273438 16.910156 89.398438 16.535156 90 C 15.789062 91.273438 14.214844 95.25 10.476562 105.75 C 9.953125 107.175781 9.277344 109.726562 8.980469 111.375 C 8.679688 113.023438 8.082031 115.351562 7.558594 116.476562 C 7.109375 117.675781 6.734375 119.476562 6.734375 120.523438 C 6.734375 121.574219 6.210938 123.976562 5.613281 125.925781 C 4.113281 130.800781 1.496094 151.5 1.570312 158.25 C 1.796875 181.800781 8.828125 213.75 18.03125 232.949219 C 19.230469 235.425781 20.203125 237.898438 20.203125 238.351562 C 20.203125 238.875 20.5 239.25 20.800781 239.25 C 21.101562 239.25 22.371094 241.351562 23.496094 243.976562 C 25.886719 249.148438 34.042969 261.675781 39.957031 269.25 C 59.558594 294.226562 86.046875 313.125 116.722656 323.925781 C 125.179688 326.925781 134.230469 329.023438 144.40625 330.449219 C 148.746094 331.050781 153.683594 331.875 155.480469 332.25 C 159.296875 333.148438 174.035156 333.148438 181.820312 332.25 C 193.941406 330.898438 200.226562 329.925781 202.019531 329.101562 C 203.066406 328.648438 205.386719 327.976562 207.257812 327.675781 C 212.269531 326.851562 219.753906 324.523438 227.085938 321.523438 C 237.039062 317.550781 249.90625 311.175781 249.90625 310.351562 C 249.90625 309.976562 250.355469 309.75 250.878906 309.75 C 251.328125 309.75 253.796875 308.398438 256.265625 306.75 C 258.734375 305.101562 262.101562 302.851562 263.675781 301.800781 C 267.640625 299.175781 278.414062 289.949219 284.324219 284.175781 C 299.738281 269.023438 313.582031 248.023438 322.335938 226.351562 C 324.878906 220.050781 330.714844 201.300781 330.714844 199.351562 C 330.714844 198.449219 331.164062 196.050781 331.761719 193.949219 C 333.78125 186.824219 335.203125 172.351562 335.128906 160.125 C 335.128906 148.574219 333.332031 130.199219 331.539062 123.148438 C 331.089844 121.425781 330.339844 118.574219 329.964844 116.773438 C 329.519531 115.050781 328.695312 111.898438 328.019531 109.875 C 327.421875 107.773438 326.601562 105.074219 326.226562 103.875 C 325.402344 100.949219 323.980469 96.898438 322.785156 94.125 C 322.261719 92.851562 321.660156 91.273438 321.4375 90.523438 C 320.914062 88.875 319.265625 88.199219 316.949219 88.800781 C 314.554688 89.398438 313.730469 91.949219 315.300781 93.675781 C 315.976562 94.425781 316.5 95.476562 316.5 96.074219 C 316.5 96.675781 316.949219 98.023438 317.546875 99.148438 C 319.867188 103.574219 324.128906 119.625 326.300781 132 C 328.394531 143.925781 329.890625 168.375 328.546875 169.726562 C 328.097656 170.175781 327.722656 172.574219 327.722656 175.125 C 327.722656 183.300781 323.15625 205.574219 319.789062 213.601562 C 319.191406 214.949219 318.742188 216.523438 318.742188 217.125 C 318.742188 217.648438 318.292969 219.074219 317.695312 220.273438 C 317.097656 221.398438 315.527344 225.074219 314.179688 228.375 C 312.832031 231.675781 311.261719 234.898438 310.738281 235.574219 C 310.214844 236.175781 309.765625 237.226562 309.765625 237.824219 C 309.765625 238.425781 309.390625 239.324219 308.941406 239.773438 C 308.042969 240.675781 307.519531 241.574219 304.378906 247.199219 C 299.8125 255.449219 289.636719 268.949219 282.753906 275.925781 C 275.347656 283.425781 260.980469 295.648438 256.714844 298.125 C 254.546875 299.324219 251.628906 301.273438 250.207031 302.324219 C 247.960938 304.125 239.65625 308.398438 228.957031 313.351562 C 225.214844 315.074219 220.050781 317.023438 216.609375 318 C 215.414062 318.300781 211.523438 319.425781 208.007812 320.476562 C 204.488281 321.523438 200.449219 322.5 199.027344 322.726562 C 197.605469 322.949219 194.089844 323.476562 191.171875 323.925781 C 181.445312 325.351562 166.480469 326.476562 163.488281 325.949219 C 161.839844 325.726562 156.753906 325.199219 152.261719 324.824219 C 147.699219 324.449219 143.058594 323.773438 141.9375 323.324219 C 140.742188 322.875 138.945312 322.5 137.898438 322.5 C 135.878906 322.5 126.375 319.875 124.054688 318.675781 C 123.308594 318.300781 122.035156 318 121.210938 318 C 120.464844 318 118.667969 317.550781 117.320312 316.949219 C 115.976562 316.351562 112.683594 315 109.988281 313.800781 C 104.527344 311.550781 92.40625 305.699219 90.234375 304.273438 C 85.445312 301.273438 74.375 293.773438 74.074219 293.324219 C 73.851562 293.101562 71.828125 291.375 69.585938 289.574219 C 61.503906 283.273438 49.832031 271.125 42.125 261 C 33.445312 249.601562 21.398438 226.648438 18.78125 216.375 C 18.480469 215.101562 17.808594 213.449219 17.359375 212.625 C 16.085938 210.300781 12.71875 197.101562 11.898438 191.476562 C 11.523438 188.699219 11 185.851562 10.773438 185.25 C 10.324219 184.050781 9.277344 174.523438 8.453125 164.699219 C 8.007812 158.925781 9.203125 148.875 10.476562 148.125 C 11.371094 147.523438 12.496094 149.398438 13.019531 152.550781 C 13.320312 154.125 14.890625 157.199219 16.386719 159.300781 C 19.304688 163.199219 21.175781 168 22.074219 173.851562 C 22.671875 177.675781 23.792969 178.351562 27.984375 177.074219 C 29.703125 176.550781 32.25 175.875 33.671875 175.574219 C 35.089844 175.273438 36.960938 174.675781 37.785156 174.226562 C 38.609375 173.851562 40.628906 172.800781 42.273438 172.050781 C 52.078125 167.398438 61.355469 158.550781 61.355469 153.898438 C 61.355469 151.875 55.445312 144.824219 53.273438 144.226562 C 52.078125 143.925781 50.804688 144.375 49.382812 145.425781 C 45.640625 148.125 42.796875 147.226562 40.328125 142.351562 C 38.984375 139.726562 38.90625 139.199219 39.878906 138.226562 C 40.628906 137.476562 41.375 137.324219 42.722656 137.851562 C 46.015625 139.199219 55.292969 140.25 63.300781 140.25 L 71.15625 140.25 L 78.488281 147.375 C 82.527344 151.351562 86.570312 154.648438 87.390625 154.875 C 88.214844 155.023438 89.9375 155.699219 91.207031 156.300781 C 93.230469 157.351562 93.527344 157.949219 93.527344 160.425781 C 93.527344 162.074219 94.203125 167.324219 95.023438 172.273438 C 96.148438 178.949219 97.195312 182.476562 99.289062 186.675781 C 102.433594 192.976562 104.601562 194.398438 109.691406 193.726562 L 112.683594 193.351562 L 113.582031 197.699219 C 115.078125 204.75 116.648438 207.300781 119.566406 207.601562 C 124.054688 208.050781 127.199219 204.675781 128.246094 198.375 C 128.917969 194.324219 127.871094 191.773438 124.652344 189.75 C 122.632812 188.550781 121.0625 188.175781 118.367188 188.398438 L 114.851562 188.625 L 114.628906 181.273438 C 114.402344 172.050781 115.078125 170.398438 123.007812 162.523438 C 132.285156 153.375 134.082031 152.25 139.246094 152.25 C 143.285156 152.25 143.585938 152.398438 145.082031 154.800781 C 146.277344 156.675781 146.652344 158.550781 146.652344 162.449219 C 146.652344 169.125 147.847656 171 151.964844 171 C 156.753906 171 158.023438 172.949219 157.652344 179.476562 C 157.5 182.476562 156.902344 187.425781 156.453125 190.5 C 155.03125 199.050781 155.628906 201.300781 161.914062 210.148438 C 164.984375 214.425781 169.023438 219.375 170.894531 221.175781 C 173.960938 224.25 174.484375 224.476562 176.355469 223.800781 C 178.300781 223.125 178.453125 222.824219 178.375 219 C 178.226562 209.773438 176.207031 204.226562 172.167969 202.199219 C 169.621094 200.851562 168.125 197.625 168.5 194.175781 C 168.800781 190.726562 170.144531 190.726562 171.492188 194.25 C 172.242188 195.976562 173.511719 197.550781 174.5625 198.074219 C 176.207031 198.824219 176.953125 198.675781 180.023438 196.800781 C 181.894531 195.601562 184.960938 193.875 186.757812 192.976562 C 190.722656 190.875 192.292969 188.101562 192.292969 182.773438 C 192.292969 179.324219 191.84375 178.050781 189.449219 174.300781 C 187.878906 171.898438 186.007812 169.425781 185.335938 168.824219 C 183.539062 167.398438 183.6875 163.125 185.558594 161.25 C 186.90625 159.898438 188.027344 159.75 195.808594 159.75 L 204.488281 159.75 L 210.925781 153.375 C 216.460938 147.824219 218.480469 146.175781 218.480469 147.300781 C 218.480469 147.375 218.105469 148.574219 217.660156 149.925781 C 216.6875 152.773438 217.210938 155.476562 219.230469 157.5 C 221.175781 159.449219 222.894531 158.625 225.964844 154.125 C 228.058594 151.125 228.207031 150.375 227.757812 147 C 227.160156 142.351562 225.964844 141.148438 223.121094 142.574219 C 221.996094 143.101562 220.875 143.699219 220.578125 143.851562 C 219.828125 144.226562 219.902344 137.101562 220.726562 132.375 C 221.472656 127.949219 220.425781 122.925781 218.40625 121.050781 C 216.535156 119.398438 216.609375 116.625 218.480469 114.226562 C 220.800781 111.226562 220.425781 108.226562 217.359375 105.300781 C 214.367188 102.523438 214.214844 101.925781 216.085938 100.273438 C 218.03125 98.476562 218.707031 98.625 222.222656 101.625 C 223.945312 103.050781 225.8125 104.25 226.335938 104.25 C 227.757812 104.25 228.957031 108.375 228.957031 113.398438 C 228.957031 117.300781 229.179688 118.125 231.125 120.074219 C 235.167969 124.125 241.675781 122.476562 241.675781 117.449219 C 241.675781 116.625 242.199219 114.523438 242.875 112.726562 C 244.070312 109.726562 244.070312 109.425781 242.5 106.5 C 241.675781 104.851562 240.929688 102.976562 240.929688 102.375 C 240.929688 101.773438 243.097656 98.851562 245.792969 95.925781 C 248.484375 93 250.65625 90.300781 250.65625 89.925781 C 250.65625 89.550781 251.476562 89.101562 252.449219 88.800781 C 253.5 88.574219 254.84375 87.75 255.59375 86.925781 C 257.988281 84.300781 262.625 85.5 262.625 88.726562 C 262.625 89.925781 262.253906 90 259.257812 89.550781 C 254.320312 88.875 252.898438 90.148438 249.980469 97.800781 C 247.363281 104.851562 247.289062 106.199219 249.53125 107.699219 C 250.804688 108.523438 251.402344 108.523438 253.273438 107.550781 C 254.546875 106.875 257.164062 106.125 259.257812 105.824219 C 262.402344 105.449219 263.226562 105 264.722656 102.75 C 266.070312 100.726562 266.367188 99.601562 265.992188 97.425781 C 265.542969 94.726562 266.667969 93.226562 268.3125 94.351562 C 269.660156 95.398438 274.597656 101.925781 274.597656 102.75 C 274.597656 103.199219 273.625 105.074219 272.351562 106.875 C 271.15625 108.675781 270.109375 110.699219 270.109375 111.375 C 270.109375 113.101562 279.984375 124.5 281.480469 124.5 C 282.304688 124.5 284.101562 121.800781 287.019531 116.023438 C 289.339844 111.449219 291.507812 107.25 291.808594 106.875 C 292.332031 106.125 300.859375 89.925781 307.667969 76.5 C 309.691406 72.601562 311.710938 68.851562 312.160156 68.175781 C 312.90625 67.125 312.007812 65.773438 307.144531 60.074219 C 299.738281 51.375 297.792969 50.25 294.351562 52.875 Z M 293.304688 70.949219 C 293.304688 72.675781 283.800781 88.273438 282.453125 88.800781 C 280.808594 89.398438 279.164062 88.199219 275.796875 83.851562 C 271.828125 78.75 271.753906 78.824219 284.324219 72.824219 C 291.207031 69.523438 293.304688 69.074219 293.304688 70.949219 Z M 260.382812 95.699219 C 261.128906 96.523438 261.203125 97.425781 260.679688 98.851562 C 260.15625 100.425781 259.484375 100.875 257.761719 100.875 C 255.890625 100.875 255.519531 100.574219 255.292969 98.773438 C 254.84375 95.101562 258.210938 93 260.382812 95.699219 Z M 223.71875 151.125 C 223.195312 151.726562 222.523438 152.25 222.148438 152.25 C 221.175781 152.25 221.324219 150.449219 222.371094 149.398438 C 223.71875 148.050781 224.992188 149.625 223.71875 151.125 Z M 163.9375 192.601562 C 164.011719 200.699219 164.683594 202.574219 168.277344 205.050781 C 172.765625 208.050781 175.234375 214.5 171.867188 214.5 C 170.667969 214.5 161.992188 202.648438 160.34375 198.824219 C 159.074219 195.75 159.597656 190.875 161.390625 188.851562 C 163.1875 186.898438 163.859375 187.875 163.9375 192.601562 Z M 123.382812 194.925781 C 125.027344 196.574219 124.804688 198.601562 122.558594 201 C 120.761719 202.949219 119.492188 202.125 118.21875 198.300781 C 117.546875 196.273438 117.546875 195.449219 118.21875 194.625 C 119.492188 193.050781 121.660156 193.199219 123.382812 194.925781 Z M 123.382812 194.925781 "/>
<path style=" stroke:none;fill-rule:nonzero;fill:rgb(0%,0%,0%);fill-opacity:1;" d="M 253.347656 111.375 C 251.925781 112.726562 251.402344 113.925781 251.402344 116.023438 C 251.402344 118.5 250.878906 119.476562 247.960938 122.25 C 241.601562 128.476562 238.535156 132.75 238.757812 135.375 C 238.90625 136.949219 238.457031 138.449219 237.335938 139.875 C 235.539062 142.125 235.691406 144.074219 237.785156 146.398438 C 239.429688 148.351562 240.554688 148.050781 242.273438 145.351562 C 243.695312 143.101562 243.769531 142.800781 242.574219 140.851562 C 241.453125 138.976562 241.453125 138.675781 242.796875 137.25 C 243.546875 136.425781 244.820312 135.75 245.566406 135.75 C 246.390625 135.75 247.660156 135.375 248.484375 134.925781 C 249.53125 134.398438 250.730469 134.476562 252.601562 135.148438 C 255.890625 136.351562 258.4375 135.074219 260.53125 131.25 C 263.449219 125.851562 260.308594 109.5 256.265625 109.5 C 255.742188 109.5 254.472656 110.324219 253.347656 111.375 Z M 256.863281 125.851562 C 256.191406 130.425781 254.917969 131.25 251.027344 129.75 C 248.785156 128.925781 249.082031 127.949219 252.898438 123.898438 C 255.816406 120.675781 257.539062 121.574219 256.863281 125.851562 Z M 256.863281 125.851562 "/>
<path style=" stroke:none;fill-rule:nonzero;fill:rgb(0%,0%,0%);fill-opacity:1;" d="M 219.378906 164.398438 C 218.855469 164.925781 218.480469 165.75 218.480469 166.273438 C 218.480469 166.800781 217.808594 168.523438 216.984375 170.023438 C 216.160156 171.601562 215.488281 173.398438 215.488281 174 C 215.488281 175.648438 219.902344 183.824219 221.996094 186.148438 C 223.792969 188.023438 223.792969 189.75 222.074219 189.75 C 220.203125 189.75 216.238281 193.199219 216.238281 194.773438 C 216.238281 196.800781 219.453125 200.699219 222.296875 202.125 C 225.441406 203.773438 230.226562 203.625 231.199219 201.824219 C 233.148438 198.148438 230.902344 191.023438 227.386719 189.824219 C 224.765625 188.925781 224.542969 186.75 226.636719 184.050781 C 227.835938 182.476562 228.058594 181.050781 228.058594 175.273438 C 227.984375 168.675781 227.910156 168.300781 225.738281 165.898438 C 223.34375 163.425781 220.949219 162.824219 219.378906 164.398438 Z M 224.242188 174.75 C 224.242188 179.175781 224.019531 180.75 223.269531 180.75 C 222.074219 180.75 219.230469 176.175781 219.230469 174.074219 C 219.230469 171.824219 221.398438 168.75 222.894531 168.75 C 224.019531 168.75 224.167969 169.648438 224.242188 174.75 Z M 226.5625 193.949219 C 228.582031 195.375 228.730469 198.449219 226.785156 199.5 C 224.839844 200.476562 224.992188 200.550781 222.671875 198.375 C 220.425781 196.273438 220.203125 194.625 222.074219 193.574219 C 223.867188 192.523438 224.617188 192.601562 226.5625 193.949219 Z M 226.5625 193.949219 "/>
<path style=" stroke:none;fill-rule:nonzero;fill:rgb(0%,0%,0%);fill-opacity:1;" d="M 208.605469 208.726562 C 207.484375 209.625 206.0625 211.574219 205.460938 213.074219 C 204.5625 215.175781 203.367188 216.300781 200.074219 217.949219 C 197.753906 219.148438 194.835938 221.023438 193.640625 222.074219 C 191.695312 223.949219 191.546875 224.550781 191.546875 229.351562 C 191.546875 235.726562 192.96875 237.898438 197.832031 239.175781 C 203.066406 240.449219 205.238281 240.226562 208.605469 237.675781 C 210.324219 236.398438 212.046875 235.574219 212.421875 235.800781 C 212.792969 236.023438 213.320312 238.050781 213.617188 240.226562 C 213.917969 242.324219 214.664062 244.726562 215.339844 245.398438 C 217.660156 248.175781 223.195312 246.375 225.890625 242.023438 C 227.757812 238.949219 227.835938 237.226562 226.261719 233.324219 C 225.214844 230.550781 223.417969 229.351562 218.332031 227.699219 C 216.6875 227.175781 216.6875 226.050781 218.183594 220.273438 C 219.605469 214.800781 219.230469 213.148438 215.9375 209.699219 C 213.019531 206.550781 211.449219 206.324219 208.605469 208.726562 Z M 213.84375 218.25 C 213.617188 222.824219 213.320312 223.648438 210.101562 228.074219 C 205.089844 234.898438 205.3125 234.75 201.496094 234.75 C 197.304688 234.75 195.285156 233.175781 195.285156 229.949219 C 195.285156 226.351562 197.082031 224.476562 203.21875 221.550781 C 208.679688 218.925781 210.25 217.425781 210.25 214.574219 C 210.25 213 211.523438 212.25 213.167969 212.851562 C 213.917969 213.148438 214.066406 214.5 213.84375 218.25 Z M 222.074219 234.148438 C 223.34375 235.425781 223.195312 237.824219 221.773438 239.851562 C 220.425781 241.800781 219.753906 241.875 218.183594 240.300781 C 216.609375 238.800781 216.6875 236.324219 218.257812 234.601562 C 219.679688 233.023438 220.800781 232.875 222.074219 234.148438 Z M 222.074219 234.148438 "/>
<path style=" stroke:none;fill-rule:nonzero;fill:rgb(0%,0%,0%);fill-opacity:1;" d="M 152.039062 211.648438 C 150.691406 213 150.992188 217.050781 152.710938 221.023438 C 153.609375 223.050781 154.582031 225.300781 154.882812 226.125 C 158.175781 236.023438 166.703125 244.5 173.289062 244.5 C 175.308594 244.5 175.683594 244.800781 176.058594 246.75 C 176.582031 249.300781 181.144531 254.625 184.210938 256.199219 C 185.785156 257.023438 187.355469 257.175781 189.824219 256.800781 C 194.164062 256.125 196.707031 253.5 196.78125 249.675781 C 196.78125 245.476562 192.96875 242.398438 183.988281 239.476562 C 183.316406 239.324219 181.371094 240 179.648438 241.050781 C 178.003906 242.101562 176.429688 243 176.28125 243 C 176.132812 243 175.757812 241.574219 175.457031 239.773438 C 175.160156 238.050781 173.289062 233.550781 171.269531 229.800781 C 168.5 224.625 166.253906 221.699219 161.765625 217.351562 C 155.554688 211.351562 153.535156 210.148438 152.039062 211.648438 Z M 161.765625 223.574219 C 164.234375 226.351562 169.097656 234.226562 169.097656 235.425781 C 169.097656 235.875 168.648438 236.25 168.125 236.25 C 165.28125 236.25 160.792969 230.476562 158.996094 224.550781 C 157.800781 220.5 158.847656 220.125 161.765625 223.574219 Z M 188.101562 246.148438 C 192.070312 248.023438 192.816406 249.449219 191.097656 251.324219 C 189.226562 253.425781 186.980469 253.050781 183.914062 250.050781 C 180.769531 247.125 180.621094 246.75 181.96875 245.398438 C 183.238281 244.125 184.289062 244.273438 188.101562 246.148438 Z M 188.101562 246.148438 "/>
<path style=" stroke:none;fill-rule:nonzero;fill:rgb(0%,0%,0%);fill-opacity:1;" d="M 230.976562 241.351562 C 227.609375 244.875 228.882812 250.800781 233.820312 254.625 C 236.066406 256.273438 237.039062 256.5 242.351562 256.5 L 248.410156 256.5 L 248.410156 252.75 C 248.410156 249.523438 248.109375 248.699219 245.640625 246.226562 C 238.234375 238.726562 234.644531 237.523438 230.976562 241.351562 Z M 239.804688 246.824219 C 244.144531 250.648438 242.796875 253.875 237.859375 251.398438 C 235.242188 250.125 232.996094 246.601562 233.820312 245.25 C 234.71875 243.824219 237.113281 244.5 239.804688 246.824219 Z M 239.804688 246.824219 "/>
<path style=" stroke:none;fill-rule:nonzero;fill:rgb(0%,0%,0%);fill-opacity:1;" d="M 206.734375 258.449219 C 203.667969 261.148438 201.796875 262.125 198.054688 262.949219 C 194.914062 263.699219 192.59375 264.75 191.46875 265.949219 C 189.898438 267.601562 189.824219 268.050781 190.648438 270.226562 C 191.769531 273.449219 191.769531 279.300781 190.648438 282.523438 C 189.824219 284.851562 189.898438 285.148438 191.769531 287.023438 C 193.640625 288.976562 193.941406 289.050781 196.183594 288.074219 C 200.300781 286.425781 204.414062 285.675781 206.585938 286.125 C 208.53125 286.574219 216.609375 294.449219 220.949219 300.226562 C 224.46875 304.949219 225.738281 304.726562 232.324219 298.199219 C 235.464844 295.050781 238.382812 292.5 238.757812 292.5 C 239.957031 292.5 242.425781 287.699219 242.425781 285.300781 C 242.425781 284.023438 241.902344 281.324219 241.226562 279.300781 C 240.628906 277.273438 239.804688 272.476562 239.507812 268.648438 C 238.90625 261.074219 237.933594 259.273438 234.042969 258.375 C 232.324219 257.925781 231.574219 258.300781 229.628906 260.324219 C 226.9375 263.25 225.363281 262.800781 224.019531 258.675781 C 222.894531 255.375 219.976562 254.101562 217.808594 256.050781 C 216.460938 257.324219 216.160156 257.324219 214.589844 256.199219 C 212.046875 254.398438 211 254.699219 206.734375 258.449219 Z M 214.066406 262.199219 C 214.664062 262.949219 215.714844 263.25 217.058594 262.949219 C 218.855469 262.648438 219.605469 263.101562 222.597656 266.625 C 227.085938 271.949219 229.332031 272.023438 230.828125 267 C 232.023438 263.023438 234.941406 263.476562 235.015625 267.675781 C 235.015625 269.175781 235.539062 272.925781 236.140625 276 C 238.308594 286.875 238.382812 286.199219 235.539062 288.898438 C 230.378906 293.773438 226.414062 297 225.589844 297 C 225.066406 297 222.074219 294.148438 218.855469 290.625 C 209.503906 280.5 206.136719 278.925781 200.226562 281.773438 C 196.257812 283.648438 195.4375 282.523438 195.359375 275.25 C 195.359375 271.351562 195.660156 269.101562 196.257812 268.726562 C 196.707031 268.425781 199.328125 267.449219 202.019531 266.476562 C 204.640625 265.574219 207.632812 263.925781 208.679688 262.875 C 210.847656 260.699219 212.644531 260.476562 214.066406 262.199219 Z M 214.066406 262.199219 "/>
<path style=" stroke:none;fill-rule:nonzero;fill:rgb(0%,0%,0%);fill-opacity:1;" d="M 208.753906 301.574219 C 207.929688 303.523438 208.007812 304.273438 208.980469 306.449219 C 210.550781 309.601562 211.972656 309.675781 214.816406 306.601562 C 217.433594 303.601562 217.507812 303.300781 215.039062 301.050781 C 212.347656 298.5 209.875 298.726562 208.753906 301.574219 Z M 208.753906 301.574219 "/>
</g>
</svg>
