<?xml version="1.0" encoding="UTF-8"?>
<svg xmlns="http://www.w3.org/2000/svg" xmlns:xlink="http://www.w3.org/1999/xlink" width="717pt" height="662pt" viewBox="0 0 717 662" version="1.1">
<g id="surface1">
<path style=" stroke:none;fill-rule:nonzero;fill:rgb(0%,0%,0%);fill-opacity:1;" d="M 36.523438 34.285156 L 33.75 36.234375 L 33.75 76.074219 C 33.601562 384.339844 33.675781 397.921875 35.25 399.046875 C 37.273438 400.472656 37.125 403.472656 34.875 405.574219 C 32.550781 407.75 32.550781 408.199219 34.875 410.972656 L 36.75 413.226562 L 36.75 588.101562 L 38.398438 589.226562 C 39.898438 590.277344 62.476562 590.429688 263.175781 590.429688 C 472.050781 590.429688 486.375 590.503906 487.648438 591.703125 C 489.449219 593.355469 493.800781 593.355469 495.601562 591.703125 C 496.875 590.578125 500.101562 590.429688 531.449219 590.429688 C 560.625 590.429688 566.175781 590.578125 567.449219 591.554688 C 569.324219 592.980469 571.050781 592.980469 572.25 591.554688 C 573.074219 590.578125 577.800781 590.429688 606.375 590.429688 C 634.949219 590.429688 639.675781 590.578125 640.5 591.554688 C 641.699219 592.980469 643.800781 592.980469 645 591.554688 C 645.75 590.652344 647.851562 590.429688 654.824219 590.429688 C 662.773438 590.429688 663.898438 590.277344 665.25 588.929688 L 666.824219 587.351562 L 666.300781 312.246094 L 665.851562 37.136719 L 663.300781 34.660156 L 660.75 32.257812 L 39.375 32.257812 Z M 658.050781 39.460938 C 659.175781 40.511719 659.25 52.589844 659.25 166.699219 C 659.175781 278.785156 659.324219 292.964844 660.375 294.089844 C 661.648438 295.515625 661.875 297.089844 660.75 297.089844 C 659.699219 297.089844 659.773438 299.039062 660.898438 300.839844 C 661.648438 301.964844 661.648438 302.492188 660.898438 303.242188 C 659.851562 304.292969 659.699219 306.84375 660.75 306.84375 C 661.875 306.84375 661.648438 308.417969 660.300781 309.917969 C 659.25 311.042969 659.101562 313.820312 659.101562 329.875 C 659.175781 347.65625 659.25 348.480469 660.675781 349.679688 L 662.25 350.957031 L 660.601562 352.980469 C 659.476562 354.40625 658.949219 356.359375 658.800781 359.132812 C 658.574219 362.660156 658.800781 363.484375 660.375 364.984375 C 661.949219 366.410156 662.25 367.3125 662.25 371.363281 C 662.25 375.113281 661.949219 376.238281 660.675781 377.289062 L 659.175781 378.488281 L 660.675781 380.515625 C 662.175781 382.390625 662.25 383.367188 662.25 405.199219 C 662.25 427.480469 662.25 427.929688 660.601562 429.65625 L 659.023438 431.378906 L 660.601562 433.105469 L 662.25 434.832031 L 662.101562 510.605469 L 661.875 586.300781 L 352.199219 586.527344 C 181.800781 586.601562 42.226562 586.453125 41.925781 586.152344 C 41.625 585.777344 41.175781 501.675781 40.875 399.121094 C 40.351562 214.941406 40.351562 212.6875 38.851562 211.113281 C 37.425781 209.464844 37.425781 209.464844 38.925781 208.039062 C 40.199219 206.835938 40.425781 205.5625 40.574219 200.386719 C 40.648438 195.285156 40.5 193.859375 39.449219 193.183594 C 37.949219 192.058594 37.949219 190.632812 39.375 189.058594 C 40.351562 187.933594 40.5 183.128906 40.5 153.722656 C 40.5 124.085938 40.351562 119.660156 39.375 119.136719 C 37.949219 118.3125 37.949219 115.761719 39.375 114.933594 C 40.425781 114.410156 40.574219 109.832031 40.5 77.5 C 40.5 44.789062 40.574219 40.511719 41.699219 39.460938 C 42.75 38.335938 70.425781 38.261719 349.875 38.261719 C 629.101562 38.261719 657 38.335938 658.050781 39.460938 Z M 658.050781 39.460938 "/>
<path style=" stroke:none;fill-rule:nonzero;fill:rgb(0%,0%,0%);fill-opacity:1;" d="M 186.074219 83.273438 C 185.101562 84.101562 183.601562 84.777344 182.625 84.777344 C 181.726562 84.777344 180.074219 85.449219 179.023438 86.277344 C 177.976562 87.101562 176.324219 87.777344 175.273438 87.777344 C 174 87.777344 171.375 89.503906 167.476562 92.804688 C 164.25 95.652344 159.824219 99.40625 157.726562 101.207031 C 155.324219 103.230469 153.675781 105.332031 153.375 106.683594 C 153.074219 107.808594 152.25 109.15625 151.425781 109.53125 C 150.675781 109.984375 150 111.035156 150 111.785156 C 150 112.609375 149.324219 113.960938 148.5 114.785156 C 147.675781 115.609375 146.550781 117.335938 146.023438 118.6875 C 145.425781 120.035156 143.550781 122.4375 141.824219 124.011719 C 140.175781 125.589844 138.75 127.464844 138.75 128.289062 C 138.75 129.039062 138.074219 130.164062 137.324219 130.691406 C 136.351562 131.363281 136.050781 132.113281 136.5 132.714844 C 137.324219 134.140625 142.425781 130.015625 142.949219 127.464844 C 143.476562 125.0625 151.425781 118.535156 153.824219 118.535156 C 156.375 118.460938 181.648438 96.777344 182.476562 93.851562 C 182.925781 92.578125 185.023438 90.328125 187.949219 88.078125 C 193.351562 83.875 194.175781 81.773438 190.351562 81.773438 C 189 81.851562 187.050781 82.523438 186.074219 83.273438 Z M 186.074219 83.273438 "/>
<path style=" stroke:none;fill-rule:nonzero;fill:rgb(0%,0%,0%);fill-opacity:1;" d="M 499.648438 85.675781 C 498 87.328125 498.75 89.203125 502.5 92.351562 C 504.898438 94.378906 506.25 96.105469 506.25 97.15625 C 506.25 98.203125 507.226562 99.628906 508.726562 100.753906 C 510 101.730469 514.5 105.480469 518.625 109.007812 C 523.351562 113.132812 526.800781 115.535156 527.851562 115.535156 C 528.824219 115.535156 530.476562 116.210938 531.523438 117.035156 C 532.574219 117.859375 534.375 118.535156 535.5 118.535156 C 536.625 118.535156 537.976562 119.0625 538.5 119.660156 C 539.550781 120.9375 542.25 121.238281 542.25 120.035156 C 542.25 119.660156 541.574219 118.984375 540.75 118.535156 C 539.925781 118.085938 539.25 117.109375 539.25 116.285156 C 539.25 115.535156 538.425781 113.882812 537.375 112.683594 C 536.324219 111.410156 535.5 109.984375 535.5 109.382812 C 535.5 108.78125 533.851562 106.683594 531.75 104.808594 C 529.726562 102.929688 528 100.679688 528 99.929688 C 528 98.128906 522.601562 93.777344 520.425781 93.777344 C 519.601562 93.777344 517.199219 92.429688 515.25 90.777344 C 513.226562 89.050781 510.898438 87.777344 509.851562 87.777344 C 508.800781 87.777344 507.226562 87.101562 506.25 86.277344 C 504.300781 84.625 501 84.324219 499.648438 85.675781 Z M 499.648438 85.675781 "/>
<path style=" stroke:none;fill-rule:nonzero;fill:rgb(0%,0%,0%);fill-opacity:1;" d="M 324.976562 88.675781 C 324.675781 89.203125 324.523438 95.652344 324.675781 103.007812 L 324.898438 116.285156 L 322.351562 118.609375 C 321 119.960938 318 122.511719 315.75 124.460938 C 298.800781 138.640625 291.824219 144.945312 291.601562 146.371094 C 291.375 148.09375 290.550781 148.695312 286.875 149.820312 C 285.226562 150.269531 284.550781 151.019531 284.25 152.671875 C 283.949219 154.398438 283.351562 154.996094 281.550781 155.371094 C 278.398438 155.972656 277.726562 156.496094 277.199219 158.746094 C 276.523438 161.449219 273.148438 164.226562 269.773438 164.75 C 267.375 165.199219 266.851562 165.574219 266.476562 167.449219 C 265.949219 170.300781 254.851562 179.828125 251.699219 180.203125 C 250.5 180.28125 249.226562 181.03125 248.925781 181.703125 C 248.550781 182.457031 247.949219 183.65625 247.648438 184.332031 C 247.273438 185.082031 244.648438 187.632812 241.800781 190.109375 C 236.625 194.457031 229.125 200.835938 213.074219 214.488281 C 208.425781 218.464844 203.851562 222.140625 202.949219 222.59375 C 201.824219 223.265625 195.976562 223.566406 181.875 223.566406 C 167.625 223.566406 162.074219 223.792969 161.398438 224.46875 C 160.199219 225.667969 160.125 259.726562 161.25 261.902344 C 162 263.253906 163.050781 263.328125 182.175781 263.328125 C 201.148438 263.328125 202.425781 263.40625 204.226562 264.828125 C 205.273438 265.65625 206.925781 266.332031 207.976562 266.332031 C 210.074219 266.332031 211.050781 267.304688 211.800781 270.082031 C 212.476562 272.558594 223.648438 281.558594 226.648438 282.085938 C 228.449219 282.386719 229.199219 282.984375 229.800781 284.785156 C 230.550781 286.960938 239.625 295.140625 259.125 311.34375 C 262.875 314.421875 266.925781 317.796875 268.125 318.921875 C 271.726562 322.074219 281.25 330.175781 286.125 334.226562 C 288.601562 336.25 292.648438 339.703125 295.125 341.878906 C 297.601562 343.980469 303.523438 349.003906 308.25 352.980469 C 312.976562 357.03125 317.851562 361.085938 318.976562 362.132812 L 321.074219 363.933594 L 321 380.890625 C 320.925781 394.167969 321.074219 397.996094 321.898438 398.445312 C 322.425781 398.820312 333.375 399.121094 346.273438 399.121094 C 366.898438 399.121094 369.75 398.96875 370.875 397.921875 C 371.925781 396.792969 372.074219 394.695312 371.925781 381.640625 L 371.773438 366.5625 L 374.699219 364.085938 C 383.476562 356.507812 388.800781 352.605469 390.226562 352.605469 C 391.800781 352.605469 394.425781 350.507812 414 333.851562 C 419.101562 329.5 425.476562 324.097656 428.175781 321.847656 C 430.875 319.597656 433.800781 317.121094 434.625 316.371094 C 440.175781 311.195312 446.25 306.84375 447.898438 306.84375 C 450.074219 306.84375 451.125 305.792969 451.800781 302.941406 C 452.175781 301.367188 452.773438 300.839844 455.101562 300.464844 C 456.75 300.242188 459 299.039062 460.5 297.613281 C 461.925781 296.265625 465.300781 293.339844 468 291.164062 C 474.148438 286.0625 491.476562 271.355469 492 270.832031 C 492.226562 270.605469 493.5 269.480469 494.851562 268.355469 L 497.398438 266.332031 L 519.375 266.332031 C 532.800781 266.332031 541.574219 266.03125 541.875 265.582031 C 542.550781 264.453125 542.476562 227.992188 541.726562 227.242188 C 541.351562 226.867188 531.824219 226.492188 520.5 226.417969 L 499.875 226.191406 L 499.050781 223.566406 C 498.375 221.542969 497.699219 220.867188 495.824219 220.492188 C 493.273438 219.964844 491.324219 218.617188 482.625 211.113281 C 479.324219 208.261719 473.625 203.386719 469.875 200.308594 C 466.199219 197.234375 462.148438 193.785156 460.875 192.734375 C 459.675781 191.609375 454.726562 187.480469 450 183.429688 C 445.273438 179.378906 438.601562 173.675781 435.148438 170.75 C 431.101562 167.300781 428.023438 165.273438 426.523438 165.050781 C 424.648438 164.75 423.75 164 422.625 161.75 C 420.675781 158.074219 410.175781 149.296875 407.699219 149.296875 C 405.675781 149.296875 404.699219 148.246094 403.949219 145.542969 C 403.726562 144.492188 402.074219 142.542969 400.273438 141.269531 C 398.550781 139.917969 396 137.816406 394.574219 136.542969 C 393.226562 135.339844 391.273438 134.289062 390.375 134.289062 C 388.726562 134.289062 382.800781 130.015625 377.398438 124.988281 L 374.925781 122.660156 L 375.074219 106.007812 C 375.074219 96.855469 374.925781 89.050781 374.625 88.601562 C 373.875 87.328125 325.800781 87.476562 324.976562 88.675781 Z M 369.074219 130.3125 C 372.898438 133.539062 377.25 137.140625 378.75 138.417969 C 380.25 139.617188 383.699219 142.617188 386.398438 144.945312 C 389.398438 147.644531 391.949219 149.296875 393.074219 149.296875 C 395.476562 149.296875 396.375 150.046875 397.273438 152.597656 C 397.800781 154.320312 398.625 154.996094 400.875 155.597656 C 403.199219 156.273438 403.875 156.871094 404.398438 158.746094 C 405.074219 161.296875 409.726562 165.050781 412.273438 165.050781 C 414.449219 165.050781 418.425781 168.726562 419.101562 171.425781 C 419.625 173.226562 420.226562 173.753906 422.324219 174.050781 C 424.949219 174.503906 425.476562 174.953125 450.300781 196.109375 C 455.25 200.234375 461.699219 205.710938 464.625 208.1875 C 467.625 210.664062 474.976562 216.890625 481.050781 221.992188 L 492 231.292969 L 492 244.722656 C 492 259.726562 492.523438 258.152344 485.625 263.929688 C 479.550781 269.03125 460.875 284.859375 453.824219 290.863281 C 449.550781 294.539062 445.949219 297.089844 444.976562 297.089844 C 443.324219 297.089844 436.875 301.964844 425.550781 311.644531 C 422.625 314.195312 417.449219 318.621094 413.925781 321.546875 C 410.476562 324.546875 404.773438 329.347656 401.398438 332.273438 C 397.050781 335.953125 394.5 337.601562 393.148438 337.601562 C 390.824219 337.601562 386.25 341.503906 386.25 343.527344 C 386.25 345.328125 384.75 346.605469 382.5 346.605469 C 381.226562 346.679688 378.226562 348.707031 373.125 352.980469 L 365.699219 359.359375 L 348.523438 359.359375 C 336.976562 359.359375 330.898438 359.058594 329.773438 358.457031 C 328.425781 357.78125 314.773438 346.53125 313.5 345.105469 C 313.273438 344.878906 310.125 342.179688 306.449219 339.101562 C 302.773438 336.027344 297.226562 331.300781 294 328.597656 C 290.851562 325.898438 284.324219 320.347656 279.449219 316.21875 C 274.574219 312.09375 267.976562 306.542969 264.824219 303.839844 C 261.601562 301.140625 254.851562 295.4375 249.75 291.089844 C 244.648438 286.738281 237.375 280.660156 233.625 277.507812 C 228.449219 273.15625 226.574219 271.207031 226.273438 269.40625 C 225.898438 267.679688 225.300781 267.003906 223.726562 266.707031 C 220.648438 266.03125 219.375 265.207031 219.074219 263.628906 C 218.699219 261.378906 217.5 260.328125 215.324219 260.328125 C 211.648438 260.328125 211.5 259.652344 211.5 243.375 L 211.5 228.144531 L 220.574219 220.417969 C 225.601562 216.140625 232.125 210.664062 235.125 208.1875 C 238.050781 205.710938 243 201.511719 246.074219 198.886719 C 249.148438 196.257812 253.351562 192.660156 255.375 190.933594 C 257.476562 189.132812 263.023438 184.40625 267.824219 180.355469 C 272.625 176.226562 280.648438 169.550781 285.675781 165.425781 C 291.976562 160.171875 294.898438 157.324219 295.199219 155.898438 C 295.800781 153.347656 296.773438 152.519531 299.550781 152.144531 C 301.273438 151.996094 301.875 151.394531 302.398438 149.671875 C 302.699219 148.46875 303.523438 147.042969 304.199219 146.519531 C 304.875 145.992188 306.449219 144.644531 307.800781 143.519531 C 309.074219 142.394531 312.148438 139.691406 314.625 137.667969 C 317.101562 135.566406 321.523438 131.816406 324.523438 129.1875 L 330 124.539062 L 362.175781 124.539062 Z M 369.074219 130.3125 "/>
<path style=" stroke:none;fill-rule:nonzero;fill:rgb(0%,0%,0%);fill-opacity:1;" d="M 361.273438 156.574219 C 360.976562 156.796875 360.75 159.347656 360.75 162.199219 C 360.75 167 360.601562 167.375 358.875 168.050781 C 357.601562 168.5 357 169.324219 357 170.527344 C 357 171.5 356.175781 173.078125 355.125 174.050781 C 354.074219 175.027344 353.25 176.378906 353.25 177.054688 C 353.25 177.804688 352.425781 179.230469 351.375 180.355469 C 350.023438 181.78125 349.5 183.207031 349.5 185.230469 C 349.5 187.105469 348.976562 188.53125 348 189.433594 C 347.175781 190.183594 346.351562 191.457031 346.050781 192.359375 C 345.824219 193.183594 344.925781 194.609375 344.175781 195.433594 C 343.125 196.632812 342.75 198.433594 342.523438 203.160156 C 342.300781 208.1875 341.925781 209.6875 340.648438 211.039062 C 339.148438 212.613281 339 213.589844 339 222.292969 C 339 230.542969 338.851562 231.820312 337.800781 231.820312 C 335.699219 231.820312 332.476562 228.894531 332.023438 226.644531 C 331.726562 225.367188 330.824219 224.019531 329.851562 223.492188 C 328.875 222.96875 327.675781 221.992188 327.226562 221.242188 C 325.5 218.839844 314.925781 210.8125 313.5 210.8125 C 310.800781 210.8125 306.375 207.136719 306 204.585938 C 305.699219 202.410156 305.324219 202.109375 302.625 201.8125 C 300.074219 201.511719 299.625 201.136719 299.398438 199.484375 C 299.25 198.359375 298.351562 196.710938 297.300781 195.734375 C 296.023438 194.535156 295.5 193.257812 295.5 191.234375 C 295.5 189.207031 294.898438 187.78125 293.625 186.355469 C 292.050781 184.707031 291.75 183.582031 291.75 180.128906 C 291.75 175.402344 290.925781 174.050781 288 174.050781 C 285.300781 174.050781 284.25 175.328125 284.25 178.628906 C 284.25 180.503906 284.851562 182.003906 286.125 183.355469 L 288 185.382812 L 288 237.296875 L 289.875 239.023438 C 290.925781 239.996094 291.75 241.421875 291.75 242.171875 C 291.75 243.671875 296.324219 248.324219 297.75 248.324219 C 298.199219 248.324219 298.5 249.148438 298.5 250.125 C 298.5 252.527344 300.375 254.328125 302.773438 254.328125 C 303.976562 254.328125 305.925781 255.453125 307.949219 257.328125 C 309.898438 259.054688 311.925781 260.328125 312.976562 260.328125 C 314.023438 260.328125 315.675781 261.003906 316.726562 261.828125 C 318.074219 262.878906 319.726562 263.328125 322.648438 263.328125 C 326.175781 263.328125 327 263.628906 328.949219 265.65625 C 330.148438 266.929688 332.925781 269.332031 335.101562 270.980469 C 338.773438 273.832031 339 274.207031 339 277.285156 C 339 279.757812 339.375 280.734375 340.425781 281.335938 C 341.324219 281.785156 342 283.058594 342.148438 284.5625 C 342.300781 286.585938 342.675781 286.960938 344.25 286.960938 C 346.949219 286.960938 347.175781 284.410156 344.625 282.460938 L 342.675781 280.808594 L 344.550781 278.558594 C 345.824219 276.984375 346.425781 275.484375 346.351562 273.683594 C 346.273438 271.808594 346.800781 270.605469 348.226562 269.105469 C 349.726562 267.679688 350.25 266.40625 350.25 264.378906 C 350.25 262.429688 350.773438 261.152344 352.125 259.878906 C 353.175781 258.902344 354 257.328125 354 256.203125 C 354 255.152344 354.300781 254.328125 354.75 254.328125 C 356.324219 254.328125 360.75 249.601562 360.75 247.875 C 360.75 246.824219 361.5 245.625 362.625 244.875 C 363.675781 244.199219 364.5 242.921875 364.5 242.023438 C 364.5 241.046875 365.773438 239.324219 367.800781 237.597656 C 369.675781 236.097656 371.398438 234.070312 371.699219 233.171875 C 372 232.195312 372.976562 230.46875 373.949219 229.34375 C 375.074219 227.992188 375.75 226.269531 375.75 224.542969 C 375.75 222.816406 376.425781 221.167969 377.625 219.667969 C 379.199219 217.867188 379.425781 216.816406 379.273438 213.289062 C 379.125 209.6875 379.351562 208.9375 380.851562 208.039062 C 382.273438 206.988281 382.5 206.238281 382.5 201.8125 C 382.5 197.382812 382.273438 196.632812 380.851562 195.660156 C 379.5 194.757812 379.199219 193.859375 379.273438 191.382812 C 379.425781 188.832031 379.125 188.082031 377.550781 187.105469 C 375.898438 185.980469 375.75 185.382812 375.75 180.730469 C 375.75 176.078125 375.601562 175.476562 373.875 174.351562 C 372.226562 173.300781 372 172.628906 372 168.574219 L 372 164 L 367.800781 160.023438 C 363.824219 156.195312 362.324219 155.445312 361.273438 156.574219 Z M 367.875 170.902344 C 368.324219 172.328125 369.226562 173.753906 369.976562 174.128906 C 370.949219 174.726562 371.25 175.929688 371.25 179.679688 C 371.25 184.03125 371.476562 184.628906 373.125 185.757812 L 375 186.957031 L 375 201.359375 C 375 215.765625 375 215.839844 373.125 217.566406 C 371.773438 218.839844 371.25 220.117188 371.25 222.066406 C 371.25 223.867188 370.726562 225.292969 369.824219 226.117188 C 369 226.867188 368.101562 228.445312 367.875 229.644531 C 367.574219 230.84375 366.75 232.195312 365.925781 232.570312 C 365.101562 233.019531 364.5 234.144531 364.5 235.195312 C 364.5 236.246094 363.675781 237.820312 362.625 238.722656 C 361.574219 239.621094 360.75 241.121094 360.75 242.023438 C 360.75 243 359.699219 244.425781 358.199219 245.625 C 354.148438 248.625 353.25 249.824219 353.25 251.699219 C 353.25 252.675781 352.5 253.875 351.375 254.625 C 350.25 255.378906 349.5 256.578125 349.5 257.703125 C 349.5 258.976562 348.675781 260.105469 346.726562 261.453125 C 343.425781 263.703125 342.375 263.03125 342.601562 258.976562 C 342.75 256.800781 342.375 255.753906 340.875 254.328125 C 338.476562 252.074219 338.476562 250.574219 340.875 248.023438 C 342.75 246 342.75 245.847656 342.75 232.570312 C 342.75 219.292969 342.75 219.140625 344.625 217.117188 C 346.273438 215.316406 346.5 214.414062 346.5 209.238281 C 346.5 204.285156 346.726562 203.160156 348.074219 201.886719 C 349.050781 200.984375 349.726562 199.261719 349.949219 197.234375 C 350.101562 195.507812 350.851562 193.332031 351.675781 192.507812 C 352.425781 191.609375 353.324219 190.183594 353.550781 189.355469 C 353.851562 188.457031 354.675781 187.179688 355.5 186.429688 C 356.476562 185.53125 357 184.105469 357 182.230469 C 357 180.203125 357.523438 178.777344 358.875 177.355469 C 360.226562 175.851562 360.75 174.503906 360.75 172.175781 C 360.75 168.351562 361.125 167.902344 364.425781 168.199219 C 366.601562 168.425781 367.125 168.800781 367.875 170.902344 Z M 296.101562 200.835938 C 297.523438 201.660156 298.5 203.011719 298.949219 204.738281 C 299.550781 207.136719 299.925781 207.4375 302.625 207.8125 C 305.25 208.113281 305.625 208.488281 305.851562 210.214844 C 306.148438 212.539062 308.476562 214.566406 310.875 214.566406 C 311.699219 214.566406 314.550781 216.515625 317.175781 218.839844 C 320.476562 221.765625 322.726562 223.191406 324.675781 223.492188 C 326.925781 223.867188 327.449219 224.316406 327.601562 226.042969 C 327.75 227.242188 328.648438 228.59375 329.699219 229.269531 C 331.125 230.246094 331.5 231.144531 331.5 233.621094 C 331.5 236.019531 331.949219 237.222656 333.375 238.570312 C 335.175781 240.296875 335.25 240.597656 335.25 251.476562 L 335.25 262.578125 L 337.125 263.480469 C 339.375 264.53125 339.523438 265.28125 337.5 265.804688 C 336.523438 266.03125 335.699219 265.730469 335.25 264.753906 C 334.648438 263.703125 333.601562 263.328125 331.5 263.328125 C 329.324219 263.328125 328.351562 262.953125 327.75 261.828125 C 327.226562 260.855469 326.175781 260.328125 324.824219 260.328125 C 323.625 260.328125 321.824219 259.652344 320.773438 258.828125 C 319.726562 258.003906 318.300781 257.328125 317.476562 257.328125 C 316.726562 257.328125 315.148438 256.652344 313.875 255.828125 C 312.675781 255.003906 310.726562 254.328125 309.601562 254.328125 C 308.25 254.328125 306.824219 253.5 305.476562 252 C 304.273438 250.726562 302.476562 249.226562 301.351562 248.625 C 299.925781 247.875 299.25 246.976562 299.25 245.699219 C 299.25 244.722656 298.425781 243 297.375 241.875 C 295.800781 240.222656 295.5 239.097656 295.5 235.570312 C 295.5 232.046875 295.199219 231.070312 293.625 229.570312 C 291.75 227.84375 291.75 227.769531 291.75 214.191406 C 291.75 206.6875 291.976562 200.308594 292.273438 200.085938 C 293.023438 199.335938 293.699219 199.410156 296.101562 200.835938 Z M 296.101562 200.835938 "/>
<path style=" stroke:none;fill-rule:nonzero;fill:rgb(0%,0%,0%);fill-opacity:1;" d="M 397.726562 215.089844 C 397.125 215.316406 396.75 216.816406 396.75 218.617188 C 396.75 220.867188 396.300781 222.21875 395.25 223.191406 C 393.976562 224.316406 393.75 225.519531 393.75 230.394531 C 393.75 235.421875 393.523438 236.472656 391.949219 238.347656 C 390.976562 239.472656 390 241.199219 389.699219 242.023438 C 389.398438 242.921875 388.574219 244.199219 387.75 244.949219 C 386.925781 245.699219 386.25 246.898438 386.25 247.648438 C 386.25 248.398438 385.425781 249.902344 384.375 251.027344 C 383.324219 252.152344 382.5 253.652344 382.5 254.402344 C 382.5 255.152344 380.25 257.628906 377.476562 259.953125 C 374.476562 262.429688 372 265.207031 371.550781 266.554688 C 370.949219 268.28125 370.050781 269.03125 368.476562 269.40625 C 365.25 270.082031 360.75 273.683594 360.75 275.632812 C 360.75 276.609375 359.324219 278.410156 357 280.433594 C 354.523438 282.609375 353.25 284.261719 353.25 285.386719 C 353.25 286.4375 352.5 287.636719 351.375 288.386719 C 349.5 289.585938 349.5 289.738281 349.5 300.316406 C 349.5 311.417969 349.875 312.84375 352.648438 312.84375 C 354.148438 312.84375 354.449219 315.09375 353.25 317.421875 C 352.050781 319.597656 349.5 318.019531 349.5 315.09375 C 349.5 313.820312 349.199219 312.84375 348.824219 312.84375 C 347.175781 312.84375 345.675781 310.367188 346.125 308.34375 C 346.425781 306.84375 346.125 305.71875 344.625 303.992188 C 343.574219 302.792969 342.75 301.066406 342.75 300.164062 C 342.75 299.339844 341.925781 298.066406 340.875 297.390625 C 339.75 296.714844 339 295.4375 339 294.464844 C 339 292.8125 337.800781 291.539062 331.199219 286.210938 C 329.699219 284.9375 328.199219 282.910156 327.898438 281.710938 C 327.300781 279.609375 327 279.460938 322.648438 279.007812 C 319.199219 278.710938 317.550781 278.109375 316.425781 276.910156 C 315.601562 276.082031 314.023438 275.332031 312.976562 275.332031 C 311.851562 275.332031 310.351562 274.734375 309.523438 274.058594 C 308.476562 273.007812 306.300781 272.632812 300.523438 272.332031 C 294.898438 272.03125 292.351562 271.582031 291 270.605469 C 290.023438 269.929688 288.523438 269.332031 287.699219 269.332031 C 286.875 269.332031 285.675781 268.804688 284.925781 268.132812 C 284.175781 267.457031 282.226562 266.78125 280.574219 266.554688 C 277.949219 266.179688 277.5 265.878906 277.5 264.304688 C 277.5 263.328125 276.675781 261.753906 275.625 260.777344 C 274.574219 259.804688 273.75 258.527344 273.75 257.851562 C 273.75 257.253906 272.925781 255.675781 271.875 254.476562 C 270.601562 252.976562 270 251.324219 270 249.449219 C 270 247.351562 269.476562 246.222656 267.601562 244.5 C 264.226562 241.496094 262.949219 241.875 262.648438 246.074219 C 262.5 248.925781 262.726562 249.824219 264.375 251.324219 C 266.175781 253.050781 266.25 253.425781 266.25 262.128906 C 266.25 270.15625 266.398438 271.28125 267.75 272.707031 C 268.949219 273.984375 269.324219 275.558594 269.476562 279.085938 C 269.625 282.984375 270 284.035156 271.351562 284.9375 C 272.625 285.761719 273 286.738281 273 289.289062 C 273 291.914062 273.375 292.8125 274.875 293.789062 C 276 294.464844 276.75 295.738281 276.75 296.714844 C 276.75 297.765625 277.949219 299.414062 279.976562 301.140625 C 281.699219 302.566406 283.875 304.59375 284.851562 305.492188 C 287.476562 307.96875 290.476562 309.84375 291.976562 309.84375 C 292.800781 309.84375 294.226562 310.519531 295.273438 311.34375 C 298.050781 313.519531 306.675781 313.445312 310.199219 311.269531 C 312.523438 309.84375 313.648438 309.769531 323.476562 309.992188 L 334.199219 310.21875 L 338.476562 313.894531 C 340.949219 316.070312 342.75 318.246094 342.75 319.070312 C 342.75 319.898438 343.574219 321.320312 344.550781 322.222656 C 346.273438 323.796875 346.273438 324.097656 345.898438 332.875 L 345.523438 341.953125 L 347.550781 343.230469 C 349.125 344.277344 349.5 345.105469 349.5 347.730469 C 349.5 351.480469 351.074219 353.355469 352.875 351.855469 C 354.675781 350.355469 354.300781 346.078125 352.125 344.054688 C 350.398438 342.476562 350.25 341.726562 350.25 336.101562 C 350.25 331.226562 350.550781 329.5 351.523438 328.449219 C 352.273438 327.625 353.175781 326.046875 353.625 324.921875 C 354.75 321.847656 368.851562 309.917969 371.398438 309.84375 C 373.800781 309.84375 393.226562 293.714844 393.601562 291.464844 C 393.75 290.636719 394.5 289.289062 395.25 288.460938 C 396 287.636719 397.125 285.6875 397.800781 284.109375 C 398.398438 282.609375 399.226562 281.335938 399.601562 281.335938 C 400.050781 281.335938 400.574219 280.433594 400.875 279.234375 C 401.101562 278.109375 402 276.457031 402.824219 275.632812 C 404.101562 274.28125 404.324219 272.78125 404.550781 266.40625 C 404.773438 259.804688 405 258.527344 406.425781 257.101562 C 408.449219 254.851562 408.449219 252.527344 406.425781 251.175781 C 404.925781 250.199219 404.773438 249.375 404.550781 238.945312 C 404.25 228.292969 404.175781 227.617188 402.601562 226.417969 C 401.101562 225.292969 400.949219 224.617188 401.101562 220.492188 C 401.398438 215.238281 400.5 213.890625 397.726562 215.089844 Z M 400.125 237.070312 C 400.425781 237.523438 400.574219 244.722656 400.5 253.050781 C 400.5 267.378906 400.351562 268.28125 398.925781 269.40625 C 397.949219 270.082031 397.273438 271.730469 396.976562 273.90625 C 396.75 275.707031 396 277.882812 395.25 278.710938 C 394.5 279.535156 393.675781 280.960938 393.375 281.933594 C 393.148438 282.835938 391.425781 285.011719 389.550781 286.738281 C 387.75 288.460938 386.25 290.414062 386.25 291.164062 C 386.25 292.964844 374.699219 302.792969 371.925781 303.390625 C 370.726562 303.617188 367.199219 305.867188 364.125 308.34375 C 360.074219 311.492188 357.75 312.84375 356.175781 312.84375 L 354 312.84375 L 354 289.136719 L 360.75 283.511719 C 365.175781 279.910156 367.726562 277.285156 367.949219 276.007812 C 368.398438 274.058594 369.074219 273.382812 380.101562 264.003906 C 383.476562 261.078125 386.25 258.078125 386.25 257.402344 C 386.25 256.652344 387.074219 255.300781 388.125 254.328125 C 389.175781 253.351562 390 252 390 251.324219 C 390 250.574219 390.824219 249.148438 391.875 248.023438 C 392.925781 246.898438 393.75 245.398438 393.75 244.648438 C 393.75 243.898438 394.273438 242.847656 394.949219 242.324219 C 395.550781 241.722656 396.523438 240.222656 397.125 238.796875 C 398.175781 236.320312 399.300781 235.644531 400.125 237.070312 Z M 278.773438 269.257812 C 280.273438 271.058594 282.226562 272.40625 283.726562 272.78125 C 285 273.007812 287.324219 273.90625 288.75 274.65625 C 290.175781 275.484375 292.726562 276.082031 294.375 276.082031 C 296.175781 276.082031 298.125 276.683594 299.25 277.582031 C 300.824219 278.785156 302.324219 279.085938 308.550781 279.085938 L 315.976562 279.085938 L 319.199219 282.085938 C 321.375 284.035156 323.175781 285.085938 324.523438 285.085938 C 326.851562 285.085938 331.5 289.136719 331.5 291.164062 C 331.5 291.914062 333.148438 293.9375 335.25 295.738281 C 338.699219 298.742188 339 299.191406 339 302.339844 C 339 304.96875 339.375 305.941406 340.574219 306.691406 C 341.773438 307.441406 341.925781 307.96875 341.324219 308.566406 C 340.726562 309.167969 340.125 308.941406 338.925781 307.894531 C 337.425781 306.542969 336 306.46875 315.449219 306.46875 C 293.925781 306.46875 293.550781 306.46875 291.449219 304.742188 C 290.25 303.839844 288.375 303.089844 287.175781 303.089844 C 285.523438 303.089844 285 302.714844 284.625 300.839844 C 284.324219 299.414062 282.824219 297.464844 280.800781 295.8125 C 277.574219 293.113281 277.5 292.886719 277.5 288.539062 C 277.5 284.859375 277.199219 283.734375 275.699219 282.160156 C 274.199219 280.507812 273.898438 279.160156 273.523438 273.984375 C 273.226562 268.804688 273.300781 267.679688 274.351562 267.082031 C 276.148438 266.105469 275.925781 266.03125 278.773438 269.257812 Z M 278.773438 269.257812 "/>
<path style=" stroke:none;fill-rule:nonzero;fill:rgb(0%,0%,0%);fill-opacity:1;" d="M 141.75 99.105469 C 140.699219 100.003906 137.851562 102.40625 135.449219 104.582031 C 133.050781 106.683594 130.425781 108.859375 129.675781 109.382812 C 128.851562 109.910156 128.25 111.035156 128.25 111.859375 C 128.25 112.683594 126.601562 114.859375 124.5 116.808594 L 120.75 120.261719 L 120.75 129.414062 C 120.75 138.191406 120.675781 138.566406 118.875 140.292969 L 117 142.019531 L 117 173.152344 L 115.050781 174.425781 C 111.226562 176.902344 110.023438 178.703125 109.648438 182.457031 C 109.351562 185.757812 109.425781 186.054688 110.925781 186.054688 C 112.050781 186.054688 112.800781 185.230469 113.699219 183.128906 C 114.300781 181.480469 115.351562 179.980469 115.875 179.753906 C 116.476562 179.527344 117.148438 178.179688 117.375 176.753906 C 117.75 175.101562 118.425781 173.902344 119.324219 173.675781 C 120.75 173.226562 120.976562 172.328125 120.824219 168.800781 C 120.75 167.601562 121.425781 166.175781 122.550781 165.050781 C 123.675781 164.074219 124.5 162.5 124.5 161.597656 C 124.5 159.722656 129.898438 155.296875 132.226562 155.296875 C 133.050781 155.296875 135.300781 153.945312 137.25 152.296875 C 139.351562 150.570312 141.601562 149.296875 142.726562 149.296875 C 143.699219 149.296875 145.425781 148.621094 146.476562 147.792969 C 147.523438 146.96875 149.175781 146.292969 150.148438 146.292969 C 152.550781 146.21875 171.300781 130.164062 171.601562 127.839844 C 171.75 126.9375 173.324219 124.914062 175.199219 123.335938 C 177 121.761719 178.5 120.1875 178.5 119.886719 C 178.5 118.835938 175.726562 119.210938 174.75 120.410156 C 174.226562 121.011719 172.949219 121.535156 171.976562 121.535156 C 170.851562 121.535156 168.074219 123.261719 164.699219 126.039062 C 161.699219 128.515625 158.550781 130.539062 157.726562 130.539062 C 156.898438 130.539062 155.324219 131.214844 154.273438 132.039062 C 153.226562 132.863281 151.273438 133.765625 149.851562 134.066406 C 148.5 134.289062 145.800781 135.792969 143.925781 137.441406 C 139.425781 141.117188 137.101562 141.191406 133.800781 137.589844 C 130.574219 134.214844 130.351562 130.914062 133.125 128.289062 C 134.476562 127.011719 135 125.738281 135 123.636719 C 135 121.460938 135.523438 120.261719 136.875 118.984375 C 138.449219 117.484375 138.75 116.585938 138.75 112.683594 C 138.75 108.183594 138.75 108.109375 142.574219 104.808594 C 145.5 102.257812 146.324219 101.054688 146.101562 99.707031 C 145.800781 97.378906 144.074219 97.15625 141.75 99.105469 Z M 141.75 99.105469 "/>
<path style=" stroke:none;fill-rule:nonzero;fill:rgb(0%,0%,0%);fill-opacity:1;" d="M 543.675781 100.980469 C 542.851562 101.957031 542.925781 102.332031 544.273438 103.382812 C 545.101562 104.132812 546 105.558594 546.300781 106.683594 C 546.523438 107.808594 547.425781 109.082031 548.25 109.53125 C 549.074219 109.984375 549.75 111.109375 549.75 112.082031 C 549.75 112.984375 550.574219 114.558594 551.625 115.535156 C 553.199219 117.035156 553.5 118.011719 553.5 121.6875 C 553.5 125.4375 553.800781 126.261719 555.375 127.6875 C 556.949219 129.039062 557.25 130.015625 557.25 133.316406 C 557.25 136.765625 557.476562 137.292969 558.75 137.292969 C 559.574219 137.292969 560.25 137.816406 560.25 138.417969 C 560.25 139.015625 559.574219 139.542969 558.75 139.542969 C 557.925781 139.542969 557.25 139.015625 557.25 138.417969 C 557.25 137.816406 556.574219 137.292969 555.75 137.292969 C 553.949219 137.292969 553.726562 139.390625 555.523438 140.066406 C 557.324219 140.742188 560.925781 144.945312 561 146.371094 C 561 147.042969 560.550781 148.019531 559.949219 148.46875 C 558.824219 149.371094 557.25 148.394531 551.476562 143.144531 C 549.675781 141.492188 547.5 140.292969 546.523438 140.292969 C 545.476562 140.292969 543 138.941406 540.898438 137.292969 C 538.875 135.640625 536.324219 134.289062 535.351562 134.289062 C 534.300781 134.289062 532.875 133.617188 532.125 132.789062 C 531.375 131.964844 529.574219 131.140625 528.074219 130.839844 C 526.574219 130.613281 524.175781 129.265625 522.75 127.988281 C 517.351562 123.039062 512.398438 119.285156 511.199219 119.285156 C 509.550781 119.285156 509.699219 120.5625 511.5 121.6875 C 512.324219 122.210938 513 123.261719 513 124.011719 C 513 125.664062 515.773438 128.515625 524.625 135.792969 C 528.375 138.867188 531.523438 141.566406 531.75 141.792969 C 533.625 143.820312 537.449219 146.292969 538.800781 146.292969 C 539.773438 146.292969 542.25 147.644531 544.351562 149.296875 C 546.375 150.945312 548.925781 152.296875 549.898438 152.296875 C 550.949219 152.296875 552.375 152.894531 553.050781 153.722656 C 553.726562 154.472656 555.675781 155.296875 557.324219 155.597656 C 559.875 155.972656 560.324219 156.347656 560.773438 158.371094 C 561.074219 160.097656 562.648438 161.898438 566.324219 164.898438 C 571.125 168.875 571.5 169.324219 571.5 172.101562 C 571.5 174.652344 571.949219 175.554688 574.199219 177.578125 C 577.726562 180.65625 579.824219 180.128906 577.050781 176.902344 C 575.625 175.179688 575.324219 174.050781 575.625 172.550781 C 576 170.902344 575.625 170 573.824219 168.125 L 571.5 165.726562 L 571.5 135.339844 L 569.625 133.691406 C 568.199219 132.414062 567.75 131.363281 567.898438 129.1875 C 567.976562 127.011719 567.523438 125.886719 565.949219 124.3125 C 564.300781 122.660156 564 121.835938 564.375 120.035156 C 564.75 118.234375 564.449219 117.484375 562.949219 116.058594 C 561.898438 115.007812 561 113.734375 561 113.210938 C 561 111.332031 558.976562 109.082031 553.050781 104.355469 C 547.199219 99.628906 545.398438 98.953125 543.675781 100.980469 Z M 543.675781 100.980469 "/>
<path style=" stroke:none;fill-rule:nonzero;fill:rgb(0%,0%,0%);fill-opacity:1;" d="M 102.75 136.167969 C 102.375 137.214844 102 138.417969 102 138.792969 C 102 139.167969 101.324219 139.84375 100.5 140.292969 C 99.675781 140.742188 99 141.71875 99 142.542969 C 99 143.292969 98.175781 144.945312 97.125 146.144531 C 96.074219 147.417969 95.25 148.996094 95.25 149.671875 C 95.25 150.421875 94.425781 151.769531 93.375 152.746094 C 91.648438 154.398438 91.5 154.921875 91.5 161.898438 C 91.5 168.800781 91.351562 169.402344 89.625 171.050781 C 87.375 173.226562 87.300781 174.578125 89.324219 176.753906 C 90.824219 178.328125 90.824219 178.480469 89.550781 180.429688 C 88.351562 182.304688 88.351562 182.457031 89.925781 183.503906 C 91.273438 184.480469 91.5 185.382812 91.5 189.355469 C 91.5 193.410156 91.726562 194.234375 93.375 195.660156 C 94.425781 196.558594 95.25 197.910156 95.25 198.660156 C 95.25 199.410156 96.074219 200.835938 97.125 201.8125 C 98.550781 203.085938 99 204.363281 99 206.539062 C 99 208.636719 99.449219 209.988281 100.726562 211.113281 C 102.375 212.6875 102.449219 212.914062 102.375 231.445312 L 102.375 250.199219 L 100.726562 250.425781 C 98.851562 250.726562 98.773438 250.652344 99 242.625 C 99.074219 238.648438 98.851562 237.746094 97.199219 235.945312 C 95.699219 234.371094 95.25 233.019531 95.25 230.621094 C 95.25 228.144531 94.875 227.167969 93.75 226.570312 C 92.925781 226.117188 92.023438 224.84375 91.800781 223.71875 C 91.5 222.59375 90.449219 220.941406 89.476562 220.042969 C 88.574219 219.140625 87.75 217.714844 87.75 216.964844 C 87.75 216.214844 87.074219 214.941406 86.25 214.191406 C 85.425781 213.441406 84.75 212.238281 84.75 211.488281 C 84.75 210.738281 83.925781 209.238281 82.875 208.113281 C 81.375 206.460938 81 205.335938 81 202.109375 C 81 199.933594 80.773438 197.683594 80.550781 197.007812 C 80.023438 195.585938 78.300781 195.433594 77.550781 196.710938 C 77.25 197.234375 77.101562 204.363281 77.175781 212.613281 C 77.324219 227.46875 77.398438 227.695312 79.199219 229.644531 C 80.773438 231.292969 81 232.195312 81 237.523438 C 81 243 81.148438 243.75 82.875 245.324219 C 83.925781 246.300781 84.75 247.648438 84.75 248.324219 C 84.75 249 85.425781 250.199219 86.25 250.949219 C 87.074219 251.699219 87.75 252.976562 87.75 253.726562 C 87.75 254.476562 88.574219 255.902344 89.476562 256.800781 C 90.449219 257.703125 91.5 259.351562 91.726562 260.480469 C 92.023438 261.605469 93.75 263.703125 95.625 265.28125 C 97.726562 266.929688 99 268.65625 99 269.632812 C 99 271.132812 107.25 279.085938 108.824219 279.085938 C 109.199219 279.085938 109.5 280.734375 109.5 282.835938 C 109.5 285.988281 109.800781 286.738281 111.375 287.785156 C 112.800781 288.6875 113.25 289.664062 113.25 291.761719 C 113.25 293.5625 113.925781 295.4375 115.125 297.089844 C 116.175781 298.515625 117 300.015625 117 300.464844 C 117 301.742188 118.574219 303.015625 119.699219 302.566406 C 121.351562 301.964844 121.050781 296.113281 119.324219 294.539062 C 118.574219 293.863281 117.75 292.289062 117.523438 291.089844 C 117.226562 289.886719 116.398438 288.761719 115.574219 288.460938 C 114.375 288.085938 114 287.261719 113.851562 284.109375 C 113.699219 280.886719 113.324219 280.058594 111.976562 279.460938 C 109.800781 278.558594 109.800781 277.734375 111.898438 275.558594 C 113.023438 274.28125 113.476562 273.007812 113.398438 271.207031 C 113.25 269.179688 113.699219 268.132812 115.125 266.78125 C 116.550781 265.503906 117 264.304688 117 262.054688 C 117 259.878906 117.449219 258.601562 118.875 257.328125 C 119.925781 256.351562 120.75 255.003906 120.75 254.328125 C 120.75 253.578125 121.574219 252.152344 122.625 251.027344 C 123.675781 249.902344 124.5 248.398438 124.5 247.648438 C 124.5 246.976562 125.324219 245.625 126.375 244.722656 C 127.425781 243.824219 128.25 242.472656 128.25 241.722656 C 128.25 240.972656 129.148438 239.546875 130.199219 238.496094 C 132 236.847656 132.148438 236.320312 131.773438 232.644531 C 131.398438 229.042969 131.550781 228.519531 133.351562 226.792969 C 135.300781 224.992188 135.375 224.691406 135.148438 218.015625 C 134.925781 211.339844 134.925781 211.113281 137.175781 208.261719 C 139.875 204.886719 140.023438 203.6875 138.148438 202.636719 C 136.351562 201.660156 132.300781 205.035156 131.550781 208.039062 C 131.324219 209.238281 130.425781 210.589844 129.675781 211.039062 C 128.851562 211.5625 128.25 212.6875 128.25 213.589844 C 128.25 215.089844 124.574219 219.214844 121.800781 220.792969 C 121.199219 221.089844 120.75 222.21875 120.75 223.191406 C 120.75 224.394531 119.550781 225.96875 117 228.144531 C 114.601562 230.167969 113.25 231.894531 113.25 232.945312 C 113.25 233.84375 112.574219 235.195312 111.75 235.945312 C 110.625 236.996094 110.25 238.273438 110.25 241.273438 C 110.25 243.449219 110.023438 245.699219 109.800781 246.375 C 109.273438 247.726562 107.550781 247.949219 106.875 246.824219 C 106.574219 246.375 106.425781 239.847656 106.5 232.34375 C 106.574219 220.117188 106.726562 218.542969 108 217.191406 C 108.75 216.367188 109.648438 214.863281 109.875 213.816406 C 110.175781 212.6875 113.324219 209.464844 117.449219 206.085938 C 122.324219 202.035156 124.5 199.636719 124.5 198.585938 C 124.5 197.460938 126.300781 195.507812 129.675781 192.660156 C 132.898438 190.03125 135 187.632812 135.300781 186.355469 C 135.601562 185.15625 136.5 183.804688 137.324219 183.207031 C 138.074219 182.679688 138.75 181.554688 138.75 180.730469 C 138.75 179.90625 140.398438 177.730469 142.5 175.777344 C 145.875 172.628906 146.25 172.027344 146.25 169.101562 C 146.25 166.625 146.625 165.648438 147.75 165.050781 C 148.574219 164.601562 149.25 163.773438 149.25 163.175781 C 149.25 161.675781 147.074219 161.75 146.550781 163.175781 C 146.25 163.773438 144.75 164.523438 143.101562 164.75 C 141.449219 165.050781 139.726562 165.648438 139.273438 166.101562 C 138.75 166.550781 135.375 169.476562 131.625 172.550781 C 127.949219 175.628906 123.601562 179.304688 122.023438 180.730469 C 120.449219 182.15625 118.5 183.878906 117.601562 184.480469 C 116.773438 185.15625 115.199219 186.429688 114.226562 187.332031 C 112.125 189.355469 111.300781 189.507812 110.398438 187.855469 C 110.023438 187.179688 109.050781 186.804688 108.300781 186.957031 C 107.175781 187.105469 106.800781 188.007812 106.5 190.933594 C 106.199219 193.859375 105.824219 194.757812 104.699219 194.910156 C 102.449219 195.359375 101.925781 193.558594 102.449219 187.558594 C 102.824219 183.207031 103.351562 181.480469 104.699219 179.828125 C 107.101562 176.976562 107.101562 173.378906 104.625 171.050781 C 102.75 169.324219 102.75 169.101562 102.75 157.171875 C 102.75 145.167969 102.75 145.019531 104.625 143.292969 C 106.273438 141.792969 106.5 140.890625 106.351562 138.042969 C 106.050781 133.992188 104.023438 132.863281 102.75 136.167969 Z M 102.75 136.167969 "/>
<path style=" stroke:none;fill-rule:nonzero;fill:rgb(0%,0%,0%);fill-opacity:1;" d="M 582.898438 138.191406 C 581.476562 139.617188 581.851562 140.96875 584.023438 142.992188 L 586.050781 144.867188 L 586.351562 161.523438 L 586.648438 178.179688 L 584.699219 179.980469 C 583.648438 181.03125 582.75 182.457031 582.75 183.128906 C 582.75 183.878906 582.074219 185.15625 581.175781 185.90625 C 580.351562 186.730469 579.375 188.308594 579.074219 189.507812 C 578.324219 192.507812 576.074219 192.359375 574.949219 189.28125 C 574.425781 187.855469 571.726562 184.929688 567.75 181.554688 C 564.226562 178.554688 559.273438 174.351562 556.648438 172.101562 C 553.949219 169.851562 551.175781 168.050781 550.199219 168.050781 C 548.476562 168.050781 542.25 163.925781 542.25 162.722656 C 542.25 162.347656 541.574219 162.050781 540.75 162.050781 C 539.925781 162.050781 539.25 162.574219 539.25 163.175781 C 539.25 163.773438 539.925781 164.601562 540.75 165.050781 C 541.875 165.648438 542.25 166.625 542.25 168.875 C 542.25 171.5 542.699219 172.253906 546 175.328125 C 548.101562 177.203125 549.75 179.378906 549.75 180.203125 C 549.75 180.953125 550.574219 182.304688 551.625 183.207031 C 552.675781 184.105469 553.5 185.53125 553.5 186.355469 C 553.5 187.332031 555 189.207031 557.25 191.15625 C 559.726562 193.332031 561 194.984375 561 196.109375 C 561 198.136719 565.726562 201.8125 568.273438 201.8125 C 569.550781 201.8125 573.148438 204.136719 575.25 206.3125 C 575.476562 206.539062 577.875 208.636719 580.648438 211.039062 C 585.375 215.089844 585.675781 215.539062 585.898438 218.917969 C 586.125 222.140625 586.273438 222.441406 588 222.441406 C 589.875 222.441406 589.875 222.367188 589.875 215.765625 C 589.875 209.6875 590.023438 209.011719 591.601562 208.039062 C 592.5 207.363281 593.25 206.238281 593.25 205.410156 C 593.25 204.660156 594.074219 203.160156 595.125 202.109375 C 596.476562 200.761719 597 199.410156 597 197.234375 C 597 195.058594 597.449219 193.859375 598.875 192.660156 C 600.75 191.082031 600.75 190.933594 600.75 178.480469 L 600.75 165.949219 L 598.875 164.75 C 597.375 163.773438 597 162.875 597 160.324219 C 597 157.773438 596.550781 156.722656 595.125 155.445312 C 594.074219 154.546875 593.25 153.046875 593.25 152.070312 C 593.25 151.171875 592.574219 149.96875 591.75 149.445312 C 590.625 148.769531 590.25 147.71875 590.25 145.46875 C 590.25 142.992188 589.800781 141.941406 587.699219 139.84375 C 584.925781 137.066406 584.25 136.839844 582.898438 138.191406 Z M 582.898438 138.191406 "/>
<path style=" stroke:none;fill-rule:nonzero;fill:rgb(0%,0%,0%);fill-opacity:1;" d="M 612.148438 196.710938 C 611.625 197.234375 611.25 198.285156 611.25 199.183594 C 611.25 200.011719 610.574219 201.136719 609.75 201.660156 C 608.476562 202.410156 608.25 203.386719 608.25 207.289062 C 608.25 211.414062 608.023438 212.3125 606.375 213.816406 C 605.324219 214.789062 604.5 216.214844 604.5 216.964844 C 604.5 217.789062 603.675781 219.140625 602.625 220.117188 C 601.574219 221.089844 600.75 222.515625 600.75 223.34375 C 600.75 224.167969 599.925781 225.59375 598.875 226.570312 C 597.449219 227.84375 597 229.121094 597 231.292969 C 597 233.546875 596.550781 234.746094 595.125 236.019531 C 594.074219 236.996094 593.25 238.347656 593.25 239.171875 C 593.25 239.921875 592.199219 241.496094 591 242.699219 C 589.125 244.5 588.449219 244.722656 587.398438 244.046875 C 586.425781 243.449219 586.199219 242.398438 586.351562 239.097656 C 586.574219 235.347656 586.425781 234.671875 584.699219 233.09375 C 583.648438 232.046875 582.75 230.769531 582.75 230.09375 C 582.75 229.496094 581.925781 227.917969 580.875 226.71875 C 579.824219 225.441406 579 223.792969 579 222.96875 C 579 221.167969 574.125 217.265625 572.625 217.867188 C 571.648438 218.164062 571.5 221.316406 571.5 236.996094 L 571.5 255.753906 L 573.375 257.175781 C 574.800781 258.304688 575.25 259.351562 575.25 261.605469 C 575.25 263.78125 575.773438 265.054688 577.125 266.332031 C 578.699219 267.832031 579 268.730469 579 272.707031 C 579 276.832031 579.226562 277.507812 581.175781 279.382812 C 583.875 281.933594 586.050781 281.710938 586.351562 278.859375 C 586.574219 277.285156 588.226562 275.484375 593.324219 271.355469 C 597.75 267.757812 600.148438 265.28125 600.449219 263.929688 C 600.675781 262.804688 601.726562 261.152344 602.699219 260.253906 C 603.675781 259.351562 604.5 258.003906 604.5 257.328125 C 604.5 256.578125 605.324219 255.152344 606.375 254.027344 C 607.648438 252.601562 608.25 251.175781 608.25 249.148438 C 608.25 247.125 608.773438 245.847656 610.199219 244.5 L 612.074219 242.699219 L 611.925781 229.417969 C 611.773438 216.890625 611.851562 215.914062 613.273438 214.339844 C 614.550781 212.988281 614.851562 211.265625 615.226562 205.113281 C 615.523438 199.859375 615.375 197.234375 614.773438 196.632812 C 613.726562 195.585938 613.273438 195.585938 612.148438 196.710938 Z M 612.148438 196.710938 "/>
<path style=" stroke:none;fill-rule:nonzero;fill:rgb(0%,0%,0%);fill-opacity:1;" d="M 135.898438 255.226562 C 135.375 255.753906 135 256.578125 135 257.175781 C 135 257.777344 134.175781 259.203125 133.125 260.402344 C 131.773438 262.054688 131.398438 263.179688 131.699219 264.828125 C 132.074219 266.480469 131.699219 267.378906 130.199219 268.957031 C 128.398438 270.757812 128.25 271.433594 128.25 276.910156 C 128.25 282.308594 128.101562 283.058594 126.375 284.636719 C 124.574219 286.285156 124.5 286.738281 124.5 295.515625 C 124.5 304.667969 124.5 304.742188 122.324219 306.917969 C 121.125 308.117188 119.625 309.09375 118.949219 309.09375 C 117.375 309.09375 113.25 304.96875 113.25 303.390625 C 113.25 302.714844 112.425781 301.214844 111.375 299.941406 C 110.324219 298.742188 109.5 297.238281 109.5 296.714844 C 109.5 296.113281 105.523438 292.289062 100.726562 288.085938 C 94.574219 282.835938 91.726562 279.910156 91.5 278.558594 C 91.199219 277.058594 90.523438 276.382812 88.5 275.859375 C 85.050781 274.957031 81 271.882812 81 270.082031 C 81 269.332031 80.175781 267.757812 79.199219 266.554688 C 78.226562 265.429688 77.324219 263.78125 77.175781 262.953125 C 76.949219 262.054688 76.125 261.378906 75.148438 261.230469 C 73.648438 261.003906 73.5 261.304688 73.5 264.679688 C 73.5 267.605469 73.875 268.582031 75.375 269.929688 C 76.800781 271.132812 77.25 272.332031 77.25 274.433594 C 77.25 276.535156 77.773438 277.808594 79.125 279.085938 C 80.550781 280.359375 81 281.636719 81 283.8125 C 81 286.0625 81.449219 287.261719 82.875 288.539062 C 83.925781 289.511719 84.75 290.9375 84.75 291.6875 C 84.75 292.4375 85.425781 293.714844 86.25 294.464844 C 87.074219 295.214844 87.75 296.265625 87.75 296.714844 C 87.75 297.238281 88.5 298.589844 89.476562 299.789062 C 90.375 300.914062 91.5 302.792969 91.875 303.917969 C 92.324219 305.117188 97.050781 309.695312 103.199219 314.871094 C 108.976562 319.746094 115.574219 325.296875 117.824219 327.175781 C 120.074219 329.050781 123 330.851562 124.351562 331.074219 C 125.925781 331.375 129.675781 334.074219 135.449219 339.101562 C 142.425781 345.179688 144.375 346.453125 145.199219 345.78125 C 146.925781 344.355469 146.398438 342.253906 143.851562 340.078125 C 138.226562 335.203125 138.75 337.902344 138.75 311.34375 C 138.75 288.3125 138.824219 287.261719 140.25 285.835938 C 142.199219 283.886719 142.125 282.386719 140.175781 281.261719 C 138.601562 280.433594 138.601562 280.058594 138.824219 268.355469 C 139.125 254.925781 138.601562 252.527344 135.898438 255.226562 Z M 135.898438 255.226562 "/>
<path style=" stroke:none;fill-rule:nonzero;fill:rgb(0%,0%,0%);fill-opacity:1;" d="M 615.523438 264.605469 C 615.226562 264.828125 615 265.804688 615 266.628906 C 615 267.757812 611.773438 270.980469 604.5 277.207031 C 597.75 282.984375 593.773438 286.886719 593.398438 288.160156 C 593.101562 289.289062 590.773438 291.914062 588.148438 294.089844 C 584.925781 296.789062 583.273438 298.742188 582.976562 300.242188 C 582.75 301.441406 582 302.640625 581.324219 302.941406 C 580.648438 303.167969 579.675781 303.992188 579.148438 304.742188 C 577.949219 306.390625 576.300781 306.46875 575.699219 304.890625 C 575.023438 303.242188 575.101562 303.242188 576.976562 302.941406 C 578.773438 302.714844 579.449219 300.464844 578.324219 298.664062 C 577.199219 296.941406 575.25 298.289062 575.25 300.765625 C 575.25 302.265625 574.648438 303.316406 573.375 304.140625 C 571.050781 305.640625 571.050781 306.617188 573.074219 308.792969 C 575.023438 310.894531 574.5 312.84375 571.949219 312.84375 C 568.050781 312.84375 567.675781 311.492188 567.824219 298.363281 C 567.898438 286.660156 567.824219 286.285156 566.175781 285.011719 C 564.898438 284.035156 564.449219 282.910156 564.375 280.285156 C 564.226562 277.734375 563.773438 276.535156 562.425781 275.484375 C 561.074219 274.359375 560.699219 273.382812 560.851562 271.355469 C 561.074219 267.757812 559.5 266.332031 555.074219 266.332031 C 553.125 266.332031 551.175781 266.707031 550.648438 267.230469 C 550.125 267.757812 549.75 270.53125 549.75 274.359375 C 549.75 279.757812 549.898438 280.660156 551.25 281.335938 C 553.050781 282.308594 553.125 283.4375 551.476562 285.234375 C 550.351562 286.511719 550.351562 286.738281 551.851562 288.3125 C 553.425781 289.960938 553.5 290.789062 553.5 302.042969 C 553.5 313.894531 553.5 314.121094 555.375 315.84375 C 556.949219 317.347656 557.25 318.320312 557.25 321.996094 C 557.25 325.75 556.949219 326.574219 555.375 328 C 553.726562 329.425781 553.5 330.175781 553.5 334.824219 C 553.5 339.402344 553.351562 340.003906 551.925781 340.378906 C 551.023438 340.679688 550.273438 341.652344 549.976562 343.003906 C 549.75 344.277344 548.175781 346.378906 546.148438 348.179688 C 541.800781 352.007812 542.773438 353.65625 547.351562 350.28125 C 549.074219 349.003906 550.5 347.65625 550.5 347.355469 C 550.5 346.980469 551.175781 346.53125 552 346.230469 C 552.898438 345.929688 553.648438 344.804688 553.949219 343.152344 C 554.324219 340.976562 554.699219 340.601562 556.574219 340.601562 C 558 340.601562 560.101562 339.402344 563.324219 336.625 C 568.648438 332.050781 570.601562 330.851562 572.550781 330.851562 C 573.675781 330.851562 580.726562 325.671875 582.75 323.347656 C 582.976562 323.121094 586.199219 320.421875 589.875 317.347656 C 600 308.941406 600.75 308.191406 600.75 306.691406 C 600.75 305.941406 601.574219 304.515625 602.625 303.542969 C 603.675781 302.566406 604.5 301.214844 604.5 300.464844 C 604.5 299.789062 605.324219 298.214844 606.375 296.941406 C 607.425781 295.738281 608.25 294.089844 608.25 293.339844 C 608.25 292.511719 608.925781 291.539062 609.675781 291.089844 C 610.5 290.710938 611.324219 289.363281 611.625 288.085938 C 611.925781 286.8125 612.75 285.460938 613.574219 285.085938 C 614.625 284.484375 615 283.4375 615 280.960938 C 615 278.484375 615.449219 277.207031 616.800781 275.933594 C 618.601562 274.207031 619.949219 267.605469 618.976562 265.207031 C 618.601562 264.078125 616.425781 263.703125 615.523438 264.605469 Z M 615.523438 264.605469 "/>
<path style=" stroke:none;fill-rule:nonzero;fill:rgb(0%,0%,0%);fill-opacity:1;" d="M 153.675781 301.742188 C 153.675781 302.265625 153.675781 312.320312 153.75 324.097656 L 153.824219 345.480469 L 155.699219 346.828125 C 158.773438 349.15625 157.648438 352.605469 153.75 352.605469 C 152.699219 352.605469 151.125 352.082031 150.300781 351.480469 C 147.898438 349.679688 146.25 350.054688 146.25 352.53125 C 146.25 354.183594 147 355.230469 149.625 357.183594 C 151.425781 358.609375 153 360.183594 153 360.632812 C 153 362.433594 150.824219 361.609375 147.601562 358.609375 C 145.273438 356.507812 143.699219 355.609375 142.050781 355.609375 C 140.699219 355.609375 139.199219 355.007812 138.375 354.105469 C 137.625 353.28125 136.199219 352.605469 135.148438 352.605469 C 134.101562 352.605469 131.773438 351.332031 129.75 349.605469 C 127.648438 347.878906 125.398438 346.605469 124.273438 346.605469 C 123.074219 346.605469 121.125 345.480469 119.101562 343.605469 C 117.074219 341.726562 115.125 340.601562 113.851562 340.601562 C 111.75 340.601562 110.625 339.777344 100.199219 330.699219 C 96.601562 327.472656 93.300781 324.847656 92.925781 324.847656 C 92.550781 324.847656 92.25 324.324219 92.25 323.722656 C 92.25 323.121094 91.875 321.773438 91.351562 320.722656 C 90.601562 319.070312 90.074219 318.769531 87.824219 318.996094 C 83.925781 319.296875 84.074219 321.097656 88.125 323.648438 C 91.273438 325.671875 91.5 326.046875 91.5 329.125 C 91.5 331.675781 91.949219 332.800781 93.375 334.152344 C 94.425781 335.125 95.25 336.550781 95.25 337.375 C 95.25 338.203125 96.074219 339.550781 97.125 340.453125 C 98.175781 341.351562 99 342.777344 99 343.527344 C 99 344.429688 101.023438 346.753906 104.175781 349.378906 C 107.023438 351.78125 109.425781 354.332031 109.425781 355.007812 C 109.574219 357.484375 113.851562 361.460938 117 361.984375 C 119.476562 362.433594 120.074219 362.882812 120.449219 364.460938 C 121.125 367.3125 122.175781 368.359375 124.273438 368.359375 C 125.324219 368.359375 126.976562 369.035156 128.023438 369.863281 C 129.074219 370.6875 130.800781 371.363281 131.773438 371.363281 C 132.898438 371.363281 135.148438 372.636719 137.25 374.363281 C 140.324219 376.914062 141.375 377.363281 144.375 377.363281 C 146.773438 377.363281 148.5 377.8125 149.773438 378.863281 C 151.125 379.914062 152.851562 380.363281 155.25 380.363281 C 157.648438 380.363281 159.375 380.816406 160.726562 381.867188 C 162.375 383.140625 163.726562 383.367188 171.675781 383.367188 C 179.925781 383.367188 180.824219 383.515625 182.550781 385.015625 C 187.5 389.441406 188.550781 390.117188 190.425781 390.117188 C 191.550781 390.117188 193.125 390.792969 193.875 391.617188 C 194.699219 392.519531 196.199219 393.117188 197.625 393.117188 C 199.125 393.117188 200.25 393.570312 200.550781 394.242188 C 200.773438 394.84375 201.675781 395.371094 202.5 395.371094 C 203.324219 395.371094 204 394.84375 204 394.242188 C 204 393.644531 203.699219 393.117188 203.324219 393.117188 C 202.875 393.117188 201.675781 392.292969 200.550781 391.242188 C 199.273438 390.042969 197.625 389.367188 196.199219 389.367188 C 194.699219 389.367188 193.5 388.84375 192.898438 387.867188 C 192.375 386.96875 191.175781 386.367188 189.824219 386.367188 C 188.699219 386.367188 186.976562 385.691406 186 384.867188 C 185.023438 384.042969 183.976562 383.367188 183.601562 383.367188 C 183.300781 383.367188 183 382.539062 183 381.492188 C 183 380.363281 182.175781 378.789062 181.125 377.8125 C 180.074219 376.839844 179.25 375.488281 179.25 374.8125 C 179.25 374.136719 178.425781 372.710938 177.375 371.664062 C 175.574219 369.863281 175.5 369.488281 175.5 359.058594 C 175.5 348.628906 175.425781 348.332031 173.625 346.605469 C 171.898438 345.027344 171.75 344.277344 171.75 338.652344 C 171.75 332.949219 171.601562 332.425781 169.875 331.300781 C 168.375 330.324219 168 329.425781 168 326.875 C 168 324.398438 167.550781 323.199219 166.125 321.847656 C 164.699219 320.496094 164.25 319.296875 164.25 316.894531 C 164.25 314.496094 163.875 313.445312 162.824219 312.917969 C 162.074219 312.46875 161.175781 311.195312 160.875 310.070312 C 160.648438 308.867188 159.75 307.292969 159 306.46875 C 158.25 305.640625 157.5 304.140625 157.351562 303.089844 C 157.125 301.066406 153.824219 299.867188 153.675781 301.742188 Z M 153.675781 301.742188 "/>
<path style=" stroke:none;fill-rule:nonzero;fill:rgb(0%,0%,0%);fill-opacity:1;" d="M 535.273438 302.117188 C 535.050781 302.867188 534.898438 304.59375 534.898438 306.015625 C 534.824219 307.667969 534.300781 308.867188 533.324219 309.617188 C 532.425781 310.21875 531.75 311.417969 531.75 312.394531 C 531.75 313.292969 530.925781 314.871094 529.875 315.84375 C 528.824219 316.820312 528 318.246094 528 318.996094 C 528 319.746094 527.175781 321.097656 526.125 321.996094 C 524.699219 323.273438 524.25 324.324219 524.25 326.722656 C 524.25 329.125 523.800781 330.25 522.300781 331.675781 C 520.5 333.402344 520.425781 333.777344 520.574219 340.753906 C 520.726562 347.730469 520.648438 348.179688 518.851562 349.832031 C 516.976562 351.554688 516.976562 351.632812 517.351562 361.757812 C 517.726562 371.886719 517.648438 372.039062 515.851562 373.761719 C 514.800781 374.738281 513.75 376.390625 513.523438 377.515625 C 513.226562 378.640625 511.726562 380.441406 510 381.640625 C 506.925781 383.816406 506.175781 385.917969 508.125 386.667969 C 510.300781 387.492188 519.300781 386.140625 521.175781 384.714844 C 522.523438 383.742188 524.25 383.367188 528.148438 383.367188 C 532.273438 383.367188 533.773438 383.066406 535.273438 381.867188 C 536.773438 380.664062 538.351562 380.363281 542.625 380.363281 C 546.898438 380.363281 548.476562 380.066406 549.976562 378.863281 C 551.023438 378.039062 552.601562 377.363281 553.5 377.363281 C 554.398438 377.363281 555.976562 376.6875 557.023438 375.863281 C 558.074219 375.039062 559.726562 374.363281 560.625 374.363281 C 561.601562 374.363281 564.074219 373.011719 566.175781 371.363281 C 568.273438 369.710938 570.75 368.359375 571.726562 368.359375 C 573.824219 368.359375 574.875 367.3125 575.550781 364.460938 C 575.925781 362.882812 576.523438 362.433594 579 361.984375 C 581.625 361.535156 582.148438 361.160156 582.523438 359.207031 C 582.824219 357.632812 584.476562 355.757812 588.074219 352.757812 C 590.925781 350.429688 593.25 347.878906 593.25 347.203125 C 593.25 346.53125 594.074219 345.027344 595.125 343.902344 C 596.175781 342.777344 597 341.351562 597 340.601562 C 597 339.925781 597.824219 338.578125 598.875 337.601562 C 599.925781 336.625 600.75 335.203125 600.75 334.449219 C 600.75 333.699219 601.574219 332.351562 602.625 331.449219 C 603.675781 330.550781 604.5 329.347656 604.5 328.824219 C 604.5 328.222656 605.25 326.796875 606.074219 325.671875 C 607.949219 323.121094 607.425781 321.847656 604.574219 321.847656 C 602.175781 321.847656 601.125 322.824219 600.375 325.597656 C 600.074219 326.648438 598.425781 328.675781 596.699219 330.101562 C 594.898438 331.523438 591.375 334.527344 588.824219 336.625 C 585.523438 339.476562 583.5 340.601562 582 340.601562 C 580.199219 340.601562 579.675781 340.976562 579.300781 342.628906 C 578.625 345.554688 577.574219 346.605469 575.476562 346.605469 C 574.425781 346.605469 572.773438 347.28125 571.726562 348.105469 C 570.675781 348.929688 569.023438 349.605469 568.125 349.605469 C 567.226562 349.605469 565.574219 350.28125 564.523438 351.105469 C 563.476562 351.929688 561.898438 352.605469 561 352.605469 C 560.101562 352.605469 557.773438 353.882812 555.824219 355.53125 C 553.949219 357.109375 551.175781 358.683594 549.75 358.984375 C 548.324219 359.285156 545.925781 360.558594 544.5 361.910156 C 543.074219 363.257812 540 365.886719 537.675781 367.835938 L 533.476562 371.289062 L 530.625 368.8125 C 528.523438 366.9375 528.148438 366.1875 528.976562 365.886719 C 529.648438 365.660156 530.550781 365.960938 531 366.5625 C 532.574219 368.359375 534.601562 367.835938 535.125 365.433594 C 535.425781 364.160156 537 362.058594 538.949219 360.410156 C 540.75 358.832031 542.25 357.257812 542.25 356.957031 C 542.25 355.90625 539.851562 356.359375 538.875 357.558594 C 538.199219 358.609375 537.675781 358.609375 536.398438 357.933594 C 534.976562 357.183594 534.824219 356.65625 535.199219 354.03125 C 535.5 352.304688 536.476562 350.128906 537.523438 349.15625 L 539.25 347.429688 L 539.101562 324.324219 C 538.875 301.292969 538.875 301.214844 537.226562 300.992188 C 536.175781 300.839844 535.5 301.214844 535.273438 302.117188 Z M 535.273438 302.117188 "/>
<path style=" stroke:none;fill-rule:nonzero;fill:rgb(0%,0%,0%);fill-opacity:1;" d="M 187.050781 347.65625 C 186.824219 348.253906 187.351562 349.457031 188.175781 350.28125 C 189.148438 351.257812 189.75 352.832031 189.75 354.480469 C 189.75 356.359375 190.273438 357.558594 191.625 358.757812 C 193.050781 360.035156 193.5 361.085938 193.5 363.484375 C 193.5 365.808594 193.949219 367.011719 195.375 368.359375 C 196.800781 369.636719 197.25 370.910156 197.25 373.085938 C 197.25 375.339844 197.699219 376.539062 199.125 377.8125 C 200.175781 378.789062 201 380.140625 201 380.890625 C 201 381.714844 202.5 383.515625 204.300781 385.015625 C 206.101562 386.515625 207.824219 388.691406 208.050781 389.894531 C 208.351562 391.019531 209.25 392.367188 210.074219 392.96875 C 210.824219 393.492188 211.5 394.46875 211.5 395.070312 C 211.5 395.667969 212.175781 396.121094 213 396.121094 C 215.175781 396.121094 216.226562 399.121094 214.648438 400.769531 C 212.925781 402.796875 203.398438 402.648438 200.773438 400.621094 C 199.050781 399.195312 197.773438 399.121094 182.398438 399.121094 C 166.949219 399.121094 165.898438 399.046875 164.625 397.621094 C 163.5 396.417969 162.300781 396.121094 157.875 396.121094 C 153.601562 396.121094 152.023438 395.820312 150.523438 394.621094 C 149.476562 393.792969 147.824219 393.117188 146.851562 393.117188 C 145.800781 393.117188 143.101562 391.617188 140.699219 389.742188 C 138.300781 387.867188 135.601562 386.367188 134.699219 386.367188 C 133.875 386.367188 130.800781 384.339844 127.949219 381.941406 C 125.101562 379.464844 122.324219 377.664062 121.800781 377.890625 C 120.300781 378.414062 121.351562 380.066406 124.574219 382.316406 C 126.148438 383.367188 127.5 384.941406 127.5 385.691406 C 127.5 388.167969 131.851562 392.21875 135.148438 392.894531 C 137.773438 393.417969 138.300781 393.867188 139.050781 396.121094 C 139.726562 398.296875 140.25 398.820312 142.199219 398.96875 C 143.773438 399.121094 146.25 400.621094 149.699219 403.621094 C 153.074219 406.546875 155.550781 408.046875 156.824219 408.125 C 157.949219 408.125 159.675781 408.796875 160.726562 409.625 C 161.773438 410.449219 163.425781 411.125 164.476562 411.125 C 165.449219 411.125 166.875 411.722656 167.550781 412.550781 C 168.449219 413.523438 170.175781 414.050781 173.101562 414.273438 C 176.023438 414.5 178.125 415.101562 179.699219 416.226562 C 181.949219 417.953125 182.324219 417.953125 199.574219 417.726562 C 216.523438 417.5 217.273438 417.425781 219.300781 415.777344 C 220.800781 414.648438 222.449219 414.125 224.773438 414.125 C 227.023438 414.125 228.75 413.601562 230.023438 412.625 C 232.800781 410.449219 242.925781 410.449219 247.125 412.699219 C 248.773438 413.523438 252 414.425781 254.25 414.648438 C 256.875 414.949219 258.898438 415.625 259.726562 416.527344 C 261.601562 418.402344 265.125 418.101562 265.125 416 C 265.125 414.800781 264.523438 414.425781 262.425781 414.273438 C 260.851562 414.125 259.050781 413.375 258.375 412.550781 C 257.625 411.800781 256.273438 411.125 255.449219 411.125 C 254.550781 411.125 252.898438 410.449219 251.625 409.625 C 250.425781 408.796875 248.699219 408.125 247.949219 408.125 C 246.523438 408.125 243.300781 405.949219 238.574219 401.746094 C 233.851562 397.621094 233.25 396.871094 233.25 395.445312 C 233.25 394.621094 232.648438 393.492188 231.824219 392.96875 C 231.074219 392.445312 230.175781 391.167969 229.875 390.117188 C 229.574219 389.066406 228.75 387.566406 228 386.742188 C 227.25 385.917969 226.425781 384.417969 226.125 383.367188 C 225.824219 382.316406 224.175781 380.289062 222.300781 378.863281 C 220.199219 377.214844 219 375.636719 219 374.589844 C 219 373.460938 217.273438 371.4375 213.601562 368.285156 C 210.601562 365.734375 206.550781 362.285156 204.601562 360.632812 C 202.574219 358.832031 201 356.808594 200.699219 355.53125 C 200.398438 353.957031 199.726562 353.28125 198.226562 352.980469 C 195.148438 352.304688 193.875 351.480469 193.574219 349.90625 C 193.425781 349.15625 192.976562 348.03125 192.601562 347.503906 C 191.550781 346.230469 187.574219 346.378906 187.050781 347.65625 Z M 187.050781 347.65625 "/>
<path style=" stroke:none;fill-rule:nonzero;fill:rgb(0%,0%,0%);fill-opacity:1;" d="M 500.101562 350.128906 C 497.851562 352.082031 494.175781 355.308594 491.925781 357.183594 C 478.726562 368.359375 477.226562 369.863281 476.773438 371.886719 C 476.476562 373.164062 475.125 374.8125 473.324219 376.164062 C 471.675781 377.363281 470.175781 379.164062 469.875 380.289062 C 469.574219 381.339844 468.75 382.914062 468.074219 383.742188 C 467.324219 384.566406 466.5 386.066406 466.199219 387.117188 C 465.976562 388.167969 464.25 390.117188 462.375 391.542969 C 460.125 393.195312 459 394.621094 459 395.746094 C 459 396.792969 457.726562 398.519531 455.324219 400.472656 C 452.851562 402.570312 451.5 404.296875 451.351562 405.722656 C 451.125 407.597656 450.898438 407.75 446.625 408.125 C 444.074219 408.347656 441.300781 409.097656 440.25 409.773438 C 439.273438 410.523438 437.699219 411.125 436.800781 411.125 C 435.976562 411.125 434.625 411.800781 433.875 412.625 C 432.601562 413.976562 431.550781 414.125 421.574219 414.125 C 410.023438 414.125 407.773438 414.648438 409.425781 416.675781 C 410.25 417.652344 412.273438 417.875 421.199219 417.875 C 431.023438 417.875 432 417.726562 432.976562 416.375 C 433.875 415.101562 435.226562 414.800781 444.074219 414.425781 C 452.175781 413.976562 454.5 413.601562 455.925781 412.476562 C 458.175781 410.75 459.824219 410.75 462.226562 412.625 C 463.5 413.601562 465.226562 414.125 467.550781 414.125 C 470.023438 414.125 471.75 414.648438 473.324219 415.777344 C 475.574219 417.425781 476.175781 417.5 496.726562 417.726562 C 517.5 417.953125 517.800781 417.953125 520.050781 416.300781 C 521.550781 415.175781 523.726562 414.5 526.5 414.273438 C 530.023438 413.976562 531.074219 413.523438 533.773438 411.050781 C 535.800781 409.171875 537.675781 408.125 538.949219 408.125 C 540.226562 408.125 542.773438 406.546875 546.300781 403.621094 C 549.449219 401.070312 552.449219 399.121094 553.425781 399.121094 C 555.898438 399.121094 563.851562 392.445312 564.449219 389.96875 C 564.75 388.84375 566.398438 386.667969 568.199219 385.089844 C 570 383.589844 571.5 382.015625 571.5 381.714844 C 571.5 380.289062 568.648438 381.265625 566.25 383.515625 C 562.574219 386.96875 559.050781 389.292969 556.648438 389.816406 C 555.523438 390.117188 553.800781 390.941406 552.824219 391.769531 C 551.851562 392.519531 550.351562 393.117188 549.449219 393.117188 C 548.625 393.117188 547.050781 393.792969 546 394.621094 C 544.726562 395.59375 542.925781 396.121094 540.300781 396.121094 C 537.449219 396.121094 536.175781 396.496094 535.125 397.621094 C 533.851562 399.046875 532.800781 399.121094 517.351562 399.121094 C 501.976562 399.121094 500.699219 399.195312 498.976562 400.621094 C 497.550781 401.746094 495.898438 402.121094 492.824219 402.121094 C 489.449219 402.121094 488.398438 402.421875 487.648438 403.621094 C 486.449219 405.574219 482.699219 405.648438 481.351562 403.695312 C 480.675781 402.796875 479.25 402.121094 477.375 401.972656 C 475.273438 401.820312 474.300781 401.371094 474.148438 400.472656 C 473.925781 399.496094 474.601562 399.195312 477.148438 398.96875 C 480.148438 398.746094 480.375 398.59375 480.601562 396.496094 C 480.75 394.769531 481.726562 393.492188 484.125 391.617188 C 486 390.191406 487.726562 388.167969 487.949219 387.117188 C 488.25 386.066406 489.300781 384.265625 490.273438 383.140625 C 491.175781 381.941406 492 380.363281 492 379.613281 C 492 378.789062 492.675781 377.8125 493.425781 377.363281 C 494.25 376.988281 495.074219 375.636719 495.375 374.363281 C 495.675781 373.085938 496.5 371.738281 497.324219 371.363281 C 498.523438 370.6875 498.75 369.710938 498.75 365.433594 C 498.75 360.785156 498.898438 360.183594 500.625 359.058594 C 501.75 358.308594 502.5 357.109375 502.5 355.984375 C 502.5 354.855469 503.25 353.65625 504.375 352.90625 C 506.476562 351.554688 506.851562 348.78125 505.199219 347.429688 C 504.300781 346.679688 503.324219 347.203125 500.101562 350.128906 Z M 500.101562 350.128906 "/>
<path style=" stroke:none;fill-rule:nonzero;fill:rgb(0%,0%,0%);fill-opacity:1;" d="M 273.824219 418.925781 C 273.300781 419.527344 271.648438 420.203125 270 420.503906 C 268.425781 420.800781 266.550781 421.628906 265.800781 422.453125 C 264.898438 423.503906 263.550781 423.878906 260.851562 423.878906 C 258.226562 423.878906 256.5 424.328125 255.226562 425.378906 C 253.875 426.429688 252.148438 426.878906 249.375 426.878906 C 246.449219 426.878906 245.175781 427.253906 244.125 428.378906 C 243.148438 429.503906 241.800781 429.878906 239.101562 429.878906 C 236.476562 429.878906 234.75 430.328125 233.476562 431.378906 C 231.675781 432.804688 230.398438 432.878906 207.75 432.878906 L 183.976562 432.878906 L 180.898438 429.878906 C 178.273438 427.253906 177.601562 426.953125 176.25 427.628906 C 175.425781 428.078125 174.75 428.90625 174.75 429.503906 C 174.75 431.082031 176.925781 432.878906 178.800781 432.878906 C 179.773438 432.878906 181.425781 433.554688 182.476562 434.382812 C 183.75 435.355469 185.476562 435.882812 187.726562 435.882812 C 189.824219 435.882812 191.699219 436.40625 192.824219 437.308594 C 193.949219 438.132812 196.351562 438.808594 198.898438 439.03125 C 201.449219 439.257812 203.773438 439.859375 204.601562 440.609375 C 205.726562 441.582031 207.523438 441.882812 213.074219 441.882812 C 219.523438 441.882812 220.425781 442.035156 222.75 443.757812 C 225.300781 445.632812 225.449219 445.632812 240.75 445.632812 C 256.050781 445.632812 256.199219 445.632812 258.75 443.757812 C 260.925781 442.183594 262.125 441.882812 266.550781 441.882812 C 270.675781 441.882812 272.324219 441.507812 273.75 440.382812 C 274.800781 439.558594 276.375 438.882812 277.351562 438.882812 C 278.25 438.882812 280.726562 437.53125 282.824219 435.882812 C 285.976562 433.40625 287.175781 432.878906 290.023438 432.878906 C 292.875 432.878906 294 432.429688 296.925781 430.03125 C 298.800781 428.378906 301.5 426.878906 302.925781 426.578125 C 304.351562 426.355469 306.074219 425.605469 306.75 425.003906 C 307.800781 424.027344 310.050781 423.878906 319.125 424.027344 C 326.699219 424.179688 330.375 424.554688 330.523438 425.152344 C 330.675781 425.605469 329.699219 426.203125 328.351562 426.503906 C 327 426.804688 325.726562 427.253906 325.5 427.554688 C 324.300781 429.128906 318.226562 432.878906 316.875 432.878906 C 315.976562 432.878906 314.625 433.554688 313.875 434.382812 C 313.125 435.207031 311.550781 435.882812 310.351562 435.882812 C 308.851562 435.882812 306.976562 436.855469 304.574219 438.882812 C 302.625 440.53125 300.226562 441.882812 299.175781 441.882812 C 298.199219 441.957031 296.398438 442.785156 295.125 443.835938 C 287.101562 450.734375 281.699219 454.636719 280.425781 454.636719 C 278.25 454.636719 273.75 458.238281 274.273438 459.589844 C 274.5 460.339844 275.851562 460.640625 278.625 460.640625 C 282.523438 460.640625 282.75 460.488281 290.398438 454.113281 C 294.601562 450.511719 300.148438 445.785156 302.550781 443.609375 C 305.699219 440.757812 307.648438 439.632812 309.148438 439.632812 C 310.5 439.632812 311.851562 438.957031 312.898438 437.757812 C 313.949219 436.558594 315.300781 435.882812 316.726562 435.882812 C 318.148438 435.882812 320.101562 434.90625 322.5 432.878906 C 325.574219 430.328125 326.625 429.878906 329.625 429.878906 C 332.023438 429.878906 333.75 429.429688 335.023438 428.378906 C 336.75 427.027344 338.101562 426.878906 346.5 426.878906 C 355.050781 426.878906 356.175781 427.027344 357.375 428.378906 C 358.125 429.203125 359.476562 429.878906 360.375 429.878906 C 361.273438 429.878906 362.925781 430.554688 363.976562 431.378906 C 366.074219 433.03125 370.125 433.40625 370.949219 431.980469 C 371.699219 430.78125 368.023438 427.855469 364.425781 426.878906 C 362.699219 426.355469 361.5 425.679688 361.726562 425.152344 C 361.875 424.554688 365.398438 424.179688 373.425781 424.027344 C 383.925781 423.878906 384.976562 423.953125 386.773438 425.378906 C 387.824219 426.203125 389.476562 426.878906 390.375 426.878906 C 391.273438 426.878906 392.625 427.554688 393.375 428.378906 C 394.199219 429.28125 395.699219 429.878906 397.125 429.878906 C 398.550781 429.878906 400.050781 430.480469 400.875 431.378906 C 401.625 432.207031 403.050781 432.878906 404.101562 432.878906 C 405.226562 432.878906 407.476562 434.082031 409.574219 435.882812 C 411.601562 437.605469 413.925781 438.882812 414.976562 438.882812 C 415.949219 438.882812 417.675781 439.558594 418.726562 440.382812 C 419.925781 441.359375 421.726562 441.882812 423.824219 441.882812 C 426.074219 441.882812 427.875 442.484375 429.824219 443.757812 L 432.523438 445.710938 L 453.824219 445.484375 C 474.675781 445.257812 475.199219 445.183594 477.300781 443.535156 C 479.175781 442.109375 480.300781 441.882812 486.300781 441.882812 C 491.699219 441.882812 493.800781 441.582031 496.125 440.382812 C 497.773438 439.558594 500.398438 438.882812 501.976562 438.882812 C 503.773438 438.882812 505.648438 438.28125 506.773438 437.382812 C 507.824219 436.558594 509.398438 435.882812 510.148438 435.882812 C 510.976562 435.882812 512.476562 435.207031 513.523438 434.382812 C 514.574219 433.554688 516.074219 432.878906 516.898438 432.878906 C 520.800781 432.878906 522.75 429.28125 519.75 427.628906 C 518.398438 426.953125 517.726562 427.253906 515.101562 429.878906 C 512.023438 432.804688 511.949219 432.878906 506.398438 432.878906 C 501.976562 432.878906 500.476562 433.179688 498.976562 434.382812 C 497.25 435.730469 495.898438 435.882812 486.226562 435.882812 C 476.476562 435.882812 475.125 435.730469 473.476562 434.382812 C 471.824219 433.105469 470.398438 432.878906 464.476562 432.878906 C 458.476562 432.878906 457.050781 432.65625 455.476562 431.378906 C 454.125 430.328125 452.398438 429.878906 449.625 429.878906 C 446.773438 429.878906 445.425781 429.503906 444.449219 428.453125 C 443.773438 427.703125 442.050781 426.878906 440.550781 426.652344 C 439.125 426.429688 437.476562 425.679688 436.800781 425.078125 C 435.976562 424.179688 434.101562 423.878906 430.199219 423.878906 C 425.851562 423.878906 424.273438 423.578125 422.773438 422.378906 C 421.199219 421.101562 419.773438 420.878906 413.773438 420.878906 C 407.851562 420.878906 406.425781 420.652344 404.773438 419.375 C 402.976562 417.953125 401.773438 417.875 384.300781 417.875 C 367.648438 417.875 365.625 418.027344 364.273438 419.152344 C 363 420.351562 361.050781 420.503906 346.574219 420.503906 C 332.324219 420.503906 330.074219 420.351562 328.273438 419.152344 C 326.476562 418.027344 323.773438 417.875 300.523438 417.875 C 279.074219 417.875 274.5 418.027344 273.824219 418.925781 Z M 273.824219 418.925781 "/>
<path style=" stroke:none;fill-rule:nonzero;fill:rgb(0%,0%,0%);fill-opacity:1;" d="M 376.050781 433.78125 C 375.226562 435.054688 379.726562 438.734375 382.875 439.332031 C 384.375 439.558594 386.476562 440.683594 387.601562 441.808594 C 388.726562 442.859375 394.125 447.585938 399.675781 452.160156 L 409.648438 460.640625 L 413.625 460.640625 C 415.875 460.640625 417.898438 460.265625 418.199219 459.738281 C 418.949219 458.539062 414.375 454.636719 412.125 454.636719 C 410.476562 454.636719 407.476562 452.460938 395.398438 442.257812 C 392.925781 440.15625 390.675781 438.882812 389.476562 438.882812 C 388.273438 438.882812 386.324219 437.757812 384.300781 435.882812 C 381 432.804688 377.25 431.832031 376.050781 433.78125 Z M 376.050781 433.78125 "/>
<path style=" stroke:none;fill-rule:nonzero;fill:rgb(0%,0%,0%);fill-opacity:1;" d="M 156.300781 481.496094 C 154.949219 482.621094 153.675781 484.421875 153.449219 485.546875 C 153.226562 486.671875 152.324219 487.949219 151.5 488.398438 C 150.074219 489.148438 150 490.046875 150 520.65625 C 150 550.890625 150.074219 552.167969 151.425781 552.917969 C 152.25 553.292969 153.074219 554.640625 153.375 555.84375 C 154.125 559.445312 158.699219 562.671875 163.050781 562.671875 C 165.375 562.671875 169.273438 560.417969 171.226562 557.792969 C 171.523438 557.417969 171.75 547.441406 171.675781 535.738281 C 171.523438 518.558594 171.75 514.355469 172.574219 513.90625 C 173.851562 513.078125 175.5 514.355469 175.5 516.15625 C 175.5 516.90625 177.824219 519.53125 180.675781 522.082031 C 183.824219 524.859375 186 527.410156 186.300781 528.683594 C 186.601562 530.035156 188.25 531.984375 190.875 534.011719 C 198.601562 540.238281 201 542.5625 201 544.214844 C 201 545.265625 202.574219 547.066406 205.574219 549.542969 C 208.125 551.566406 210.601562 553.59375 211.050781 554.042969 C 211.5 554.417969 213.976562 556.59375 216.601562 558.84375 C 222.148438 563.644531 223.199219 563.570312 229.199219 558.320312 L 233.25 554.792969 L 233.25 520.507812 C 233.25 488.921875 233.175781 486.148438 231.976562 485.472656 C 231.226562 485.097656 230.324219 483.671875 229.800781 482.246094 L 228.976562 479.769531 L 222.75 479.542969 C 216.601562 479.320312 216.449219 479.394531 213.976562 481.796875 L 211.425781 484.195312 L 211.5 504.078125 C 211.574219 515.855469 211.273438 524.183594 210.898438 524.558594 C 210 525.457031 208.949219 524.933594 204.449219 520.957031 C 202.5 519.15625 201 517.207031 201 516.304688 C 201 515.40625 199.5 513.53125 197.25 511.65625 C 194.699219 509.554688 193.5 507.976562 193.5 506.777344 C 193.5 505.804688 193.050781 504.675781 192.449219 504.378906 C 191.925781 504.078125 189.300781 501.902344 186.75 499.652344 C 184.125 497.398438 181.5 495.148438 180.898438 494.699219 C 180.226562 494.175781 179.324219 492.824219 178.875 491.625 C 178.5 490.347656 175.574219 487.121094 172.425781 484.347656 C 166.875 479.542969 166.574219 479.394531 162.675781 479.394531 C 159.375 479.394531 158.175781 479.84375 156.300781 481.496094 Z M 156.300781 481.496094 "/>
<path style=" stroke:none;fill-rule:nonzero;fill:rgb(0%,0%,0%);fill-opacity:1;" d="M 250.648438 481.496094 C 249.300781 482.621094 248.25 484.121094 248.25 484.871094 C 248.25 485.621094 247.425781 487.046875 246.375 488.097656 L 244.5 489.972656 L 244.5 521.03125 C 244.5 551.191406 244.574219 552.167969 246 552.917969 C 246.824219 553.367188 247.726562 554.792969 248.101562 556.144531 L 248.699219 558.542969 L 273.074219 558.769531 C 300.675781 558.992188 299.25 559.292969 299.25 552.765625 C 299.25 549.464844 298.949219 548.789062 296.476562 546.539062 L 293.625 543.914062 L 280.800781 543.914062 C 271.875 543.914062 267.75 543.613281 267.148438 543.015625 C 266.625 542.488281 266.25 539.714844 266.25 535.886719 C 266.25 530.558594 266.476562 529.585938 267.675781 528.910156 C 268.5 528.460938 274.425781 528.160156 281.398438 528.160156 C 293.851562 528.160156 295.5 527.859375 295.5 525.234375 C 295.5 524.632812 296.25 523.359375 297.148438 522.382812 L 298.726562 520.65625 L 297.148438 518.933594 C 296.25 517.957031 295.5 516.679688 295.5 516.082031 C 295.5 514.503906 294 513.15625 292.125 513.15625 C 291.300781 513.15625 289.648438 512.480469 288.375 511.65625 C 286.425781 510.378906 284.851562 510.152344 277.050781 510.152344 C 271.050781 510.152344 267.75 509.855469 267.148438 509.253906 C 266.625 508.730469 266.25 506.328125 266.25 503.628906 C 266.25 499.800781 266.476562 498.824219 267.675781 498.152344 C 268.5 497.699219 274.425781 497.398438 281.550781 497.398438 L 294 497.398438 L 296.625 494.847656 C 299.023438 492.523438 299.25 491.847656 299.25 488.171875 C 299.25 484.269531 299.101562 483.820312 296.476562 481.71875 L 293.625 479.394531 L 273.375 479.394531 L 253.125 479.46875 Z M 250.648438 481.496094 "/>
<path style=" stroke:none;fill-rule:nonzero;fill:rgb(0%,0%,0%);fill-opacity:1;" d="M 312.148438 481.871094 C 310.800781 483.222656 309.75 484.871094 309.75 485.472656 C 309.75 486.148438 308.925781 487.421875 307.875 488.398438 L 306 490.125 L 306 551.191406 L 307.800781 552.84375 C 308.773438 553.742188 309.75 555.542969 310.050781 556.742188 L 310.5 558.917969 L 334.949219 558.917969 C 358.273438 558.917969 359.476562 558.84375 361.273438 557.417969 C 362.324219 556.59375 363.976562 555.917969 364.875 555.917969 C 365.773438 555.917969 367.726562 554.867188 369.074219 553.667969 C 370.5 552.390625 373.050781 550.292969 374.851562 548.941406 C 376.726562 547.589844 378.226562 545.714844 378.449219 544.515625 C 378.75 543.390625 379.726562 541.738281 380.699219 540.839844 C 381.675781 539.9375 382.5 538.511719 382.5 537.761719 C 382.5 537.011719 383.324219 535.660156 384.375 534.761719 C 386.25 533.109375 386.25 533.109375 386.25 519.308594 C 386.25 505.503906 386.25 505.425781 384.375 503.703125 C 383.324219 502.726562 382.5 501.300781 382.5 500.550781 C 382.5 499.726562 381 497.851562 379.125 496.351562 C 377.101562 494.625 375.523438 492.675781 375.148438 491.171875 C 374.625 489.148438 374.175781 488.699219 372 488.546875 C 370.273438 488.324219 368.324219 487.273438 366.226562 485.320312 C 363.449219 482.769531 362.625 482.394531 359.398438 482.394531 C 356.851562 482.394531 355.125 481.945312 353.773438 480.894531 C 351.976562 479.46875 350.773438 479.394531 333.226562 479.394531 L 314.550781 479.394531 Z M 349.726562 498.902344 C 350.773438 499.726562 352.273438 500.402344 353.023438 500.402344 C 355.425781 500.402344 360.75 504.828125 360.75 506.777344 C 360.75 507.753906 361.574219 509.179688 362.625 510.003906 C 364.425781 511.429688 364.5 511.878906 364.5 519.382812 C 364.5 526.960938 364.425781 527.257812 362.625 528.460938 C 361.125 529.433594 360.75 530.335938 360.75 532.960938 C 360.75 535.960938 360.449219 536.488281 357.601562 538.585938 C 355.875 539.863281 353.851562 540.914062 353.023438 540.914062 C 352.273438 540.914062 350.773438 541.589844 349.726562 542.414062 C 348.074219 543.6875 346.648438 543.914062 338.925781 543.914062 C 331.875 543.914062 329.851562 543.6875 328.949219 542.714844 C 327.898438 541.738281 327.75 538.664062 327.75 520.65625 C 327.75 502.652344 327.898438 499.574219 328.949219 498.601562 C 329.851562 497.625 331.875 497.398438 338.925781 497.398438 C 346.648438 497.398438 348.074219 497.625 349.726562 498.902344 Z M 349.726562 498.902344 "/>
<path style=" stroke:none;fill-rule:nonzero;fill:rgb(0%,0%,0%);fill-opacity:1;" d="M 423 480.820312 C 422.625 481.644531 422.25 482.847656 422.25 483.445312 C 422.25 484.046875 421.574219 484.945312 420.75 485.398438 C 419.925781 485.847656 419.25 486.820312 419.25 487.648438 C 419.25 488.398438 418.425781 490.046875 417.375 491.25 C 416.101562 492.75 415.5 494.398438 415.5 496.199219 C 415.5 498.152344 414.976562 499.351562 413.625 500.550781 C 412.199219 501.828125 411.75 502.875 411.75 505.425781 C 411.75 507.976562 411.375 508.878906 409.875 509.855469 C 408.824219 510.527344 408 511.804688 408 512.703125 C 408 513.679688 407.175781 515.179688 406.125 516.15625 C 404.699219 517.429688 404.25 518.707031 404.25 520.882812 C 404.25 523.132812 403.800781 524.332031 402.375 525.609375 C 401.023438 526.882812 400.5 528.085938 400.5 530.261719 C 400.5 532.359375 399.976562 533.636719 398.550781 534.988281 C 396.976562 536.410156 396.75 537.238281 397.125 539.1875 C 397.5 541.214844 397.199219 541.964844 395.699219 543.390625 C 394.050781 544.964844 393.824219 545.789062 393.675781 551.417969 C 393.523438 557.570312 393.601562 557.71875 395.851562 559.820312 C 398.625 562.292969 401.101562 562.96875 404.476562 562.371094 C 407.324219 561.84375 411.75 557.945312 411.75 555.917969 C 411.75 555.167969 412.5 553.96875 413.398438 553.367188 C 414.675781 552.46875 415.199219 551.191406 415.5 548.265625 L 415.875 544.289062 L 451.125 544.289062 L 451.5 548.265625 C 451.800781 551.191406 452.324219 552.46875 453.601562 553.367188 C 454.5 553.96875 455.25 555.316406 455.25 556.292969 C 455.25 558.695312 460.726562 562.671875 464.023438 562.671875 C 466.949219 562.671875 470.023438 561.246094 472.050781 558.992188 C 473.25 557.71875 473.476562 556.292969 473.398438 551.265625 C 473.398438 545.789062 473.175781 544.964844 471.675781 543.839844 C 470.324219 542.863281 469.949219 541.890625 470.023438 539.636719 C 470.101562 537.539062 469.648438 536.261719 468.226562 534.761719 C 466.800781 533.261719 466.273438 531.984375 466.351562 530.035156 C 466.425781 528.085938 465.976562 526.960938 464.625 525.757812 C 463.574219 524.859375 462.75 523.433594 462.75 522.53125 C 462.75 521.632812 461.925781 520.132812 460.875 519.15625 C 459.449219 517.804688 459 516.605469 459 514.207031 C 459 511.730469 458.625 510.828125 457.125 509.855469 C 455.625 508.878906 455.25 507.976562 455.25 505.425781 C 455.25 502.875 454.800781 501.828125 453.375 500.550781 C 451.949219 499.351562 451.5 498.152344 451.5 496.050781 C 451.5 493.949219 450.976562 492.523438 449.625 491.097656 C 448.574219 489.972656 447.75 488.472656 447.75 487.722656 C 447.75 486.972656 445.800781 484.796875 443.476562 482.921875 L 439.125 479.394531 L 431.476562 479.394531 C 424.648438 479.394531 423.75 479.542969 423 480.820312 Z M 437.101562 507.976562 C 437.25 510.527344 437.851562 511.953125 439.125 513.15625 C 440.699219 514.65625 441 515.628906 441 519.382812 C 441 522.984375 441.300781 524.035156 442.648438 525.082031 C 445.648438 527.558594 443.773438 528.160156 433.574219 528.160156 C 426.074219 528.160156 423.75 527.933594 423 527.035156 C 421.875 525.683594 422.699219 523.132812 424.574219 522.15625 C 425.625 521.558594 426 520.582031 426 518.105469 C 426 515.707031 426.449219 514.503906 427.875 513.15625 C 428.925781 512.179688 429.75 510.753906 429.75 510.003906 C 429.75 508.203125 434.175781 504.003906 435.75 504.300781 C 436.5 504.453125 436.949219 505.652344 437.101562 507.976562 Z M 437.101562 507.976562 "/>
<path style=" stroke:none;fill-rule:nonzero;fill:rgb(0%,0%,0%);fill-opacity:1;" d="M 504 482.394531 C 502.125 484.046875 499.875 485.398438 498.898438 485.398438 C 496.5 485.398438 488.25 492.148438 488.25 494.097656 C 488.25 494.925781 487.425781 496.425781 486.375 497.398438 C 485.324219 498.375 484.5 499.800781 484.5 500.550781 C 484.5 501.300781 483.675781 502.652344 482.625 503.550781 L 480.75 505.203125 L 480.75 536.113281 L 482.625 537.761719 C 483.675781 538.664062 484.5 540.089844 484.5 540.839844 C 484.5 541.664062 485.324219 543.164062 486.375 544.214844 C 487.425781 545.265625 488.25 546.691406 488.25 547.441406 C 488.25 549.316406 496.574219 555.917969 498.898438 555.917969 C 499.949219 555.917969 501.375 556.519531 502.050781 557.34375 C 502.726562 558.09375 504.449219 558.917969 505.875 559.144531 C 507.300781 559.367188 509.398438 560.269531 510.601562 561.167969 C 512.625 562.671875 513.449219 562.746094 525.074219 562.519531 C 536.550781 562.292969 537.601562 562.144531 539.550781 560.570312 C 540.75 559.667969 542.398438 558.917969 543.226562 558.917969 C 544.050781 558.917969 545.324219 558.394531 546 557.792969 C 546.675781 557.191406 548.550781 556.441406 550.199219 556.066406 L 553.125 555.46875 L 553.351562 549.242188 C 553.5 545.265625 553.273438 542.640625 552.675781 541.964844 C 552.074219 541.214844 549.898438 540.914062 544.5 540.914062 C 538.351562 540.914062 536.925781 541.136719 535.273438 542.414062 C 533.699219 543.6875 532.273438 543.914062 526.273438 543.914062 C 520.351562 543.914062 518.925781 543.6875 517.273438 542.414062 C 516.226562 541.589844 514.574219 540.914062 513.601562 540.914062 C 511.273438 540.914062 506.25 536.710938 506.25 534.761719 C 506.25 533.9375 505.425781 532.4375 504.375 531.460938 C 502.574219 529.808594 502.5 529.359375 502.5 520.65625 C 502.5 511.953125 502.574219 511.578125 504.375 510.003906 C 505.425781 509.105469 506.25 507.601562 506.25 506.703125 C 506.25 505.726562 507.300781 504.300781 508.800781 503.101562 C 510.226562 502.050781 511.800781 500.703125 512.398438 500.175781 C 514.199219 498.300781 516.601562 497.398438 519.523438 497.398438 C 521.101562 497.398438 523.199219 496.875 524.175781 496.125 C 525.824219 495 526.125 495 528.300781 496.125 C 529.574219 496.726562 532.273438 497.398438 534.226562 497.625 C 536.175781 497.851562 538.425781 498.527344 539.175781 499.199219 C 540.074219 500.027344 541.875 500.402344 544.574219 500.402344 C 548.023438 500.402344 549 500.101562 551.101562 498.074219 C 553.273438 496.050781 553.5 495.449219 553.5 491.398438 C 553.5 487.347656 553.273438 486.746094 551.101562 484.722656 C 549.601562 483.371094 547.800781 482.394531 546.675781 482.394531 C 545.550781 482.394531 543.824219 481.71875 542.773438 480.894531 C 541.050781 479.46875 539.773438 479.394531 524.101562 479.394531 L 507.375 479.46875 Z M 504 482.394531 "/>
</g>
</svg>
