<?xml version="1.0" standalone="no"?>
<!DOCTYPE svg PUBLIC "-//W3C//DTD SVG 20010904//EN"
 "http://www.w3.org/TR/2001/REC-SVG-20010904/DTD/svg10.dtd">
<svg version="1.0" xmlns="http://www.w3.org/2000/svg"
 width="464.000000pt" height="463.000000pt" viewBox="0 0 464.000000 463.000000"
 preserveAspectRatio="xMidYMid meet">

<g transform="translate(0.000000,463.000000) scale(0.100000,-0.100000)"
fill="#000000" stroke="none">
<path d="M2085 4616 c-376 -46 -694 -155 -985 -338 -464 -293 -801 -724 -968
-1238 -81 -248 -131 -568 -119 -765 27 -468 151 -858 387 -1213 297 -447 735
-775 1239 -928 563 -171 1143 -127 1666 125 171 83 246 128 395 240 496 371
822 942 895 1567 120 1027 -472 2016 -1435 2398 -331 131 -754 191 -1075 152z
m600 -95 c821 -146 1487 -722 1745 -1511 75 -229 104 -426 103 -695 -1 -205
-16 -335 -59 -514 -188 -772 -798 -1402 -1564 -1614 -217 -60 -312 -72 -600
-72 -286 0 -332 6 -565 65 -349 88 -708 292 -979 558 -355 347 -577 781 -652
1272 -25 160 -25 482 0 640 37 238 101 441 206 655 179 363 447 667 785 888
126 82 367 198 512 246 127 42 312 84 448 100 136 16 482 6 620 -18z"/>
<path d="M2351 4271 c-6 -64 -14 -135 -18 -158 -5 -39 -4 -43 16 -43 22 0 25
4 35 52 5 20 10 25 26 21 26 -7 50 13 50 43 0 13 5 24 10 24 16 0 12 -53 -6
-79 -9 -12 -30 -31 -48 -42 l-31 -19 28 0 c43 0 85 26 106 68 l20 37 -6 -49
c-7 -55 9 -76 56 -76 44 0 55 13 46 56 -7 36 -8 38 -18 17 -5 -13 -17 -23 -25
-23 -11 0 -13 8 -8 38 3 20 6 43 6 50 0 9 10 11 35 6 38 -7 46 5 19 27 -13 10
-19 10 -36 0 -32 -20 -141 -5 -168 24 l-22 23 23 31 c25 35 46 43 27 10 -20
-31 20 -59 82 -59 27 0 56 -3 65 -7 14 -5 16 -2 11 15 -6 17 -2 23 18 28 22 5
24 9 15 25 -8 16 -17 18 -44 13 -30 -5 -33 -4 -28 15 4 16 -1 23 -22 31 -36
14 -35 14 -28 -20 7 -37 -3 -38 -48 -5 -22 17 -42 24 -56 20 -12 -3 -24 -1
-27 4 -3 5 -14 11 -24 13 -17 5 -20 -5 -31 -111z m64 -3 c0 -58 -4 -83 -13
-86 -10 -3 -12 9 -7 59 6 66 13 109 18 109 1 0 2 -37 2 -82z m189 33 c3 -5 -6
-16 -20 -26 -40 -26 -108 -2 -77 28 10 10 91 8 97 -2z"/>
<path d="M2080 4371 c0 -6 5 -13 10 -16 6 -3 10 -13 10 -22 0 -12 -9 -15 -43
-11 -38 5 -44 2 -55 -20 -18 -39 -15 -54 11 -50 16 2 23 11 25 31 3 21 9 27
26 27 13 0 51 3 85 6 43 5 61 3 61 -5 0 -6 -17 -11 -42 -11 l-43 0 30 -18 c17
-11 36 -26 44 -35 7 -10 22 -17 34 -17 17 0 19 5 14 35 -5 28 -2 35 14 40 23
8 24 18 3 36 -12 10 -22 10 -48 1 -47 -17 -66 -15 -66 7 0 10 -7 22 -16 25
-24 9 -54 7 -54 -3z"/>
<path d="M1853 4316 c-12 -20 -79 -39 -112 -31 -20 4 -32 2 -38 -8 -4 -8 -28
-21 -53 -30 -30 -10 -37 -16 -22 -16 21 -1 22 -5 22 -77 0 -45 4 -73 9 -69 9
5 31 -53 31 -82 0 -7 9 -13 20 -13 13 0 20 7 20 19 0 23 16 36 25 22 3 -6 13
-7 21 -4 14 5 15 3 5 -15 -19 -35 -12 -37 19 -7 35 34 54 86 46 126 -3 15 -2
31 3 33 5 3 17 -27 27 -67 16 -59 23 -72 39 -72 25 0 25 28 2 103 -16 53 -16
54 4 59 25 7 20 27 -9 31 -29 5 -49 62 -26 79 18 13 11 33 -11 33 -8 0 -18 -6
-22 -14z m-13 -89 c7 -21 9 -41 6 -44 -6 -6 -19 24 -30 72 -10 42 8 20 24 -28z
m-62 -13 c14 -53 10 -64 -13 -40 -19 19 -51 21 -58 4 -3 -7 -6 5 -6 28 -1 48
3 54 39 54 22 0 27 -6 38 -46z m-48 -109 c7 -25 10 -48 7 -51 -8 -8 -24 26
-32 70 -11 54 9 39 25 -19z m70 -7 c-1 -58 -13 -51 -25 15 -6 30 -4 37 9 37
13 0 16 -11 16 -52z"/>
<path d="M2820 4305 c0 -21 -21 -28 -53 -16 -15 6 -27 7 -27 2 0 -5 14 -11 31
-15 22 -4 29 -10 27 -23 -4 -19 -6 -19 -52 -7 -19 4 -27 3 -23 -3 4 -6 24 -14
44 -18 48 -9 75 -23 67 -36 -3 -6 -20 -2 -41 11 -20 11 -37 20 -38 18 -4 -5
-35 -116 -35 -126 0 -6 10 -12 23 -15 20 -3 20 -4 -8 -15 -72 -29 -72 -31 1
-31 39 -1 74 2 77 6 4 3 -1 15 -10 26 -18 19 -17 19 17 12 48 -10 73 -24 43
-25 -22 0 -22 -1 8 -45 33 -49 40 -53 59 -30 10 13 9 19 -6 36 -15 16 -16 22
-5 29 15 8 41 74 41 102 0 18 -33 33 -50 23 -5 -3 -15 -3 -21 1 -8 5 -8 9 1
14 7 4 39 -1 71 -10 46 -14 59 -15 59 -5 0 22 -27 36 -55 29 -21 -5 -26 -4
-23 7 3 9 17 13 42 11 20 -2 36 1 36 6 0 18 -29 34 -49 27 -16 -5 -18 -2 -14
16 4 12 0 25 -8 30 -23 14 -39 10 -39 -10 0 -11 -5 -23 -11 -27 -15 -9 -33 12
-34 39 0 15 -7 23 -22 25 -16 2 -23 -2 -23 -13z m64 -61 c20 -8 9 -34 -15 -34
-18 0 -26 20 -12 33 8 8 8 8 27 1z m-64 -90 c0 -16 -16 -19 -25 -4 -8 13 4 32
16 25 5 -4 9 -13 9 -21z m88 -16 c-7 -19 -38 -22 -38 -4 0 10 9 16 21 16 12 0
19 -5 17 -12z m-98 -23 c0 -8 -7 -15 -15 -15 -8 0 -15 7 -15 15 0 8 7 15 15
15 8 0 15 -7 15 -15z m80 -25 c0 -11 -7 -20 -15 -20 -8 0 -15 9 -15 20 0 11 7
20 15 20 8 0 15 -9 15 -20z"/>
<path d="M2050 4270 c-7 -16 -18 -35 -26 -41 -28 -23 -13 -30 22 -10 44 26 44
26 44 -3 0 -19 -8 -26 -37 -35 -34 -10 -35 -10 -6 -6 18 2 34 1 37 -4 7 -11
-21 -61 -52 -93 -31 -33 -25 -35 28 -8 43 22 65 49 75 93 11 43 25 31 25 -22
0 -63 15 -76 82 -68 61 8 78 20 60 45 -7 9 -15 25 -19 35 -5 16 -7 16 -17 -5
-6 -12 -20 -24 -30 -26 -15 -3 -17 2 -15 39 3 40 1 45 -24 53 -21 8 -30 7 -36
-3 -11 -17 -23 2 -15 23 5 12 0 16 -21 16 -24 0 -26 2 -14 16 10 13 10 17 -2
25 -26 16 -46 9 -59 -21z"/>
<path d="M3130 4175 c0 -24 6 -37 20 -45 17 -9 20 -7 26 15 4 18 1 32 -11 45
-26 29 -35 25 -35 -15z"/>
<path d="M1452 4192 c-9 -6 -11 -21 -6 -50 6 -39 4 -42 -27 -61 -43 -26 -46
-26 -45 2 1 18 -5 22 -36 25 -44 4 -48 -8 -13 -36 31 -25 31 -32 2 -32 -20 0
-23 -5 -22 -37 0 -31 4 -38 20 -38 16 0 20 7 20 30 0 27 8 34 75 72 81 46 100
51 100 28 0 -8 -8 -15 -19 -15 -10 0 -24 -7 -32 -16 -7 -8 -35 -27 -62 -40
-27 -14 -47 -28 -44 -30 3 -3 28 6 56 20 41 21 51 23 51 11 0 -8 -7 -15 -16
-15 -10 0 -13 -6 -10 -18 5 -15 -6 -24 -55 -47 -33 -16 -56 -31 -51 -33 6 -2
34 9 63 24 50 25 53 25 66 8 18 -25 16 -42 -7 -49 -32 -10 -23 -20 19 -22 25
-2 44 3 52 13 13 15 12 20 -16 86 -5 14 5 23 49 45 63 30 70 43 26 43 -20 0
-30 -5 -30 -15 0 -8 -13 -21 -30 -30 -34 -17 -41 -4 -14 26 8 9 17 24 18 33 1
9 13 27 26 40 l23 25 -28 11 c-26 10 -31 8 -51 -17 -27 -32 -32 -14 -10 29 8
15 12 29 8 32 -8 9 -35 7 -50 -2z"/>
<path d="M1369 4149 c-11 -6 -9 -12 5 -28 11 -12 27 -21 36 -21 20 0 32 21 22
37 -10 14 -48 22 -63 12z"/>
<path d="M3077 4153 c-12 -11 -8 -73 4 -73 8 0 8 -5 -1 -15 -7 -8 -23 -15 -36
-15 -16 0 -22 -4 -18 -15 3 -8 -4 -28 -15 -44 -23 -32 -19 -61 9 -61 13 0 27
18 44 55 14 30 29 55 35 55 21 0 22 -23 2 -44 -25 -26 -19 -56 11 -56 22 0 78
-30 78 -42 0 -11 -18 -10 -25 2 -3 6 -13 10 -21 10 -10 0 -12 -5 -5 -17 5 -10
12 -26 15 -35 7 -23 59 -24 77 -2 8 10 21 13 36 9 27 -6 30 7 7 30 -13 12 -14
18 -4 31 8 8 21 12 31 9 20 -7 27 19 9 30 -7 4 -5 14 4 27 19 27 4 58 -27 56
-31 -3 -81 32 -67 46 8 8 29 2 75 -23 68 -36 84 -37 65 -2 -8 16 -15 19 -27
12 -11 -6 -28 -4 -49 7 -30 14 -31 17 -17 28 15 10 15 14 4 28 -19 22 -38 20
-69 -9 -15 -14 -32 -23 -39 -21 -7 3 -15 1 -18 -4 -9 -15 -25 -12 -25 3 0 18
-34 49 -43 40z m83 -81 c0 -12 -23 -32 -37 -32 -17 0 -17 27 0 33 19 8 37 8
37 -1z m39 -73 c-9 -5 -5 -11 14 -20 26 -12 26 -13 10 -40 -16 -27 -17 -27
-50 -11 -18 9 -33 20 -33 26 1 17 26 46 40 46 7 0 10 3 7 6 -3 4 -1 16 6 28
12 21 12 21 15 -3 2 -13 -2 -27 -9 -32z m60 42 c12 -8 13 -14 3 -35 -6 -14
-17 -26 -23 -26 -8 0 -7 5 2 16 10 12 10 20 1 35 -13 20 -6 24 17 10z"/>
<path d="M3170 3966 c0 -29 17 -43 33 -27 8 8 9 16 1 28 -17 27 -34 27 -34 -1z"/>
<path d="M1133 4017 c-27 -12 -29 -29 -8 -47 21 -17 19 -28 -7 -32 -32 -5 -32
-23 -1 -37 23 -11 29 -10 39 4 10 14 16 10 43 -27 l32 -43 -33 -29 -32 -30 -6
25 c-5 20 -12 24 -38 21 -36 -2 -39 3 -16 29 15 17 17 17 37 -2 26 -24 52 -21
52 6 0 17 -7 20 -50 22 -33 1 -54 -3 -61 -13 -10 -12 -13 -12 -24 1 -10 13
-10 19 5 35 20 22 19 25 -11 34 -19 6 -27 -2 -52 -46 -31 -53 -34 -70 -9 -50
10 9 17 8 25 0 17 -17 15 -35 -4 -42 -9 -4 -14 -9 -11 -13 4 -3 13 -1 20 6 20
16 34 -4 51 -75 14 -59 14 -59 22 -25 l7 33 32 -38 c22 -26 37 -35 48 -31 21
8 22 40 2 57 -9 7 -26 27 -37 43 l-22 30 26 -6 c19 -5 31 -1 48 18 13 14 28
25 34 25 6 0 24 -19 39 -41 23 -32 32 -38 43 -28 20 17 17 36 -12 75 -26 34
-26 35 -8 56 19 21 19 21 -14 16 -31 -4 -37 -1 -75 51 -23 31 -44 61 -47 67
-4 8 -12 8 -27 1z"/>
<path d="M3400 3963 c0 -6 12 -20 26 -31 l27 -19 -36 -27 c-20 -15 -57 -36
-84 -46 -37 -14 -44 -20 -30 -25 25 -10 98 3 140 25 46 25 46 16 -1 -38 l-37
-44 -30 23 c-26 22 -28 22 -20 4 4 -11 9 -31 10 -45 1 -17 10 -28 29 -35 30
-10 33 -8 98 76 l26 34 -19 -55 c-29 -86 -28 -93 27 -104 l30 -7 -6 58 c-4 32
-5 64 -2 71 2 7 23 12 53 12 52 0 57 5 35 35 -13 18 -17 18 -42 5 -16 -8 -33
-16 -38 -19 -15 -7 3 52 25 82 20 27 20 29 3 48 -18 20 -18 20 -50 -18 -30
-36 -32 -36 -38 -15 -5 14 -15 22 -29 22 -11 0 -31 10 -44 22 -13 12 -23 17
-23 11z"/>
<path d="M2125 3803 c-229 -30 -448 -115 -645 -251 -125 -87 -318 -280 -399
-400 -65 -96 -156 -276 -167 -328 l-6 -30 89 19 c67 15 129 20 263 20 295 2
494 -49 838 -212 336 -160 489 -205 692 -205 141 0 214 15 319 67 307 150 353
554 78 693 -106 54 -244 40 -327 -33 l-42 -38 74 0 c100 0 160 -34 201 -114
46 -93 33 -176 -42 -251 -63 -63 -126 -84 -231 -78 -101 6 -171 39 -239 113
-62 68 -86 134 -85 231 3 232 240 409 524 390 167 -10 308 -68 453 -186 l89
-71 -44 63 c-67 98 -260 285 -367 356 -258 173 -531 254 -844 251 -84 -1 -165
-4 -182 -6z"/>
<path d="M860 3733 c0 -42 -13 -57 -38 -44 -16 8 -25 7 -43 -8 l-23 -18 22 -7
c12 -4 22 -11 22 -15 0 -5 -19 -30 -42 -56 -28 -32 -35 -44 -20 -36 12 6 22
16 22 21 0 13 41 13 60 0 13 -9 11 -13 -9 -29 l-25 -19 57 -62 c31 -33 57 -68
57 -76 0 -8 5 -12 10 -9 25 15 -5 112 -44 144 -9 8 -16 19 -16 25 0 6 29 43
65 81 35 39 64 73 65 78 0 4 -11 7 -25 7 -19 0 -25 -5 -25 -23 0 -13 -7 -32
-15 -43 -13 -18 -14 -17 -15 19 0 21 -5 37 -12 37 -6 0 -2 10 10 23 29 31 28
37 -8 37 -26 0 -30 -4 -30 -27z m12 -98 c13 -29 5 -43 -16 -26 -9 7 -24 10
-37 6 -21 -7 -21 -7 -3 19 24 32 41 33 56 1z"/>
<path d="M3740 3715 c20 -21 22 -28 12 -50 -15 -32 -30 -32 -42 0 -5 14 -12
25 -16 25 -4 0 -25 -16 -46 -36 -22 -20 -58 -44 -80 -54 -30 -13 -35 -19 -23
-24 34 -13 73 -5 118 24 l47 30 34 -38 c19 -20 49 -56 67 -79 19 -23 37 -42
42 -42 4 -1 7 13 7 29 0 25 -4 30 -24 30 -13 0 -30 7 -37 16 -12 15 -10 16 24
12 20 -2 37 0 37 6 0 5 14 -3 31 -20 l31 -29 -4 35 c-3 30 -7 35 -31 38 -32 4
-43 22 -29 49 6 11 6 27 0 43 l-9 25 -20 -25 -19 -25 -36 43 c-20 23 -41 42
-47 42 -6 0 0 -11 13 -25z m90 -105 c0 -11 -51 -31 -61 -24 -6 4 -4 13 7 25
10 11 14 25 10 36 -5 13 -1 12 18 -6 15 -14 26 -27 26 -31z"/>
<path d="M3989 3461 c8 -15 5 -20 -16 -30 -15 -7 -49 -15 -76 -18 -33 -4 -47
-10 -43 -18 3 -8 -14 -23 -40 -36 -24 -13 -44 -27 -44 -30 0 -15 29 -29 45
-22 15 5 17 3 12 -12 -4 -9 -2 -24 5 -32 10 -12 7 -13 -17 -7 -39 10 -24 -13
21 -32 43 -18 78 -18 114 1 52 27 32 -3 -22 -34 -73 -41 -82 -49 -67 -67 17
-20 24 -18 90 23 57 35 60 35 74 17 12 -17 14 -18 20 -2 4 9 4 21 1 27 -3 5 9
18 26 29 29 18 35 19 49 6 18 -16 29 -9 29 18 0 10 -7 18 -15 18 -20 0 -65 69
-65 101 0 17 -9 32 -23 42 -13 9 -30 29 -37 46 -7 17 -17 31 -22 31 -5 0 -4
-8 1 -19z m51 -92 c15 -28 9 -41 -34 -63 -37 -19 -60 -16 -38 6 18 18 15 45
-5 53 -17 7 -16 8 2 15 35 15 64 11 75 -11z m-100 -4 c0 -7 -78 -55 -90 -55
-19 0 0 19 38 40 38 20 52 24 52 15z m10 -79 c0 -15 -62 -40 -82 -34 -12 4 49
46 70 47 6 1 12 -5 12 -13z m126 -5 c-9 -15 -76 -51 -76 -42 0 5 15 18 33 29
35 22 51 27 43 13z"/>
<path d="M656 3445 c-18 -13 -18 -15 3 -43 12 -17 21 -33 21 -37 0 -14 -72 4
-92 22 -19 17 -20 17 -34 -2 -17 -23 -18 -45 -1 -45 6 0 23 -9 37 -20 22 -17
23 -19 7 -25 -9 -4 -17 -17 -17 -29 0 -12 -7 -32 -16 -44 -9 -13 -13 -26 -10
-29 3 -3 11 6 17 21 7 14 17 26 24 26 17 0 60 -48 89 -100 l26 -45 0 31 c0 43
-18 93 -49 134 l-25 35 49 -29 c71 -41 72 -42 52 -76 -18 -31 -9 -42 13 -16 6
8 21 16 33 18 16 2 23 11 25 30 3 23 -4 32 -41 55 -84 52 -86 54 -52 45 17 -4
50 -7 75 -7 42 0 44 2 51 32 3 18 5 34 3 36 -3 2 -28 -2 -56 -10 -83 -21 -86
-20 -90 34 -3 51 -13 60 -42 38z"/>
<path d="M442 3144 c-13 -9 -22 -26 -22 -41 0 -39 -40 -144 -68 -178 l-24 -29
43 -14 c24 -8 90 -32 146 -54 57 -22 107 -37 113 -33 13 8 13 42 0 50 -12 8
43 158 61 164 19 6 28 21 22 37 -3 7 -55 29 -116 50 -62 20 -117 42 -123 50
-9 11 -14 11 -32 -2z m90 -80 c73 -24 106 -47 55 -37 -14 3 -29 -2 -36 -11
-12 -14 -10 -16 12 -16 14 0 29 -5 32 -11 11 -17 1 -19 -33 -7 -26 10 -30 16
-25 36 4 18 2 23 -8 20 -8 -3 -13 -13 -12 -22 0 -12 -4 -15 -14 -12 -8 3 -19
6 -25 6 -6 0 -8 12 -4 30 3 17 2 30 -2 30 -15 0 -30 -22 -25 -36 3 -8 -2 -32
-11 -54 -21 -52 -20 -61 3 -31 15 20 21 22 40 12 16 -9 20 -18 16 -34 -6 -21
-6 -22 9 -3 13 16 21 18 43 10 32 -11 38 -24 20 -48 -12 -16 -17 -16 -87 10
-41 15 -80 31 -87 36 -9 7 -5 28 15 84 15 41 31 74 37 74 5 0 45 -12 87 -26z
m128 -57 c0 -16 -34 -119 -47 -141 -5 -10 -13 -12 -22 -6 -12 7 -10 21 13 84
17 45 34 76 42 76 8 0 14 -6 14 -13z"/>
<path d="M4105 3110 c-11 -18 17 -42 42 -37 20 4 25 -4 48 -72 28 -85 29 -91
15 -91 -5 0 -12 16 -16 35 -6 36 -24 49 -24 17 0 -10 -7 -27 -15 -38 -22 -29
-19 -64 5 -64 11 0 23 7 26 15 8 21 21 19 29 -5 9 -28 32 -25 39 6 5 20 2 32
-13 46 -27 24 -27 50 0 66 15 9 18 19 13 35 -9 31 -12 32 -34 12 -19 -17 -20
-17 -30 9 -5 15 -10 35 -10 45 0 26 -62 42 -75 21z"/>
<path d="M4080 3056 c29 -31 32 -38 20 -46 -23 -15 -28 -12 -45 21 -9 17 -19
29 -22 26 -2 -3 0 -14 6 -25 6 -12 11 -23 11 -26 0 -15 -59 -3 -97 19 -48 27
-53 22 -19 -17 31 -34 77 -58 116 -58 45 0 36 -18 -15 -31 -63 -16 -69 -27
-48 -84 24 -65 42 -75 75 -42 l26 26 -27 3 c-18 2 -26 9 -26 23 0 16 8 21 37
23 31 3 39 8 44 29 5 19 2 30 -11 40 -18 13 -16 15 15 17 11 1 14 10 12 31 -3
24 -2 27 10 17 18 -14 28 -6 28 23 0 18 -10 26 -42 37 -24 8 -52 19 -63 23
-14 6 -10 -3 15 -29z"/>
<path d="M365 2761 c-13 -16 -14 -24 -5 -41 13 -24 4 -64 -13 -57 -51 19 -56
18 -63 -9 -7 -29 7 -44 44 -44 27 0 29 -27 7 -70 -9 -17 -14 -30 -13 -31 20
-7 145 -25 151 -22 13 7 7 41 -8 47 -8 3 -15 17 -15 32 0 26 1 26 53 18 88
-12 92 -12 92 16 0 23 -5 26 -60 35 -55 10 -60 13 -63 38 -2 19 1 27 13 27 8
0 18 7 21 15 10 24 -15 45 -53 45 -19 0 -42 4 -52 10 -14 7 -23 5 -36 -9z m92
-71 c5 -29 -13 -43 -46 -35 -23 5 -31 12 -31 29 0 13 2 25 5 28 11 10 70 -8
72 -22z m-17 -116 c0 -29 -11 -35 -49 -28 -23 5 -31 12 -31 29 0 29 4 32 45
27 29 -3 35 -8 35 -28z"/>
<path d="M4255 2758 c-22 -6 -84 -11 -137 -12 -54 0 -98 -2 -98 -4 0 -11 71
-42 97 -42 38 0 48 -12 31 -39 -19 -30 0 -42 54 -35 34 5 48 12 51 25 3 11 1
22 -4 25 -19 11 -9 34 15 34 24 0 36 -21 36 -67 0 -25 -28 -34 -114 -36 -45
-1 -63 4 -105 31 -28 17 -51 29 -51 26 0 -3 8 -19 18 -36 25 -43 75 -71 128
-70 59 2 56 -15 -3 -24 -122 -17 -128 -19 -125 -39 2 -11 5 -21 7 -23 2 -2 40
2 86 9 73 10 84 10 94 -4 9 -12 14 -14 23 -5 16 16 15 35 -3 42 -25 9 -18 45
9 52 34 8 43 0 51 -46 8 -50 21 -59 37 -25 10 22 8 28 -10 48 -18 19 -21 31
-16 58 4 19 11 39 15 45 6 7 1 18 -11 29 -13 12 -20 31 -20 57 0 21 -3 38 -7
37 -5 -1 -26 -6 -48 -11z m-31 -67 c3 -5 -1 -12 -10 -15 -27 -10 -44 -7 -44 9
0 16 45 21 54 6z"/>
<path d="M3692 2660 c-162 -127 -391 -257 -548 -309 -153 -51 -249 -64 -424
-58 -180 6 -256 21 -562 108 -471 134 -584 154 -873 154 -216 0 -423 -23 -443
-49 -20 -25 -20 -381 -1 -401 3 -2 54 16 115 41 138 57 299 106 445 136 98 20
145 23 339 23 280 0 362 -13 770 -127 319 -89 413 -107 580 -114 224 -10 378
23 602 128 103 49 106 51 111 87 11 90 -31 421 -54 421 -4 0 -30 -18 -57 -40z"/>
<path d="M1830 2139 c-251 -23 -504 -118 -741 -278 -57 -39 -115 -79 -129 -90
l-25 -20 59 -117 c102 -202 269 -398 447 -523 158 -112 387 -208 604 -253 159
-33 416 -33 564 0 473 106 852 403 1051 825 26 56 51 112 55 125 4 15 -34 -17
-102 -86 -59 -60 -148 -139 -198 -175 -106 -78 -285 -173 -409 -216 -111 -39
-301 -77 -427 -86 -185 -12 -485 30 -645 90 -83 31 -214 96 -214 105 0 15 89
118 147 169 115 103 258 150 412 137 42 -4 164 -24 271 -46 235 -46 328 -55
446 -40 156 19 272 58 402 135 100 59 106 66 42 49 -144 -37 -330 -5 -667 117
-181 66 -375 124 -494 148 -85 18 -309 43 -349 40 -8 -1 -53 -5 -100 -10z"/>
<path d="M406 2080 c-22 -17 -50 -30 -63 -30 -14 0 -23 -6 -23 -15 0 -10 10
-15 34 -15 18 0 53 -7 76 -15 24 -8 45 -13 48 -11 8 9 -10 27 -36 37 l-27 11
23 18 c21 17 31 50 15 50 -5 0 -26 -14 -47 -30z"/>
<path d="M4171 2096 c-7 -8 -11 -32 -9 -53 3 -34 6 -38 33 -41 27 -3 33 2 48
33 18 38 34 45 44 19 4 -10 -1 -22 -11 -30 -10 -7 -16 -20 -14 -29 3 -14 5
-14 26 0 30 22 32 89 1 105 -29 16 -48 6 -65 -36 -8 -19 -20 -34 -26 -32 -19
7 -20 24 -3 41 8 9 15 20 15 26 0 16 -26 13 -39 -3z"/>
<path d="M4145 1968 c-3 -13 -7 -36 -8 -52 -2 -27 2 -30 48 -43 55 -14 91 -14
88 2 -1 6 -12 12 -25 16 -18 4 -23 12 -23 35 0 36 -19 44 -23 9 -2 -18 -9 -25
-20 -23 -13 3 -16 12 -14 41 4 40 -14 52 -23 15z"/>
<path d="M406 1954 c-33 -8 -62 -16 -64 -19 -9 -9 21 -106 32 -102 6 2 9 15 7
28 -7 46 -6 53 11 57 11 2 18 -6 23 -27 10 -45 32 -40 27 5 -6 46 18 43 30 -4
14 -52 31 -39 23 16 -7 50 -12 62 -23 61 -4 0 -34 -7 -66 -15z"/>
<path d="M449 1820 c-79 -24 -79 -24 -65 -72 17 -57 41 -65 31 -11 l-6 40 48
13 c55 15 72 26 58 39 -6 4 -34 1 -66 -9z"/>
<path d="M4158 1823 c-77 -6 -72 -32 18 -94 47 -32 67 -32 47 0 -15 25 -6 58
18 64 10 3 19 12 19 21 0 17 -1 17 -102 9z m36 -48 c-5 -11 -11 -12 -25 -4
-26 13 -24 19 6 19 17 0 23 -4 19 -15z"/>
<path d="M485 1698 c-73 -29 -75 -31 -56 -83 15 -44 39 -57 33 -19 -9 54 -8
56 45 76 35 14 50 24 46 34 -6 17 -5 17 -68 -8z"/>
<path d="M4075 1685 c-14 -13 -25 -33 -25 -45 0 -36 44 -70 89 -70 34 0 43 4
54 28 15 30 9 73 -12 80 -11 4 -13 -3 -8 -25 7 -34 -7 -53 -38 -53 -23 0 -55
28 -55 48 0 7 9 17 20 24 21 13 27 38 10 38 -6 0 -22 -11 -35 -25z"/>
<path d="M517 1574 c-41 -22 -52 -59 -29 -98 16 -27 24 -31 60 -30 53 1 82 26
82 70 0 23 -7 38 -26 53 -31 25 -49 26 -87 5z m71 -26 c19 -19 14 -45 -10 -62
-31 -22 -55 -20 -69 6 -10 19 -8 25 15 45 30 26 46 29 64 11z"/>
<path d="M602 1417 c-29 -29 -52 -59 -52 -66 0 -13 7 -13 80 4 23 6 23 4 -9
-24 -35 -31 -38 -67 -4 -57 10 2 44 12 76 21 36 10 55 20 51 26 -6 11 -49 8
-89 -6 -12 -4 -4 7 19 27 58 51 34 72 -49 42 -15 -5 -12 1 12 27 20 21 29 39
25 46 -6 9 -24 -4 -60 -40z"/>
<path d="M3950 1430 c-11 -21 -20 -42 -20 -44 0 -8 103 -66 116 -66 14 0 64
81 57 92 -9 16 -23 7 -38 -22 -18 -34 -51 -43 -41 -10 3 11 9 29 12 40 9 29
-14 25 -28 -5 -12 -26 -38 -34 -38 -12 0 7 7 22 15 33 19 25 19 34 0 34 -8 0
-24 -18 -35 -40z"/>
<path d="M4100 1455 c0 -8 9 -15 19 -15 11 0 22 -6 24 -12 4 -9 6 -8 6 3 1 18
-18 39 -36 39 -7 0 -13 -7 -13 -15z"/>
<path d="M3880 1316 c-16 -25 -30 -47 -30 -50 0 -13 30 -5 38 9 7 13 15 11 53
-15 48 -33 69 -37 69 -16 0 8 -20 26 -45 41 -39 22 -44 29 -39 50 10 39 -12
30 -46 -19z"/>
<path d="M3830 1237 c0 -8 18 -28 40 -46 71 -57 41 -94 -34 -41 -24 18 -49 29
-55 25 -15 -9 -6 -21 41 -56 49 -35 81 -37 102 -7 27 38 20 64 -28 102 -45 38
-66 45 -66 23z"/>
<path d="M755 1227 c-18 -14 -18 -26 1 -86 6 -19 4 -22 -12 -19 -12 2 -21 14
-24 33 -6 35 -24 39 -28 7 -5 -37 24 -72 59 -72 37 0 46 20 31 68 -6 19 -9 39
-6 44 10 15 34 -13 34 -39 0 -30 24 -26 28 5 2 13 -7 32 -22 47 -29 29 -35 30
-61 12z"/>
<path d="M820 1093 l-54 -50 33 -42 c24 -30 37 -39 44 -32 8 8 4 18 -11 34
-24 26 -28 42 -11 53 6 3 21 -6 33 -21 14 -17 27 -25 35 -21 8 5 6 15 -9 33
-11 14 -20 30 -20 34 0 17 29 9 40 -11 10 -20 40 -28 40 -12 0 5 -15 26 -33
47 l-33 38 -54 -50z"/>
<path d="M3721 1105 c-17 -20 -31 -42 -31 -50 0 -19 10 -19 24 1 11 14 17 11
55 -20 45 -38 56 -42 65 -27 4 5 -14 27 -39 49 -26 23 -41 43 -35 47 12 8 13
35 1 35 -5 0 -23 -16 -40 -35z"/>
<path d="M3655 1030 c-9 -14 98 -111 110 -99 6 6 -9 28 -40 59 -51 52 -60 57
-70 40z"/>
<path d="M922 977 c-60 -30 -77 -54 -34 -50 24 3 47 -22 47 -50 0 -35 20 -29
39 10 45 93 47 102 28 111 -12 7 -34 1 -80 -21z m48 -24 c-1 -18 -18 -35 -24
-24 -4 6 -4 16 -1 21 7 12 25 13 25 3z"/>
<path d="M3592 970 c-43 -39 -51 -72 -12 -48 17 11 25 7 64 -31 39 -38 46 -42
52 -27 5 12 -5 29 -31 56 -33 34 -36 41 -25 55 8 9 9 19 4 25 -5 5 -27 -8 -52
-30z"/>
<path d="M1068 858 c-45 -56 -50 -66 -43 -79 5 -7 15 -3 30 11 22 21 25 21 47
6 42 -29 56 -9 16 24 -18 15 -20 21 -11 31 10 10 18 8 38 -11 18 -17 28 -21
36 -13 7 7 -1 20 -28 42 -20 17 -40 31 -44 31 -4 0 -22 -19 -41 -42z"/>
<path d="M3487 882 c-21 -23 -22 -56 -2 -72 13 -11 23 -10 55 0 22 7 43 10 46
7 12 -11 -18 -37 -42 -37 -15 0 -24 -6 -24 -15 0 -25 53 -18 79 9 17 18 22 32
17 49 -8 33 -30 40 -73 22 -39 -17 -49 -14 -40 10 4 8 18 15 32 15 16 0 25 6
25 15 0 22 -53 19 -73 -3z"/>
<path d="M1166 779 c-44 -59 -51 -75 -37 -83 10 -7 91 92 91 112 0 27 -19 17
-54 -29z"/>
<path d="M3416 822 c-3 -5 6 -25 20 -45 14 -20 22 -37 20 -37 -3 0 -26 10 -51
22 -34 17 -48 19 -57 10 -8 -8 -2 -25 27 -67 21 -30 44 -55 52 -55 19 0 16 10
-12 52 l-25 37 50 -21 c79 -33 89 -19 39 52 -41 59 -53 68 -63 52z"/>
<path d="M1232 768 c-19 -19 -14 -44 13 -76 13 -16 22 -32 18 -36 -14 -14 -33
-4 -49 26 -13 26 -18 29 -25 16 -13 -23 -1 -46 33 -64 62 -32 97 14 54 71 -30
39 -31 45 -12 45 8 0 23 -12 34 -27 18 -25 21 -26 28 -10 15 40 -63 86 -94 55z"/>
<path d="M3295 740 c-8 -13 54 -121 73 -128 22 -7 13 28 -23 83 -37 58 -40 61
-50 45z"/>
<path d="M1347 684 c-50 -81 -58 -104 -34 -104 8 0 19 11 25 25 13 28 21 30
46 12 15 -11 16 -17 7 -35 -14 -27 -14 -42 2 -42 10 0 77 107 77 124 0 15 -30
4 -40 -14 -9 -17 -14 -18 -33 -9 -31 16 -30 15 -17 39 8 15 9 25 2 32 -7 7
-18 -2 -35 -28z"/>
<path d="M3195 680 c-3 -5 -1 -18 5 -29 8 -16 6 -23 -12 -36 -21 -14 -24 -14
-35 1 -7 9 -14 22 -16 28 -3 8 -8 8 -17 0 -9 -9 -4 -26 19 -73 17 -33 35 -61
39 -61 18 0 21 14 7 40 -13 26 -13 28 13 39 15 7 28 9 30 3 7 -23 30 -44 40
-38 8 5 1 27 -20 71 -32 64 -41 74 -53 55z"/>
<path d="M1493 637 c-12 -19 -53 -108 -53 -116 0 -14 93 -52 103 -42 7 7 -2
16 -27 27 -33 16 -44 33 -30 46 3 4 21 0 40 -8 30 -13 34 -13 34 1 0 9 -11 20
-25 25 -14 5 -25 16 -25 25 0 18 8 18 40 0 33 -19 42 -18 38 1 -4 22 -85 57
-95 41z"/>
<path d="M3001 584 c-12 -15 -21 -30 -21 -34 0 -23 25 -72 40 -80 45 -24 100
-1 100 41 0 25 -20 25 -27 -1 -6 -24 -45 -27 -62 -6 -7 8 -11 27 -9 43 2 23 8
28 33 29 46 2 48 3 35 19 -20 24 -66 18 -89 -11z"/>
<path d="M1614 574 c-4 -11 -15 -41 -26 -67 -22 -58 -22 -57 -3 -57 9 0 20 11
25 25 9 22 13 24 31 15 15 -9 20 -19 16 -36 -2 -14 0 -27 5 -31 13 -7 28 16
28 43 0 12 7 27 15 34 34 28 7 70 -57 85 -22 6 -29 3 -34 -11z m61 -27 c10 -8
15 -19 11 -25 -15 -25 -63 -4 -53 22 8 20 18 20 42 3z"/>
<path d="M2863 545 l-32 -13 22 -66 c12 -39 27 -66 35 -66 10 0 12 8 7 29 -9
42 22 52 51 15 30 -37 49 -23 27 19 -9 18 -16 42 -14 54 1 13 -5 26 -18 32
-25 14 -39 13 -78 -4z m62 -34 c0 -22 -42 -33 -50 -14 -6 18 12 34 35 30 8 -1
15 -8 15 -16z"/>
<path d="M1737 480 c-20 -72 -21 -80 -4 -80 8 0 21 25 30 60 20 72 21 80 4 80
-8 0 -21 -25 -30 -60z"/>
<path d="M1817 523 c-3 -5 -10 -28 -17 -53 -6 -25 -13 -53 -16 -62 -6 -19 12
-29 74 -43 25 -5 32 -3 32 8 0 9 -14 17 -36 21 -26 5 -34 12 -32 24 3 13 12
16 41 14 45 -4 50 14 7 25 -41 11 -38 28 5 28 48 0 45 16 -7 32 -51 15 -46 15
-51 6z"/>
<path d="M2742 511 c-11 -7 -35 -151 -27 -159 2 -3 15 8 28 22 26 28 46 33 64
15 6 -6 18 -9 27 -7 12 2 7 16 -24 65 -44 69 -51 75 -68 64z m38 -83 c0 -4 -7
-8 -15 -8 -10 0 -15 10 -15 28 1 26 1 26 15 8 8 -11 15 -23 15 -28z"/>
<path d="M1940 471 c-14 -27 -4 -45 35 -64 37 -18 45 -34 19 -44 -8 -3 -25 4
-38 16 -14 13 -26 18 -30 13 -10 -17 5 -42 29 -48 80 -20 117 46 46 82 -13 7
-28 17 -34 23 -18 18 21 26 42 7 33 -30 57 -14 25 18 -22 23 -81 21 -94 -3z"/>
<path d="M2586 483 c-28 -5 -28 -5 -21 -61 10 -92 11 -93 53 -86 57 9 72 15
72 25 0 6 -19 9 -42 7 -33 -2 -44 1 -46 13 -2 12 7 19 32 23 48 9 46 26 -4 26
-22 0 -40 5 -40 10 0 11 7 14 53 24 15 4 25 11 22 16 -6 10 -26 11 -79 3z"/>
<path d="M2136 433 c-11 -67 -7 -113 8 -113 9 0 16 12 18 28 4 38 42 38 46 0
4 -30 30 -46 38 -23 4 8 3 26 0 40 -4 14 -2 34 4 45 16 29 -19 60 -69 60 -37
0 -39 -2 -45 -37z m82 -15 c3 -13 -3 -18 -22 -18 -20 0 -26 5 -26 21 0 15 5
20 22 17 13 -2 24 -11 26 -20z"/>
<path d="M2432 458 c-15 -15 -16 -55 0 -64 6 -4 25 -10 41 -13 17 -4 32 -11
34 -18 5 -15 -28 -26 -41 -13 -12 12 -46 14 -46 2 0 -30 83 -45 108 -20 31 31
3 78 -47 78 -11 0 -23 5 -27 11 -11 18 17 28 43 16 28 -12 41 -3 23 18 -15 18
-71 20 -88 3z"/>
<path d="M2285 398 c9 -91 8 -90 62 -86 60 4 72 28 14 28 -34 0 -41 3 -41 20
0 16 7 20 36 20 45 0 42 24 -4 28 -46 5 -43 32 3 32 19 0 35 5 35 10 0 6 -25
10 -55 10 l-56 0 6 -62z"/>
</g>
</svg>
