<?xml version="1.0" encoding="UTF-8"?>
<svg xmlns="http://www.w3.org/2000/svg" xmlns:xlink="http://www.w3.org/1999/xlink" width="347pt" height="347pt" viewBox="0 0 347 347" version="1.1">
<g id="surface1">
<path style=" stroke:none;fill-rule:nonzero;fill:rgb(0%,0%,0%);fill-opacity:1;" d="M 155.925781 1.046875 C 127.808594 4.496094 104.023438 12.660156 82.261719 26.371094 C 47.5625 48.320312 22.359375 80.605469 9.871094 119.113281 C 3.8125 137.691406 0.0742188 161.664062 0.972656 176.421875 C 2.992188 211.480469 12.265625 240.699219 29.914062 267.292969 C 52.125 300.777344 84.878906 325.351562 122.570312 336.8125 C 164.675781 349.621094 208.050781 346.324219 247.164062 327.449219 C 259.949219 321.230469 265.558594 317.859375 276.703125 309.46875 C 313.796875 281.675781 338.175781 238.898438 343.632812 192.078125 C 352.609375 115.140625 308.335938 41.050781 236.320312 12.4375 C 211.566406 2.621094 179.929688 -1.871094 155.925781 1.046875 Z M 200.796875 8.164062 C 262.195312 19.101562 312 62.253906 331.296875 121.359375 C 336.902344 138.515625 339.074219 153.273438 339 173.425781 C 338.921875 188.78125 337.800781 198.519531 334.585938 211.929688 C 320.527344 269.765625 274.90625 316.960938 217.621094 332.839844 C 201.394531 337.335938 194.289062 338.234375 172.753906 338.234375 C 151.363281 338.234375 147.921875 337.785156 130.5 333.367188 C 104.398438 326.773438 77.550781 311.492188 57.285156 291.5625 C 30.738281 265.570312 14.132812 233.054688 8.527344 196.273438 C 6.65625 184.289062 6.65625 160.164062 8.527344 148.328125 C 11.292969 130.5 16.078125 115.292969 23.929688 99.261719 C 37.316406 72.066406 57.359375 49.292969 82.636719 32.738281 C 92.058594 26.59375 110.082031 17.90625 120.925781 14.308594 C 130.425781 11.164062 144.257812 8.015625 154.429688 6.816406 C 164.601562 5.617188 190.476562 6.367188 200.796875 8.164062 Z M 200.796875 8.164062 "/>
<path style=" stroke:none;fill-rule:nonzero;fill:rgb(0%,0%,0%);fill-opacity:1;" d="M 175.816406 26.894531 C 175.371094 31.6875 174.769531 37.007812 174.472656 38.730469 C 174.097656 41.652344 174.171875 41.953125 175.667969 41.953125 C 177.3125 41.953125 177.539062 41.652344 178.285156 38.054688 C 178.660156 36.558594 179.035156 36.183594 180.230469 36.484375 C 182.175781 37.007812 183.96875 35.507812 183.96875 33.261719 C 183.96875 32.289062 184.34375 31.464844 184.71875 31.464844 C 185.914062 31.464844 185.613281 35.433594 184.269531 37.382812 C 183.597656 38.28125 182.027344 39.703125 180.679688 40.527344 L 178.359375 41.953125 L 180.453125 41.953125 C 183.671875 41.953125 186.8125 40.003906 188.382812 36.859375 L 189.878906 34.085938 L 189.429688 37.757812 C 188.90625 41.875 190.101562 43.449219 193.617188 43.449219 C 196.90625 43.449219 197.730469 42.476562 197.058594 39.253906 C 196.535156 36.558594 196.457031 36.40625 195.710938 37.980469 C 195.335938 38.957031 194.441406 39.703125 193.839844 39.703125 C 193.019531 39.703125 192.871094 39.105469 193.242188 36.859375 C 193.46875 35.359375 193.691406 33.636719 193.691406 33.113281 C 193.691406 32.4375 194.441406 32.289062 196.308594 32.664062 C 199.152344 33.1875 199.75 32.289062 197.730469 30.640625 C 196.757812 29.890625 196.308594 29.890625 195.039062 30.640625 C 192.644531 32.136719 184.492188 31.015625 182.472656 28.839844 L 180.828125 27.117188 L 182.550781 24.796875 C 184.417969 22.175781 185.988281 21.574219 184.566406 24.046875 C 183.074219 26.371094 186.0625 28.46875 190.699219 28.46875 C 192.71875 28.46875 194.886719 28.691406 195.5625 28.992188 C 196.609375 29.367188 196.757812 29.140625 196.382812 27.867188 C 195.933594 26.59375 196.234375 26.144531 197.730469 25.769531 C 199.375 25.394531 199.523438 25.097656 198.851562 23.898438 C 198.253906 22.699219 197.582031 22.550781 195.5625 22.921875 C 193.316406 23.296875 193.09375 23.222656 193.46875 21.800781 C 193.765625 20.601562 193.394531 20.078125 191.820312 19.476562 C 189.128906 18.429688 189.203125 18.429688 189.726562 20.976562 C 190.25 23.746094 189.503906 23.824219 186.136719 21.351562 C 184.492188 20.078125 182.996094 19.550781 181.949219 19.851562 C 181.054688 20.078125 180.15625 19.925781 179.929688 19.550781 C 179.707031 19.179688 178.882812 18.726562 178.136719 18.578125 C 176.867188 18.203125 176.640625 18.953125 175.816406 26.894531 Z M 180.605469 27.117188 C 180.605469 31.464844 180.304688 33.335938 179.632812 33.5625 C 178.882812 33.785156 178.734375 32.886719 179.109375 29.140625 C 179.558594 24.195312 180.082031 20.976562 180.453125 20.976562 C 180.53125 20.976562 180.605469 23.746094 180.605469 27.117188 Z M 194.738281 24.648438 C 194.964844 25.019531 194.289062 25.84375 193.242188 26.59375 C 190.25 28.542969 185.167969 26.746094 187.484375 24.496094 C 188.234375 23.746094 194.289062 23.898438 194.738281 24.648438 Z M 194.738281 24.648438 "/>
<path style=" stroke:none;fill-rule:nonzero;fill:rgb(0%,0%,0%);fill-opacity:1;" d="M 155.550781 19.402344 C 155.550781 19.851562 155.925781 20.375 156.300781 20.601562 C 156.75 20.824219 157.046875 21.574219 157.046875 22.25 C 157.046875 23.148438 156.375 23.375 153.832031 23.074219 C 150.988281 22.699219 150.542969 22.921875 149.71875 24.570312 C 148.371094 27.492188 148.597656 28.617188 150.542969 28.316406 C 151.738281 28.167969 152.261719 27.492188 152.410156 25.996094 C 152.636719 24.421875 153.082031 23.972656 154.355469 23.972656 C 155.328125 23.972656 158.167969 23.746094 160.710938 23.523438 C 163.925781 23.148438 165.273438 23.296875 165.273438 23.898438 C 165.273438 24.347656 164.003906 24.722656 162.132812 24.722656 L 158.917969 24.722656 L 161.160156 26.070312 C 162.433594 26.894531 163.851562 28.019531 164.449219 28.691406 C 164.972656 29.441406 166.097656 29.964844 166.992188 29.964844 C 168.265625 29.964844 168.414062 29.589844 168.039062 27.34375 C 167.667969 25.246094 167.890625 24.722656 169.085938 24.347656 C 170.808594 23.746094 170.882812 23 169.3125 21.648438 C 168.414062 20.902344 167.667969 20.902344 165.722656 21.574219 C 162.207031 22.847656 160.785156 22.699219 160.785156 21.050781 C 160.785156 20.300781 160.261719 19.402344 159.589844 19.179688 C 157.796875 18.503906 155.550781 18.652344 155.550781 19.402344 Z M 155.550781 19.402344 "/>
<path style=" stroke:none;fill-rule:nonzero;fill:rgb(0%,0%,0%);fill-opacity:1;" d="M 138.574219 23.523438 C 137.679688 25.019531 132.667969 26.445312 130.199219 25.84375 C 128.703125 25.546875 127.808594 25.695312 127.359375 26.445312 C 127.058594 27.042969 125.265625 28.019531 123.394531 28.691406 C 121.152344 29.441406 120.628906 29.890625 121.75 29.890625 C 123.320312 29.964844 123.394531 30.265625 123.394531 35.660156 C 123.394531 39.03125 123.695312 41.128906 124.066406 40.828125 C 124.742188 40.453125 126.386719 44.796875 126.386719 46.972656 C 126.386719 47.496094 127.058594 47.945312 127.882812 47.945312 C 128.855469 47.945312 129.378906 47.421875 129.378906 46.519531 C 129.378906 44.796875 130.574219 43.824219 131.246094 44.875 C 131.472656 45.324219 132.21875 45.398438 132.816406 45.171875 C 133.863281 44.796875 133.9375 44.949219 133.191406 46.296875 C 131.769531 48.917969 132.292969 49.070312 134.613281 46.820312 C 137.230469 44.273438 138.652344 40.378906 138.050781 37.382812 C 137.828125 36.257812 137.902344 35.058594 138.277344 34.910156 C 138.652344 34.683594 139.546875 36.933594 140.296875 39.929688 C 141.492188 44.347656 142.015625 45.324219 143.210938 45.324219 C 145.082031 45.324219 145.082031 43.226562 143.363281 37.605469 C 142.164062 33.636719 142.164062 33.5625 143.660156 33.1875 C 145.53125 32.664062 145.15625 31.164062 142.988281 30.863281 C 140.820312 30.488281 139.324219 26.21875 141.042969 24.945312 C 142.390625 23.972656 141.867188 22.472656 140.222656 22.472656 C 139.621094 22.472656 138.875 22.921875 138.574219 23.523438 Z M 137.601562 30.191406 C 138.125 31.761719 138.277344 33.261719 138.050781 33.488281 C 137.601562 33.9375 136.632812 31.6875 135.808594 28.09375 C 135.0625 24.945312 136.40625 26.59375 137.601562 30.191406 Z M 132.96875 31.164062 C 134.015625 35.132812 133.714844 35.957031 131.996094 34.160156 C 130.574219 32.738281 128.179688 32.585938 127.65625 33.859375 C 127.433594 34.386719 127.207031 33.488281 127.207031 31.761719 C 127.132812 28.167969 127.433594 27.71875 130.125 27.71875 C 131.769531 27.71875 132.144531 28.167969 132.96875 31.164062 Z M 129.378906 39.328125 C 129.902344 41.203125 130.125 42.925781 129.902344 43.148438 C 129.300781 43.75 128.105469 41.203125 127.507812 37.90625 C 126.683594 33.859375 128.179688 34.984375 129.378906 39.328125 Z M 134.613281 39.855469 C 134.539062 44.199219 133.640625 43.675781 132.742188 38.730469 C 132.292969 36.484375 132.441406 35.957031 133.414062 35.957031 C 134.386719 35.957031 134.613281 36.78125 134.613281 39.855469 Z M 134.613281 39.855469 "/>
<path style=" stroke:none;fill-rule:nonzero;fill:rgb(0%,0%,0%);fill-opacity:1;" d="M 210.890625 24.347656 C 210.890625 25.921875 209.320312 26.445312 206.929688 25.546875 C 205.808594 25.097656 204.910156 25.019531 204.910156 25.394531 C 204.910156 25.769531 205.957031 26.21875 207.226562 26.519531 C 208.875 26.820312 209.398438 27.269531 209.246094 28.242188 C 208.949219 29.664062 208.796875 29.664062 205.359375 28.765625 C 203.9375 28.46875 203.339844 28.542969 203.636719 28.992188 C 203.9375 29.441406 205.433594 30.039062 206.929688 30.339844 C 210.519531 31.015625 212.539062 32.0625 211.9375 33.035156 C 211.714844 33.488281 210.445312 33.1875 208.875 32.210938 C 207.378906 31.390625 206.105469 30.714844 206.03125 30.863281 C 205.730469 31.238281 203.414062 39.554688 203.414062 40.304688 C 203.414062 40.753906 204.160156 41.203125 205.132812 41.425781 C 206.628906 41.652344 206.628906 41.726562 204.535156 42.550781 C 199.152344 44.722656 199.152344 44.875 204.609375 44.875 C 207.527344 44.949219 210.144531 44.722656 210.367188 44.421875 C 210.667969 44.199219 210.292969 43.300781 209.621094 42.476562 C 208.273438 41.050781 208.347656 41.050781 210.890625 41.578125 C 214.480469 42.328125 216.351562 43.375 214.109375 43.449219 C 212.460938 43.449219 212.460938 43.523438 214.707031 46.820312 C 217.175781 50.492188 217.699219 50.792969 219.117188 49.070312 C 219.867188 48.09375 219.792969 47.644531 218.667969 46.371094 C 217.546875 45.171875 217.472656 44.722656 218.296875 44.199219 C 219.417969 43.601562 221.363281 38.65625 221.363281 36.558594 C 221.363281 35.210938 218.894531 34.085938 217.621094 34.835938 C 217.25 35.058594 216.5 35.058594 216.050781 34.761719 C 215.453125 34.386719 215.453125 34.085938 216.128906 33.710938 C 216.652344 33.410156 219.042969 33.785156 221.4375 34.460938 C 224.875 35.507812 225.847656 35.582031 225.847656 34.835938 C 225.847656 33.1875 223.828125 32.136719 221.734375 32.664062 C 220.164062 33.035156 219.792969 32.960938 220.015625 32.136719 C 220.242188 31.464844 221.289062 31.164062 223.15625 31.3125 C 224.652344 31.464844 225.847656 31.238281 225.847656 30.863281 C 225.847656 29.515625 223.679688 28.316406 222.183594 28.839844 C 220.988281 29.214844 220.839844 28.992188 221.136719 27.644531 C 221.4375 26.746094 221.136719 25.769531 220.539062 25.394531 C 218.820312 24.347656 217.621094 24.648438 217.621094 26.144531 C 217.621094 26.96875 217.25 27.867188 216.800781 28.167969 C 215.679688 28.839844 214.332031 27.269531 214.257812 25.246094 C 214.257812 24.121094 213.734375 23.523438 212.613281 23.375 C 211.414062 23.222656 210.890625 23.523438 210.890625 24.347656 Z M 215.679688 28.917969 C 217.175781 29.515625 216.351562 31.464844 214.558594 31.464844 C 213.210938 31.464844 212.613281 29.964844 213.660156 28.992188 C 214.257812 28.390625 214.257812 28.390625 215.679688 28.917969 Z M 210.890625 35.660156 C 210.890625 36.859375 209.695312 37.082031 209.023438 35.957031 C 208.425781 34.984375 209.320312 33.5625 210.21875 34.085938 C 210.59375 34.386719 210.890625 35.058594 210.890625 35.660156 Z M 217.472656 36.859375 C 216.949219 38.28125 214.632812 38.503906 214.632812 37.15625 C 214.632812 36.40625 215.304688 35.957031 216.203125 35.957031 C 217.097656 35.957031 217.621094 36.332031 217.472656 36.859375 Z M 210.144531 38.582031 C 210.144531 39.179688 209.621094 39.703125 209.023438 39.703125 C 208.425781 39.703125 207.902344 39.179688 207.902344 38.582031 C 207.902344 37.980469 208.425781 37.457031 209.023438 37.457031 C 209.621094 37.457031 210.144531 37.980469 210.144531 38.582031 Z M 216.128906 40.453125 C 216.128906 41.277344 215.605469 41.953125 215.003906 41.953125 C 214.40625 41.953125 213.882812 41.277344 213.882812 40.453125 C 213.882812 39.628906 214.40625 38.957031 215.003906 38.957031 C 215.605469 38.957031 216.128906 39.628906 216.128906 40.453125 Z M 216.128906 40.453125 "/>
<path style=" stroke:none;fill-rule:nonzero;fill:rgb(0%,0%,0%);fill-opacity:1;" d="M 153.308594 26.96875 C 152.785156 28.167969 151.960938 29.589844 151.363281 30.039062 C 149.269531 31.761719 150.390625 32.289062 153.007812 30.789062 C 156.300781 28.839844 156.300781 28.839844 156.300781 31.015625 C 156.300781 32.4375 155.703125 32.960938 153.53125 33.636719 C 150.988281 34.386719 150.914062 34.386719 153.082031 34.085938 C 154.429688 33.9375 155.625 34.011719 155.851562 34.386719 C 156.375 35.210938 154.28125 38.957031 151.960938 41.351562 C 149.644531 43.824219 150.09375 43.972656 154.054688 41.953125 C 157.273438 40.304688 158.917969 38.28125 159.664062 34.984375 C 160.488281 31.761719 161.535156 32.664062 161.535156 36.632812 C 161.535156 41.351562 162.65625 42.328125 167.667969 41.726562 C 172.230469 41.128906 173.5 40.230469 172.152344 38.355469 C 171.628906 37.679688 171.03125 36.484375 170.734375 35.734375 C 170.359375 34.535156 170.210938 34.535156 169.460938 36.109375 C 169.011719 37.007812 167.964844 37.90625 167.21875 38.054688 C 166.097656 38.28125 165.945312 37.90625 166.097656 35.132812 C 166.320312 32.136719 166.171875 31.761719 164.300781 31.164062 C 162.730469 30.566406 162.058594 30.640625 161.609375 31.390625 C 160.785156 32.664062 159.890625 31.238281 160.488281 29.664062 C 160.863281 28.765625 160.488281 28.46875 158.917969 28.46875 C 157.121094 28.46875 156.972656 28.316406 157.871094 27.269531 C 158.617188 26.292969 158.617188 25.996094 157.71875 25.394531 C 155.777344 24.195312 154.28125 24.722656 153.308594 26.96875 Z M 153.308594 26.96875 "/>
<path style=" stroke:none;fill-rule:nonzero;fill:rgb(0%,0%,0%);fill-opacity:1;" d="M 234.074219 34.085938 C 234.074219 35.882812 234.523438 36.859375 235.570312 37.457031 C 236.84375 38.132812 237.066406 37.980469 237.515625 36.332031 C 237.816406 34.984375 237.589844 33.9375 236.691406 32.960938 C 234.75 30.789062 234.074219 31.089844 234.074219 34.085938 Z M 234.074219 34.085938 "/>
<path style=" stroke:none;fill-rule:nonzero;fill:rgb(0%,0%,0%);fill-opacity:1;" d="M 108.585938 32.8125 C 107.914062 33.261719 107.765625 34.386719 108.136719 36.558594 C 108.585938 39.480469 108.4375 39.703125 106.121094 41.128906 C 102.902344 43.074219 102.679688 43.074219 102.753906 40.976562 C 102.828125 39.628906 102.378906 39.328125 100.0625 39.105469 C 96.769531 38.804688 96.472656 39.703125 99.089844 41.800781 C 101.40625 43.675781 101.40625 44.199219 99.238281 44.199219 C 97.742188 44.199219 97.519531 44.574219 97.59375 46.972656 C 97.59375 49.292969 97.894531 49.816406 99.089844 49.816406 C 100.285156 49.816406 100.585938 49.292969 100.585938 47.570312 C 100.585938 45.546875 101.183594 45.023438 106.195312 42.175781 C 112.25 38.730469 113.671875 38.355469 113.671875 40.078125 C 113.671875 40.679688 113.074219 41.203125 112.25 41.203125 C 111.503906 41.203125 110.457031 41.726562 109.859375 42.402344 C 109.335938 43 107.242188 44.421875 105.222656 45.398438 C 103.203125 46.445312 101.707031 47.496094 101.929688 47.644531 C 102.15625 47.871094 104.023438 47.195312 106.121094 46.148438 C 109.183594 44.574219 109.933594 44.421875 109.933594 45.324219 C 109.933594 45.921875 109.410156 46.445312 108.738281 46.445312 C 107.988281 46.445312 107.765625 46.894531 107.988281 47.792969 C 108.363281 48.917969 107.539062 49.59375 103.875 51.316406 C 101.40625 52.515625 99.6875 53.636719 100.0625 53.789062 C 100.511719 53.9375 102.605469 53.113281 104.773438 51.988281 C 108.511719 50.117188 108.738281 50.117188 109.707031 51.390625 C 111.054688 53.261719 110.90625 54.539062 109.183594 55.0625 C 106.792969 55.8125 107.464844 56.558594 110.605469 56.710938 C 112.476562 56.859375 113.898438 56.484375 114.496094 55.734375 C 115.46875 54.613281 115.390625 54.238281 113.296875 49.292969 C 112.925781 48.246094 113.671875 47.570312 116.964844 45.921875 C 121.675781 43.675781 122.199219 42.699219 118.90625 42.699219 C 117.410156 42.699219 116.664062 43.074219 116.664062 43.824219 C 116.664062 44.421875 115.691406 45.398438 114.421875 46.070312 C 111.878906 47.34375 111.355469 46.371094 113.375 44.125 C 113.972656 43.449219 114.644531 42.328125 114.71875 41.652344 C 114.792969 40.976562 115.691406 39.628906 116.664062 38.65625 L 118.382812 36.78125 L 116.289062 35.957031 C 114.34375 35.210938 113.972656 35.359375 112.476562 37.230469 C 110.457031 39.628906 110.082031 38.28125 111.726562 35.058594 C 112.328125 33.9375 112.625 32.886719 112.328125 32.664062 C 111.726562 31.988281 109.707031 32.136719 108.585938 32.8125 Z M 108.585938 32.8125 "/>
<path style=" stroke:none;fill-rule:nonzero;fill:rgb(0%,0%,0%);fill-opacity:1;" d="M 102.378906 36.035156 C 101.558594 36.484375 101.707031 36.933594 102.753906 38.132812 C 103.578125 39.03125 104.773438 39.703125 105.445312 39.703125 C 106.941406 39.703125 107.839844 38.132812 107.089844 36.933594 C 106.34375 35.882812 103.5 35.285156 102.378906 36.035156 Z M 102.378906 36.035156 "/>
<path style=" stroke:none;fill-rule:nonzero;fill:rgb(0%,0%,0%);fill-opacity:1;" d="M 230.113281 35.734375 C 229.214844 36.558594 229.511719 41.203125 230.410156 41.203125 C 231.007812 41.203125 231.007812 41.578125 230.335938 42.328125 C 229.8125 42.925781 228.617188 43.449219 227.644531 43.449219 C 226.449219 43.449219 226 43.75 226.296875 44.574219 C 226.523438 45.171875 226 46.671875 225.175781 47.871094 C 223.457031 50.265625 223.753906 52.441406 225.847656 52.441406 C 226.820312 52.441406 227.867188 51.089844 229.140625 48.320312 C 230.1875 46.070312 231.308594 44.199219 231.757812 44.199219 C 233.328125 44.199219 233.402344 45.921875 231.90625 47.496094 C 230.035156 49.441406 230.484375 51.691406 232.730469 51.691406 C 234.375 51.691406 238.5625 53.9375 238.5625 54.835938 C 238.5625 55.660156 237.214844 55.585938 236.691406 54.6875 C 236.46875 54.238281 235.71875 53.9375 235.121094 53.9375 C 234.375 53.9375 234.226562 54.3125 234.75 55.210938 C 235.121094 55.960938 235.644531 57.160156 235.871094 57.832031 C 236.394531 59.554688 240.28125 59.632812 241.628906 57.984375 C 242.226562 57.234375 243.199219 57.007812 244.320312 57.308594 C 246.339844 57.757812 246.5625 56.785156 244.84375 55.0625 C 243.871094 54.164062 243.796875 53.714844 244.546875 52.738281 C 245.144531 52.140625 246.117188 51.839844 246.863281 52.066406 C 248.359375 52.589844 248.882812 50.640625 247.535156 49.816406 C 247.011719 49.519531 247.164062 48.769531 247.835938 47.792969 C 249.257812 45.773438 248.136719 43.449219 245.816406 43.601562 C 243.5 43.824219 239.757812 41.203125 240.804688 40.152344 C 241.40625 39.554688 242.976562 40.003906 246.414062 41.875 C 251.5 44.574219 252.695312 44.648438 251.277344 42.027344 C 250.675781 40.828125 250.152344 40.601562 249.257812 41.128906 C 248.433594 41.578125 247.164062 41.425781 245.59375 40.601562 C 243.347656 39.554688 243.273438 39.328125 244.320312 38.503906 C 245.441406 37.757812 245.441406 37.457031 244.621094 36.40625 C 243.199219 34.761719 241.777344 34.910156 239.460938 37.082031 C 238.339844 38.132812 237.066406 38.804688 236.542969 38.65625 C 236.019531 38.429688 235.421875 38.582031 235.195312 38.957031 C 234.523438 40.078125 233.328125 39.855469 233.328125 38.730469 C 233.328125 37.382812 230.785156 35.058594 230.113281 35.734375 Z M 236.320312 41.800781 C 236.320312 42.699219 234.597656 44.199219 233.550781 44.199219 C 232.28125 44.199219 232.28125 42.175781 233.550781 41.726562 C 234.972656 41.128906 236.320312 41.128906 236.320312 41.800781 Z M 239.234375 47.269531 C 238.5625 47.644531 238.863281 48.09375 240.28125 48.769531 C 242.226562 49.667969 242.226562 49.742188 241.03125 51.765625 C 239.832031 53.789062 239.757812 53.789062 237.292969 52.589844 C 235.945312 51.914062 234.824219 51.089844 234.824219 50.640625 C 234.898438 49.367188 236.769531 47.195312 237.816406 47.195312 C 238.339844 47.195312 238.5625 46.972656 238.339844 46.746094 C 238.113281 46.445312 238.261719 45.546875 238.785156 44.648438 C 239.683594 43.074219 239.683594 43.074219 239.910156 44.875 C 240.058594 45.847656 239.757812 46.894531 239.234375 47.269531 Z M 243.722656 44.125 C 244.621094 44.722656 244.695312 45.171875 243.945312 46.746094 C 243.5 47.792969 242.675781 48.695312 242.226562 48.695312 C 241.628906 48.695312 241.703125 48.320312 242.375 47.496094 C 243.125 46.597656 243.125 45.996094 242.453125 44.875 C 241.480469 43.375 242.003906 43.074219 243.722656 44.125 Z M 243.722656 44.125 "/>
<path style=" stroke:none;fill-rule:nonzero;fill:rgb(0%,0%,0%);fill-opacity:1;" d="M 237.066406 49.742188 C 237.066406 51.914062 238.339844 52.964844 239.535156 51.765625 C 240.132812 51.167969 240.207031 50.566406 239.609375 49.667969 C 238.339844 47.644531 237.066406 47.644531 237.066406 49.742188 Z M 237.066406 49.742188 "/>
<path style=" stroke:none;fill-rule:nonzero;fill:rgb(0%,0%,0%);fill-opacity:1;" d="M 84.730469 45.921875 C 82.710938 46.820312 82.5625 48.09375 84.132812 49.441406 C 85.703125 50.714844 85.554688 51.539062 83.609375 51.839844 C 81.214844 52.214844 81.214844 53.5625 83.535156 54.613281 C 85.253906 55.4375 85.703125 55.359375 86.449219 54.3125 C 87.199219 53.261719 87.648438 53.5625 89.667969 56.335938 L 92.058594 59.554688 L 89.59375 61.730469 L 87.199219 63.976562 L 86.75 62.101562 C 86.375 60.605469 85.851562 60.304688 83.90625 60.53125 C 81.214844 60.679688 80.992188 60.304688 82.710938 58.359375 C 83.832031 57.085938 83.984375 57.085938 85.480469 58.507812 C 87.421875 60.304688 89.367188 60.082031 89.367188 58.058594 C 89.367188 56.785156 88.84375 56.558594 85.628906 56.410156 C 83.160156 56.335938 81.589844 56.632812 81.066406 57.382812 C 80.320312 58.28125 80.09375 58.28125 79.273438 57.308594 C 78.523438 56.335938 78.523438 55.886719 79.644531 54.6875 C 81.140625 53.039062 81.066406 52.8125 78.824219 52.140625 C 77.402344 51.691406 76.804688 52.289062 74.933594 55.585938 C 72.617188 59.554688 72.390625 60.828125 74.261719 59.332031 C 75.007812 58.65625 75.53125 58.730469 76.128906 59.332031 C 77.402344 60.605469 77.253906 61.953125 75.832031 62.476562 C 75.160156 62.777344 74.785156 63.152344 75.007812 63.453125 C 75.308594 63.675781 75.980469 63.527344 76.503906 63.003906 C 78 61.804688 79.046875 63.300781 80.320312 68.621094 C 81.367188 73.039062 81.367188 73.039062 81.964844 70.492188 L 82.488281 68.023438 L 84.878906 70.867188 C 86.527344 72.816406 87.648438 73.492188 88.46875 73.191406 C 90.039062 72.589844 90.117188 70.195312 88.621094 68.921875 C 87.945312 68.394531 86.675781 66.898438 85.851562 65.699219 L 84.207031 63.453125 L 86.152344 63.902344 C 87.574219 64.277344 88.46875 63.976562 89.742188 62.554688 C 90.714844 61.503906 91.835938 60.679688 92.285156 60.679688 C 92.734375 60.679688 94.078125 62.101562 95.199219 63.75 C 96.921875 66.148438 97.59375 66.597656 98.417969 65.847656 C 99.910156 64.574219 99.6875 63.152344 97.519531 60.230469 C 95.574219 57.683594 95.574219 57.609375 96.921875 56.035156 C 98.339844 54.460938 98.339844 54.460938 95.875 54.835938 C 93.554688 55.136719 93.105469 54.910156 90.265625 51.015625 C 88.542969 48.695312 86.972656 46.445312 86.75 45.996094 C 86.449219 45.398438 85.851562 45.398438 84.730469 45.921875 Z M 84.730469 45.921875 "/>
<path style=" stroke:none;fill-rule:nonzero;fill:rgb(0%,0%,0%);fill-opacity:1;" d="M 254.265625 49.96875 C 254.265625 50.417969 255.164062 51.464844 256.210938 52.289062 L 258.230469 53.714844 L 255.539062 55.734375 C 254.042969 56.859375 251.277344 58.433594 249.257812 59.183594 C 246.488281 60.230469 245.964844 60.679688 247.011719 61.054688 C 248.882812 61.804688 254.34375 60.828125 257.484375 59.183594 C 260.921875 57.308594 260.921875 57.984375 257.40625 62.027344 L 254.640625 65.324219 L 252.398438 63.601562 C 250.453125 61.953125 250.304688 61.953125 250.902344 63.300781 C 251.199219 64.125 251.574219 65.625 251.648438 66.671875 C 251.722656 67.945312 252.398438 68.769531 253.820312 69.296875 C 256.0625 70.042969 256.285156 69.894531 261.148438 63.601562 L 263.09375 61.054688 L 261.671875 65.175781 C 259.503906 71.617188 259.578125 72.140625 263.691406 72.964844 L 265.933594 73.492188 L 265.484375 69.144531 C 265.1875 66.75 265.109375 64.351562 265.335938 63.828125 C 265.484375 63.300781 267.054688 62.925781 269.300781 62.925781 C 273.1875 62.925781 273.5625 62.554688 271.917969 60.304688 C 270.945312 58.957031 270.644531 58.957031 268.777344 59.929688 C 267.578125 60.53125 266.308594 61.128906 265.933594 61.355469 C 264.8125 61.878906 266.15625 57.457031 267.804688 55.210938 C 269.300781 53.1875 269.300781 53.039062 268.027344 51.617188 C 266.679688 50.117188 266.679688 50.117188 264.289062 52.964844 C 262.042969 55.660156 261.894531 55.660156 261.445312 54.085938 C 261.074219 53.039062 260.324219 52.441406 259.277344 52.441406 C 258.457031 52.441406 256.960938 51.691406 255.988281 50.792969 C 255.015625 49.890625 254.265625 49.519531 254.265625 49.96875 Z M 254.265625 49.96875 "/>
<path style=" stroke:none;fill-rule:nonzero;fill:rgb(0%,0%,0%);fill-opacity:1;" d="M 158.917969 61.953125 C 141.792969 64.199219 125.414062 70.570312 110.679688 80.757812 C 101.332031 87.273438 86.898438 101.734375 80.84375 110.722656 C 75.980469 117.914062 69.175781 131.398438 68.351562 135.292969 L 67.90625 137.542969 L 74.558594 136.117188 C 79.570312 134.996094 84.207031 134.621094 94.226562 134.621094 C 116.289062 134.46875 131.171875 138.289062 156.898438 150.5 C 182.027344 162.488281 193.46875 165.859375 208.648438 165.859375 C 219.191406 165.859375 224.652344 164.734375 232.503906 160.839844 C 255.464844 149.601562 258.902344 119.335938 238.339844 108.925781 C 230.410156 104.878906 220.089844 105.929688 213.882812 111.398438 L 210.742188 114.242188 L 216.277344 114.242188 C 223.753906 114.242188 228.242188 116.789062 231.308594 122.785156 C 234.75 129.75 233.777344 135.96875 228.167969 141.585938 C 223.457031 146.304688 218.746094 147.878906 210.890625 147.429688 C 203.339844 146.980469 198.105469 144.507812 193.019531 138.964844 C 188.382812 133.871094 186.585938 128.925781 186.660156 121.660156 C 186.886719 104.28125 204.609375 91.019531 225.847656 92.445312 C 238.339844 93.191406 248.882812 97.539062 259.726562 106.378906 L 266.382812 111.695312 L 263.09375 106.976562 C 258.082031 99.636719 243.648438 85.625 235.644531 80.308594 C 216.351562 67.347656 195.933594 61.28125 172.527344 61.503906 C 166.246094 61.578125 160.1875 61.804688 158.917969 61.953125 Z M 158.917969 61.953125 "/>
<path style=" stroke:none;fill-rule:nonzero;fill:rgb(0%,0%,0%);fill-opacity:1;" d="M 64.316406 67.199219 C 64.316406 70.34375 63.34375 71.46875 61.472656 70.492188 C 60.277344 69.894531 59.601562 69.96875 58.257812 71.09375 L 56.535156 72.441406 L 58.183594 72.964844 C 59.078125 73.265625 59.828125 73.789062 59.828125 74.089844 C 59.828125 74.464844 58.40625 76.335938 56.6875 78.285156 C 54.59375 80.683594 54.070312 81.582031 55.191406 80.980469 C 56.089844 80.53125 56.835938 79.78125 56.835938 79.410156 C 56.835938 78.433594 59.902344 78.433594 61.324219 79.410156 C 62.296875 80.082031 62.144531 80.382812 60.648438 81.582031 L 58.78125 83.003906 L 63.042969 87.648438 C 65.363281 90.121094 67.304688 92.742188 67.304688 93.34375 C 67.304688 93.941406 67.679688 94.242188 68.054688 94.015625 C 69.921875 92.894531 67.679688 85.625 64.761719 83.230469 C 64.089844 82.628906 63.566406 81.804688 63.566406 81.355469 C 63.566406 80.90625 65.734375 78.136719 68.429688 75.289062 C 71.046875 72.367188 73.214844 69.820312 73.289062 69.445312 C 73.289062 69.144531 72.464844 68.921875 71.417969 68.921875 C 70 68.921875 69.550781 69.296875 69.550781 70.644531 C 69.550781 71.617188 69.027344 73.039062 68.429688 73.863281 C 67.457031 75.214844 67.378906 75.136719 67.304688 72.441406 C 67.304688 70.867188 66.933594 69.667969 66.410156 69.667969 C 65.960938 69.667969 66.257812 68.921875 67.15625 67.945312 C 69.324219 65.625 69.25 65.175781 66.558594 65.175781 C 64.613281 65.175781 64.316406 65.472656 64.316406 67.199219 Z M 65.210938 74.539062 C 66.183594 76.710938 65.585938 77.761719 64.015625 76.488281 C 63.34375 75.960938 62.21875 75.738281 61.25 76.039062 C 59.679688 76.5625 59.679688 76.5625 61.023438 74.613281 C 62.820312 72.214844 64.089844 72.140625 65.210938 74.539062 Z M 65.210938 74.539062 "/>
<path style=" stroke:none;fill-rule:nonzero;fill:rgb(0%,0%,0%);fill-opacity:1;" d="M 279.695312 68.546875 C 281.191406 70.121094 281.339844 70.644531 280.589844 72.292969 C 279.46875 74.6875 278.347656 74.6875 277.449219 72.292969 C 277.078125 71.242188 276.554688 70.417969 276.253906 70.417969 C 275.953125 70.417969 274.382812 71.617188 272.8125 73.117188 C 271.167969 74.613281 268.476562 76.410156 266.832031 77.160156 C 264.585938 78.136719 264.214844 78.585938 265.109375 78.957031 C 267.652344 79.933594 270.570312 79.332031 273.9375 77.160156 L 277.449219 74.914062 L 279.992188 77.761719 C 281.414062 79.257812 283.65625 81.957031 285.003906 83.679688 C 286.425781 85.402344 287.769531 86.824219 288.144531 86.824219 C 288.445312 86.898438 288.667969 85.851562 288.667969 84.652344 C 288.667969 82.78125 288.367188 82.40625 286.875 82.40625 C 285.902344 82.40625 284.628906 81.878906 284.105469 81.207031 C 283.207031 80.082031 283.359375 80.007812 285.902344 80.308594 C 287.398438 80.457031 288.667969 80.308594 288.667969 79.859375 C 288.667969 79.484375 289.714844 80.082031 290.988281 81.355469 L 293.304688 83.527344 L 293.003906 80.90625 C 292.78125 78.660156 292.480469 78.285156 290.6875 78.058594 C 288.292969 77.761719 287.472656 76.410156 288.519531 74.390625 C 288.96875 73.566406 288.96875 72.367188 288.519531 71.167969 L 287.84375 69.296875 L 286.351562 71.167969 L 284.929688 73.039062 L 282.238281 69.820312 C 280.742188 68.097656 279.171875 66.671875 278.722656 66.671875 C 278.273438 66.671875 278.722656 67.496094 279.695312 68.546875 Z M 286.425781 76.410156 C 286.425781 77.234375 282.609375 78.734375 281.863281 78.210938 C 281.414062 77.910156 281.5625 77.234375 282.386719 76.335938 C 283.132812 75.511719 283.433594 74.464844 283.132812 73.640625 C 282.761719 72.667969 283.058594 72.742188 284.480469 74.089844 C 285.601562 75.136719 286.425781 76.113281 286.425781 76.410156 Z M 286.425781 76.410156 "/>
<path style=" stroke:none;fill-rule:nonzero;fill:rgb(0%,0%,0%);fill-opacity:1;" d="M 298.316406 87.574219 C 298.914062 88.699219 298.6875 89.074219 297.117188 89.820312 C 295.996094 90.347656 293.453125 90.945312 291.433594 91.167969 C 288.96875 91.46875 287.921875 91.917969 288.21875 92.519531 C 288.445312 93.117188 287.171875 94.242188 285.226562 95.214844 C 283.433594 96.1875 281.9375 97.238281 281.9375 97.460938 C 281.9375 98.585938 284.105469 99.636719 285.304688 99.109375 C 286.425781 98.734375 286.574219 98.886719 286.199219 100.007812 C 285.902344 100.683594 286.050781 101.808594 286.574219 102.40625 C 287.320312 103.304688 287.097656 103.378906 285.304688 102.929688 C 282.386719 102.183594 283.507812 103.90625 286.875 105.328125 C 290.089844 106.675781 292.707031 106.675781 295.398438 105.253906 C 299.289062 103.230469 297.792969 105.476562 293.753906 107.800781 C 288.292969 110.871094 287.621094 111.472656 288.742188 112.820312 C 290.015625 114.316406 290.539062 114.167969 295.472656 111.097656 C 299.734375 108.476562 299.960938 108.476562 301.007812 109.824219 C 301.90625 111.097656 302.054688 111.171875 302.503906 109.972656 C 302.800781 109.300781 302.800781 108.398438 302.578125 107.949219 C 302.355469 107.574219 303.25 106.601562 304.523438 105.777344 C 306.691406 104.429688 307.140625 104.355469 308.1875 105.328125 C 309.53125 106.527344 310.355469 106.003906 310.355469 103.980469 C 310.355469 103.230469 309.832031 102.632812 309.234375 102.632812 C 307.738281 102.632812 304.371094 97.460938 304.371094 95.066406 C 304.371094 93.792969 303.699219 92.667969 302.652344 91.917969 C 301.679688 91.246094 300.410156 89.746094 299.886719 88.472656 C 299.363281 87.199219 298.613281 86.152344 298.242188 86.152344 C 297.867188 86.152344 297.941406 86.75 298.316406 87.574219 Z M 302.128906 94.464844 C 303.25 96.5625 302.800781 97.539062 299.585938 99.1875 C 296.820312 100.609375 295.097656 100.382812 296.746094 98.734375 C 298.089844 97.386719 297.867188 95.363281 296.371094 94.765625 C 295.097656 94.242188 295.175781 94.167969 296.519531 93.640625 C 299.136719 92.519531 301.308594 92.816406 302.128906 94.464844 Z M 294.652344 94.765625 C 294.652344 95.289062 288.816406 98.886719 287.921875 98.886719 C 286.5 98.886719 287.921875 97.460938 290.761719 95.890625 C 293.605469 94.390625 294.652344 94.089844 294.652344 94.765625 Z M 295.398438 100.683594 C 295.398438 101.808594 290.761719 103.679688 289.265625 103.230469 C 288.367188 102.929688 292.929688 99.785156 294.5 99.710938 C 294.949219 99.636719 295.398438 100.085938 295.398438 100.683594 Z M 304.820312 101.058594 C 304.148438 102.183594 299.136719 104.878906 299.136719 104.203125 C 299.136719 103.832031 300.257812 102.855469 301.605469 102.03125 C 304.222656 100.382812 305.417969 100.007812 304.820312 101.058594 Z M 304.820312 101.058594 "/>
<path style=" stroke:none;fill-rule:nonzero;fill:rgb(0%,0%,0%);fill-opacity:1;" d="M 49.058594 88.773438 C 47.710938 89.746094 47.710938 89.894531 49.28125 91.992188 C 50.179688 93.265625 50.851562 94.464844 50.851562 94.765625 C 50.851562 95.816406 45.46875 94.464844 43.972656 93.117188 C 42.550781 91.84375 42.476562 91.84375 41.429688 93.265625 C 40.160156 94.992188 40.085938 96.636719 41.355469 96.636719 C 41.804688 96.636719 43.074219 97.3125 44.121094 98.136719 C 45.769531 99.410156 45.84375 99.558594 44.644531 100.007812 C 43.972656 100.308594 43.375 101.285156 43.375 102.183594 C 43.375 103.082031 42.851562 104.578125 42.179688 105.476562 C 41.503906 106.453125 41.207031 107.425781 41.429688 107.652344 C 41.65625 107.875 42.253906 107.203125 42.703125 106.078125 C 43.226562 105.027344 43.972656 104.128906 44.496094 104.128906 C 45.769531 104.128906 48.984375 107.726562 51.152344 111.621094 L 53.097656 114.992188 L 53.097656 112.671875 C 53.097656 109.449219 51.75 105.703125 49.433594 102.632812 L 47.5625 100.007812 L 51.226562 102.183594 C 56.535156 105.253906 56.613281 105.328125 55.117188 107.875 C 53.769531 110.199219 54.441406 111.023438 56.089844 109.074219 C 56.535156 108.476562 57.660156 107.875 58.554688 107.726562 C 59.753906 107.574219 60.277344 106.902344 60.425781 105.476562 C 60.648438 103.753906 60.125 103.082031 57.359375 101.359375 C 51.078125 97.460938 50.929688 97.3125 53.472656 97.988281 C 54.742188 98.285156 57.210938 98.511719 59.078125 98.511719 C 62.21875 98.511719 62.371094 98.363281 62.894531 96.113281 C 63.117188 94.765625 63.269531 93.566406 63.117188 93.417969 C 62.894531 93.265625 61.023438 93.566406 58.929688 94.167969 C 52.722656 95.738281 52.5 95.664062 52.199219 91.621094 C 51.976562 87.796875 51.226562 87.125 49.058594 88.773438 Z M 49.058594 88.773438 "/>
<path style=" stroke:none;fill-rule:nonzero;fill:rgb(0%,0%,0%);fill-opacity:1;" d="M 33.054688 111.320312 C 32.082031 111.996094 31.410156 113.269531 31.410156 114.394531 C 31.410156 117.316406 28.417969 125.179688 26.324219 127.726562 L 24.53125 129.898438 L 27.746094 130.949219 C 29.539062 131.546875 34.476562 133.347656 38.664062 134.996094 C 42.925781 136.640625 46.664062 137.765625 47.113281 137.464844 C 48.085938 136.867188 48.085938 134.320312 47.113281 133.722656 C 46.21875 133.121094 50.328125 121.882812 51.675781 121.433594 C 53.097656 120.984375 53.769531 119.863281 53.320312 118.664062 C 53.097656 118.140625 49.207031 116.492188 44.644531 114.917969 C 40.007812 113.417969 35.898438 111.769531 35.449219 111.171875 C 34.773438 110.347656 34.402344 110.347656 33.054688 111.320312 Z M 39.785156 117.316406 C 45.246094 119.113281 47.710938 120.835938 43.898438 120.085938 C 42.851562 119.863281 41.730469 120.238281 41.207031 120.910156 C 40.308594 121.960938 40.457031 122.109375 42.105469 122.109375 C 43.152344 122.109375 44.273438 122.484375 44.496094 122.933594 C 45.320312 124.207031 44.570312 124.355469 42.027344 123.457031 C 40.085938 122.707031 39.785156 122.257812 40.160156 120.761719 C 40.457031 119.414062 40.308594 119.039062 39.5625 119.261719 C 38.960938 119.488281 38.589844 120.238281 38.664062 120.910156 C 38.664062 121.808594 38.363281 122.035156 37.617188 121.808594 C 37.019531 121.585938 36.195312 121.359375 35.746094 121.359375 C 35.296875 121.359375 35.148438 120.460938 35.449219 119.113281 C 35.671875 117.839844 35.597656 116.867188 35.296875 116.867188 C 34.175781 116.867188 33.054688 118.511719 33.429688 119.5625 C 33.652344 120.160156 33.277344 121.960938 32.605469 123.609375 C 31.035156 127.503906 31.109375 128.175781 32.832031 125.929688 C 33.953125 124.429688 34.402344 124.28125 35.820312 125.03125 C 37.019531 125.707031 37.316406 126.378906 37.019531 127.578125 C 36.570312 129.152344 36.570312 129.226562 37.691406 127.800781 C 38.664062 126.605469 39.261719 126.453125 40.90625 127.054688 C 43.300781 127.878906 43.75 128.851562 42.402344 130.648438 C 41.503906 131.847656 41.132812 131.847656 35.898438 129.898438 C 32.832031 128.777344 29.914062 127.578125 29.390625 127.203125 C 28.71875 126.679688 29.015625 125.105469 30.511719 120.910156 C 31.632812 117.839844 32.832031 115.367188 33.277344 115.367188 C 33.652344 115.367188 36.644531 116.265625 39.785156 117.316406 Z M 49.359375 121.585938 C 49.359375 122.785156 46.816406 130.5 45.84375 132.148438 C 45.46875 132.898438 44.871094 133.046875 44.199219 132.597656 C 43.300781 132.074219 43.449219 131.023438 45.167969 126.304688 C 46.441406 122.933594 47.710938 120.609375 48.3125 120.609375 C 48.910156 120.609375 49.359375 121.058594 49.359375 121.585938 Z M 49.359375 121.585938 "/>
<path style=" stroke:none;fill-rule:nonzero;fill:rgb(0%,0%,0%);fill-opacity:1;" d="M 306.992188 113.867188 C 306.167969 115.21875 308.261719 117.015625 310.132812 116.640625 C 311.625 116.339844 312 116.941406 313.722656 122.035156 C 315.816406 128.402344 315.890625 128.851562 314.84375 128.851562 C 314.46875 128.851562 313.945312 127.652344 313.644531 126.230469 C 313.199219 123.53125 311.851562 122.558594 311.851562 124.957031 C 311.851562 125.707031 311.328125 126.980469 310.730469 127.800781 C 309.085938 129.976562 309.308594 132.597656 311.101562 132.597656 C 311.925781 132.597656 312.824219 132.074219 313.046875 131.472656 C 313.644531 129.898438 314.617188 130.050781 315.214844 131.847656 C 315.890625 133.945312 317.609375 133.722656 318.132812 131.398438 C 318.507812 129.898438 318.28125 129 317.160156 127.953125 C 315.140625 126.15625 315.140625 124.207031 317.160156 123.007812 C 318.28125 122.332031 318.507812 121.585938 318.132812 120.386719 C 317.460938 118.0625 317.234375 117.988281 315.589844 119.488281 C 314.167969 120.761719 314.09375 120.761719 313.347656 118.8125 C 312.972656 117.6875 312.597656 116.191406 312.597656 115.441406 C 312.597656 113.496094 307.960938 112.296875 306.992188 113.867188 Z M 306.992188 113.867188 "/>
<path style=" stroke:none;fill-rule:nonzero;fill:rgb(0%,0%,0%);fill-opacity:1;" d="M 305.121094 117.914062 C 307.289062 120.238281 307.515625 120.761719 306.617188 121.359375 C 304.894531 122.484375 304.523438 122.257812 303.25 119.785156 C 302.578125 118.511719 301.832031 117.613281 301.605469 117.839844 C 301.457031 118.0625 301.605469 118.886719 302.054688 119.710938 C 302.503906 120.609375 302.878906 121.433594 302.878906 121.660156 C 302.878906 122.785156 298.464844 121.882812 295.625 120.238281 C 292.035156 118.214844 291.660156 118.589844 294.203125 121.511719 C 296.519531 124.058594 299.960938 125.855469 302.878906 125.855469 C 306.242188 125.855469 305.570312 127.203125 301.753906 128.175781 C 297.042969 129.375 296.59375 130.199219 298.164062 134.46875 C 299.960938 139.339844 301.308594 140.089844 303.773438 137.617188 L 305.71875 135.667969 L 303.699219 135.445312 C 302.355469 135.292969 301.753906 134.769531 301.753906 133.722656 C 301.753906 132.523438 302.355469 132.148438 304.523438 131.996094 C 306.839844 131.773438 307.4375 131.398438 307.8125 129.824219 C 308.1875 128.402344 307.960938 127.578125 306.992188 126.828125 C 305.644531 125.855469 305.792969 125.707031 308.113281 125.554688 C 308.933594 125.480469 309.160156 124.804688 309.007812 123.234375 C 308.785156 121.433594 308.859375 121.210938 309.757812 121.960938 C 311.101562 123.007812 311.851562 122.410156 311.851562 120.238281 C 311.851562 118.886719 311.101562 118.289062 308.710938 117.464844 C 306.914062 116.867188 304.820312 116.042969 304 115.742188 C 302.953125 115.292969 303.25 115.964844 305.121094 117.914062 Z M 305.121094 117.914062 "/>
<path style=" stroke:none;fill-rule:nonzero;fill:rgb(0%,0%,0%);fill-opacity:1;" d="M 27.296875 140.011719 C 26.324219 141.210938 26.25 141.8125 26.921875 143.085938 C 27.894531 144.882812 27.222656 147.878906 25.949219 147.355469 C 22.136719 145.933594 21.761719 146.007812 21.238281 148.03125 C 20.714844 150.203125 21.761719 151.324219 24.53125 151.324219 C 26.546875 151.324219 26.699219 153.347656 25.054688 156.570312 C 24.378906 157.84375 24.003906 158.816406 24.082031 158.890625 C 25.578125 159.417969 34.925781 160.765625 35.375 160.539062 C 36.34375 160.015625 35.898438 157.46875 34.773438 157.019531 C 34.175781 156.792969 33.652344 155.746094 33.652344 154.621094 C 33.652344 152.675781 33.726562 152.675781 37.617188 153.273438 C 44.199219 154.171875 44.496094 154.171875 44.496094 152.074219 C 44.496094 150.351562 44.121094 150.125 40.007812 149.453125 C 35.898438 148.703125 35.523438 148.480469 35.296875 146.605469 C 35.148438 145.183594 35.375 144.582031 36.269531 144.582031 C 36.867188 144.582031 37.617188 144.058594 37.839844 143.460938 C 38.589844 141.660156 36.71875 140.089844 33.878906 140.089844 C 32.457031 140.089844 30.738281 139.789062 29.988281 139.339844 C 28.941406 138.816406 28.269531 138.964844 27.296875 140.011719 Z M 34.175781 145.332031 C 34.550781 147.503906 33.203125 148.554688 30.738281 147.953125 C 29.015625 147.578125 28.417969 147.054688 28.417969 145.78125 C 28.417969 144.808594 28.566406 143.910156 28.792969 143.683594 C 29.613281 142.933594 34.027344 144.285156 34.175781 145.332031 Z M 32.90625 154.023438 C 32.90625 156.195312 32.082031 156.644531 29.242188 156.121094 C 27.519531 155.746094 26.921875 155.222656 26.921875 153.949219 C 26.921875 151.773438 27.222656 151.550781 30.289062 151.925781 C 32.457031 152.148438 32.90625 152.523438 32.90625 154.023438 Z M 32.90625 154.023438 "/>
<path style=" stroke:none;fill-rule:nonzero;fill:rgb(0%,0%,0%);fill-opacity:1;" d="M 318.207031 140.238281 C 316.5625 140.6875 311.925781 141.0625 307.960938 141.136719 C 303.925781 141.136719 300.632812 141.289062 300.632812 141.4375 C 300.632812 142.261719 305.941406 144.582031 307.886719 144.582031 C 310.730469 144.582031 311.476562 145.480469 310.207031 147.503906 C 308.785156 149.753906 310.207031 150.652344 314.246094 150.125 C 316.785156 149.753906 317.835938 149.226562 318.058594 148.253906 C 318.28125 147.429688 318.132812 146.605469 317.757812 146.382812 C 316.339844 145.558594 317.085938 143.835938 318.882812 143.835938 C 320.675781 143.835938 321.574219 145.40625 321.574219 148.851562 C 321.574219 150.726562 319.480469 151.402344 313.046875 151.550781 C 309.683594 151.625 308.335938 151.25 305.195312 149.226562 C 303.101562 147.953125 301.382812 147.054688 301.382812 147.28125 C 301.382812 147.503906 301.980469 148.703125 302.726562 149.976562 C 304.597656 153.199219 308.335938 155.296875 312.300781 155.222656 C 316.710938 155.070312 316.488281 156.34375 312.074219 157.019531 C 302.953125 158.292969 302.503906 158.441406 302.726562 159.941406 C 302.878906 160.765625 303.101562 161.515625 303.25 161.664062 C 303.402344 161.8125 306.242188 161.515625 309.683594 160.988281 C 315.140625 160.242188 315.964844 160.242188 316.710938 161.289062 C 317.386719 162.1875 317.757812 162.335938 318.433594 161.664062 C 319.628906 160.464844 319.554688 159.042969 318.207031 158.515625 C 316.339844 157.84375 316.863281 155.144531 318.882812 154.621094 C 321.421875 154.023438 322.097656 154.621094 322.695312 158.066406 C 323.292969 161.8125 324.265625 162.488281 325.460938 159.941406 C 326.210938 158.292969 326.058594 157.84375 324.714844 156.34375 C 323.367188 154.921875 323.144531 154.023438 323.519531 152 C 323.816406 150.578125 324.339844 149.078125 324.640625 148.628906 C 325.089844 148.105469 324.714844 147.28125 323.816406 146.457031 C 322.84375 145.558594 322.320312 144.132812 322.320312 142.1875 C 322.320312 140.613281 322.097656 139.339844 321.796875 139.414062 C 321.421875 139.488281 319.851562 139.863281 318.207031 140.238281 Z M 315.890625 145.257812 C 316.113281 145.632812 315.816406 146.15625 315.140625 146.382812 C 313.121094 147.128906 311.851562 146.90625 311.851562 145.707031 C 311.851562 144.507812 315.214844 144.132812 315.890625 145.257812 Z M 315.890625 145.257812 "/>
<path style=" stroke:none;fill-rule:nonzero;fill:rgb(0%,0%,0%);fill-opacity:1;" d="M 276.105469 147.578125 C 263.988281 157.09375 246.863281 166.832031 235.121094 170.726562 C 223.679688 174.546875 216.5 175.523438 203.414062 175.074219 C 189.953125 174.625 184.269531 173.5 161.386719 166.984375 C 126.160156 156.945312 117.710938 155.445312 96.097656 155.445312 C 79.945312 155.445312 64.464844 157.167969 62.96875 159.117188 C 61.472656 160.988281 61.472656 187.660156 62.894531 189.15625 C 63.117188 189.308594 66.933594 187.957031 71.492188 186.085938 C 81.8125 181.816406 93.855469 178.144531 104.773438 175.898438 C 112.101562 174.398438 115.617188 174.175781 130.125 174.175781 C 151.066406 174.175781 157.195312 175.148438 187.710938 183.6875 C 211.566406 190.355469 218.59375 191.703125 231.085938 192.226562 C 247.835938 192.976562 259.351562 190.503906 276.105469 182.640625 C 283.808594 178.96875 284.03125 178.820312 284.40625 176.121094 C 285.226562 169.378906 282.085938 144.582031 280.367188 144.582031 C 280.066406 144.582031 278.125 145.933594 276.105469 147.578125 Z M 276.105469 147.578125 "/>
<path style=" stroke:none;fill-rule:nonzero;fill:rgb(0%,0%,0%);fill-opacity:1;" d="M 136.855469 186.609375 C 118.085938 188.332031 99.164062 195.449219 81.441406 207.4375 C 77.175781 210.359375 72.839844 213.355469 71.792969 214.179688 L 69.921875 215.675781 L 74.335938 224.441406 C 81.964844 239.574219 94.453125 254.257812 107.765625 263.621094 C 119.582031 272.011719 136.707031 279.203125 152.933594 282.574219 C 164.824219 285.046875 184.042969 285.046875 195.113281 282.574219 C 230.484375 274.632812 258.828125 252.382812 273.710938 220.769531 C 275.65625 216.574219 277.523438 212.378906 277.824219 211.40625 C 278.125 210.28125 275.28125 212.679688 270.195312 217.847656 C 265.785156 222.34375 259.128906 228.261719 255.390625 230.957031 C 247.460938 236.800781 234.074219 243.917969 224.800781 247.140625 C 216.5 250.0625 202.292969 252.910156 192.871094 253.582031 C 179.035156 254.480469 156.597656 251.335938 144.632812 246.839844 C 138.425781 244.519531 128.628906 239.648438 128.628906 238.972656 C 128.628906 237.851562 135.285156 230.132812 139.621094 226.3125 C 148.222656 218.597656 158.917969 215.078125 170.433594 216.050781 C 173.574219 216.351562 182.699219 217.847656 190.699219 219.496094 C 208.273438 222.941406 215.230469 223.617188 224.054688 222.492188 C 235.71875 221.070312 244.394531 218.148438 254.117188 212.378906 C 261.597656 207.960938 262.042969 207.4375 257.257812 208.710938 C 246.488281 211.480469 232.578125 209.082031 207.378906 199.945312 C 193.839844 195 179.332031 190.65625 170.433594 188.855469 C 164.078125 187.507812 147.324219 185.636719 144.335938 185.859375 C 143.734375 185.9375 140.371094 186.234375 136.855469 186.609375 Z M 136.855469 186.609375 "/>
<path style=" stroke:none;fill-rule:nonzero;fill:rgb(0%,0%,0%);fill-opacity:1;" d="M 30.363281 191.03125 C 28.71875 192.304688 26.625 193.277344 25.652344 193.277344 C 24.605469 193.277344 23.929688 193.726562 23.929688 194.402344 C 23.929688 195.148438 24.679688 195.523438 26.472656 195.523438 C 27.820312 195.523438 30.4375 196.050781 32.15625 196.648438 C 33.953125 197.246094 35.523438 197.621094 35.746094 197.472656 C 36.34375 196.796875 35 195.449219 33.054688 194.699219 L 31.035156 193.875 L 32.753906 192.527344 C 34.324219 191.253906 35.074219 188.78125 33.878906 188.78125 C 33.503906 188.78125 31.933594 189.832031 30.363281 191.03125 Z M 30.363281 191.03125 "/>
<path style=" stroke:none;fill-rule:nonzero;fill:rgb(0%,0%,0%);fill-opacity:1;" d="M 311.925781 189.832031 C 311.402344 190.429688 311.101562 192.226562 311.253906 193.800781 C 311.476562 196.347656 311.703125 196.648438 313.722656 196.875 C 315.738281 197.097656 316.1875 196.722656 317.3125 194.402344 C 318.65625 191.554688 319.851562 191.03125 320.601562 192.976562 C 320.898438 193.726562 320.527344 194.625 319.777344 195.226562 C 319.03125 195.75 318.582031 196.722656 318.730469 197.398438 C 318.957031 198.445312 319.105469 198.445312 320.675781 197.398438 C 322.917969 195.75 323.070312 190.730469 320.75 189.53125 C 318.582031 188.332031 317.160156 189.082031 315.890625 192.226562 C 315.292969 193.652344 314.394531 194.777344 313.945312 194.625 C 312.523438 194.101562 312.449219 192.828125 313.722656 191.554688 C 314.320312 190.878906 314.84375 190.054688 314.84375 189.605469 C 314.84375 188.40625 312.898438 188.632812 311.925781 189.832031 Z M 311.925781 189.832031 "/>
<path style=" stroke:none;fill-rule:nonzero;fill:rgb(0%,0%,0%);fill-opacity:1;" d="M 309.980469 199.421875 C 309.757812 200.394531 309.457031 202.117188 309.382812 203.316406 C 309.234375 205.339844 309.53125 205.5625 312.972656 206.535156 C 317.085938 207.585938 319.777344 207.585938 319.554688 206.386719 C 319.480469 205.9375 318.65625 205.488281 317.683594 205.1875 C 316.339844 204.890625 315.964844 204.289062 315.964844 202.566406 C 315.964844 199.871094 314.542969 199.269531 314.246094 201.890625 C 314.09375 203.242188 313.570312 203.765625 312.75 203.617188 C 311.777344 203.390625 311.550781 202.714844 311.703125 200.542969 C 312 197.546875 310.65625 196.648438 309.980469 199.421875 Z M 309.980469 199.421875 "/>
<path style=" stroke:none;fill-rule:nonzero;fill:rgb(0%,0%,0%);fill-opacity:1;" d="M 30.363281 200.46875 C 27.894531 201.066406 25.726562 201.667969 25.578125 201.890625 C 24.902344 202.566406 27.148438 209.832031 27.96875 209.535156 C 28.417969 209.382812 28.640625 208.410156 28.492188 207.4375 C 27.96875 203.988281 28.042969 203.464844 29.316406 203.164062 C 30.136719 203.015625 30.660156 203.617188 31.035156 205.1875 C 31.785156 208.558594 33.429688 208.183594 33.054688 204.8125 C 32.605469 201.367188 34.402344 201.59375 35.296875 205.113281 C 36.34375 209.007812 37.617188 208.035156 37.019531 203.914062 C 36.496094 200.167969 36.121094 199.269531 35.296875 199.34375 C 35 199.34375 32.753906 199.871094 30.363281 200.46875 Z M 30.363281 200.46875 "/>
<path style=" stroke:none;fill-rule:nonzero;fill:rgb(0%,0%,0%);fill-opacity:1;" d="M 33.578125 210.507812 C 27.671875 212.304688 27.671875 212.304688 28.71875 215.902344 C 29.988281 220.171875 31.785156 220.769531 31.035156 216.726562 L 30.585938 213.730469 L 34.175781 212.753906 C 38.289062 211.632812 39.5625 210.808594 38.515625 209.832031 C 38.066406 209.535156 35.972656 209.757812 33.578125 210.507812 Z M 33.578125 210.507812 "/>
<path style=" stroke:none;fill-rule:nonzero;fill:rgb(0%,0%,0%);fill-opacity:1;" d="M 310.953125 210.28125 C 305.195312 210.730469 305.570312 212.679688 312.300781 217.324219 C 315.816406 219.722656 317.3125 219.722656 315.816406 217.324219 C 314.691406 215.453125 315.367188 212.980469 317.160156 212.53125 C 317.910156 212.304688 318.582031 211.632812 318.582031 210.957031 C 318.582031 209.683594 318.507812 209.683594 310.953125 210.28125 Z M 313.644531 213.878906 C 313.273438 214.703125 312.824219 214.777344 311.777344 214.179688 C 309.832031 213.203125 309.980469 212.753906 312.226562 212.753906 C 313.496094 212.753906 313.945312 213.054688 313.644531 213.878906 Z M 313.644531 213.878906 "/>
<path style=" stroke:none;fill-rule:nonzero;fill:rgb(0%,0%,0%);fill-opacity:1;" d="M 36.269531 219.648438 C 30.8125 221.820312 30.660156 221.96875 32.082031 225.863281 C 33.203125 229.160156 35 230.132812 34.550781 227.289062 C 33.878906 223.242188 33.953125 223.09375 37.914062 221.59375 C 40.53125 220.546875 41.65625 219.796875 41.355469 219.046875 C 40.90625 217.773438 40.980469 217.773438 36.269531 219.648438 Z M 36.269531 219.648438 "/>
<path style=" stroke:none;fill-rule:nonzero;fill:rgb(0%,0%,0%);fill-opacity:1;" d="M 304.746094 220.621094 C 303.699219 221.59375 302.878906 223.09375 302.878906 223.992188 C 302.878906 226.6875 306.167969 229.234375 309.53125 229.234375 C 312.074219 229.234375 312.75 228.9375 313.570312 227.136719 C 314.691406 224.890625 314.246094 221.667969 312.675781 221.144531 C 311.851562 220.84375 311.703125 221.371094 312.074219 223.019531 C 312.597656 225.566406 311.550781 226.988281 309.234375 226.988281 C 307.515625 226.988281 305.121094 224.890625 305.121094 223.390625 C 305.121094 222.867188 305.792969 222.117188 306.617188 221.59375 C 308.1875 220.621094 308.636719 218.746094 307.363281 218.746094 C 306.914062 218.746094 305.71875 219.570312 304.746094 220.621094 Z M 304.746094 220.621094 "/>
<path style=" stroke:none;fill-rule:nonzero;fill:rgb(0%,0%,0%);fill-opacity:1;" d="M 38.664062 228.9375 C 35.597656 230.585938 34.773438 233.355469 36.496094 236.277344 C 37.691406 238.300781 38.289062 238.601562 40.980469 238.523438 C 44.945312 238.449219 47.113281 236.578125 47.113281 233.28125 C 47.113281 231.558594 46.589844 230.433594 45.167969 229.3125 C 42.851562 227.4375 41.503906 227.363281 38.664062 228.9375 Z M 43.972656 230.882812 C 45.394531 232.308594 45.019531 234.253906 43.226562 235.527344 C 40.90625 237.175781 39.113281 237.027344 38.066406 235.078125 C 37.316406 233.65625 37.46875 233.207031 39.1875 231.707031 C 41.429688 229.761719 42.628906 229.535156 43.972656 230.882812 Z M 43.972656 230.882812 "/>
<path style=" stroke:none;fill-rule:nonzero;fill:rgb(0%,0%,0%);fill-opacity:1;" d="M 45.019531 240.699219 C 42.851562 242.871094 41.132812 245.117188 41.132812 245.640625 C 41.132812 246.617188 41.65625 246.617188 47.113281 245.34375 C 48.835938 244.894531 48.835938 245.042969 46.441406 247.140625 C 43.824219 249.460938 43.597656 252.160156 46.140625 251.410156 C 46.890625 251.261719 49.433594 250.511719 51.824219 249.835938 C 54.519531 249.085938 55.9375 248.339844 55.640625 247.890625 C 55.191406 247.066406 51.976562 247.289062 48.984375 248.339844 C 48.085938 248.636719 48.683594 247.8125 50.40625 246.316406 C 54.742188 242.496094 52.949219 240.921875 46.742188 243.167969 C 45.617188 243.542969 45.84375 243.09375 47.636719 241.148438 C 49.132812 239.574219 49.804688 238.226562 49.507812 237.699219 C 49.058594 237.027344 47.710938 238 45.019531 240.699219 Z M 45.019531 240.699219 "/>
<path style=" stroke:none;fill-rule:nonzero;fill:rgb(0%,0%,0%);fill-opacity:1;" d="M 295.398438 239.722656 C 294.574219 241.296875 293.902344 242.871094 293.902344 243.019531 C 293.902344 243.621094 301.605469 247.964844 302.578125 247.964844 C 303.625 247.964844 307.363281 241.894531 306.839844 241.070312 C 306.167969 239.875 305.121094 240.546875 304 242.71875 C 302.652344 245.265625 300.183594 245.941406 300.933594 243.46875 C 301.15625 242.644531 301.605469 241.296875 301.832031 240.472656 C 302.503906 238.300781 300.78125 238.601562 299.734375 240.847656 C 298.839844 242.796875 296.894531 243.394531 296.894531 241.746094 C 296.894531 241.222656 297.417969 240.097656 298.015625 239.273438 C 299.4375 237.402344 299.4375 236.726562 298.015625 236.726562 C 297.417969 236.726562 296.222656 238.074219 295.398438 239.722656 Z M 295.398438 239.722656 "/>
<path style=" stroke:none;fill-rule:nonzero;fill:rgb(0%,0%,0%);fill-opacity:1;" d="M 306.617188 237.851562 C 306.617188 238.449219 307.289062 238.972656 308.039062 238.972656 C 308.859375 238.972656 309.683594 239.425781 309.832031 239.875 C 310.132812 240.546875 310.28125 240.472656 310.28125 239.648438 C 310.355469 238.300781 308.933594 236.726562 307.589844 236.726562 C 307.066406 236.726562 306.617188 237.25 306.617188 237.851562 Z M 306.617188 237.851562 "/>
<path style=" stroke:none;fill-rule:nonzero;fill:rgb(0%,0%,0%);fill-opacity:1;" d="M 290.164062 248.265625 C 288.96875 250.136719 287.921875 251.785156 287.921875 252.007812 C 287.921875 252.984375 290.164062 252.382812 290.761719 251.335938 C 291.285156 250.363281 291.882812 250.511719 294.726562 252.457031 C 298.316406 254.929688 299.886719 255.230469 299.886719 253.65625 C 299.886719 253.058594 298.390625 251.710938 296.519531 250.585938 C 293.605469 248.9375 293.230469 248.414062 293.605469 246.839844 C 294.351562 243.917969 292.707031 244.59375 290.164062 248.265625 Z M 290.164062 248.265625 "/>
<path style=" stroke:none;fill-rule:nonzero;fill:rgb(0%,0%,0%);fill-opacity:1;" d="M 286.425781 254.183594 C 286.425781 254.78125 287.769531 256.28125 289.414062 257.628906 C 294.726562 261.898438 292.480469 264.667969 286.875 260.699219 C 285.078125 259.351562 283.207031 258.527344 282.761719 258.828125 C 281.636719 259.5 282.3125 260.398438 285.828125 263.023438 C 289.492188 265.644531 291.882812 265.792969 293.453125 263.546875 C 295.472656 260.699219 294.949219 258.75 291.359375 255.90625 C 287.996094 253.058594 286.425781 252.535156 286.425781 254.183594 Z M 286.425781 254.183594 "/>
<path style=" stroke:none;fill-rule:nonzero;fill:rgb(0%,0%,0%);fill-opacity:1;" d="M 56.460938 254.929688 C 55.117188 255.980469 55.117188 256.878906 56.535156 261.375 C 56.984375 262.796875 56.835938 263.023438 55.640625 262.796875 C 54.742188 262.648438 54.070312 261.75 53.84375 260.324219 C 53.394531 257.703125 52.050781 257.402344 51.75 259.800781 C 51.375 262.574219 53.546875 265.195312 56.164062 265.195312 C 58.929688 265.195312 59.601562 263.695312 58.480469 260.101562 C 58.03125 258.675781 57.808594 257.179688 58.03125 256.804688 C 58.78125 255.679688 60.574219 257.777344 60.574219 259.726562 C 60.574219 261.972656 62.371094 261.671875 62.667969 259.351562 C 62.820312 258.378906 62.144531 256.953125 61.023438 255.832031 C 58.855469 253.65625 58.40625 253.582031 56.460938 254.929688 Z M 56.460938 254.929688 "/>
<path style=" stroke:none;fill-rule:nonzero;fill:rgb(0%,0%,0%);fill-opacity:1;" d="M 61.324219 264.96875 L 57.285156 268.714844 L 59.753906 271.863281 C 61.546875 274.109375 62.519531 274.785156 63.042969 274.257812 C 63.640625 273.660156 63.34375 272.910156 62.21875 271.710938 C 60.425781 269.765625 60.125 268.566406 61.398438 267.742188 C 61.847656 267.515625 62.96875 268.191406 63.867188 269.316406 C 64.914062 270.589844 65.886719 271.1875 66.484375 270.886719 C 67.082031 270.511719 66.933594 269.765625 65.808594 268.414062 C 64.988281 267.367188 64.316406 266.167969 64.316406 265.867188 C 64.316406 264.59375 66.484375 265.195312 67.304688 266.691406 C 68.054688 268.191406 70.296875 268.789062 70.296875 267.589844 C 70.296875 267.21875 69.175781 265.644531 67.828125 264.070312 L 65.363281 261.222656 Z M 61.324219 264.96875 "/>
<path style=" stroke:none;fill-rule:nonzero;fill:rgb(0%,0%,0%);fill-opacity:1;" d="M 278.273438 264.070312 C 277 265.570312 275.953125 267.21875 275.953125 267.816406 C 275.953125 269.238281 276.703125 269.238281 277.75 267.742188 C 278.570312 266.691406 279.019531 266.917969 281.863281 269.238281 C 285.226562 272.085938 286.050781 272.386719 286.722656 271.261719 C 287.023438 270.886719 285.675781 269.238281 283.808594 267.589844 C 281.863281 265.867188 280.742188 264.371094 281.191406 264.070312 C 282.085938 263.472656 282.160156 261.449219 281.265625 261.449219 C 280.890625 261.449219 279.542969 262.648438 278.273438 264.070312 Z M 278.273438 264.070312 "/>
<path style=" stroke:none;fill-rule:nonzero;fill:rgb(0%,0%,0%);fill-opacity:1;" d="M 273.335938 269.6875 C 272.664062 270.738281 280.667969 278.003906 281.5625 277.105469 C 282.011719 276.65625 280.890625 275.007812 278.570312 272.6875 C 274.757812 268.789062 274.085938 268.414062 273.335938 269.6875 Z M 273.335938 269.6875 "/>
<path style=" stroke:none;fill-rule:nonzero;fill:rgb(0%,0%,0%);fill-opacity:1;" d="M 68.953125 273.660156 C 64.464844 275.90625 63.191406 277.703125 66.410156 277.40625 C 68.203125 277.179688 69.921875 279.054688 69.921875 281.152344 C 69.921875 283.773438 71.417969 283.324219 72.839844 280.402344 C 76.207031 273.433594 76.355469 272.761719 74.933594 272.085938 C 74.035156 271.5625 72.390625 272.011719 68.953125 273.660156 Z M 72.539062 275.457031 C 72.464844 276.804688 71.195312 278.078125 70.746094 277.253906 C 70.445312 276.804688 70.445312 276.058594 70.671875 275.683594 C 71.195312 274.785156 72.539062 274.707031 72.539062 275.457031 Z M 72.539062 275.457031 "/>
<path style=" stroke:none;fill-rule:nonzero;fill:rgb(0%,0%,0%);fill-opacity:1;" d="M 268.625 274.183594 C 265.410156 277.105469 264.8125 279.578125 267.726562 277.78125 C 269 276.957031 269.597656 277.253906 272.515625 280.101562 C 275.429688 282.949219 275.953125 283.25 276.402344 282.125 C 276.777344 281.226562 276.03125 279.953125 274.085938 277.929688 C 271.617188 275.382812 271.394531 274.859375 272.214844 273.808594 C 272.8125 273.136719 272.886719 272.386719 272.515625 271.9375 C 272.140625 271.5625 270.496094 272.535156 268.625 274.183594 Z M 268.625 274.183594 "/>
<path style=" stroke:none;fill-rule:nonzero;fill:rgb(0%,0%,0%);fill-opacity:1;" d="M 79.871094 282.574219 C 76.503906 286.769531 76.128906 287.519531 76.652344 288.492188 C 77.027344 289.015625 77.777344 288.71875 78.898438 287.667969 C 80.542969 286.09375 80.765625 286.09375 82.414062 287.21875 C 85.554688 289.390625 86.601562 287.894531 83.609375 285.421875 C 82.261719 284.296875 82.113281 283.847656 82.785156 283.097656 C 83.535156 282.347656 84.132812 282.5 85.628906 283.921875 C 86.972656 285.195312 87.722656 285.496094 88.320312 284.898438 C 88.84375 284.371094 88.246094 283.398438 86.226562 281.75 C 84.730469 280.476562 83.234375 279.429688 82.9375 279.429688 C 82.636719 279.429688 81.289062 280.851562 79.871094 282.574219 Z M 79.871094 282.574219 "/>
<path style=" stroke:none;fill-rule:nonzero;fill:rgb(0%,0%,0%);fill-opacity:1;" d="M 260.773438 280.777344 C 259.203125 282.5 259.128906 284.972656 260.625 286.171875 C 261.597656 286.996094 262.34375 286.917969 264.738281 286.171875 C 266.382812 285.644531 267.953125 285.421875 268.175781 285.644531 C 269.074219 286.46875 266.832031 288.417969 265.035156 288.417969 C 263.914062 288.417969 263.242188 288.867188 263.242188 289.542969 C 263.242188 291.414062 267.203125 290.890625 269.148438 288.867188 C 270.421875 287.519531 270.792969 286.46875 270.421875 285.195312 C 269.824219 282.722656 268.175781 282.199219 264.960938 283.546875 C 262.042969 284.820312 261.296875 284.597656 261.96875 282.800781 C 262.269531 282.199219 263.316406 281.675781 264.363281 281.675781 C 265.558594 281.675781 266.234375 281.226562 266.234375 280.550781 C 266.234375 278.902344 262.269531 279.128906 260.773438 280.777344 Z M 260.773438 280.777344 "/>
<path style=" stroke:none;fill-rule:nonzero;fill:rgb(0%,0%,0%);fill-opacity:1;" d="M 87.199219 288.492188 C 83.90625 292.914062 83.382812 294.109375 84.433594 294.710938 C 85.179688 295.234375 91.238281 287.816406 91.238281 286.320312 C 91.238281 284.296875 89.816406 285.046875 87.199219 288.492188 Z M 87.199219 288.492188 "/>
<path style=" stroke:none;fill-rule:nonzero;fill:rgb(0%,0%,0%);fill-opacity:1;" d="M 255.464844 285.269531 C 255.238281 285.644531 255.914062 287.144531 256.960938 288.640625 C 258.007812 290.140625 258.605469 291.414062 258.457031 291.414062 C 258.230469 291.414062 256.511719 290.664062 254.640625 289.765625 C 252.097656 288.492188 251.050781 288.34375 250.378906 289.015625 C 249.78125 289.617188 250.230469 290.890625 252.398438 294.035156 C 253.96875 296.285156 255.6875 298.15625 256.285156 298.15625 C 257.707031 298.15625 257.484375 297.40625 255.390625 294.261719 L 253.519531 291.488281 L 257.257812 293.0625 C 263.167969 295.535156 263.914062 294.484375 260.175781 289.167969 C 257.109375 284.746094 256.210938 284.074219 255.464844 285.269531 Z M 255.464844 285.269531 "/>
<path style=" stroke:none;fill-rule:nonzero;fill:rgb(0%,0%,0%);fill-opacity:1;" d="M 92.132812 289.316406 C 90.714844 290.738281 91.085938 292.613281 93.105469 295.011719 C 94.078125 296.207031 94.75 297.40625 94.453125 297.707031 C 93.40625 298.753906 91.984375 298.007812 90.789062 295.757812 C 89.816406 293.8125 89.441406 293.585938 88.917969 294.558594 C 87.945312 296.285156 88.84375 298.007812 91.386719 299.355469 C 96.023438 301.753906 98.640625 298.304688 95.425781 294.035156 C 93.179688 291.113281 93.105469 290.664062 94.527344 290.664062 C 95.125 290.664062 96.246094 291.5625 97.070312 292.6875 C 98.417969 294.558594 98.640625 294.636719 99.164062 293.4375 C 100.285156 290.441406 94.453125 286.996094 92.132812 289.316406 Z M 92.132812 289.316406 "/>
<path style=" stroke:none;fill-rule:nonzero;fill:rgb(0%,0%,0%);fill-opacity:1;" d="M 246.414062 291.414062 C 245.816406 292.386719 250.453125 300.480469 251.875 301.003906 C 253.519531 301.527344 252.847656 298.90625 250.152344 294.785156 C 247.386719 290.441406 247.164062 290.214844 246.414062 291.414062 Z M 246.414062 291.414062 "/>
<path style=" stroke:none;fill-rule:nonzero;fill:rgb(0%,0%,0%);fill-opacity:1;" d="M 100.734375 295.609375 C 96.996094 301.675781 96.398438 303.398438 98.191406 303.398438 C 98.789062 303.398438 99.613281 302.578125 100.0625 301.527344 C 101.035156 299.429688 101.632812 299.28125 103.5 300.628906 C 104.625 301.453125 104.699219 301.902344 104.023438 303.25 C 102.976562 305.273438 102.976562 306.398438 104.175781 306.398438 C 104.921875 306.398438 109.933594 298.382812 109.933594 297.109375 C 109.933594 295.984375 107.691406 296.808594 106.941406 298.15625 C 106.269531 299.429688 105.894531 299.503906 104.472656 298.832031 C 102.15625 297.632812 102.230469 297.707031 103.203125 295.910156 C 103.800781 294.785156 103.875 294.035156 103.351562 293.511719 C 102.828125 292.988281 102.007812 293.660156 100.734375 295.609375 Z M 100.734375 295.609375 "/>
<path style=" stroke:none;fill-rule:nonzero;fill:rgb(0%,0%,0%);fill-opacity:1;" d="M 238.9375 295.910156 C 238.710938 296.285156 238.863281 297.257812 239.308594 298.082031 C 239.910156 299.28125 239.757812 299.804688 238.414062 300.777344 C 236.84375 301.828125 236.617188 301.828125 235.796875 300.703125 C 235.273438 300.027344 234.75 299.054688 234.597656 298.605469 C 234.375 298.007812 234 298.007812 233.328125 298.605469 C 232.65625 299.28125 233.027344 300.554688 234.75 304.074219 C 236.019531 306.546875 237.367188 308.644531 237.664062 308.644531 C 239.011719 308.644531 239.234375 307.59375 238.1875 305.648438 C 237.214844 303.699219 237.214844 303.550781 239.160156 302.726562 C 240.28125 302.203125 241.253906 302.050781 241.40625 302.5 C 241.929688 304.222656 243.648438 305.796875 244.394531 305.347656 C 244.992188 304.972656 244.46875 303.324219 242.898438 300.027344 C 240.507812 295.234375 239.832031 294.484375 238.9375 295.910156 Z M 238.9375 295.910156 "/>
<path style=" stroke:none;fill-rule:nonzero;fill:rgb(0%,0%,0%);fill-opacity:1;" d="M 111.652344 299.128906 C 110.753906 300.554688 107.691406 307.222656 107.691406 307.820312 C 107.691406 308.867188 114.644531 311.714844 115.390625 310.964844 C 115.914062 310.441406 115.242188 309.769531 113.375 308.945312 C 110.90625 307.746094 110.082031 306.472656 111.128906 305.496094 C 111.355469 305.199219 112.699219 305.496094 114.121094 306.097656 C 116.363281 307.070312 116.664062 307.070312 116.664062 306.023438 C 116.664062 305.347656 115.839844 304.523438 114.792969 304.148438 C 113.746094 303.773438 112.925781 302.949219 112.925781 302.277344 C 112.925781 300.929688 113.523438 300.929688 115.914062 302.277344 C 118.382812 303.699219 119.058594 303.625 118.757812 302.203125 C 118.457031 300.554688 112.402344 297.929688 111.652344 299.128906 Z M 111.652344 299.128906 "/>
<path style=" stroke:none;fill-rule:nonzero;fill:rgb(0%,0%,0%);fill-opacity:1;" d="M 224.429688 303.101562 C 223.53125 304.222656 222.859375 305.347656 222.859375 305.648438 C 222.859375 307.371094 224.726562 311.042969 225.847656 311.640625 C 229.214844 313.4375 233.328125 311.714844 233.328125 308.570312 C 233.328125 306.695312 231.832031 306.695312 231.308594 308.644531 C 230.859375 310.441406 227.941406 310.667969 226.671875 309.09375 C 226.148438 308.496094 225.847656 307.070312 226 305.871094 C 226.148438 304.148438 226.597656 303.773438 228.464844 303.699219 C 231.90625 303.550781 232.054688 303.476562 231.085938 302.277344 C 229.589844 300.480469 226.148438 300.929688 224.429688 303.101562 Z M 224.429688 303.101562 "/>
<path style=" stroke:none;fill-rule:nonzero;fill:rgb(0%,0%,0%);fill-opacity:1;" d="M 120.703125 303.851562 C 120.402344 304.671875 119.582031 306.921875 118.757812 308.867188 C 117.113281 313.214844 117.113281 313.140625 118.535156 313.140625 C 119.207031 313.140625 120.027344 312.316406 120.402344 311.265625 C 121.074219 309.617188 121.375 309.46875 122.722656 310.140625 C 123.84375 310.816406 124.21875 311.566406 123.917969 312.839844 C 123.769531 313.886719 123.917969 314.863281 124.292969 315.160156 C 125.265625 315.6875 126.386719 313.964844 126.386719 311.941406 C 126.386719 311.042969 126.910156 309.917969 127.507812 309.394531 C 130.050781 307.296875 128.03125 304.148438 123.246094 303.027344 C 121.597656 302.578125 121.074219 302.800781 120.703125 303.851562 Z M 125.265625 305.871094 C 126.011719 306.472656 126.386719 307.296875 126.085938 307.746094 C 124.964844 309.617188 121.375 308.042969 122.125 306.097656 C 122.722656 304.597656 123.46875 304.597656 125.265625 305.871094 Z M 125.265625 305.871094 "/>
<path style=" stroke:none;fill-rule:nonzero;fill:rgb(0%,0%,0%);fill-opacity:1;" d="M 214.109375 306.023438 L 211.714844 306.996094 L 213.359375 311.941406 C 214.257812 314.863281 215.378906 316.882812 215.976562 316.882812 C 216.726562 316.882812 216.875 316.285156 216.5 314.710938 C 215.828125 311.566406 218.144531 310.816406 220.316406 313.589844 C 222.558594 316.359375 223.980469 315.3125 222.335938 312.164062 C 221.660156 310.816406 221.136719 309.019531 221.289062 308.121094 C 221.363281 307.144531 220.914062 306.171875 219.941406 305.722656 C 218.070312 304.671875 217.023438 304.75 214.109375 306.023438 Z M 218.746094 308.570312 C 218.746094 310.21875 215.605469 311.042969 215.003906 309.617188 C 214.558594 308.269531 215.902344 307.070312 217.621094 307.371094 C 218.222656 307.445312 218.746094 307.96875 218.746094 308.570312 Z M 218.746094 308.570312 "/>
<path style=" stroke:none;fill-rule:nonzero;fill:rgb(0%,0%,0%);fill-opacity:1;" d="M 129.902344 310.890625 C 128.40625 316.285156 128.332031 316.882812 129.601562 316.882812 C 130.199219 316.882812 131.171875 315.011719 131.84375 312.390625 C 133.339844 306.996094 133.414062 306.398438 132.144531 306.398438 C 131.546875 306.398438 130.574219 308.269531 129.902344 310.890625 Z M 129.902344 310.890625 "/>
<path style=" stroke:none;fill-rule:nonzero;fill:rgb(0%,0%,0%);fill-opacity:1;" d="M 135.882812 307.671875 C 135.660156 308.042969 135.136719 309.769531 134.613281 311.640625 C 134.164062 313.511719 133.640625 315.609375 133.414062 316.285156 C 132.96875 317.707031 134.3125 318.457031 138.949219 319.507812 C 140.820312 319.882812 141.34375 319.730469 141.34375 318.90625 C 141.34375 318.234375 140.296875 317.632812 138.652344 317.335938 C 136.707031 316.960938 136.109375 316.433594 136.257812 315.535156 C 136.480469 314.5625 137.15625 314.335938 139.324219 314.488281 C 142.6875 314.789062 143.0625 313.4375 139.847656 312.613281 C 136.78125 311.789062 137.003906 310.515625 140.222656 310.515625 C 143.8125 310.515625 143.585938 309.320312 139.699219 308.121094 C 135.882812 306.996094 136.257812 306.996094 135.882812 307.671875 Z M 135.882812 307.671875 "/>
<path style=" stroke:none;fill-rule:nonzero;fill:rgb(0%,0%,0%);fill-opacity:1;" d="M 205.058594 308.570312 C 204.238281 309.09375 202.441406 319.882812 203.039062 320.480469 C 203.1875 320.707031 204.160156 319.882812 205.132812 318.832031 C 207.078125 316.734375 208.574219 316.359375 209.921875 317.707031 C 210.367188 318.160156 211.265625 318.382812 211.9375 318.234375 C 212.835938 318.082031 212.460938 317.035156 210.144531 313.363281 C 206.855469 308.195312 206.332031 307.746094 205.058594 308.570312 Z M 207.902344 314.789062 C 207.902344 315.085938 207.378906 315.386719 206.777344 315.386719 C 206.03125 315.386719 205.65625 314.636719 205.65625 313.289062 C 205.730469 311.339844 205.730469 311.339844 206.777344 312.691406 C 207.378906 313.511719 207.902344 314.414062 207.902344 314.789062 Z M 207.902344 314.789062 "/>
<path style=" stroke:none;fill-rule:nonzero;fill:rgb(0%,0%,0%);fill-opacity:1;" d="M 145.082031 311.566406 C 144.035156 313.589844 144.78125 314.9375 147.699219 316.359375 C 150.464844 317.707031 151.066406 318.90625 149.121094 319.65625 C 148.523438 319.882812 147.25 319.355469 146.277344 318.457031 C 145.230469 317.484375 144.335938 317.109375 144.035156 317.484375 C 143.285156 318.757812 144.410156 320.628906 146.203125 321.078125 C 152.1875 322.578125 154.953125 317.632812 149.644531 314.9375 C 148.671875 314.414062 147.550781 313.664062 147.101562 313.214844 C 145.753906 311.867188 148.671875 311.265625 150.242188 312.691406 C 152.710938 314.9375 154.503906 313.738281 152.113281 311.339844 C 150.464844 309.617188 146.054688 309.769531 145.082031 311.566406 Z M 145.082031 311.566406 "/>
<path style=" stroke:none;fill-rule:nonzero;fill:rgb(0%,0%,0%);fill-opacity:1;" d="M 193.394531 310.667969 C 191.296875 311.042969 191.296875 311.042969 191.820312 315.238281 C 192.570312 322.128906 192.644531 322.203125 195.785156 321.679688 C 200.046875 321.003906 201.171875 320.554688 201.171875 319.804688 C 201.171875 319.355469 199.75 319.132812 198.03125 319.28125 C 195.5625 319.433594 194.738281 319.207031 194.589844 318.308594 C 194.441406 317.410156 195.113281 316.882812 196.980469 316.585938 C 200.570312 315.910156 200.421875 314.636719 196.683594 314.636719 C 195.039062 314.636719 193.691406 314.261719 193.691406 313.886719 C 193.691406 313.0625 194.214844 312.839844 197.65625 312.089844 C 198.777344 311.789062 199.523438 311.265625 199.300781 310.890625 C 198.851562 310.140625 197.355469 310.066406 193.394531 310.667969 Z M 193.394531 310.667969 "/>
<path style=" stroke:none;fill-rule:nonzero;fill:rgb(0%,0%,0%);fill-opacity:1;" d="M 159.738281 314.414062 C 158.917969 319.433594 159.214844 322.878906 160.339844 322.878906 C 161.011719 322.878906 161.535156 321.980469 161.683594 320.78125 C 161.984375 317.933594 164.824219 317.933594 165.125 320.78125 C 165.421875 323.027344 167.367188 324.226562 167.964844 322.503906 C 168.265625 321.902344 168.191406 320.554688 167.964844 319.507812 C 167.667969 318.457031 167.816406 316.960938 168.265625 316.136719 C 169.460938 313.964844 166.84375 311.640625 163.105469 311.640625 C 160.339844 311.640625 160.1875 311.789062 159.738281 314.414062 Z M 165.871094 315.535156 C 166.097656 316.511719 165.648438 316.882812 164.226562 316.882812 C 162.730469 316.882812 162.28125 316.511719 162.28125 315.3125 C 162.28125 314.1875 162.65625 313.8125 163.925781 314.039062 C 164.898438 314.1875 165.722656 314.863281 165.871094 315.535156 Z M 165.871094 315.535156 "/>
<path style=" stroke:none;fill-rule:nonzero;fill:rgb(0%,0%,0%);fill-opacity:1;" d="M 181.875 312.539062 C 180.753906 313.664062 180.679688 316.660156 181.875 317.335938 C 182.324219 317.632812 183.746094 318.082031 184.941406 318.308594 C 186.214844 318.609375 187.335938 319.132812 187.484375 319.65625 C 187.859375 320.78125 185.390625 321.605469 184.417969 320.628906 C 183.519531 319.730469 180.976562 319.582031 180.976562 320.480469 C 180.976562 322.726562 187.1875 323.851562 189.054688 321.980469 C 191.375 319.65625 189.28125 316.136719 185.539062 316.136719 C 184.71875 316.136719 183.820312 315.761719 183.519531 315.3125 C 182.699219 313.964844 184.792969 313.214844 186.738281 314.113281 C 188.832031 315.011719 189.804688 314.335938 188.457031 312.765625 C 187.335938 311.417969 183.148438 311.265625 181.875 312.539062 Z M 181.875 312.539062 "/>
<path style=" stroke:none;fill-rule:nonzero;fill:rgb(0%,0%,0%);fill-opacity:1;" d="M 170.882812 317.035156 C 171.554688 323.851562 171.480469 323.777344 175.519531 323.476562 C 180.007812 323.175781 180.902344 321.378906 176.566406 321.378906 C 174.023438 321.378906 173.5 321.15625 173.5 319.882812 C 173.5 318.683594 174.023438 318.382812 176.191406 318.382812 C 179.558594 318.382812 179.332031 316.585938 175.894531 316.285156 C 172.453125 315.910156 172.675781 313.886719 176.117188 313.886719 C 177.539062 313.886719 178.734375 313.511719 178.734375 313.140625 C 178.734375 312.691406 176.867188 312.390625 174.621094 312.390625 L 170.433594 312.390625 Z M 170.882812 317.035156 "/>
</g>
</svg>
